<svg width="25" height="25" viewBox="0 0 25 25" fill="none" xmlns="http://www.w3.org/2000/svg">
<g clip-path="url(#clip0_621_577)">
<path d="M12.6583 7.18333C11.6708 7.18333 10.1427 6.06042 8.53333 6.1C6.40833 6.12812 4.46041 7.33229 3.36562 9.23958C1.16041 13.0677 2.79687 18.7219 4.94791 21.8333C6.00312 23.3479 7.24791 25.0521 8.89791 24.999C10.4812 24.9312 11.075 23.9708 12.9969 23.9708C14.9042 23.9708 15.4448 24.999 17.1219 24.9583C18.8271 24.9312 19.9094 23.4167 20.951 21.8875C22.1552 20.1292 22.6552 18.424 22.6823 18.3302C22.6417 18.3167 19.3677 17.0583 19.3281 13.2708C19.301 10.1042 21.9115 8.58958 22.0333 8.52187C20.5448 6.34479 18.2594 6.10104 17.4604 6.04687C15.3771 5.88437 13.6323 7.18229 12.6583 7.18229V7.18333ZM16.1771 3.98958C17.0552 2.93542 17.6354 1.46146 17.474 0C16.2167 0.0541667 14.701 0.838542 13.7948 1.89375C12.9823 2.82708 12.2802 4.32917 12.4687 5.7625C13.8625 5.87083 15.2969 5.04583 16.176 3.99062" fill="white"/>
</g>
<defs>
<clipPath id="clip0_621_577">
<rect width="25" height="25" fill="white"/>
</clipPath>
</defs>
</svg>
