<svg width="370" height="59" viewBox="0 0 370 59" fill="none" xmlns="http://www.w3.org/2000/svg">
<rect width="1.45023" height="25.2591" transform="matrix(-1 0 0 1 6.1062 13.5918)" fill="black"/>
<path d="M9.58573 0.780423C9.58573 0.780423 8.48573 9.98942 8.0143 11.3942C7.54287 12.7989 6.9143 13.4114 5.44153 13.4114C4.17015 13.4114 3.14287 12.6429 2.5143 11.3942C1.88573 10.1455 0.9336 4.98806 0.54702 0.72169C0.521498 0.440018 0.486594 0 0.486594 0C0.486594 0 0.305313 0.421044 0.305315 0.72169C0.30532 1.57221 0.305302 9.68267 1.33255 11.8477C2.22019 13.7186 4.53515 14.6142 5.44153 14.6744C6.34791 14.7345 8.48687 13.7441 9.27144 11.8477C10.1174 9.80295 10.0894 1.18994 9.90001 0.624339C9.71059 0.0587336 9.58572 0 9.58572 0L9.58573 0.780423Z" fill="black"/>
<path d="M9.00372 38.851C6.09481 38.851 5.30926 38.851 1.63172 38.851C-0.485937 38.8509 -0.601112 41.9783 1.63172 41.9783C3.86455 41.9783 2.89221 42.6036 5.36969 42.6036C7.66589 42.6036 6.34201 41.9783 9.00372 41.9783C11.6654 41.9783 11.6654 38.851 9.00372 38.851Z" fill="black"/>
<path d="M6.81055 42.3391H3.90948C3.90948 42.3391 2.88202 45.2433 2.21719 49.3329C1.62094 53.0006 3.90948 58.6974 3.90948 58.6974H6.81055C6.81055 58.6974 8.6129 53.0322 8.38197 49.3329C8.16738 45.8953 6.81055 42.3391 6.81055 42.3391Z" fill="black"/>
<path d="M7.2543 57.0736H3.32659C3.32659 57.0736 2.84318 57.1337 2.84318 57.7953C2.84318 58.5794 3.32659 58.6373 3.32659 58.6373C3.32659 58.6373 4.44968 58.9757 5.07895 58.9981C5.97696 59.0301 7.2543 58.6373 7.2543 58.6373C7.2543 58.6373 7.8341 58.3967 7.79814 57.7953C7.77296 57.3743 7.2543 57.0736 7.2543 57.0736Z" fill="black"/>
<path d="M29.7101 21.6H33.2301V40.8H39.0221V44H29.7101V21.6ZM51.1131 44.32C49.3851 44.32 48.0625 43.8293 47.1451 42.848C46.2278 41.8667 45.7691 40.48 45.7691 38.688V26.912C45.7691 25.12 46.2278 23.7333 47.1451 22.752C48.0625 21.7707 49.3851 21.28 51.1131 21.28C52.8411 21.28 54.1638 21.7707 55.0811 22.752C55.9985 23.7333 56.4571 25.12 56.4571 26.912V38.688C56.4571 40.48 55.9985 41.8667 55.0811 42.848C54.1638 43.8293 52.8411 44.32 51.1131 44.32ZM51.1131 41.12C52.3291 41.12 52.9371 40.384 52.9371 38.912V26.688C52.9371 25.216 52.3291 24.48 51.1131 24.48C49.8971 24.48 49.2891 25.216 49.2891 26.688V38.912C49.2891 40.384 49.8971 41.12 51.1131 41.12ZM69.2376 44.32C67.5523 44.32 66.2616 43.84 65.3656 42.88C64.491 41.92 64.0536 40.5653 64.0536 38.816V26.784C64.0536 25.0347 64.491 23.68 65.3656 22.72C66.2616 21.76 67.5523 21.28 69.2376 21.28C70.923 21.28 72.203 21.76 73.0776 22.72C73.9736 23.68 74.4216 25.0347 74.4216 26.784V29.152H71.0936V26.56C71.0936 25.1733 70.507 24.48 69.3336 24.48C68.1603 24.48 67.5736 25.1733 67.5736 26.56V39.072C67.5736 40.4373 68.1603 41.12 69.3336 41.12C70.507 41.12 71.0936 40.4373 71.0936 39.072V35.648H74.4216V38.816C74.4216 40.5653 73.9736 41.92 73.0776 42.88C72.203 43.84 70.923 44.32 69.2376 44.32ZM87.1181 44.32C85.3901 44.32 84.0675 43.8293 83.1501 42.848C82.2328 41.8667 81.7741 40.48 81.7741 38.688V26.912C81.7741 25.12 82.2328 23.7333 83.1501 22.752C84.0675 21.7707 85.3901 21.28 87.1181 21.28C88.8461 21.28 90.1688 21.7707 91.0861 22.752C92.0035 23.7333 92.4621 25.12 92.4621 26.912V38.688C92.4621 40.48 92.0035 41.8667 91.0861 42.848C90.1688 43.8293 88.8461 44.32 87.1181 44.32ZM87.1181 41.12C88.3341 41.12 88.9421 40.384 88.9421 38.912V26.688C88.9421 25.216 88.3341 24.48 87.1181 24.48C85.9021 24.48 85.2941 25.216 85.2941 26.688V38.912C85.2941 40.384 85.9021 41.12 87.1181 41.12ZM104.859 44.32C103.152 44.32 101.861 43.84 100.987 42.88C100.112 41.8987 99.6746 40.5013 99.6746 38.688V37.408H103.003V38.944C103.003 40.3947 103.611 41.12 104.827 41.12C105.424 41.12 105.872 40.9493 106.171 40.608C106.491 40.2453 106.651 39.6693 106.651 38.88C106.651 37.9413 106.437 37.12 106.011 36.416C105.584 35.6907 104.795 34.8267 103.643 33.824C102.192 32.544 101.179 31.392 100.603 30.368C100.027 29.3227 99.7386 28.1493 99.7386 26.848C99.7386 25.0773 100.187 23.712 101.083 22.752C101.979 21.7707 103.28 21.28 104.987 21.28C106.672 21.28 107.941 21.7707 108.795 22.752C109.669 23.712 110.107 25.0987 110.107 26.912V27.84H106.779V26.688C106.779 25.92 106.629 25.3653 106.331 25.024C106.032 24.6613 105.595 24.48 105.019 24.48C103.845 24.48 103.259 25.1947 103.259 26.624C103.259 27.4347 103.472 28.192 103.899 28.896C104.347 29.6 105.147 30.4533 106.299 31.456C107.771 32.736 108.784 33.8987 109.339 34.944C109.893 35.9893 110.171 37.216 110.171 38.624C110.171 40.4587 109.712 41.8667 108.795 42.848C107.899 43.8293 106.587 44.32 104.859 44.32ZM131.298 32.544L127.426 21.6H131.138L133.506 28.832H133.57L136.002 21.6H139.33L135.458 32.544L139.522 44H135.81L133.25 36.192H133.186L130.562 44H127.234L131.298 32.544ZM157.199 21.6H160.719V40.8H166.511V44H157.199V21.6ZM176.484 21.6H181.252L184.9 44H181.38L180.74 39.552V39.616H176.74L176.1 44H172.836L176.484 21.6ZM180.324 36.576L178.756 25.504H178.692L177.156 36.576H180.324ZM196.53 44.32C194.823 44.32 193.533 43.84 192.658 42.88C191.783 41.8987 191.346 40.5013 191.346 38.688V37.408H194.674V38.944C194.674 40.3947 195.282 41.12 196.498 41.12C197.095 41.12 197.543 40.9493 197.842 40.608C198.162 40.2453 198.322 39.6693 198.322 38.88C198.322 37.9413 198.109 37.12 197.682 36.416C197.255 35.6907 196.466 34.8267 195.314 33.824C193.863 32.544 192.85 31.392 192.274 30.368C191.698 29.3227 191.41 28.1493 191.41 26.848C191.41 25.0773 191.858 23.712 192.754 22.752C193.65 21.7707 194.951 21.28 196.658 21.28C198.343 21.28 199.613 21.7707 200.466 22.752C201.341 23.712 201.778 25.0987 201.778 26.912V27.84H198.45V26.688C198.45 25.92 198.301 25.3653 198.002 25.024C197.703 24.6613 197.266 24.48 196.69 24.48C195.517 24.48 194.93 25.1947 194.93 26.624C194.93 27.4347 195.143 28.192 195.57 28.896C196.018 29.6 196.818 30.4533 197.97 31.456C199.442 32.736 200.455 33.8987 201.01 34.944C201.565 35.9893 201.842 37.216 201.842 38.624C201.842 40.4587 201.383 41.8667 200.466 42.848C199.57 43.8293 198.258 44.32 196.53 44.32ZM222.617 24.8H218.937V21.6H229.817V24.8H226.137V44H222.617V24.8ZM238.213 21.6H242.981L246.629 44H243.109L242.469 39.552V39.616H238.469L237.829 44H234.565L238.213 21.6ZM242.053 36.576L240.485 25.504H240.421L238.885 36.576H242.053ZM253.776 21.6H259.088C260.902 21.6 262.224 22.0267 263.056 22.88C263.888 23.712 264.304 25.0027 264.304 26.752V27.648C264.304 28.8 264.112 29.7387 263.728 30.464C263.366 31.1893 262.8 31.712 262.032 32.032V32.096C263.782 32.6933 264.656 34.2507 264.656 36.768V38.688C264.656 40.416 264.198 41.7387 263.28 42.656C262.384 43.552 261.062 44 259.312 44H253.776V21.6ZM258.672 30.72C259.376 30.72 259.899 30.5387 260.24 30.176C260.603 29.8133 260.784 29.2053 260.784 28.352V27.104C260.784 26.2933 260.635 25.7067 260.336 25.344C260.059 24.9813 259.611 24.8 258.992 24.8H257.296V30.72H258.672ZM259.312 40.8C259.931 40.8 260.39 40.64 260.688 40.32C260.987 39.9787 261.136 39.4027 261.136 38.592V36.64C261.136 35.616 260.955 34.912 260.592 34.528C260.251 34.1227 259.675 33.92 258.864 33.92H257.296V40.8H259.312ZM272.154 21.6H275.674V40.8H281.466V44H272.154V21.6ZM288.594 21.6H292.114V44H288.594V21.6ZM302.942 24.8H299.262V21.6H310.142V24.8H306.462V44H302.942V24.8ZM318.538 21.6H323.306L326.954 44H323.434L322.794 39.552V39.616H318.794L318.154 44H314.89L318.538 21.6ZM322.378 36.576L320.81 25.504H320.746L319.21 36.576H322.378ZM338.584 44.32C336.877 44.32 335.586 43.84 334.712 42.88C333.837 41.8987 333.4 40.5013 333.4 38.688V37.408H336.728V38.944C336.728 40.3947 337.336 41.12 338.552 41.12C339.149 41.12 339.597 40.9493 339.896 40.608C340.216 40.2453 340.376 39.6693 340.376 38.88C340.376 37.9413 340.162 37.12 339.736 36.416C339.309 35.6907 338.52 34.8267 337.368 33.824C335.917 32.544 334.904 31.392 334.328 30.368C333.752 29.3227 333.464 28.1493 333.464 26.848C333.464 25.0773 333.912 23.712 334.808 22.752C335.704 21.7707 337.005 21.28 338.712 21.28C340.397 21.28 341.666 21.7707 342.52 22.752C343.394 23.712 343.832 25.0987 343.832 26.912V27.84H340.504V26.688C340.504 25.92 340.354 25.3653 340.056 25.024C339.757 24.6613 339.32 24.48 338.744 24.48C337.57 24.48 336.984 25.1947 336.984 26.624C336.984 27.4347 337.197 28.192 337.624 28.896C338.072 29.6 338.872 30.4533 340.024 31.456C341.496 32.736 342.509 33.8987 343.064 34.944C343.618 35.9893 343.896 37.216 343.896 38.624C343.896 40.4587 343.437 41.8667 342.52 42.848C341.624 43.8293 340.312 44.32 338.584 44.32Z" fill="#263238"/>
<path d="M362 0C362 0 366.129 5.77983 367.574 11.388C369.019 16.9961 370 33.8206 370 33.8206L362 34.2784V0Z" fill="black"/>
<path d="M362 33.9922L367.265 33.9922C367.265 33.9922 365.2 33.7633 364.581 36.7391C363.961 39.7148 365.761 42.8608 366.026 47.4976C366.259 51.5791 366.026 59 366.026 59H362V33.9922Z" fill="black"/>
</svg>
