<svg width="286" height="105" viewBox="0 0 286 105" fill="none" xmlns="http://www.w3.org/2000/svg">
<rect x="28.3981" y="30.7695" width="2.29681" height="34.4169" fill="black"/>
<path d="M22.8874 13.3134C22.8874 13.3134 24.6295 25.8611 25.3761 27.7752C26.1228 29.6892 27.1183 30.5237 29.4508 30.5237C31.4643 30.5237 33.0913 29.4766 34.0868 27.7752C35.0823 26.0738 36.5902 19.0465 37.2025 13.2333C37.2429 12.8495 37.2982 12.25 37.2982 12.25C37.2982 12.25 37.5853 12.8237 37.5853 13.2333C37.5853 14.3922 37.5853 25.4432 35.9584 28.3932C34.5526 30.9423 30.8862 32.1626 29.4508 32.2446C28.0153 32.3265 24.6277 30.9771 23.3851 28.3932C22.0453 25.607 22.0896 13.8714 22.3896 13.1007C22.6896 12.33 22.8874 12.25 22.8874 12.25L22.8874 13.3134Z" fill="black"/>
<path d="M23.8091 65.1865C28.4161 65.1865 29.6602 65.1865 35.4846 65.1865C38.8384 65.1865 39.0208 69.4477 35.4846 69.4477C31.9483 69.4477 33.4883 70.2997 29.5645 70.2997C25.9279 70.2997 28.0246 69.4477 23.8091 69.4477C19.5936 69.4477 19.5936 65.1865 23.8091 65.1865Z" fill="black"/>
<path d="M27.2825 69.9393H31.8771C31.8771 69.9393 33.5044 73.8964 34.5573 79.4687C35.5016 84.4662 31.8771 92.2284 31.8771 92.2284H27.2825C27.2825 92.2284 24.4281 84.5093 24.7938 79.4687C25.1337 74.7848 27.2825 69.9393 27.2825 69.9393Z" fill="black"/>
<path d="M26.5798 90.0159H32.8003C32.8003 90.0159 33.5659 90.0978 33.5659 90.9992C33.5659 92.0676 32.8003 92.1464 32.8003 92.1464C32.8003 92.1464 31.0216 92.6076 30.025 92.6381C28.6028 92.6817 26.5798 92.1464 26.5798 92.1464C26.5798 92.1464 25.6615 91.8187 25.7185 90.9992C25.7583 90.4256 26.5798 90.0159 26.5798 90.0159Z" fill="black"/>
<path d="M249.916 10.6117C249.916 10.6117 257.409 18.8085 260.031 26.7617C262.654 34.715 264.434 58.5749 264.434 58.5749L249.916 59.2242V10.6117Z" fill="black"/>
<path d="M249.916 58.8184L259.469 58.8184C259.469 58.8184 255.723 58.4938 254.599 62.7139C253.475 66.934 256.741 71.3955 257.222 77.9712C257.645 83.7595 257.222 94.2836 257.222 94.2836H249.916V58.8184Z" fill="black"/>
<path d="M95.6967 12.2872H100.097V36.2872H107.337V40.2872H95.6967V12.2872ZM115.65 40.6872C113.49 40.6872 111.837 40.0739 110.69 38.8472C109.544 37.6206 108.97 35.8872 108.97 33.6472V18.9272C108.97 16.6872 109.544 14.9539 110.69 13.7272C111.837 12.5006 113.49 11.8872 115.65 11.8872C117.81 11.8872 119.464 12.5006 120.61 13.7272C121.757 14.9539 122.33 16.6872 122.33 18.9272V33.6472C122.33 35.8872 121.757 37.6206 120.61 38.8472C119.464 40.0739 117.81 40.6872 115.65 40.6872ZM115.65 36.6872C117.17 36.6872 117.93 35.7672 117.93 33.9272V18.6472C117.93 16.8072 117.17 15.8872 115.65 15.8872C114.13 15.8872 113.37 16.8072 113.37 18.6472V33.9272C113.37 35.7672 114.13 36.6872 115.65 36.6872ZM131.506 40.6872C129.399 40.6872 127.786 40.0872 126.666 38.8872C125.573 37.6872 125.026 35.9939 125.026 33.8072V18.7672C125.026 16.5806 125.573 14.8872 126.666 13.6872C127.786 12.4872 129.399 11.8872 131.506 11.8872C133.613 11.8872 135.213 12.4872 136.306 13.6872C137.426 14.8872 137.986 16.5806 137.986 18.7672V21.7272H133.826V18.4872C133.826 16.7539 133.093 15.8872 131.626 15.8872C130.159 15.8872 129.426 16.7539 129.426 18.4872V34.1272C129.426 35.8339 130.159 36.6872 131.626 36.6872C133.093 36.6872 133.826 35.8339 133.826 34.1272V29.8472H137.986V33.8072C137.986 35.9939 137.426 37.6872 136.306 38.8872C135.213 40.0872 133.613 40.6872 131.506 40.6872ZM147.057 40.6872C144.897 40.6872 143.243 40.0739 142.097 38.8472C140.95 37.6206 140.377 35.8872 140.377 33.6472V18.9272C140.377 16.6872 140.95 14.9539 142.097 13.7272C143.243 12.5006 144.897 11.8872 147.057 11.8872C149.217 11.8872 150.87 12.5006 152.017 13.7272C153.163 14.9539 153.737 16.6872 153.737 18.9272V33.6472C153.737 35.8872 153.163 37.6206 152.017 38.8472C150.87 40.0739 149.217 40.6872 147.057 40.6872ZM147.057 36.6872C148.577 36.6872 149.337 35.7672 149.337 33.9272V18.6472C149.337 16.8072 148.577 15.8872 147.057 15.8872C145.537 15.8872 144.777 16.8072 144.777 18.6472V33.9272C144.777 35.7672 145.537 36.6872 147.057 36.6872ZM162.432 40.6872C160.299 40.6872 158.686 40.0872 157.592 38.8872C156.499 37.6606 155.952 35.9139 155.952 33.6472V32.0472H160.112V33.9672C160.112 35.7806 160.872 36.6872 162.392 36.6872C163.139 36.6872 163.699 36.4739 164.072 36.0472C164.472 35.5939 164.672 34.8739 164.672 33.8872C164.672 32.7139 164.406 31.6872 163.872 30.8072C163.339 29.9006 162.352 28.8206 160.912 27.5672C159.099 25.9672 157.832 24.5272 157.112 23.2472C156.392 21.9406 156.032 20.4739 156.032 18.8472C156.032 16.6339 156.592 14.9272 157.712 13.7272C158.832 12.5006 160.459 11.8872 162.592 11.8872C164.699 11.8872 166.286 12.5006 167.352 13.7272C168.446 14.9272 168.992 16.6606 168.992 18.9272V20.0872H164.832V18.6472C164.832 17.6872 164.646 16.9939 164.272 16.5672C163.899 16.1139 163.352 15.8872 162.632 15.8872C161.166 15.8872 160.432 16.7806 160.432 18.5672C160.432 19.5806 160.699 20.5272 161.232 21.4072C161.792 22.2872 162.792 23.3539 164.232 24.6072C166.072 26.2072 167.339 27.6606 168.032 28.9672C168.726 30.2739 169.072 31.8072 169.072 33.5672C169.072 35.8606 168.499 37.6206 167.352 38.8472C166.232 40.0739 164.592 40.6872 162.432 40.6872ZM181.881 25.9672L177.041 12.2872H181.681L184.641 21.3272H184.721L187.761 12.2872H191.921L187.081 25.9672L192.161 40.2872H187.521L184.321 30.5272H184.241L180.961 40.2872H176.801L181.881 25.9672ZM64.4272 60.2872H68.8272V84.2872H76.0672V88.2872H64.4272V60.2872ZM81.7335 60.2872H87.6935L92.2535 88.2872H87.8535L87.0535 82.7272V82.8072H82.0535L81.2535 88.2872H77.1735L81.7335 60.2872ZM86.5335 79.0072L84.5735 65.1672H84.4935L82.5735 79.0072H86.5335ZM99.991 88.6872C97.8576 88.6872 96.2443 88.0872 95.151 86.8872C94.0576 85.6606 93.511 83.9139 93.511 81.6472V80.0472H97.671V81.9672C97.671 83.7806 98.431 84.6872 99.951 84.6872C100.698 84.6872 101.258 84.4739 101.631 84.0472C102.031 83.5939 102.231 82.8739 102.231 81.8872C102.231 80.7139 101.964 79.6872 101.431 78.8072C100.898 77.9006 99.911 76.8206 98.471 75.5672C96.6576 73.9672 95.391 72.5272 94.671 71.2472C93.951 69.9406 93.591 68.4739 93.591 66.8472C93.591 64.6339 94.151 62.9272 95.271 61.7272C96.391 60.5006 98.0176 59.8872 100.151 59.8872C102.258 59.8872 103.844 60.5006 104.911 61.7272C106.004 62.9272 106.551 64.6606 106.551 66.9272V68.0872H102.391V66.6472C102.391 65.6872 102.204 64.9939 101.831 64.5672C101.458 64.1139 100.911 63.8872 100.191 63.8872C98.7243 63.8872 97.991 64.7806 97.991 66.5672C97.991 67.5806 98.2576 68.5272 98.791 69.4072C99.351 70.2872 100.351 71.3539 101.791 72.6072C103.631 74.2072 104.898 75.6606 105.591 76.9672C106.284 78.2739 106.631 79.8072 106.631 81.5672C106.631 83.8606 106.058 85.6206 104.911 86.8472C103.791 88.0739 102.151 88.6872 99.991 88.6872ZM119 64.2872H114.4V60.2872H128V64.2872H123.4V88.2872H119V64.2872ZM131.694 60.2872H137.654L142.214 88.2872H137.814L137.014 82.7272V82.8072H132.014L131.214 88.2872H127.134L131.694 60.2872ZM136.494 79.0072L134.534 65.1672H134.454L132.534 79.0072H136.494ZM144.349 60.2872H150.989C153.256 60.2872 154.909 60.8206 155.949 61.8872C156.989 62.9272 157.509 64.5406 157.509 66.7272V67.8472C157.509 69.2872 157.269 70.4606 156.789 71.3672C156.336 72.2739 155.629 72.9272 154.669 73.3272V73.4072C156.856 74.1539 157.949 76.1006 157.949 79.2472V81.6472C157.949 83.8072 157.376 85.4606 156.229 86.6072C155.109 87.7272 153.456 88.2872 151.269 88.2872H144.349V60.2872ZM150.469 71.6872C151.349 71.6872 152.002 71.4606 152.429 71.0072C152.882 70.5539 153.109 69.7939 153.109 68.7272V67.1672C153.109 66.1539 152.922 65.4206 152.549 64.9672C152.202 64.5139 151.642 64.2872 150.869 64.2872H148.749V71.6872H150.469ZM151.269 84.2872C152.042 84.2872 152.616 84.0872 152.989 83.6872C153.362 83.2606 153.549 82.5406 153.549 81.5272V79.0872C153.549 77.8072 153.322 76.9272 152.869 76.4472C152.442 75.9406 151.722 75.6872 150.709 75.6872H148.749V84.2872H151.269ZM160.521 60.2872H164.921V84.2872H172.161V88.2872H160.521V60.2872ZM174.271 60.2872H178.671V88.2872H174.271V60.2872ZM185.406 64.2872H180.806V60.2872H194.406V64.2872H189.806V88.2872H185.406V64.2872ZM198.101 60.2872H204.061L208.621 88.2872H204.221L203.421 82.7272V82.8072H198.421L197.621 88.2872H193.541L198.101 60.2872ZM202.901 79.0072L200.941 65.1672H200.861L198.941 79.0072H202.901ZM216.358 88.6872C214.225 88.6872 212.611 88.0872 211.518 86.8872C210.425 85.6606 209.878 83.9139 209.878 81.6472V80.0472H214.038V81.9672C214.038 83.7806 214.798 84.6872 216.318 84.6872C217.065 84.6872 217.625 84.4739 217.998 84.0472C218.398 83.5939 218.598 82.8739 218.598 81.8872C218.598 80.7139 218.331 79.6872 217.798 78.8072C217.265 77.9006 216.278 76.8206 214.838 75.5672C213.025 73.9672 211.758 72.5272 211.038 71.2472C210.318 69.9406 209.958 68.4739 209.958 66.8472C209.958 64.6339 210.518 62.9272 211.638 61.7272C212.758 60.5006 214.385 59.8872 216.518 59.8872C218.625 59.8872 220.211 60.5006 221.278 61.7272C222.371 62.9272 222.918 64.6606 222.918 66.9272V68.0872H218.758V66.6472C218.758 65.6872 218.571 64.9939 218.198 64.5672C217.825 64.1139 217.278 63.8872 216.558 63.8872C215.091 63.8872 214.358 64.7806 214.358 66.5672C214.358 67.5806 214.625 68.5272 215.158 69.4072C215.718 70.2872 216.718 71.3539 218.158 72.6072C219.998 74.2072 221.265 75.6606 221.958 76.9672C222.651 78.2739 222.998 79.8072 222.998 81.5672C222.998 83.8606 222.425 85.6206 221.278 86.8472C220.158 88.0739 218.518 88.6872 216.358 88.6872Z" fill="black"/>
</svg>
