<svg width="404" height="449" viewBox="0 0 404 449" fill="none" xmlns="http://www.w3.org/2000/svg">
<path d="M178.205 87.8709C179.312 87.4789 180.383 86.9903 181.405 86.4109C182.83 85.5328 184.065 84.3791 185.039 83.0174C186.012 81.6558 186.705 80.1134 187.075 78.4809C187.312 77.3607 187.406 76.2148 187.355 75.0709C187.235 73.809 186.987 72.5626 186.615 71.3509C185.924 68.7609 185.174 65.9409 184.365 62.9309L178.905 42.3909L172.305 17.4909C171.715 15.2509 171.115 12.9809 170.495 10.6609C170.003 8.3425 168.866 6.21039 167.215 4.51088C165.509 2.77572 163.321 1.59442 160.935 1.12089C158.455 0.693869 155.907 0.924894 153.545 1.79089L88.0345 19.0509C85.2321 19.7981 82.7887 21.5216 81.1445 23.9109C79.514 26.2636 78.7862 29.1251 79.0945 31.9709C79.3011 33.3894 79.6153 34.7901 80.0345 36.1609C80.4045 37.5709 80.7645 38.9709 81.1345 40.3609C81.8679 43.1475 82.5912 45.9109 83.3045 48.6509C86.1745 59.6509 88.9345 70.1809 91.5745 80.2609C92.9078 85.3009 94.1879 90.2076 95.4145 94.9809C95.8287 97.3234 96.8376 99.5202 98.3445 101.361C99.8314 103.106 101.784 104.393 103.975 105.071C108.355 106.611 112.705 104.521 116.855 103.621L128.855 100.511L164.965 91.1909L174.795 88.7009L177.355 88.0809C177.935 87.9409 178.235 87.9009 178.235 87.9009C178.235 87.9009 177.955 88.0109 177.385 88.1709L174.845 88.8909L165.055 91.5509L129.055 101.171L117.055 104.341L110.695 106.011C108.359 106.604 105.904 106.532 103.607 105.804C101.31 105.076 99.2623 103.721 97.6945 101.891C96.095 99.9622 95.0173 97.6553 94.5645 95.1909C93.3045 90.4309 92.0112 85.5276 90.6845 80.4809C88.0345 70.4109 85.2445 59.8509 82.3645 48.8909C81.6445 46.1509 80.9178 43.3876 80.1845 40.6009C79.8112 39.2142 79.4412 37.8142 79.0745 36.4009C78.6303 34.9854 78.2959 33.5378 78.0745 32.0709C77.7426 28.9965 78.5269 25.9051 80.2845 23.3609C82.0646 20.7465 84.7273 18.8613 87.7845 18.0509L153.305 0.890886C155.8 -0.000462949 158.485 -0.227897 161.095 0.230886C163.644 0.763038 165.974 2.04857 167.785 3.92088C169.53 5.73366 170.732 7.99938 171.255 10.4609C171.855 12.7709 172.455 15.0509 173.035 17.2909C175.365 26.2909 177.535 34.5909 179.515 42.2209C181.495 49.8509 183.275 56.7309 184.845 62.7909C185.625 65.8242 186.351 68.6376 187.025 71.2309C187.399 72.477 187.654 73.7562 187.785 75.0509C187.828 76.2341 187.714 77.4179 187.445 78.5709C187.049 80.2362 186.319 81.8038 185.3 83.1789C184.281 84.554 182.993 85.708 181.515 86.5709C180.754 87.0209 179.941 87.3768 179.095 87.6309C178.505 87.8109 178.205 87.8709 178.205 87.8709Z" fill="#E0E0E0"/>
<path d="M151.865 62.2709C151.668 62.3592 151.464 62.4294 151.255 62.4809L149.495 62.9809L142.935 64.7909L120.935 70.7109H120.755L120.675 70.5409L119.155 67.0509L108.505 41.5309L108.665 41.6009L102.785 43.1009L101.215 43.4809L100.665 43.5909C100.835 43.5142 101.013 43.4539 101.195 43.4109L102.745 42.9609L108.605 41.3409H108.725V41.4509L119.515 66.9209L120.995 70.4509L120.745 70.3209L142.825 64.5409L149.415 62.8609L151.195 62.4309C151.413 62.3594 151.637 62.3058 151.865 62.2709Z" fill="#E0E0E0"/>
<path d="M118.235 64.3108C118.235 64.3108 118.285 64.3108 118.385 64.2508L118.835 64.1108L120.605 63.6108L127.225 61.7908L150.105 55.6408L149.955 55.8608C149.615 51.8608 149.245 47.4708 148.855 42.9508C148.665 40.6308 148.465 38.3508 148.285 36.1708L148.555 36.3608L121.555 43.4408L113.555 45.5008L111.395 46.0408L110.835 46.1608C110.705 46.1608 110.645 46.1608 110.635 46.1608L110.825 46.1008L111.375 45.9308L113.525 45.3208L121.525 43.1408L148.525 35.9208L148.765 35.8508V36.1008C148.945 38.2808 149.135 40.5608 149.335 42.8808C149.715 47.4008 150.075 51.7608 150.415 55.8008V55.9708H150.245L127.325 61.9708L120.675 63.6708L118.885 64.1108L118.425 64.2208L118.235 64.3108Z" fill="#E0E0E0"/>
<path d="M130.784 76.8609C130.784 76.8609 130.674 76.6009 130.414 76.1709C130.05 75.5733 129.498 75.1128 128.844 74.8609C128.372 74.6796 127.862 74.6176 127.359 74.6804C126.857 74.7431 126.378 74.9288 125.964 75.2209C125.654 75.4854 125.401 75.8104 125.221 76.1761C125.04 76.5417 124.936 76.9404 124.915 77.3476C124.894 77.7548 124.956 78.1621 125.097 78.5445C125.238 78.927 125.456 79.2766 125.737 79.572C126.019 79.8674 126.357 80.1024 126.732 80.2626C127.107 80.4228 127.511 80.5049 127.918 80.5039C128.326 80.5028 128.729 80.4187 129.104 80.2565C129.478 80.0944 129.815 79.8577 130.094 79.5609C130.535 79.0197 130.784 78.3483 130.804 77.6509C130.804 77.1509 130.744 76.8709 130.804 76.8609C130.933 77.1042 130.998 77.3758 130.994 77.6509C131.035 78.4043 130.808 79.1478 130.354 79.7509C130.01 80.2113 129.554 80.5754 129.028 80.8084C128.503 81.0413 127.927 81.1351 127.354 81.0809C126.656 81.0219 125.992 80.7484 125.455 80.2978C124.918 79.8472 124.533 79.2415 124.354 78.5637C124.174 77.8859 124.208 77.1691 124.452 76.5116C124.696 75.8541 125.137 75.288 125.714 74.8909C126.18 74.5689 126.721 74.3714 127.284 74.3172C127.848 74.2629 128.416 74.3537 128.934 74.5809C129.626 74.8843 130.192 75.4178 130.534 76.0909C130.68 76.323 130.766 76.5875 130.784 76.8609Z" fill="#E0E0E0"/>
<path d="M150.784 71.5708C150.784 71.5708 150.674 71.3008 150.414 70.8808C150.047 70.2857 149.496 69.826 148.844 69.5708C148.328 69.3732 147.768 69.322 147.225 69.4227C146.681 69.5235 146.176 69.7724 145.765 70.1419C145.355 70.5114 145.054 70.9873 144.896 71.5169C144.739 72.0466 144.73 72.6095 144.872 73.1435C145.014 73.6775 145.301 74.1619 145.701 74.5433C146.101 74.9247 146.598 75.1883 147.139 75.3049C147.679 75.4215 148.241 75.3866 148.762 75.2042C149.284 75.0217 149.745 74.6987 150.094 74.2708C150.535 73.7258 150.784 73.0513 150.804 72.3508C150.804 71.8608 150.744 71.5808 150.804 71.5708C150.934 71.8101 150.999 72.0788 150.994 72.3508C151.037 73.1046 150.81 73.849 150.354 74.4508C150.015 74.9036 149.567 75.2631 149.051 75.4957C148.535 75.7282 147.969 75.8263 147.404 75.7808C146.707 75.7214 146.045 75.4474 145.509 74.9965C144.973 74.5456 144.591 73.9399 144.413 73.2627C144.236 72.5854 144.272 71.8698 144.518 71.2141C144.763 70.5584 145.206 69.9949 145.784 69.6008C146.252 69.2789 146.794 69.0815 147.359 69.0272C147.924 68.973 148.494 69.0637 149.014 69.2908C149.708 69.5914 150.274 70.1258 150.614 70.8008C150.733 71.0399 150.791 71.3042 150.784 71.5708Z" fill="#E0E0E0"/>
<path d="M288.14 424.081C270.587 406.279 270.9 379.243 276.079 355.892C276.958 351.962 277.26 347.83 279.79 344.69C282.321 341.549 287.084 340.049 290.291 342.359C292.947 344.275 293.585 347.899 294.683 350.996C296.165 355.141 298.786 358.783 302.244 361.506C304.501 363.26 307.444 364.63 310.165 363.729C313.903 362.495 315.164 357.893 315.875 353.988L319.804 332.15C320.505 328.242 321.232 324.258 323.138 320.783C325.044 317.307 328.361 314.369 332.266 314.02C336.171 313.671 340.367 316.666 340.43 320.63C340.469 322.275 339.838 323.865 339.645 325.504C339.453 327.142 339.866 329.078 341.313 329.818C342.76 330.557 344.521 329.733 345.905 328.809C350.665 325.623 354.339 321.061 357.837 316.49C361.334 311.919 364.773 307.211 369.227 303.6C373.681 299.989 379.367 297.52 385.017 298.237C390.667 298.955 395.975 303.526 396.369 309.269C396.763 315.012 392.556 320.034 388.204 323.871C381.796 329.512 374.606 334.196 366.858 337.778C365.466 338.424 363.953 339.113 363.212 340.474C361.881 342.912 363.853 345.996 366.271 347.289C369.003 348.807 372.209 349.092 375.193 350.01C378.178 350.928 381.209 352.891 381.821 355.986C382.682 360.272 378.565 363.831 374.769 365.956C367.173 370.199 358.905 373.106 350.325 374.55C347.256 375.054 344.066 375.42 341.373 376.999C338.68 378.577 336.638 381.836 337.56 384.861C338.482 387.885 341.865 389.42 344.98 389.419C348.096 389.419 351.085 388.294 354.149 387.745C359.892 386.716 366.749 388.375 369.319 393.651C371.006 397.124 370.411 401.397 368.588 404.817C366.765 408.237 363.875 410.923 360.875 413.347C350.402 421.833 337.894 427.9 324.65 429.895C311.407 431.889 299.66 430.912 288.149 424.084" fill="#F5F5F5"/>
<path d="M296.951 410.478C303.238 398.399 310.214 386.692 317.845 375.413C319.853 372.401 321.837 369.43 323.795 366.499C325.75 363.581 327.694 360.691 329.762 357.993C333.759 352.792 338.038 347.814 342.581 343.082C346.884 338.539 351.124 334.419 355.136 330.526C359.148 326.633 362.961 323.158 366.575 320.101C372.244 315.243 378.29 310.845 384.658 306.948C386.886 305.609 388.676 304.552 389.894 303.887L391.281 303.133C391.434 303.039 391.596 302.961 391.765 302.9C391.624 303.009 391.476 303.11 391.321 303.2L389.974 304.021C388.793 304.73 387.038 305.779 384.812 307.204C378.52 311.182 372.535 315.628 366.91 320.504C363.334 323.575 359.552 327.114 355.563 330.972C351.573 334.83 347.351 339.02 343.073 343.551C338.562 348.28 334.31 353.249 330.337 358.438C328.279 361.14 326.363 364.008 324.39 366.951C322.416 369.894 320.458 372.853 318.452 375.859C310.838 387.113 303.858 398.782 297.544 410.813" fill="#E0E0E0"/>
<path d="M329.971 358.003C329.889 357.43 329.865 356.85 329.899 356.272C329.9 355.149 329.946 353.534 330.04 351.543C330.207 347.554 330.638 342.057 331.118 336.027C331.598 329.997 331.982 324.484 332.074 320.469C332.136 318.477 332.17 316.868 332.18 315.749C332.15 315.172 332.182 314.593 332.276 314.023C332.404 314.588 332.468 315.165 332.468 315.743C332.553 316.833 332.572 318.471 332.593 320.47C332.612 324.471 332.345 329.983 331.852 336.051C331.358 342.119 330.895 347.435 330.548 351.572C330.403 353.439 330.284 355.019 330.193 356.279C330.185 356.86 330.111 357.439 329.971 358.003Z" fill="#E0E0E0"/>
<path d="M381.885 357.98C381.192 357.995 380.5 357.948 379.816 357.838C378.515 357.711 376.62 357.524 374.273 357.359C369.588 357 363.093 356.728 355.917 356.737C348.74 356.746 342.249 357.068 337.556 357.428C335.214 357.582 333.317 357.765 332.006 357.878C331.326 357.979 330.638 358.019 329.951 357.996C330.606 357.816 331.276 357.695 331.952 357.637C333.265 357.429 335.157 357.17 337.494 356.94C342.185 356.463 348.703 356.065 355.895 356.041C362.039 356.003 368.18 356.28 374.296 356.869C376.642 357.097 378.529 357.366 379.829 357.588C380.525 357.654 381.214 357.785 381.885 357.98Z" fill="#E0E0E0"/>
<path d="M297.76 409.681C297.651 409.468 297.574 409.241 297.53 409.007L297.003 407.032C296.548 405.305 295.991 402.81 295.326 399.717C293.978 393.523 292.374 384.909 290.747 375.365C289.12 365.821 287.574 357.195 286.391 350.985L284.873 343.609C284.718 342.812 284.588 342.153 284.511 341.617C284.449 341.383 284.419 341.14 284.424 340.898C284.524 341.117 284.6 341.346 284.651 341.581C284.791 342.118 284.971 342.753 285.168 343.553C285.626 345.271 286.192 347.768 286.848 350.859C288.193 357.062 289.79 365.663 291.423 375.22C293.056 384.777 294.596 393.39 295.784 399.591L297.244 406.947L297.603 408.948C297.687 409.185 297.739 409.431 297.76 409.681Z" fill="#E0E0E0"/>
<path d="M368.389 400.636C368.161 400.723 367.921 400.775 367.678 400.79L365.618 401.075L358.047 402.058C351.662 402.895 342.842 404.15 333.108 405.531C323.375 406.911 314.536 408.097 308.125 408.797C304.919 409.147 302.328 409.405 300.529 409.549L298.452 409.701C298.213 409.732 297.971 409.732 297.731 409.703C297.961 409.622 298.2 409.571 298.442 409.549L300.502 409.264L308.063 408.277C314.454 407.454 323.278 406.189 333.012 404.808C342.745 403.428 351.583 402.242 357.986 401.539C361.192 401.189 363.792 400.934 365.59 400.79L367.655 400.644C367.898 400.608 368.145 400.606 368.389 400.636Z" fill="#E0E0E0"/>
<path d="M7.61004 86.4886C7.61004 86.4886 -3.53997 89.1986 5.31003 113.339C14.16 137.479 20.83 149.709 20.83 149.709C20.83 149.709 22.25 155.239 17.7 155.519C13.15 155.799 3.57003 153.059 0.930035 158.249C-1.80997 163.639 1.65003 169.459 9.39003 175.129C17.13 180.799 33.63 193.849 35.14 195.039C36.65 196.229 37.88 198.849 34.82 199.539C31.76 200.229 9.47003 199.859 9.93003 210.439C10.39 221.019 34.53 233.289 37.14 234.679C39.75 236.069 40.27 237.309 39.87 238.789C39.47 240.269 31.98 239.439 25.64 239.589C19.3 239.739 11.97 241.039 12.75 247.129C13.53 253.219 26.99 267.429 62.91 275.389L79.79 277.989L90.79 264.779C112.52 235.099 113.26 215.529 109.79 210.439C106.32 205.349 100 209.219 95.13 213.289C90.26 217.359 85.19 222.919 83.91 222.079C82.63 221.239 82.2 219.959 83.24 217.189C84.28 214.419 94.35 189.269 87.71 181.009C81.07 172.749 64.57 187.739 61.81 189.249C59.05 190.759 58.27 187.909 58.6 186.069C58.93 184.229 62.72 163.509 64.8 154.139C66.88 144.769 65.62 138.139 60.01 135.879C54.6 133.709 49.2 142.109 45.6 144.879C42 147.649 39.42 142.579 39.42 142.579C39.42 142.579 36.36 128.989 27.08 105.009C17.8 81.0286 7.39003 86.5486 7.39003 86.5486" fill="#EBEBEB"/>
<path d="M80.19 282.079C73.44 264.449 61.97 232.899 51.98 205.869C41.99 178.839 32.93 154.389 26.27 136.719C22.94 127.909 20.27 120.719 18.36 115.809C17.44 113.349 16.71 111.439 16.22 110.119C15.98 109.479 15.8 108.989 15.67 108.629C15.54 108.269 15.5 108.119 15.5 108.119C15.5 108.119 15.58 108.279 15.72 108.609L16.32 110.079L18.56 115.729C20.49 120.639 23.25 127.729 26.62 136.589C33.37 154.219 42.49 178.659 52.48 205.689C62.47 232.719 73.88 264.279 80.54 281.949" fill="#E0E0E0"/>
<path d="M14.2 162.629C14.5955 162.749 14.9775 162.91 15.34 163.109C16.06 163.439 17.09 163.949 18.34 164.589C20.86 165.879 24.3399 167.759 28.0799 169.889L37.7 175.389L40.62 177.039C40.9754 177.215 41.3107 177.43 41.62 177.679C41.2225 177.573 40.8396 177.418 40.4799 177.219C39.7599 176.889 38.7299 176.379 37.4799 175.719C34.9599 174.399 31.5399 172.489 27.7799 170.349L18.1399 164.919L15.2099 163.289C14.8455 163.114 14.5059 162.892 14.2 162.629Z" fill="#E0E0E0"/>
<path d="M42.98 176.739C42.85 176.669 46.4 169.399 50.9 160.489C55.4 151.579 59.17 144.419 59.3 144.489C59.43 144.559 55.88 151.829 51.38 160.739C46.88 169.649 43.14 176.799 42.98 176.739Z" fill="#E0E0E0"/>
<path d="M56.45 218.939C56.6771 218.573 56.9492 218.237 57.26 217.939L59.6 215.439C61.6 213.319 64.29 210.439 67.16 207.039C70.03 203.639 72.5499 200.579 74.34 198.309L76.47 195.619C76.7136 195.275 76.9917 194.956 77.3 194.669C77.118 195.047 76.8968 195.406 76.64 195.739C76.18 196.409 75.51 197.369 74.64 198.539C72.92 200.869 70.46 204.029 67.57 207.389C64.68 210.749 61.92 213.649 59.87 215.699C58.87 216.699 58.01 217.539 57.41 218.089C57.1187 218.403 56.7971 218.688 56.45 218.939Z" fill="#E0E0E0"/>
<path d="M27.6001 211.909C27.9921 211.911 28.382 211.965 28.7601 212.069L31.8701 212.699C34.4801 213.249 38.0901 214.049 42.0701 214.969C46.0501 215.889 49.6501 216.739 52.2401 217.389L55.3101 218.179C55.6924 218.257 56.0647 218.378 56.4201 218.539C56.0314 218.536 55.6447 218.482 55.2701 218.379L52.1401 217.799C49.5201 217.249 45.9101 216.449 41.9301 215.529C37.9501 214.609 34.3601 213.759 31.7601 213.109L28.6901 212.319C28.3115 212.226 27.9455 212.089 27.6001 211.909Z" fill="#E0E0E0"/>
<path d="M34.76 250.669C35.255 250.703 35.7465 250.777 36.23 250.889L40.23 251.679C43.59 252.369 48.23 253.359 53.33 254.489C58.43 255.619 63.07 256.659 66.4 257.439L70.4 258.439C70.8914 258.536 71.3733 258.677 71.84 258.859C71.3403 258.837 70.8443 258.763 70.36 258.639L66.36 257.849C63 257.159 58.36 256.169 53.26 255.039C48.16 253.909 43.48 252.799 40.14 252.049L36.14 251.049C35.6681 250.97 35.2056 250.843 34.76 250.669Z" fill="#E0E0E0"/>
<path d="M70.95 258.379C71.243 257.931 71.5778 257.513 71.95 257.129L74.8 253.849C77.21 251.069 80.51 247.229 84.05 242.849C87.59 238.469 90.69 234.489 92.91 231.569L95.55 228.109C95.8474 227.671 96.1819 227.259 96.55 226.879C96.3097 227.352 96.0286 227.804 95.71 228.229C95.13 229.089 94.28 230.309 93.2 231.799C91.05 234.799 87.99 238.799 84.45 243.189C80.91 247.579 77.55 251.349 75.07 254.069C73.83 255.419 72.81 256.509 72.07 257.239C71.7254 257.646 71.351 258.027 70.95 258.379Z" fill="#E0E0E0"/>
<path d="M53.0515 366.43C51.299 366.502 49.6212 367.159 48.2863 368.297C46.9515 369.435 46.0367 370.987 45.6884 372.706C44.9523 375.469 44.3737 378.271 43.9553 381.1C43.9553 381.1 37.3059 387.081 43.9553 388.678C50.6047 390.275 53.0175 381.315 53.0175 381.315L54.037 366.385L53.0515 366.43Z" fill="#FFBE9D"/>
<path d="M119.636 251.963C119.636 251.963 140.411 182.196 142.53 179.194C146.019 174.221 179.651 159.268 179.651 159.268L188.713 140.872L244.57 131.889L258.424 149.719L297.358 178.333L294.639 277.02L293.189 345.927L300.563 431.95L123.737 431.622L131.734 413.497L140.128 257.038L119.636 251.963Z" fill="#E50019"/>
<path d="M143.595 242.55C143.543 242.366 143.52 242.175 143.527 241.984C143.527 241.542 143.527 241.009 143.436 240.364C143.436 238.959 143.311 236.965 143.266 234.417C143.175 229.387 143.175 222.443 143.391 214.774C143.606 207.105 144.014 200.173 144.399 195.155C144.58 192.651 144.761 190.624 144.909 189.23L145.078 187.622C145.096 187.434 145.13 187.248 145.18 187.067C145.213 187.254 145.213 187.446 145.18 187.633C145.18 188.063 145.18 188.596 145.112 189.242C145.033 190.737 144.92 192.742 144.784 195.189C144.512 200.207 144.172 207.128 143.957 214.797C143.742 222.466 143.674 229.387 143.663 234.417C143.663 236.864 143.663 238.869 143.663 240.364C143.663 241.009 143.663 241.497 143.663 241.984C143.667 242.175 143.644 242.365 143.595 242.55V242.55Z" fill="#263238"/>
<g opacity="0.3">
<path opacity="0.3" d="M183.649 222.511C183.606 221.73 183.834 220.958 184.294 220.325C185.07 219.374 186.133 218.702 187.324 218.407C188.515 218.113 189.77 218.214 190.899 218.694C193.855 220.11 195.328 223.508 195.928 226.736C196.574 230.271 196.483 233.918 197.151 237.452C197.82 240.987 199.417 244.589 202.532 246.413C206.372 248.678 211.413 247.659 215.446 249.562C221.45 252.382 222.843 260.187 223.149 266.825C223.715 279.388 223.149 291.962 222.628 304.524L219.161 384.747L216.001 424.995L199.734 431.905L178.211 290.478L183.649 222.511Z" fill="black"/>
</g>
<path d="M188.305 211.047C188.183 211.152 188.04 211.229 187.886 211.274C187.443 211.432 186.969 211.479 186.504 211.41C185.653 211.259 184.859 210.879 184.208 210.31C183.557 209.741 183.074 209.005 182.811 208.181C182.461 207.054 182.35 205.866 182.482 204.693C182.632 203.379 182.852 202.075 183.139 200.784C183.683 198.043 184.272 195.053 184.907 191.915C186.175 185.628 187.353 179.941 188.237 175.829L189.37 170.97C189.479 170.37 189.635 169.779 189.834 169.203C189.811 169.813 189.731 170.42 189.596 171.015C189.358 172.272 189.064 173.926 188.701 175.92C187.92 180.043 186.798 185.741 185.53 192.028C184.884 195.166 184.272 198.156 183.717 200.886C183.162 203.616 182.584 206.086 183.253 208.057C183.481 208.826 183.91 209.521 184.495 210.07C185.08 210.62 185.801 211.004 186.583 211.183C187.16 211.266 187.748 211.219 188.305 211.047V211.047Z" fill="#263238"/>
<path d="M194.036 184.801C194.036 184.858 193.572 184.858 192.802 185.096C191.721 185.453 190.771 186.123 190.072 187.021C189.546 187.659 189.193 188.421 189.046 189.234C188.899 190.047 188.964 190.885 189.233 191.666C189.529 192.635 190.11 193.493 190.9 194.128C191.69 194.762 192.653 195.145 193.663 195.226C194.673 195.306 195.684 195.081 196.565 194.58C197.446 194.078 198.155 193.323 198.601 192.413C198.991 191.686 199.188 190.871 199.172 190.045C199.156 189.22 198.929 188.413 198.511 187.701C197.967 186.701 197.134 185.887 196.121 185.367C195.396 185.005 194.988 184.937 194.988 184.88C194.988 184.824 195.101 184.88 195.316 184.88C195.637 184.924 195.949 185.011 196.245 185.141C197.362 185.61 198.296 186.429 198.907 187.474C199.34 188.196 199.607 189.005 199.689 189.842C199.778 190.814 199.581 191.79 199.122 192.651C198.637 193.669 197.853 194.516 196.876 195.079C195.899 195.642 194.774 195.896 193.65 195.806C192.526 195.717 191.455 195.288 190.579 194.577C189.704 193.866 189.065 192.906 188.746 191.824C188.428 190.901 188.388 189.904 188.633 188.958C188.895 187.97 189.416 187.069 190.143 186.35C190.87 185.631 191.776 185.12 192.768 184.869C193.081 184.785 193.406 184.747 193.73 184.756C193.834 184.753 193.938 184.768 194.036 184.801V184.801Z" fill="#263238"/>
<path d="M213.056 256.925L110.925 238.438L63.2463 248.905L169.931 268.106L213.056 256.925Z" fill="#E50019"/>
<g opacity="0.6">
<path opacity="0.6" d="M213.056 256.925L110.925 238.438L63.2463 248.905L169.931 268.106L213.056 256.925Z" fill="black"/>
</g>
<path d="M147.751 301.466C149.133 282.639 154.299 234.824 158.173 216.349C159.306 210.821 160.665 205.168 163.837 200.49C167.009 195.812 172.605 192.391 178.178 193.252C183.162 194.022 187.172 198.066 189.188 202.688C191.158 207.364 192.038 212.427 191.76 217.493C190.797 240.33 188.826 265.908 188.849 287.079" fill="#455A64"/>
<path d="M182.335 256.63C181.096 257.096 179.833 257.496 178.552 257.831C172.455 259.715 166.621 262.36 161.186 265.704C160.091 266.45 158.956 267.139 157.788 267.765C157.788 267.765 158.049 267.482 158.592 267.052C159.136 266.621 159.94 266.044 160.96 265.353C163.637 263.575 166.451 262.015 169.376 260.686C172.303 259.355 175.334 258.268 178.439 257.435C179.628 257.117 180.602 256.891 181.271 256.766C181.618 256.675 181.976 256.629 182.335 256.63Z" fill="#263238"/>
<path d="M184.034 234.904C184.034 234.994 182.505 235.334 180.058 236.093C173.671 238.056 167.705 241.191 162.466 245.337C160.461 246.922 159.294 248.01 159.226 247.942C159.438 247.631 159.685 247.346 159.962 247.092C160.461 246.571 161.22 245.858 162.228 245.019C164.792 242.827 167.592 240.927 170.576 239.355C173.562 237.787 176.711 236.553 179.967 235.674C180.948 235.399 181.942 235.176 182.946 235.006C183.302 234.916 183.668 234.882 184.034 234.904Z" fill="#263238"/>
<path d="M181.746 217.414C181.746 217.516 180.534 217.572 178.619 217.923C176.13 218.385 173.717 219.189 171.449 220.314C169.186 221.45 167.09 222.89 165.219 224.595C163.78 225.91 162.953 226.861 162.953 226.782C162.953 226.702 163.089 226.499 163.418 226.057C163.883 225.431 164.394 224.84 164.947 224.29C168.613 220.599 173.388 218.211 178.54 217.493C179.313 217.386 180.093 217.333 180.874 217.334C181.44 217.346 181.735 217.368 181.746 217.414Z" fill="#263238"/>
<path d="M169.048 271.877C169.043 271.911 169.043 271.946 169.048 271.979V337.341C169.048 340.206 166.782 343.163 162.489 345.406C158.196 347.649 152.068 349.178 144.365 349.189H144.263C128.8 349.189 119.557 343.084 119.557 337.341V271.979C119.56 271.945 119.56 271.911 119.557 271.877C119.557 271.877 119.557 271.798 119.557 271.753C119.557 265.364 124.281 258.692 129.016 252.099C132.187 247.704 132.946 241.36 133.094 237.645C133.094 237.192 133.094 236.795 133.094 236.433H132.663C132.213 236.471 131.76 236.42 131.33 236.281C130.9 236.143 130.502 235.92 130.159 235.625C129.816 235.331 129.535 234.972 129.333 234.568C129.131 234.163 129.012 233.723 128.982 233.272V230.508C129.009 230.056 129.126 229.613 129.327 229.206C129.528 228.8 129.808 228.437 130.151 228.141C130.494 227.844 130.893 227.619 131.325 227.479C131.756 227.339 132.211 227.287 132.663 227.325H155.885C156.575 227.303 157.258 227.472 157.858 227.814C158.458 228.156 158.951 228.657 159.283 229.262C159.469 229.652 159.566 230.077 159.567 230.508V233.272C159.537 233.724 159.417 234.166 159.214 234.57C159.011 234.975 158.729 235.335 158.385 235.63C158.041 235.924 157.642 236.147 157.211 236.285C156.779 236.423 156.325 236.473 155.874 236.433H155.455C155.455 236.795 155.455 237.192 155.455 237.645C155.602 241.36 156.361 247.704 159.544 252.099C164.268 258.692 168.969 265.364 169.003 271.753C169.048 271.798 169.048 271.855 169.048 271.877Z" fill="#FAFAFA"/>
<path d="M169.048 271.878C169.063 271.655 169.063 271.432 169.048 271.209C169.006 270.556 168.927 269.905 168.81 269.261C168.266 266.775 167.354 264.385 166.103 262.17C164.092 258.652 161.859 255.266 159.419 252.031C157.977 249.897 156.947 247.511 156.383 244.997C155.712 242.195 155.362 239.326 155.341 236.444V236.24H155.545C156.404 236.298 157.26 236.097 158.003 235.663C158.377 235.446 158.698 235.151 158.945 234.796C159.192 234.442 159.357 234.038 159.431 233.612C159.431 232.74 159.431 231.755 159.431 230.814C159.47 230.361 159.399 229.904 159.223 229.484C159.047 229.064 158.773 228.693 158.422 228.402C157.682 227.801 156.746 227.495 155.794 227.541H146.392H133.014C132.465 227.492 131.912 227.562 131.392 227.746C130.872 227.93 130.398 228.223 130.001 228.606C129.623 228.999 129.37 229.496 129.276 230.033C129.247 230.61 129.247 231.189 129.276 231.766C129.276 232.344 129.276 233.001 129.276 233.533C129.356 234.084 129.601 234.597 129.978 235.006C130.383 235.418 130.875 235.733 131.418 235.929C131.961 236.126 132.542 236.197 133.116 236.139H133.388V236.422C133.369 239.087 133.081 241.744 132.527 244.351C131.978 247.064 130.916 249.647 129.401 251.963C127.803 254.229 126.161 256.495 124.643 258.896C123.072 261.282 121.78 263.84 120.792 266.52C120.311 267.88 120.003 269.296 119.874 270.734C119.795 272.149 119.874 273.667 119.874 275.14V302.666C119.874 313.666 119.874 324.416 119.874 334.792C119.813 336.06 119.873 337.331 120.055 338.587C120.374 339.783 120.985 340.881 121.834 341.781C123.541 343.596 125.615 345.029 127.917 345.984C130.177 346.93 132.531 347.633 134.94 348.079C137.299 348.526 139.688 348.794 142.088 348.884C146.708 349.119 151.339 348.696 155.84 347.626C157.99 347.102 160.075 346.342 162.059 345.361C163.979 344.445 165.697 343.155 167.111 341.566C167.772 340.786 168.276 339.886 168.595 338.915C168.833 337.934 168.917 336.921 168.844 335.913V329.887C168.844 325.956 168.844 322.173 168.844 318.559C168.844 304.15 168.912 292.505 168.935 284.395C168.957 276.284 169.036 271.866 169.036 271.866C169.071 272.141 169.071 272.419 169.036 272.693C169.036 273.26 169.036 274.064 169.036 275.106C169.036 277.247 169.036 280.373 169.036 284.395C169.036 292.483 169.036 304.15 169.127 318.559C169.127 322.162 169.127 325.945 169.127 329.887V337.454C169.112 337.995 169.029 338.532 168.878 339.051C168.544 340.086 168.009 341.045 167.303 341.872C165.855 343.521 164.086 344.858 162.104 345.803C160.089 346.785 157.974 347.544 155.794 348.068C151.302 349.144 146.68 349.586 142.065 349.382C139.639 349.298 137.223 349.029 134.838 348.578C132.387 348.122 129.991 347.408 127.69 346.448C125.306 345.488 123.157 344.023 121.392 342.155C120.478 341.201 119.82 340.032 119.478 338.757C119.275 337.457 119.207 336.14 119.274 334.826V275.163C119.274 273.667 119.274 272.217 119.274 270.711C119.411 269.227 119.73 267.766 120.225 266.361C121.229 263.636 122.544 261.036 124.145 258.613C125.662 256.2 127.328 253.923 128.925 251.669C130.39 249.403 131.416 246.883 131.949 244.238C132.496 241.675 132.788 239.065 132.822 236.444L133.082 236.705C132.435 236.762 131.783 236.675 131.174 236.45C130.565 236.225 130.013 235.867 129.559 235.402C129.107 234.918 128.818 234.304 128.732 233.646C128.732 232.978 128.732 232.423 128.732 231.811C128.699 231.204 128.699 230.595 128.732 229.988C128.85 229.351 129.153 228.764 129.605 228.3C130.052 227.867 130.586 227.534 131.172 227.323C131.758 227.112 132.382 227.028 133.003 227.076H146.381H155.726C156.779 227.037 157.81 227.384 158.626 228.051C159.021 228.383 159.33 228.806 159.527 229.283C159.725 229.76 159.804 230.278 159.759 230.792C159.759 231.766 159.759 232.661 159.759 233.646C159.68 234.13 159.494 234.59 159.216 234.994C158.938 235.397 158.574 235.734 158.151 235.98C157.342 236.449 156.41 236.662 155.477 236.592L155.658 236.41C155.76 242.38 156.916 247.908 159.612 251.827C162.036 255.079 164.246 258.484 166.227 262.022C167.472 264.261 168.358 266.68 168.855 269.193C168.964 269.864 169.029 270.541 169.048 271.221C169.087 271.438 169.087 271.66 169.048 271.878V271.878Z" fill="#263238"/>
<path d="M154.186 236.274C150.751 236.573 147.301 236.671 143.855 236.569C140.405 236.671 136.951 236.573 133.513 236.274C136.952 235.983 140.405 235.885 143.855 235.98C147.301 235.884 150.75 235.983 154.186 236.274Z" fill="#263238"/>
<path d="M166.986 280.611C164.902 279.252 162.149 279.852 159.906 280.917C157.664 281.982 155.545 283.466 153.11 283.851C150.244 284.315 147.355 283.171 144.807 281.733C142.258 280.294 139.845 278.516 137.104 277.53C134.445 276.632 131.587 276.497 128.856 277.142C126.125 277.787 123.629 279.185 121.653 281.178V337.295C121.653 337.295 124.734 346.867 146.438 345.372C168.142 343.877 166.431 334.282 166.431 334.282L166.986 280.611Z" fill="#E50019"/>
<path d="M109.486 242.414C109.807 240.343 109.715 238.228 109.213 236.193C108.712 234.158 107.813 232.242 106.566 230.557C105.32 228.871 103.752 227.45 101.953 226.374C100.154 225.298 98.16 224.59 96.0856 224.29C95.7054 224.192 95.3025 224.236 94.9528 224.414C94.4884 224.731 94.477 225.4 94.5224 225.955C94.9018 230.003 96.5528 233.827 99.2389 236.879C101.925 239.932 105.508 242.055 109.475 242.947" fill="#455A64"/>
<path d="M87.2047 271.764C91.2147 280.034 96.9806 285.607 104.128 285.879C105.556 285.879 106.632 284.984 107.991 284.904C108.781 285.089 109.543 285.378 110.257 285.765C110.615 285.923 110.999 286.015 111.389 286.037C118.775 285.641 125.062 280.453 129.299 271.764C135.2 259.61 133.377 246.549 125.232 242.573C124.163 242.04 123.049 241.604 121.902 241.27C120.584 240.916 119.222 240.755 117.858 240.794C114.709 241.019 111.614 241.729 108.682 242.901L108.286 243.048C101.659 240.126 96.3802 240.103 91.294 242.584C83.1041 246.549 81.2916 259.61 87.2047 271.764Z" fill="#E50019"/>
<path d="M87.3406 259.451C86.9541 258.689 86.723 257.857 86.661 257.004C86.42 254.947 86.669 252.861 87.3875 250.918C88.1061 248.975 89.2739 247.23 90.7956 245.824C91.3959 245.215 92.1125 244.734 92.9026 244.408C92.9026 244.498 92.1549 245.02 91.0788 246.118C89.7036 247.557 88.6359 249.26 87.941 251.125C87.2515 252.993 86.9583 254.983 87.0801 256.97C87.1707 258.488 87.4879 259.417 87.3406 259.451Z" fill="#FAFAFA"/>
<path d="M88.8471 265.228C88.6885 265.228 88.4166 264.696 88.2467 263.948C88.0768 263.2 88.0655 262.577 88.2467 262.543C88.428 262.509 88.6658 263.076 88.8471 263.823C89.0283 264.571 89.0057 265.194 88.8471 265.228Z" fill="#FAFAFA"/>
<path d="M126.319 222.511C126.319 222.613 124.801 223.202 122.502 224.584C121.164 225.389 119.891 226.298 118.696 227.303C117.241 228.545 115.896 229.909 114.674 231.381C113.478 232.874 112.409 234.466 111.48 236.139C110.735 237.51 110.099 238.938 109.577 240.409C108.682 242.924 108.444 244.578 108.297 244.555C108.297 244.174 108.339 243.794 108.421 243.422C108.477 242.967 108.568 242.516 108.693 242.074C108.824 241.477 108.987 240.887 109.18 240.307C109.657 238.791 110.267 237.32 111.004 235.912C112.815 232.446 115.317 229.389 118.356 226.929C119.59 225.923 120.913 225.032 122.309 224.267C122.887 223.916 123.442 223.678 123.941 223.44C124.351 223.235 124.775 223.057 125.209 222.908C125.562 222.732 125.935 222.599 126.319 222.511V222.511Z" fill="#263238"/>
<path d="M63.2465 248.905L50.4121 410.801L170.033 439.721C170.033 439.721 211.765 425.573 212.331 424.61C212.898 423.647 213.056 256.959 213.056 256.959L169.931 268.139L63.2465 248.905Z" fill="#E50019"/>
<g opacity="0.4">
<path opacity="0.4" d="M63.2462 248.905L50.4119 410.801L170.033 439.721C170.033 439.721 211.765 425.573 212.331 424.61C212.897 423.647 213.056 256.959 213.056 256.959L169.931 268.139L63.2462 248.905Z" fill="black"/>
</g>
<path d="M250.869 60.3202L244.196 154.805C243.672 162.24 240.348 169.199 234.895 174.28C229.442 179.361 222.265 182.186 214.812 182.184V182.184C210.777 182.193 206.783 181.372 203.078 179.773C199.373 178.174 196.036 175.831 193.275 172.889C190.513 169.946 188.386 166.468 187.024 162.669C185.663 158.871 185.096 154.833 185.36 150.806C185.949 141.812 186.493 134.438 186.493 134.438C186.493 134.438 163.622 130.881 163.339 108.01C163.18 94.8019 165.457 64.8287 167.406 41.8673C168.045 34.3675 171.481 27.3822 177.031 22.2978C182.581 17.2133 189.84 14.4014 197.367 14.4201H211.176C216.823 14.7519 222.347 16.2121 227.42 18.7145C232.493 21.2169 237.013 24.7108 240.713 28.9896C244.414 33.2685 247.219 38.2456 248.963 43.6268C250.707 49.0081 251.355 54.6843 250.869 60.3202V60.3202Z" fill="#FFBE9D"/>
<path d="M186.538 134.438C186.538 134.438 200.958 135.287 216.319 125.636C216.319 125.636 208.956 142.277 186.13 140.215L186.538 134.438Z" fill="#EB996E"/>
<path d="M171.744 65.4517C172.152 65.8821 174.621 64.047 178.144 64.0584C181.667 64.0697 184.227 65.8255 184.612 65.395C184.794 65.2025 184.386 64.4435 183.264 63.6166C181.742 62.5688 179.936 62.0115 178.088 62.0194C176.259 62.0218 174.476 62.5961 172.99 63.6619C171.914 64.5001 171.552 65.2704 171.744 65.4517Z" fill="#263238"/>
<path d="M209.828 69.4958C209.824 70.3459 210.15 71.1644 210.737 71.7791C211.325 72.3939 212.127 72.757 212.977 72.7922C213.394 72.8277 213.815 72.7791 214.214 72.6494C214.612 72.5197 214.981 72.3114 215.298 72.0368C215.614 71.7623 215.873 71.4271 216.058 71.0509C216.243 70.6748 216.351 70.2654 216.375 69.8469C216.384 68.9951 216.06 68.1734 215.472 67.5574C214.883 66.9415 214.077 66.5801 213.226 66.5506C212.808 66.5135 212.387 66.5609 211.988 66.69C211.588 66.8191 211.219 67.0273 210.902 67.3022C210.585 67.577 210.326 67.9128 210.142 68.2897C209.957 68.6666 209.85 69.0768 209.828 69.4958Z" fill="#263238"/>
<path d="M174.916 69.4958C174.909 70.3468 175.234 71.1669 175.822 71.7822C176.41 72.3976 177.214 72.7598 178.065 72.7922C178.483 72.8293 178.904 72.7818 179.303 72.6527C179.702 72.5236 180.072 72.3154 180.389 72.0406C180.706 71.7658 180.964 71.4299 181.149 71.053C181.334 70.6761 181.44 70.266 181.463 69.8469C181.475 68.9962 181.154 68.1745 180.567 67.5582C179.981 66.9419 179.176 66.5801 178.325 66.5506C177.906 66.5102 177.483 66.5553 177.082 66.6831C176.68 66.8108 176.309 67.0187 175.991 67.294C175.672 67.5692 175.412 67.9063 175.228 68.2847C175.043 68.6632 174.937 69.0752 174.916 69.4958Z" fill="#263238"/>
<path d="M205.942 65.463C206.35 65.8821 208.831 64.047 212.343 64.0584C215.854 64.0697 218.426 65.8255 218.811 65.395C218.992 65.2025 218.584 64.4435 217.463 63.6166C215.94 62.5688 214.134 62.0115 212.286 62.0194C210.457 62.0218 208.675 62.5961 207.188 63.6619C206.112 64.5001 205.75 65.2704 205.942 65.463Z" fill="#263238"/>
<path d="M193.187 91.517C193.187 91.3244 191.023 90.9506 187.523 90.4975C186.628 90.3955 185.779 90.2256 185.631 89.6139C185.55 88.6871 185.756 87.7577 186.221 86.9519L188.883 80.1552C192.564 70.4247 195.237 62.4273 194.841 62.28C194.444 62.1328 191.137 69.9036 187.455 79.6341C186.511 81.9979 185.662 84.2747 184.906 86.4648C184.35 87.5504 184.186 88.795 184.442 89.9877C184.574 90.3049 184.776 90.588 185.033 90.8156C185.29 91.0433 185.595 91.2095 185.926 91.3017C186.421 91.437 186.931 91.5093 187.444 91.517C190.967 91.7095 193.176 91.7209 193.187 91.517Z" fill="#263238"/>
<path d="M203.529 93.9523C202.963 93.9523 202.952 97.7358 199.689 100.443C196.427 103.15 192.36 102.709 192.326 103.264C192.326 103.502 193.232 104 194.954 104.057C197.189 104.085 199.362 103.327 201.094 101.916C202.752 100.552 203.82 98.5995 204.073 96.4671C204.22 94.8812 203.79 93.9296 203.529 93.9523Z" fill="#263238"/>
<path d="M205.036 54.0335C205.387 54.985 208.888 54.5319 212.966 55.0303C217.044 55.5287 220.431 56.6502 220.974 55.8006C221.223 55.3928 220.634 54.4866 219.298 53.535C217.511 52.3851 215.477 51.6747 213.362 51.4621C211.253 51.2057 209.112 51.4582 207.12 52.1984C205.648 52.8327 204.889 53.5804 205.036 54.0335Z" fill="#263238"/>
<path d="M172.23 55.3927C172.853 56.197 175.278 55.3927 178.189 55.3248C181.1 55.2568 183.558 55.8685 184.136 55.0302C184.374 54.6224 183.989 53.8182 182.912 53.0705C181.467 52.161 179.783 51.7032 178.076 51.7556C176.369 51.8081 174.716 52.3685 173.329 53.3651C172.298 54.1807 171.959 55.0076 172.23 55.3927Z" fill="#263238"/>
<path d="M243.154 77.5157C243.551 77.3457 258.877 72.8713 258.379 88.5036C257.88 104.136 242.282 100.409 242.271 99.9673C242.259 99.5255 243.154 77.5157 243.154 77.5157Z" fill="#FFBE9D"/>
<path d="M247.209 94.1564C247.277 94.1564 247.481 94.3604 247.934 94.5869C248.572 94.8826 249.299 94.9192 249.962 94.6889C251.639 94.1338 253.111 91.5624 253.27 88.7418C253.36 87.404 253.143 86.0635 252.635 84.8224C252.505 84.3283 252.256 83.8734 251.911 83.4966C251.565 83.1197 251.134 82.8322 250.653 82.6588C250.342 82.5655 250.008 82.5848 249.71 82.7132C249.411 82.8416 249.168 83.071 249.022 83.3611C248.795 83.7915 248.886 84.1087 248.807 84.1314C248.727 84.154 248.478 83.8595 248.625 83.2138C248.729 82.8308 248.956 82.4926 249.271 82.251C249.712 81.9399 250.257 81.8138 250.789 81.8998C251.427 82.0492 252.016 82.3584 252.502 82.7983C252.987 83.2383 253.353 83.7944 253.564 84.4146C254.183 85.7934 254.459 87.3013 254.369 88.8097C254.165 91.9589 252.454 94.8474 250.177 95.4365C249.753 95.5438 249.31 95.5547 248.88 95.4685C248.451 95.3822 248.047 95.201 247.697 94.9381C247.209 94.5076 247.209 94.1904 247.209 94.1564Z" fill="#EB996E"/>
<path d="M251.854 76.9493C249.475 76.3716 245.352 78.5805 244.332 80.8121C243.313 83.0436 243.086 85.5697 242.067 87.8013C241.047 90.0329 238.759 92.0605 236.403 91.4942C235.594 91.2393 234.867 90.7749 234.296 90.1481C233.725 89.5214 233.33 88.7547 233.152 87.9259C232.823 86.2617 232.823 84.5493 233.152 82.8851C234.069 75.5787 235.598 68.3402 235.893 60.9885C236.187 53.6368 235.145 45.9905 231.283 39.7263C227.42 33.462 220.329 28.8516 212.988 29.4407C208.129 29.8371 203.677 32.3746 198.851 33.0429C195.98 33.4231 193.059 33.1443 190.311 32.2277C187.564 31.3111 185.061 29.7808 182.992 27.7528C182.46 27.2318 180.024 25.6119 180.024 25.6119C180.024 25.2381 180.376 21.9757 181.667 20.7863C191.239 11.9279 208.502 9.4585 221.156 12.6416C233.809 15.8247 245.669 24.751 251.106 36.6111C256.543 48.4713 254.935 64.9305 251.933 76.9493" fill="#263238"/>
<path d="M164.947 37.7441C166.997 42.4904 172.231 45.2544 177.408 45.7754C182.584 46.2965 187.693 44.9598 192.666 43.5099C197.639 42.0599 210.994 39.885 216.171 40.0436C216.941 40.0436 217.87 40.0436 218.289 39.3979C218.833 38.5257 217.961 37.4722 217.157 36.8492C210.36 31.5025 193.855 28.2287 185.201 27.8662C176.547 27.5038 167.473 31.2646 162.783 38.503" fill="#263238"/>
<path d="M167.201 38.3331C167.201 38.3331 227.238 19.0759 253.156 70.9457C253.156 70.9457 257.03 57.9528 257.03 50.9862C257.03 46.3418 254.255 18.6341 225.754 9.92304C225.754 9.92304 182.811 -6.4569 167.201 38.3331Z" fill="#E50019"/>
<g opacity="0.4">
<path opacity="0.4" d="M167.201 38.3331C172.192 33.0772 179.034 29.9728 186.277 29.6787C203.982 28.8857 237.104 38.8428 253.11 70.9457C253.11 70.9457 256.985 57.9528 256.985 50.9862C256.985 46.3418 254.209 18.6341 225.709 9.92304C225.754 9.92304 182.81 -6.4569 167.201 38.3331Z" fill="black"/>
</g>
<path d="M250.608 64.8628C241.507 51.3131 229.582 39.8938 215.65 31.3892C201.898 22.7688 179.096 14.2503 163.384 10.0704C158.672 8.82431 153.755 7.72552 148.941 8.56377C144.127 9.40203 139.414 12.5965 138.225 17.3315C136.73 23.2559 147.287 32.3974 152.192 35.9883C157.034 39.2156 162.048 42.1765 167.213 44.8579C167.213 44.8579 167.077 33.87 184.669 31.6044C208.582 28.5233 250.608 64.8628 250.608 64.8628Z" fill="#E50019"/>
<path d="M201.445 20.0273C201.445 20.0273 192.791 15.247 184.114 14.1369C185.559 12.9977 187.142 12.0461 188.826 11.3049C193.54 12.086 198.098 13.6157 202.329 15.836L201.445 20.0273Z" fill="#FAFAFA"/>
<path d="M276.82 175.886C276.82 175.886 260.417 194.634 262.23 220.721C262.479 224.335 262.66 229.376 263.102 232.978C265.866 255.362 270.148 276.137 270.148 276.137H271.711L328.905 262.011C328.905 262.011 320.284 212.362 318.302 205.769C311.97 184.665 290.255 173.054 290.255 173.054L276.82 175.886Z" fill="#E50019"/>
<path d="M212.331 424.61C212.331 424.61 212.331 424.327 212.331 423.772C212.331 423.216 212.331 422.367 212.331 421.279C212.331 419.082 212.331 415.865 212.331 411.707C212.331 403.359 212.331 391.318 212.399 376.229C212.501 346.108 212.649 304.196 212.819 256.925L213.181 257.208L191.432 262.872L170.068 268.411L170.283 268.128C170.577 291.826 170.498 314.187 170.385 334.395C170.271 354.604 170.158 372.649 170.068 387.738C169.977 402.826 170.068 414.925 170.068 423.307C170.068 427.476 170.068 430.704 170.068 432.913V435.405C170.068 435.96 170.068 436.243 170.068 436.243C170.068 436.243 170.068 435.96 170.068 435.405C170.068 434.85 170.068 434.001 170.068 432.913C170.068 430.647 169.988 427.476 169.92 423.307C169.818 414.959 169.75 402.826 169.762 387.738C169.773 372.649 169.886 354.593 169.954 334.395C170.022 314.198 170.09 291.826 169.784 268.139V267.902L170.011 267.845L191.364 262.306L213.124 256.642L213.498 256.54V256.925C213.249 304.196 213.034 346.12 212.887 376.229C212.785 391.272 212.694 403.359 212.637 411.707C212.637 415.865 212.569 419.082 212.547 421.279C212.547 422.412 212.547 423.194 212.547 423.772C212.547 424.349 212.331 424.61 212.331 424.61Z" fill="#263238"/>
<path d="M185.847 142.175C185.847 142.175 183.581 163.935 190.899 167.322C199.157 171.128 207.392 167.402 212.422 164.173C225.913 155.564 245.963 131.651 245.963 131.651L259.557 149.3C259.557 149.3 225.324 190.442 218.448 190.17C213.917 190 206.951 185.639 202.589 182.569C200.203 180.902 198.076 178.891 196.28 176.6L190.355 169.067C182.958 172.714 176.977 177.393 172.843 183.385C172.843 183.385 170.872 168.149 174.417 161.239C177.963 154.329 185.031 142.401 185.031 142.401L185.847 142.175Z" fill="#E50019"/>
<path d="M173.998 161.828C173.97 161.959 173.925 162.084 173.862 162.202C173.76 162.474 173.613 162.825 173.42 163.267C172.95 164.675 172.612 166.123 172.412 167.594C171.754 173.012 171.754 178.489 172.412 183.906L172.004 183.827C173.91 180.608 176.399 177.773 179.345 175.467C182.679 172.756 186.321 170.448 190.197 168.591L190.378 168.5L190.514 168.659C192.904 171.434 195.43 174.323 198.092 177.257C200.754 180.33 203.752 183.096 207.03 185.503C208.595 186.612 210.297 187.514 212.093 188.188C212.977 188.51 213.886 188.756 214.812 188.924C215.718 189.071 216.639 189.105 217.553 189.026C221.235 188.686 224.35 186.579 226.932 184.359L250.37 159.37L257.166 152.2L258.99 150.308L259.466 149.821L259.647 149.674L259.511 149.855L259.058 150.376L257.302 152.324L250.619 159.608L227.352 184.733C226.01 185.928 224.544 186.976 222.979 187.859C221.341 188.789 219.528 189.367 217.655 189.559C216.688 189.638 215.714 189.604 214.755 189.457C213.794 189.288 212.85 189.034 211.934 188.698C210.084 188.005 208.329 187.08 206.712 185.945C203.388 183.515 200.348 180.719 197.65 177.608C194.977 174.663 192.451 171.763 190.072 168.976L190.4 169.044C186.563 170.886 182.952 173.167 179.639 175.841C176.765 178.099 174.327 180.863 172.446 183.997L172.106 184.586L172.038 183.917C171.405 178.464 171.466 172.953 172.219 167.515C172.452 166.042 172.831 164.596 173.352 163.199C173.556 162.723 173.737 162.383 173.851 162.145C173.893 162.037 173.942 161.931 173.998 161.828Z" fill="#263238"/>
<g opacity="0.3">
<path opacity="0.3" d="M174.836 180.168C174.607 180.739 174.565 181.367 174.716 181.964C174.866 182.56 175.202 183.093 175.674 183.487C176.146 183.668 176.658 183.716 177.156 183.626C177.653 183.536 178.116 183.312 178.495 182.977C179.237 182.298 179.878 181.516 180.398 180.655C181.753 178.702 183.382 176.955 185.235 175.467C187.058 173.994 189.562 172.748 191.658 173.79C192.968 174.656 193.962 175.924 194.49 177.404C197.333 183.215 200.742 189.128 206.304 192.447C211.866 195.766 219.014 195.913 225.142 193.75C231.235 191.378 236.595 187.444 240.684 182.343C244.741 177.257 248.339 171.821 251.434 166.099C253.994 161.67 256.588 157.105 257.381 152.052C256.679 152.449 255.025 154.998 254.323 155.394C254.323 155.394 227.918 184.472 225.437 185.979C222.956 187.486 216.114 197.522 196.732 175.784L190.321 168.829C190.321 168.829 178.11 174.753 174.836 180.168Z" fill="black"/>
</g>
<path d="M245.558 242.904L216.524 238.451L215.18 247.218L244.213 251.671L245.558 242.904Z" fill="white"/>
<path d="M324.102 263.11L278.791 274.064L284.024 316.803L197.254 381.972C193.787 382.459 190.23 383.014 188.259 383.513C183.513 384.645 175.13 396.596 172.763 397.786L155.851 410.835C155.851 410.835 154.367 416.771 162.081 415.582C169.795 414.392 178.393 408.468 179.288 408.468C180.183 408.468 182.879 410.269 181.553 414.132C180.421 417.53 175.776 429.22 175.776 429.22L170.033 439.755C170.033 439.755 194.863 440.571 201.751 431.361C206.463 425.108 221.008 407.38 221.008 407.38C221.008 407.38 323.15 357.13 329.279 346.607C337.627 332.288 324.102 263.11 324.102 263.11Z" fill="#FFBE9D"/>
<path d="M303.214 335.222C303.275 333.664 303.207 332.103 303.01 330.555C302.461 326.819 300.63 323.389 297.829 320.855C295.029 318.321 291.434 316.841 287.661 316.668C286.1 316.625 284.539 316.712 282.994 316.928C283.381 316.743 283.793 316.617 284.217 316.554C285.356 316.313 286.52 316.21 287.683 316.248C291.588 316.313 295.336 317.794 298.23 320.415C301.124 323.036 302.968 326.62 303.418 330.499C303.558 331.654 303.558 332.821 303.418 333.976C303.411 334.399 303.342 334.819 303.214 335.222V335.222Z" fill="#EB996E"/>
<path d="M190.435 423.794C190.346 424.765 190.148 425.722 189.845 426.649C189.265 428.94 188.421 431.156 187.331 433.253C186.244 435.397 184.591 437.203 182.55 438.475C181.927 438.847 181.251 439.122 180.545 439.291C180.291 439.379 180.019 439.406 179.752 439.37C180.646 439.026 181.51 438.609 182.335 438.124C184.243 436.801 185.799 435.032 186.866 432.97C187.911 430.901 188.771 428.744 189.438 426.524C189.69 425.587 190.024 424.674 190.435 423.794V423.794Z" fill="#EB996E"/>
<path d="M202.465 419.841C202.294 420.792 202.001 421.717 201.593 422.593C200.74 424.762 199.749 426.873 198.625 428.914C197.497 430.955 196.241 432.923 194.864 434.805C194.342 435.634 193.717 436.395 193.006 437.07C193.443 436.21 193.951 435.388 194.524 434.612C195.498 433.128 196.79 431.044 198.104 428.676C199.418 426.309 200.471 424.145 201.208 422.48C201.549 421.565 201.97 420.682 202.465 419.841Z" fill="#EB996E"/>
<path d="M202.136 345.87C202.259 346.344 202.328 346.831 202.34 347.32C202.442 348.249 202.521 349.586 202.567 351.274C202.78 360.017 201.516 368.733 198.829 377.056C198.308 378.642 197.854 379.922 197.492 380.783C197.337 381.244 197.136 381.688 196.892 382.108C196.967 381.627 197.096 381.156 197.277 380.703C197.571 379.82 197.968 378.528 198.41 376.931C199.626 372.768 200.55 368.525 201.173 364.233C201.786 359.94 202.104 355.61 202.125 351.274C202.125 349.609 202.125 348.261 202.125 347.332C202.083 346.845 202.087 346.356 202.136 345.87V345.87Z" fill="#263238"/>
<path d="M177.589 359.475C178.14 360.633 178.617 361.825 179.016 363.043C179.854 365.309 181.021 368.322 182.415 371.664C183.808 375.005 185.099 378.007 186.062 380.171C186.629 381.321 187.125 382.505 187.546 383.717C186.816 382.648 186.193 381.51 185.688 380.318C184.623 378.189 183.253 375.209 181.871 371.856C180.489 368.503 179.39 365.411 178.654 363.145C178.186 361.957 177.83 360.729 177.589 359.475V359.475Z" fill="#263238"/>
<path d="M171.007 388.803C170.779 388.9 170.539 388.969 170.294 389.007L168.221 389.505C167.315 389.72 166.216 389.97 164.913 390.185C163.61 390.4 162.149 390.717 160.495 390.921C158.841 391.125 157.097 391.408 155.115 391.578C153.132 391.748 151.082 391.895 148.896 392.02C139.373 392.442 129.834 391.716 120.486 389.856C118.345 389.392 116.294 388.984 114.414 388.463C112.534 387.942 110.778 387.489 109.192 387.002C107.606 386.515 106.179 386.028 104.933 385.608C103.687 385.189 102.667 384.781 101.772 384.476L99.7898 383.683C99.5559 383.593 99.3288 383.487 99.1101 383.365C99.3598 383.401 99.6037 383.469 99.8351 383.569L101.851 384.26C102.712 384.578 103.788 384.963 105.035 385.393C106.281 385.824 107.708 386.277 109.305 386.696C110.902 387.115 112.635 387.647 114.527 388.078C116.419 388.508 118.447 388.973 120.588 389.414C125.245 390.283 129.945 390.911 134.668 391.295C139.395 391.634 144.136 391.725 148.873 391.567C151.059 391.453 153.132 391.374 155.069 391.182C157.006 390.989 158.796 390.808 160.439 390.604C162.081 390.4 163.554 390.151 164.856 389.947C166.159 389.743 167.269 389.55 168.175 389.369L170.271 388.984C170.509 388.896 170.756 388.835 171.007 388.803V388.803Z" fill="#263238"/>
<path d="M166.692 369.104C164.817 368.418 163.015 367.549 161.311 366.51C159.517 365.639 157.81 364.6 156.214 363.406C158.092 364.083 159.895 364.952 161.594 366C163.393 366.862 165.1 367.902 166.692 369.104Z" fill="#263238"/>
<path d="M328.905 262.011L328.622 262.102L327.784 262.328L324.544 263.155L312.356 266.168L270.216 276.363L269.91 276.431V276.125C268.721 268.343 267.09 259.949 265.515 251.204C264.484 245.37 263.589 239.65 262.978 234.099C262.366 228.549 262.094 223.145 262.015 218.003C261.89 213.135 262.174 208.266 262.865 203.446C263.478 199.23 264.731 195.131 266.58 191.292C268.162 188.146 270.278 185.298 272.833 182.875C274.756 181.043 276.963 179.536 279.369 178.412C280.899 177.728 282.503 177.223 284.149 176.905L285.441 176.747C285.588 176.732 285.736 176.732 285.883 176.747C285.739 176.794 285.591 176.824 285.441 176.838L284.172 177.064C282.55 177.414 280.973 177.946 279.471 178.65C277.108 179.812 274.944 181.341 273.06 183.181C270.564 185.601 268.499 188.428 266.954 191.541C265.156 195.351 263.942 199.411 263.352 203.582C262.686 208.381 262.421 213.228 262.559 218.071C262.649 223.191 262.944 228.56 263.555 234.099C264.167 239.639 265.073 245.348 266.104 251.17C267.667 259.904 269.287 268.309 270.477 276.091L270.126 275.853L312.322 265.828L324.544 262.974L327.807 262.238L328.656 262.056C328.738 262.033 328.821 262.018 328.905 262.011V262.011Z" fill="#263238"/>
</svg>
