<svg width="145" height="145" viewBox="0 0 145 145" fill="none" xmlns="http://www.w3.org/2000/svg">
<path d="M49.1985 104.09L49.4044 105.139C49.3902 105.057 49.3638 104.977 49.3261 104.902C48.5837 103.347 43.4391 103.263 37.2476 105.627C31.3519 107.874 27.9154 111.044 28.2373 112.685L28.0314 111.65C27.7066 110.009 31.146 106.842 37.0388 104.591C43.2303 102.228 48.3749 102.312 49.1202 103.866C49.1543 103.938 49.1806 104.013 49.1985 104.09Z" fill="#DBDBDB"/>
<path d="M36.4907 103.431C43.1839 100.876 49.3609 100.821 50.5499 103.307C51.7389 105.792 47.4324 109.739 40.7392 112.297C34.046 114.854 27.869 114.907 26.6771 112.421C25.4852 109.936 29.8004 105.986 36.4907 103.431ZM40.1882 111.148C46.3797 108.785 49.8655 105.406 49.1202 103.852C48.3749 102.297 43.2303 102.213 37.0388 104.577C30.8473 106.94 27.3644 110.319 28.1097 111.873C28.855 113.428 33.9967 113.512 40.1882 111.148Z" fill="#EBEBEB"/>
<path d="M50.7094 103.782L50.9153 104.832C51.4083 107.323 47.2265 110.945 40.9451 113.344C34.2548 115.898 28.0778 115.954 26.8859 113.468C26.8121 113.317 26.7585 113.157 26.7264 112.993L26.5205 111.94C26.5529 112.104 26.6055 112.264 26.6771 112.416C27.869 114.901 34.046 114.846 40.7392 112.291C47.0206 109.91 51.1995 106.273 50.7094 103.782Z" fill="#DBDBDB"/>
<path d="M38.4714 79.802C34.6173 80.8982 29.2581 80.5241 26.8917 78.0098C26.3813 77.4675 26.4219 76.1277 26.4857 75.5564C26.7148 73.4539 30.0527 72.0764 33.0252 71.2528C36.7952 70.1856 42.8852 70.1711 44.9384 72.6448C45.4372 73.248 45.8258 73.4713 45.7649 74.1789C45.6112 75.9798 43.3289 78.4187 38.4714 79.802Z" fill="#C7C7C7"/>
<path d="M38.6916 78.9233C34.8375 80.0224 29.4783 79.6454 27.109 77.1311C24.7397 74.6168 29.4638 71.4413 33.2454 70.3741C37.027 69.3069 43.1054 69.2953 45.1586 71.7661C46.9363 73.9092 45.4486 77.0006 38.6916 78.9233Z" fill="#DBDBDB"/>
<path d="M38.2567 78.1229C35.1102 79.019 30.7312 78.7029 28.7969 76.6584C26.8626 74.6139 30.7196 72.0184 33.8081 71.1484C36.8966 70.2784 41.8643 70.2639 43.5405 72.2852C44.9934 74.0252 43.7899 76.5598 38.2567 78.1229Z" fill="#EBEBEB"/>
<path d="M39.9475 74.7908C39.9475 74.6284 41.0553 74.379 41.035 74.6922C41.0176 74.9532 39.9504 75.0025 39.9475 74.7908Z" fill="white"/>
<path d="M37.4274 72.6796C37.1374 72.6796 37.1722 72.0706 37.7348 72.0996C38.2075 72.1141 37.816 72.6854 37.4274 72.6796Z" fill="white"/>
<path d="M40.1389 72.1287C39.9301 72.033 40.5884 71.4733 40.9683 71.6676C41.2873 71.83 40.4115 72.2534 40.1389 72.1287Z" fill="white"/>
<path d="M41.5626 75.3129C41.7888 75.1766 42.7226 75.4173 42.2731 75.6696C41.9019 75.8813 41.2726 75.4898 41.5626 75.3129Z" fill="white"/>
<path d="M35.113 77.0122C35.403 77.0441 35.1797 77.6531 34.6461 77.5922C34.2024 77.5197 34.7447 76.9687 35.113 77.0122Z" fill="white"/>
<path d="M31.61 74.3442C31.61 74.5095 30.4819 74.7358 30.5254 74.4196C30.5718 74.1586 31.6332 74.1325 31.61 74.3442Z" fill="white"/>
<path d="M33.144 73.4714C32.9961 73.6309 31.9115 73.5816 32.2102 73.28C32.4625 73.0306 33.3499 73.2655 33.144 73.4714Z" fill="white"/>
<path d="M35.3798 75.5421C35.6872 75.487 36.0497 76.0148 35.4639 76.1047C34.9767 76.1772 34.9883 75.6088 35.3798 75.5421Z" fill="white"/>
<path d="M31.0298 78.3173C31.0298 78.3173 34.91 75.7798 34.4692 75.1621C34.0284 74.5444 27.7325 75.2897 27.6774 75.7044C27.6223 76.1191 29.1825 78.1636 31.0298 78.3173Z" fill="#DBDBDB"/>
<path d="M31.03 72.0011C31.03 72.0011 34.2345 74.0485 35.554 73.7991C36.8735 73.5497 37.9581 70.1567 37.207 70.1335C36.4559 70.1103 32.0334 71.0006 31.03 72.0011Z" fill="#DBDBDB"/>
<path d="M43.088 70.9021C43.088 70.9021 38.738 73.2221 39.0106 73.8746C39.2832 74.5271 45.5414 74.2168 45.698 73.7963C45.8546 73.3758 44.828 71.1863 43.088 70.9021Z" fill="#DBDBDB"/>
<path d="M42.5865 76.8731C42.5865 76.8731 39.1065 74.9592 37.8102 75.2492C36.5139 75.5392 35.7802 78.9176 36.5545 78.9176C37.3288 78.9176 41.6817 77.891 42.5865 76.8731Z" fill="#DBDBDB"/>
<path d="M111.331 119.01C107.477 120.106 102.118 119.732 99.7513 117.218C99.2409 116.676 99.2815 115.336 99.3453 114.764C99.5744 112.662 102.912 111.299 105.885 110.461C109.655 109.394 115.745 109.379 117.798 111.853C118.297 112.456 118.685 112.679 118.624 113.387C118.468 115.188 116.188 117.627 111.331 119.01Z" fill="#C7C7C7"/>
<path d="M111.551 118.131C107.697 119.23 102.338 118.853 99.9686 116.339C97.5993 113.825 102.323 110.649 106.105 109.582C109.887 108.515 115.965 108.503 118.018 110.974C119.796 113.117 118.32 116.209 111.551 118.131Z" fill="#DBDBDB"/>
<path d="M111.116 117.331C107.97 118.227 103.576 117.911 101.656 115.881C99.7367 113.851 103.579 111.241 106.668 110.371C109.756 109.501 114.724 109.487 116.4 111.508C117.853 113.233 116.638 115.759 111.116 117.331Z" fill="#EBEBEB"/>
<path d="M112.81 113.999C112.81 113.836 113.918 113.587 113.894 113.9C113.874 114.161 112.81 114.211 112.81 113.999Z" fill="white"/>
<path d="M110.287 111.885C109.997 111.885 110.032 111.279 110.594 111.305C111.07 111.322 110.676 111.893 110.287 111.885Z" fill="white"/>
<path d="M112.998 111.337C112.79 111.241 113.448 110.681 113.828 110.876C114.147 111.038 113.271 111.461 112.998 111.337Z" fill="white"/>
<path d="M114.422 114.521C114.648 114.385 115.582 114.625 115.133 114.878C114.759 115.089 114.132 114.698 114.422 114.521Z" fill="white"/>
<path d="M107.973 116.22C108.263 116.252 108.039 116.861 107.506 116.8C107.062 116.728 107.604 116.177 107.973 116.22Z" fill="white"/>
<path d="M104.478 113.552C104.478 113.718 103.35 113.944 103.394 113.628C103.431 113.367 104.493 113.341 104.478 113.552Z" fill="white"/>
<path d="M106.004 112.679C105.856 112.839 104.768 112.79 105.07 112.488C105.322 112.23 106.192 112.473 106.004 112.679Z" fill="white"/>
<path d="M108.245 114.75C108.553 114.695 108.915 115.223 108.327 115.313C107.836 115.385 107.848 114.817 108.245 114.75Z" fill="white"/>
<path d="M103.884 117.525C103.884 117.525 107.764 114.988 107.323 114.37C106.882 113.752 100.587 114.498 100.531 114.912C100.476 115.327 102.042 117.372 103.884 117.525Z" fill="#DBDBDB"/>
<path d="M103.887 111.209C103.887 111.209 107.077 113.257 108.411 113.007C109.745 112.758 110.815 109.365 110.064 109.342C109.313 109.318 104.893 110.2 103.887 111.209Z" fill="#DBDBDB"/>
<path d="M115.948 110.11C115.948 110.11 111.598 112.43 111.868 113.082C112.137 113.735 118.401 113.425 118.558 113.004C118.714 112.584 117.688 110.394 115.948 110.11Z" fill="#DBDBDB"/>
<path d="M115.446 116.081C115.446 116.081 111.966 114.167 110.67 114.457C109.373 114.747 108.64 118.126 109.414 118.126C110.188 118.126 114.55 117.099 115.446 116.081Z" fill="#DBDBDB"/>
<path d="M120.863 37.7984C116.887 37.3228 112.085 34.8984 110.87 31.6765C110.609 30.9805 111.16 29.7625 111.45 29.2579C112.473 27.4048 116.09 27.4367 119.143 27.8079C123.041 28.2835 128.661 30.6151 129.601 33.6862C129.83 34.4344 130.1 34.794 129.772 35.4262C128.925 37.0241 125.88 38.3929 120.863 37.7984Z" fill="#C7C7C7"/>
<path d="M121.406 37.0735C117.427 36.5979 112.627 34.1735 111.412 30.9516C110.197 27.7297 115.78 26.6016 119.677 27.083C123.575 27.5644 129.192 29.8902 130.132 32.9613C130.947 35.6235 128.383 37.9029 121.406 37.0735Z" fill="#DBDBDB"/>
<path d="M121.313 36.1658C118.065 35.7801 114.141 33.8081 113.149 31.1662C112.158 28.5243 116.716 27.6195 119.9 28.0052C123.085 28.3909 127.675 30.2991 128.444 32.8076C129.108 34.9826 127.02 36.8444 121.313 36.1658Z" fill="#EBEBEB"/>
<path d="M124.158 33.7414C124.219 33.5935 125.338 33.7907 125.199 34.0691C125.083 34.304 124.079 33.9299 124.158 33.7414Z" fill="white"/>
<path d="M122.65 30.821C122.374 30.7021 122.65 30.1598 123.157 30.4005C123.586 30.6035 123.004 30.9805 122.65 30.821Z" fill="white"/>
<path d="M125.361 31.3605C125.207 31.1923 126.028 30.9284 126.306 31.2532C126.538 31.5258 125.57 31.5809 125.361 31.3605Z" fill="white"/>
<path d="M125.448 34.8492C125.709 34.8086 126.472 35.3886 125.964 35.4495C125.541 35.5017 125.112 34.8985 125.448 34.8492Z" fill="white"/>
<path d="M118.842 33.9299C119.091 34.0691 118.653 34.5505 118.192 34.275C117.807 34.0459 118.517 33.7472 118.842 33.9299Z" fill="white"/>
<path d="M116.647 30.1192C116.574 30.2671 115.455 30.0438 115.617 29.7712C115.753 29.5421 116.739 29.9278 116.647 30.1192Z" fill="white"/>
<path d="M118.39 29.9018C118.192 29.9917 117.209 29.5277 117.604 29.3653C117.931 29.2319 118.645 29.7858 118.39 29.9018Z" fill="white"/>
<path d="M119.663 32.6771C119.953 32.7467 120.095 33.3703 119.521 33.2282C119.039 33.1064 119.268 32.5872 119.663 32.6771Z" fill="white"/>
<path d="M114.567 33.5557C114.567 33.5557 119.123 32.7089 118.955 31.9723C118.787 31.2357 112.691 29.4899 112.479 29.8524C112.268 30.2149 112.926 32.7031 114.567 33.5557Z" fill="#DBDBDB"/>
<path d="M117.003 27.7297C117.003 27.7297 119.17 30.853 120.483 31.1314C121.797 31.4098 124.12 28.7099 123.424 28.388C122.728 28.0661 118.32 27.1932 117.003 27.7297Z" fill="#DBDBDB"/>
<path d="M128.554 31.3662C128.554 31.3662 123.647 31.8215 123.647 32.5262C123.647 33.2309 129.543 35.3624 129.847 35.0347C130.152 34.707 130.053 32.3 128.554 31.3662Z" fill="#DBDBDB"/>
<path d="M125.79 36.682C125.79 36.682 123.325 33.5761 122.02 33.3412C120.715 33.1063 118.743 35.9512 119.448 36.2412C120.153 36.5312 124.564 37.2736 125.79 36.682Z" fill="#DBDBDB"/>
<path d="M24.7282 72.4651C20.7552 71.8648 15.976 68.9532 14.7899 65.1049C14.5347 64.2755 15.1002 62.8342 15.3699 62.2369C16.411 60.0503 20.0099 60.1257 23.0752 60.5984C26.9699 61.19 32.5756 64.0232 33.4891 67.6772C33.7124 68.5675 33.9821 68.9967 33.6457 69.7362C32.7931 71.6299 29.7394 73.2249 24.7282 72.4651Z" fill="#C7C7C7"/>
<path d="M25.2763 71.6125C21.3004 71.0093 16.5299 68.0977 15.3351 64.2494C14.1403 60.4011 19.7373 59.1396 23.632 59.7399C27.5267 60.3402 33.1237 63.1648 34.0372 66.8217C34.8289 69.9914 32.245 72.6681 25.2763 71.6125Z" fill="#DBDBDB"/>
<path d="M25.1921 70.5365C21.9441 70.0435 18.0407 67.6655 17.0721 64.519C16.1035 61.3725 20.671 60.3459 23.8523 60.8389C27.0336 61.3319 31.6069 63.6374 32.3522 66.6389C32.996 69.2112 30.8848 71.3978 25.1921 70.5365Z" fill="#EBEBEB"/>
<path d="M28.0574 67.6889C28.1183 67.512 29.2348 67.7585 29.0956 68.0891C28.9738 68.3646 27.9762 67.9209 28.0574 67.6889Z" fill="white"/>
<path d="M26.5727 64.2089C26.3001 64.061 26.5727 63.423 27.0831 63.7159C27.5094 63.9595 26.9265 64.3974 26.5727 64.2089Z" fill="white"/>
<path d="M29.2899 64.8759C29.1362 64.6729 29.9598 64.3684 30.2353 64.757C30.4499 65.0847 29.4813 65.1398 29.2899 64.8759Z" fill="white"/>
<path d="M29.3363 69.0198C29.5973 68.9763 30.3571 69.6723 29.8496 69.739C29.4233 69.7912 28.9999 69.072 29.3363 69.0198Z" fill="white"/>
<path d="M22.7388 67.8599C22.9882 68.0281 22.5474 68.5936 22.0863 68.263C21.7006 67.9817 22.4169 67.6366 22.7388 67.8599Z" fill="white"/>
<path d="M20.5899 63.3156C20.5145 63.4867 19.4009 63.2141 19.5633 62.8922C19.688 62.6196 20.6711 63.0894 20.5899 63.3156Z" fill="white"/>
<path d="M22.33 63.072C22.1328 63.1793 21.1526 62.6167 21.547 62.4282C21.8689 62.2716 22.5765 62.9299 22.33 63.072Z" fill="white"/>
<path d="M23.5683 66.3781C23.8583 66.4622 23.9975 67.2075 23.4233 67.0306C23.3368 67.0114 23.2615 66.9585 23.2139 66.8838C23.1663 66.809 23.1504 66.7184 23.1696 66.6318C23.1888 66.5453 23.2416 66.47 23.3164 66.4224C23.3912 66.3748 23.4818 66.3588 23.5683 66.3781Z" fill="white"/>
<path d="M18.4672 67.3698C18.4672 67.3698 23.0318 66.4099 22.8694 65.5399C22.707 64.6699 16.6257 62.5326 16.4111 62.9589C16.1965 63.3852 16.8345 66.3432 18.4672 67.3698Z" fill="#DBDBDB"/>
<path d="M20.9553 60.4794C20.9553 60.4794 23.0955 64.2117 24.4063 64.5394C25.7171 64.8671 28.0487 61.6887 27.3672 61.3117C26.6857 60.9347 22.2719 59.8588 20.9553 60.4794Z" fill="#DBDBDB"/>
<path d="M32.4798 64.9136C32.4798 64.9136 27.5498 65.4037 27.5498 66.2505C27.5498 67.0973 33.4194 69.6754 33.7268 69.2897C34.0342 68.904 33.9617 66.0359 32.4798 64.9136Z" fill="#DBDBDB"/>
<path d="M29.664 71.192C29.664 71.192 27.2251 67.4829 25.9114 67.19C24.5977 66.8971 22.6199 70.2524 23.3159 70.6062C24.0119 70.96 28.4199 71.8822 29.664 71.192Z" fill="#DBDBDB"/>
<path d="M116.188 75.0286L116.159 75.9421C116.162 75.87 116.155 75.7979 116.139 75.7275C115.82 74.292 111.554 73.2248 105.94 73.9875C100.598 74.7183 97.1208 76.6903 97.0715 78.1171L97.1034 77.2036C97.1498 75.7826 100.63 73.8106 105.972 73.0798C111.586 72.3113 115.852 73.3698 116.171 74.8198C116.185 74.8885 116.191 74.9586 116.188 75.0286Z" fill="#DBDBDB"/>
<path d="M105.737 72.0184C111.804 71.189 116.957 72.3374 117.467 74.6284C117.978 76.9194 113.625 79.3815 107.555 80.2109C101.485 81.0403 96.335 79.8919 95.8246 77.6009C95.3142 75.3099 99.6699 72.8507 105.737 72.0184ZM107.32 79.1698C112.935 78.4013 116.49 76.2698 116.171 74.8198C115.852 73.3698 111.586 72.3142 105.972 73.0798C100.357 73.8454 96.8019 75.9798 97.1209 77.4298C97.4399 78.8798 101.709 79.9325 107.32 79.1698Z" fill="#EBEBEB"/>
<path d="M117.508 75.0635L117.476 75.977C117.403 78.1462 113.219 80.356 107.526 81.1361C101.459 81.9655 96.306 80.8142 95.7956 78.5261C95.7634 78.3864 95.7498 78.243 95.755 78.0998L95.784 77.1863C95.7802 77.3295 95.7939 77.4726 95.8246 77.6126C96.335 79.9123 101.491 81.0636 107.555 80.2226C113.251 79.4396 117.45 77.2327 117.508 75.0635Z" fill="#DBDBDB"/>
<path d="M127.652 68.5647L127.191 69.5275C127.226 69.4515 127.252 69.3717 127.269 69.2897C127.6 67.6019 123.54 64.4496 117.16 62.64C111.093 60.9 106.43 61.3843 105.717 62.8894L106.181 61.9266C106.903 60.4186 111.557 59.943 117.621 61.6743C124.001 63.4955 128.061 66.6449 127.728 68.3443C127.711 68.4203 127.685 68.4942 127.652 68.5647Z" fill="#DBDBDB"/>
<path d="M117.876 60.4214C124.764 62.3876 129.74 66.0445 129.206 68.7473C128.673 71.4501 122.853 72.0272 115.965 70.061C109.078 68.0948 104.11 64.4379 104.635 61.7322C105.16 59.0265 110.989 58.4552 117.876 60.4214ZM116.212 68.814C122.592 70.6323 127.397 70.0175 127.733 68.3268C128.07 66.6361 124.001 63.4867 117.627 61.6568C111.252 59.8269 106.441 60.4562 106.108 62.144C105.774 63.8318 109.837 66.987 116.212 68.814Z" fill="#EBEBEB"/>
<path d="M129.05 69.2229L128.586 70.1886C127.487 72.4767 121.968 72.8711 115.504 71.0267C108.617 69.0605 103.637 65.4007 104.174 62.6979C104.206 62.5332 104.26 62.3733 104.333 62.2223L104.794 61.2595C104.722 61.4095 104.669 61.5684 104.638 61.7322C104.101 64.4379 109.081 68.0948 115.968 70.061C122.429 71.9199 127.948 71.511 129.05 69.2229Z" fill="#DBDBDB"/>
<path d="M72.4999 134.908C89.6405 134.908 103.536 133.594 103.536 131.973C103.536 130.352 89.6405 129.038 72.4999 129.038C55.3593 129.038 41.4641 130.352 41.4641 131.973C41.4641 133.594 55.3593 134.908 72.4999 134.908Z" fill="#EBEBEB"/>
<path d="M110.017 125.811C103.904 130.027 89.6507 132.304 73.2598 131.153C56.869 130.001 43.0824 125.759 37.6188 120.713C35.844 118.053 35.7483 113.637 37.12 112.169C37.1351 112.152 37.1516 112.137 37.1693 112.123L37.3665 111.957C42.8765 107.297 57.768 104.707 75.0346 105.92C92.3013 107.132 106.645 111.766 111.462 117.137L111.691 117.398C111.699 117.402 111.705 117.41 111.708 117.418C112.851 119.077 112.14 123.427 110.017 125.811Z" fill="#E50019"/>
<path opacity="0.2" d="M110.017 125.811C103.904 130.027 89.6507 132.304 73.2598 131.153C56.869 130.001 43.0824 125.759 37.6188 120.713C35.844 118.053 35.7483 113.637 37.12 112.169C37.1351 112.152 37.1516 112.137 37.1693 112.123L37.3665 111.957C42.8765 107.297 57.768 104.707 75.0346 105.92C92.3013 107.132 106.645 111.766 111.462 117.137L111.691 117.398C111.699 117.402 111.705 117.41 111.708 117.418C112.851 119.077 112.14 123.427 110.017 125.811Z" fill="black"/>
<path d="M110.017 125.811C109.77 126.092 109.495 126.349 109.197 126.576C104.212 130.312 88.7256 133.183 73.1961 132.086C57.6666 130.99 42.746 125.996 38.3235 121.591C38.0585 121.327 37.8223 121.035 37.6188 120.721C35.844 118.062 35.7483 113.645 37.12 112.178C37.1351 112.161 37.1516 112.145 37.1693 112.131L37.3665 111.966C37.7986 111.644 38.3467 111.583 39.005 111.888C42.4125 113.445 55.9788 120.614 73.9124 121.875C91.846 123.137 106.285 117.934 109.872 116.867C110.137 116.764 110.426 116.737 110.705 116.788C110.985 116.839 111.244 116.967 111.456 117.157L111.685 117.418C111.693 117.423 111.699 117.43 111.702 117.438C112.851 119.077 112.14 123.427 110.017 125.811Z" fill="#E50019"/>
<path opacity="0.3" d="M110.017 125.811C109.77 126.092 109.495 126.349 109.197 126.576C104.212 130.312 88.7256 133.183 73.1961 132.086C57.6666 130.99 42.746 125.996 38.3235 121.591C38.0585 121.327 37.8223 121.035 37.6188 120.721C35.844 118.062 35.7483 113.645 37.12 112.178C37.1351 112.161 37.1516 112.145 37.1693 112.131L37.3665 111.966C37.7986 111.644 38.3467 111.583 39.005 111.888C42.4125 113.445 55.9788 120.614 73.9124 121.875C91.846 123.137 106.285 117.934 109.872 116.867C110.137 116.764 110.426 116.737 110.705 116.788C110.985 116.839 111.244 116.967 111.456 117.157L111.685 117.418C111.693 117.423 111.699 117.43 111.702 117.438C112.851 119.077 112.14 123.427 110.017 125.811Z" fill="black"/>
<path opacity="0.5" d="M104.081 117.549C105.666 116.71 107.398 116.184 109.182 116C107.642 116.944 105.886 117.477 104.081 117.549Z" fill="white"/>
<path opacity="0.5" d="M92.8523 119.77C95.9393 118.973 99.0778 118.392 102.245 118.03C99.2451 119.172 96.0627 119.762 92.8523 119.77Z" fill="white"/>
<path opacity="0.5" d="M58.29 116.986C60.1576 117.711 62.1238 118.129 64.09 118.523C67.3611 119.156 70.6643 119.61 73.9848 119.883C77.9718 120.216 81.974 120.33 85.9734 120.225H86.9739C87.9367 120.179 89.0184 120.127 89.9812 120.098C81.9908 121.164 73.8795 120.908 65.9721 119.341C63.3621 118.784 60.7115 118.166 58.2987 116.998L58.29 116.986Z" fill="white"/>
<g opacity="0.1">
<path opacity="0.1" d="M100.63 115.333C100.094 115.954 98.7624 116.513 95.6768 116.835C88.7434 117.598 81.7557 117.741 74.7968 117.262C67.6747 116.775 60.6069 115.683 53.6703 113.996C48.8186 112.854 48.0849 111.714 48.0182 110.725C47.9831 110.492 48.0034 110.254 48.0774 110.03C48.1515 109.807 48.2773 109.603 48.4445 109.437C48.9752 108.811 50.3034 108.248 53.4064 107.927C60.3399 107.164 67.3275 107.02 74.2864 107.497C81.4079 107.991 88.4746 109.089 95.41 110.78C100.262 111.92 100.995 113.062 101.059 114.051C101.092 114.284 101.071 114.52 100.996 114.743C100.922 114.966 100.796 115.168 100.63 115.333Z" fill="black"/>
</g>
<path d="M113.77 102.37C113.225 103.788 111.604 105.325 107.584 106.955C101.396 109.452 92.3533 112.755 79.8717 114.463C67.3901 116.171 57.6055 115.411 50.8369 114.666C44.0683 113.921 42.772 111.885 42.4269 109.93C42.2529 108.968 42.2384 108.04 42.6473 107.219C43.1809 105.798 44.7991 104.255 48.8417 102.617C55.0303 100.12 64.0725 96.8165 76.5512 95.1084C89.0299 93.4003 98.8174 94.163 105.592 94.9054C112.366 95.6478 113.654 97.6836 114.002 99.6411C114.17 100.595 114.187 101.532 113.77 102.37Z" fill="#E50019"/>
<g opacity="0.5">
<path opacity="0.5" d="M113.77 102.37C113.225 103.788 111.604 105.325 107.584 106.955C101.396 109.452 92.3533 112.755 79.8717 114.463C67.3901 116.171 57.6055 115.411 50.8369 114.666C44.0683 113.921 42.772 111.885 42.4269 109.93C42.2529 108.968 42.2384 108.04 42.6473 107.219C43.1809 105.798 44.7991 104.255 48.8417 102.617C55.0303 100.12 64.0725 96.8165 76.5512 95.1084C89.0299 93.4003 98.8174 94.163 105.592 94.9054C112.366 95.6478 113.654 97.6836 114.002 99.6411C114.17 100.595 114.187 101.532 113.77 102.37Z" fill="black"/>
</g>
<g opacity="0.1">
<path opacity="0.1" d="M104.049 98.716C103.631 99.4932 102.384 100.369 99.2988 101.367C92.3678 103.647 85.2414 105.284 78.0099 106.256C70.6167 107.25 63.1501 107.587 55.6973 107.265C50.4918 107.083 49.4971 106.024 49.2216 104.986C49.1385 104.747 49.1105 104.493 49.1396 104.242C49.1687 103.99 49.2543 103.749 49.3898 103.536C49.7987 102.756 51.0399 101.877 54.1458 100.874C61.0768 98.593 68.2032 96.9563 75.4347 95.9842C82.8289 94.9905 90.2965 94.6528 97.7502 94.975C102.953 95.1577 103.948 96.2162 104.22 97.2544C104.304 97.4951 104.333 97.7517 104.303 98.0049C104.273 98.2581 104.186 98.5013 104.049 98.716Z" fill="black"/>
</g>
<path opacity="0.2" d="M44.2683 107.126C44.9674 107.259 45.6747 107.344 46.3853 107.381C51.3501 107.726 56.3381 107.723 61.3087 107.593C66.2793 107.462 71.2557 107.135 76.1828 106.523C85.3207 105.244 94.476 103.733 103.367 101.239C104.73 100.845 106.088 100.418 107.407 99.8964C108.727 99.3744 110.081 98.8147 111.052 97.7649C110.124 98.8611 108.75 99.4585 107.468 100.036C100.856 102.721 93.7945 104.096 86.8084 105.418C74.1961 107.857 61.3163 108.614 48.5052 107.668C47.0929 107.538 45.6545 107.457 44.2683 107.126Z" fill="black"/>
<g opacity="0.2">
<path opacity="0.2" d="M49.5696 104.11C53.3684 102.129 57.3442 100.508 61.4451 99.2671C57.646 101.248 53.6702 102.869 49.5696 104.11Z" fill="black"/>
<path opacity="0.2" d="M93.4089 102.161C97.2079 100.18 101.184 98.5572 105.284 97.3152C101.485 99.2955 97.5092 100.918 93.4089 102.161Z" fill="black"/>
<path opacity="0.2" d="M50.5381 105.992C57.7302 102.629 65.086 99.6291 72.5781 97.002C65.3868 100.366 58.0308 103.367 50.5381 105.992Z" fill="black"/>
<path opacity="0.2" d="M77.2791 105.377C84.4711 102.015 91.827 99.0143 99.3191 96.3872C92.1277 99.7514 84.7718 102.752 77.2791 105.377Z" fill="black"/>
<path opacity="0.2" d="M66.1721 106.14C74.7097 102.225 83.402 98.6774 92.2489 95.4971C83.7229 99.4063 75.0307 102.954 66.1721 106.14Z" fill="black"/>
<path opacity="0.2" d="M56.6804 106.468C65.6356 102.386 74.7445 98.6705 84.0071 95.3201C75.0539 99.4052 65.945 103.121 56.6804 106.468Z" fill="black"/>
</g>
<g opacity="0.5">
<path opacity="0.5" d="M74.5444 112.598C86.8636 111.261 99.1944 108.582 110.426 103.226C104.336 106.706 97.5936 108.982 90.7525 110.507C85.4253 111.7 79.9998 112.4 74.5444 112.598Z" fill="white"/>
<path opacity="0.5" d="M44.6165 108.388C49.5373 108.981 54.4953 109.211 59.45 109.075C60.1604 109.075 60.8652 109.023 61.5756 109.014C55.9269 109.655 50.2141 109.444 44.6281 108.388H44.6165Z" fill="white"/>
</g>
<path d="M117.45 97.7647C117.102 97.0194 108.75 91.8951 99.8732 90.1261C91.9881 88.5572 83.9087 87.2261 81.2407 87.2783C78.8105 87.3276 71.9172 88.6906 64.7919 90.3494C60.5869 91.3267 56.2427 93.0029 52.6757 94.6414C52.745 94.6585 52.8094 94.6912 52.8642 94.7369C52.919 94.7826 52.9626 94.8402 52.9918 94.9053C53.1397 95.2968 52.5771 95.871 51.7332 96.19C50.8893 96.509 50.0889 96.4481 49.9381 96.0595C49.9266 96.0308 49.9197 96.0005 49.9178 95.9696C46.9105 97.4979 44.895 98.7913 44.7442 99.1451C44.4542 99.8411 55.3408 99.0813 63.7363 101.108C72.5958 103.243 79.0367 108.153 81.2813 108.112C83.5259 108.071 90.8513 102.892 99.6151 100.415C100.247 100.238 100.891 100.076 101.538 99.9252C101.561 99.2698 102.327 98.5912 103.391 98.3389C104.571 98.0489 105.662 98.4114 105.836 99.1277C112.146 98.191 117.691 98.2809 117.45 97.7647ZM61.4801 95.8768C60.5463 95.8768 59.7807 95.4331 59.7807 94.8792C59.7807 94.3253 60.5347 93.8729 61.4743 93.8671C62.4139 93.8613 63.1737 94.3108 63.1737 94.8647C63.1737 95.4186 62.4139 95.871 61.4801 95.8768ZM68.7765 95.5085C66.9002 95.8681 65.2356 95.407 65.0587 94.479C64.8818 93.551 66.2622 92.5128 68.1385 92.159C70.0148 91.8052 71.6794 92.2605 71.8563 93.1885C72.0332 94.1165 70.647 95.1518 68.7707 95.5085H68.7765ZM86.7565 103.069C86.3041 103.153 85.8865 102.982 85.8372 102.689C85.7879 102.396 86.1011 102.083 86.5535 101.999C87.0059 101.915 87.4235 102.08 87.4728 102.376C87.5221 102.672 87.2031 102.979 86.7507 103.069H86.7565ZM100.488 92.42C99.8413 92.2837 99.386 91.8603 99.4672 91.4804C99.5484 91.1005 100.137 90.9004 100.781 91.0396C101.425 91.1788 101.883 91.5964 101.802 91.9763C101.721 92.3562 101.126 92.5563 100.482 92.42H100.488Z" fill="#E50019"/>
<path opacity="0.2" d="M117.45 97.7647C117.102 97.0194 108.75 91.8951 99.8732 90.1261C91.9881 88.5572 83.9087 87.2261 81.2407 87.2783C78.8105 87.3276 71.9172 88.6906 64.7919 90.3494C60.5869 91.3267 56.2427 93.0029 52.6757 94.6414C52.745 94.6585 52.8094 94.6912 52.8642 94.7369C52.919 94.7826 52.9626 94.8402 52.9918 94.9053C53.1397 95.2968 52.5771 95.871 51.7332 96.19C50.8893 96.509 50.0889 96.4481 49.9381 96.0595C49.9266 96.0308 49.9197 96.0005 49.9178 95.9696C46.9105 97.4979 44.895 98.7913 44.7442 99.1451C44.4542 99.8411 55.3408 99.0813 63.7363 101.108C72.5958 103.243 79.0367 108.153 81.2813 108.112C83.5259 108.071 90.8513 102.892 99.6151 100.415C100.247 100.238 100.891 100.076 101.538 99.9252C101.561 99.2698 102.327 98.5912 103.391 98.3389C104.571 98.0489 105.662 98.4114 105.836 99.1277C112.146 98.191 117.691 98.2809 117.45 97.7647ZM61.4801 95.8768C60.5463 95.8768 59.7807 95.4331 59.7807 94.8792C59.7807 94.3253 60.5347 93.8729 61.4743 93.8671C62.4139 93.8613 63.1737 94.3108 63.1737 94.8647C63.1737 95.4186 62.4139 95.871 61.4801 95.8768ZM68.7765 95.5085C66.9002 95.8681 65.2356 95.407 65.0587 94.479C64.8818 93.551 66.2622 92.5128 68.1385 92.159C70.0148 91.8052 71.6794 92.2605 71.8563 93.1885C72.0332 94.1165 70.647 95.1518 68.7707 95.5085H68.7765ZM86.7565 103.069C86.3041 103.153 85.8865 102.982 85.8372 102.689C85.7879 102.396 86.1011 102.083 86.5535 101.999C87.0059 101.915 87.4235 102.08 87.4728 102.376C87.5221 102.672 87.2031 102.979 86.7507 103.069H86.7565ZM100.488 92.42C99.8413 92.2837 99.386 91.8603 99.4672 91.4804C99.5484 91.1005 100.137 90.9004 100.781 91.0396C101.425 91.1788 101.883 91.5964 101.802 91.9763C101.721 92.3562 101.126 92.5563 100.482 92.42H100.488Z" fill="white"/>
<path opacity="0.1" d="M71.8504 93.1855C71.6735 92.2575 70.006 91.7994 68.1326 92.1561C66.3201 92.5012 64.9774 93.4842 65.0441 94.3832C64.8614 92.9941 66.178 92.1937 67.7585 91.7558C69.339 91.3179 71.6648 91.8834 71.8504 93.1855Z" fill="black"/>
<path opacity="0.1" d="M63.1678 94.8646C63.1678 94.3107 62.4022 93.8641 61.4684 93.867C60.5346 93.8699 59.7719 94.3252 59.7748 94.8791C59.7748 94.8791 59.5689 93.6814 61.5148 93.5596C63.4607 93.4378 63.1678 94.8646 63.1678 94.8646Z" fill="black"/>
<path opacity="0.1" d="M87.441 102.303C87.3395 102.054 86.9567 101.918 86.5478 102.013C86.1389 102.109 85.7735 102.408 85.8315 102.704C85.8315 102.704 85.6836 102.187 86.3622 101.915C87.0408 101.642 87.4178 102.08 87.441 102.303Z" fill="black"/>
<path opacity="0.1" d="M101.648 91.5095C101.417 91.2629 101.111 91.0981 100.778 91.0397C100.134 90.9005 99.5426 91.1006 99.4643 91.4805C99.4513 91.5629 99.4571 91.6472 99.4812 91.727C99.5053 91.8069 99.5471 91.8802 99.6035 91.9416C99.2526 91.6168 99.1743 90.9208 100.012 90.7526C100.851 90.5844 101.5 91.06 101.648 91.5095Z" fill="black"/>
<g opacity="0.5">
<path opacity="0.5" d="M59.2356 95.0474C59.7257 96.3031 62.1153 96.5554 63.0868 95.7521C63.2638 95.6316 63.3914 95.4515 63.4464 95.2446C63.4431 95.474 63.3493 95.6929 63.1854 95.8536C62.2545 96.9585 59.4531 96.6018 59.2356 95.0474Z" fill="white"/>
<path opacity="0.5" d="M64.7834 94.8732C65.8158 96.6886 70.7516 96.1434 71.8391 94.5832C72.0711 94.2885 72.2095 93.9309 72.2364 93.5566C72.2607 93.9474 72.159 94.3357 71.9464 94.6644C70.8647 96.5175 65.723 97.0482 64.7747 94.879L64.7834 94.8732Z" fill="white"/>
<path opacity="0.5" d="M85.408 102.689C85.5283 102.884 85.7006 103.041 85.9055 103.144C86.1104 103.246 86.3398 103.289 86.568 103.269C86.9164 103.222 87.248 103.091 87.5337 102.886C87.6323 102.816 87.728 102.741 87.8237 102.674C87.7512 102.776 87.67 102.869 87.5888 102.964C87.3231 103.252 86.963 103.435 86.5738 103.48C86.075 103.524 85.4515 103.19 85.3877 102.671L85.408 102.689Z" fill="white"/>
<path opacity="0.5" d="M98.8902 91.3267C98.867 92.0633 99.592 92.565 100.244 92.7129C100.897 92.8608 101.79 92.9564 102.132 92.2576C102.099 92.446 101.995 92.6149 101.842 92.7303C100.836 93.4291 98.6292 92.7593 98.8902 91.3267Z" fill="white"/>
<path opacity="0.5" d="M46.4495 98.7739C52.4061 98.8986 58.4294 98.9305 64.2845 100.154C67.7645 101.024 71.0444 102.567 74.3359 103.959L77.6129 105.409C78.8628 105.899 80.104 106.604 81.4206 106.807C82.3691 106.51 83.2988 106.155 84.2046 105.746L87.5019 104.354C91.9099 102.541 96.3353 100.653 101.001 99.6178C98.6868 100.198 96.4154 100.938 94.2038 101.833C90.9935 103.066 87.4816 104.609 84.3032 105.978C83.4111 106.382 82.4972 106.736 81.5656 107.039C81.3254 107.082 81.078 107.06 80.8493 106.975C79.7124 106.595 78.5954 106.157 77.5027 105.664C72.0594 103.417 66.6422 100.401 60.7175 99.7773C55.9905 99.1422 51.2142 98.9595 46.4495 98.7826V98.7739Z" fill="white"/>
<path opacity="0.5" d="M106.387 98.394C109.522 97.9271 112.7 97.55 115.873 97.6951C112.712 97.9474 109.559 98.3186 106.387 98.394Z" fill="white"/>
</g>
<path d="M52.3304 91.7067L51.791 92.7999C51.8318 92.7138 51.8629 92.6233 51.8838 92.5303C52.284 90.596 47.6527 86.9478 40.365 84.8047C33.4311 82.7747 28.0951 83.2677 27.2512 84.9874L27.7906 83.8854C28.6345 82.1657 33.9705 81.664 40.9044 83.7027C48.1921 85.8487 52.8234 89.5026 52.4232 91.4282C52.4033 91.5243 52.3721 91.6178 52.3304 91.7067Z" fill="#E50019"/>
<g opacity="0.4">
<path opacity="0.4" d="M52.3304 91.7067L51.791 92.7999C51.8318 92.7138 51.8629 92.6233 51.8838 92.5303C52.284 90.596 47.6527 86.9478 40.365 84.8047C33.4311 82.7747 28.0951 83.2677 27.2512 84.9874L27.7906 83.8854C28.6345 82.1657 33.9705 81.664 40.9044 83.7027C48.1921 85.8487 52.8234 89.5026 52.4232 91.4282C52.4033 91.5243 52.3721 91.6178 52.3304 91.7067Z" fill="white"/>
</g>
<path d="M41.2001 82.2846C49.0765 84.6046 54.746 88.8415 54.108 91.93C53.47 95.0185 46.7971 95.6304 38.9207 93.3133C31.0443 90.9962 25.3748 86.7593 26.0128 83.665C26.6508 80.5707 33.3266 79.9675 41.2001 82.2846ZM39.2165 91.8865C46.5013 94.0296 52.0229 93.3713 52.4231 91.4341C52.8233 89.4969 48.192 85.8545 40.9043 83.7085C33.6166 81.5625 28.0979 82.2295 27.6977 84.1609C27.2975 86.0923 31.9288 89.7434 39.2165 91.8865Z" fill="#E50019"/>
<g opacity="0.7">
<path opacity="0.7" d="M41.2001 82.2846C49.0765 84.6046 54.746 88.8415 54.108 91.93C53.47 95.0185 46.7971 95.6304 38.9207 93.3133C31.0443 90.9962 25.3748 86.7593 26.0128 83.665C26.6508 80.5707 33.3266 79.9675 41.2001 82.2846ZM39.2165 91.8865C46.5013 94.0296 52.0229 93.3713 52.4231 91.4341C52.8233 89.4969 48.192 85.8545 40.9043 83.7085C33.6166 81.5625 28.0979 82.2295 27.6977 84.1609C27.2975 86.0923 31.9288 89.7434 39.2165 91.8865Z" fill="white"/>
</g>
<path d="M53.9196 92.4753L53.3802 93.5744C52.1013 96.1844 45.7706 96.5904 38.3814 94.4154C30.5079 92.0954 24.8355 87.8614 25.4735 84.7671C25.5125 84.5793 25.5749 84.3971 25.6591 84.2248L26.1985 83.1228C26.1147 83.2953 26.0524 83.4774 26.0129 83.6651C25.3749 86.7594 31.0473 90.9992 38.9208 93.3134C46.3129 95.4884 52.6407 95.0882 53.9196 92.4753Z" fill="#E50019"/>
<g opacity="0.4">
<path opacity="0.4" d="M53.9196 92.4753L53.3802 93.5744C52.1013 96.1844 45.7706 96.5904 38.3814 94.4154C30.5079 92.0954 24.8355 87.8614 25.4735 84.7671C25.5125 84.5793 25.5749 84.3971 25.6591 84.2248L26.1985 83.1228C26.1147 83.2953 26.0524 83.4774 26.0129 83.6651C25.3749 86.7594 31.0473 90.9992 38.9208 93.3134C46.3129 95.4884 52.6407 95.0882 53.9196 92.4753Z" fill="white"/>
</g>
<path d="M97.3413 90.4975L97.2543 91.7184C97.2631 91.6216 97.2582 91.5239 97.2398 91.4284C96.8802 89.4854 91.2165 87.8527 83.6591 88.6154C76.4671 89.3433 71.714 91.8199 71.5806 93.731L71.6676 92.5072C71.7981 90.5961 76.5512 88.1195 83.7432 87.3945C91.3006 86.6289 96.9643 88.2645 97.3239 90.2046C97.3419 90.3011 97.3477 90.3995 97.3413 90.4975Z" fill="#E50019"/>
<g opacity="0.4">
<path opacity="0.4" d="M97.3413 90.4975L97.2543 91.7184C97.2631 91.6216 97.2582 91.5239 97.2398 91.4284C96.8802 89.4854 91.2165 87.8527 83.6591 88.6154C76.4671 89.3433 71.714 91.8199 71.5806 93.731L71.6676 92.5072C71.7981 90.5961 76.5512 88.1195 83.7432 87.3945C91.3006 86.6289 96.9643 88.2645 97.3239 90.2046C97.3419 90.3011 97.3477 90.3995 97.3413 90.4975Z" fill="white"/>
</g>
<path d="M83.4792 85.9677C91.6485 85.1441 98.4954 86.9305 99.0696 90.0277C99.6438 93.1249 93.6988 96.2134 85.5266 97.037C77.3544 97.8606 70.5104 96.0742 69.9362 92.977C69.362 89.8798 75.3128 86.7942 83.4792 85.9677ZM85.2598 95.6102C92.8172 94.8475 97.6805 92.1534 97.3209 90.2104C96.9613 88.2674 91.2976 86.6347 83.7402 87.4003C76.1828 88.1659 71.3224 90.86 71.682 92.8001C72.0416 94.7402 77.7198 96.3729 85.2598 95.6102Z" fill="#E50019"/>
<g opacity="0.7">
<path opacity="0.7" d="M83.4792 85.9677C91.6485 85.1441 98.4954 86.9305 99.0696 90.0277C99.6438 93.1249 93.6988 96.2134 85.5266 97.037C77.3544 97.8606 70.5104 96.0742 69.9362 92.977C69.362 89.8798 75.3128 86.7942 83.4792 85.9677ZM85.2598 95.6102C92.8172 94.8475 97.6805 92.1534 97.3209 90.2104C96.9613 88.2674 91.2976 86.6347 83.7402 87.4003C76.1828 88.1659 71.3224 90.86 71.682 92.8001C72.0416 94.7402 77.7198 96.3729 85.2598 95.6102Z" fill="white"/>
</g>
<path d="M99.1045 90.6077L99.0204 91.8315C98.8174 94.7315 93.1102 97.4923 85.4426 98.2666C77.2762 99.0902 70.4264 97.3038 69.8522 94.2066C69.8169 94.0154 69.8052 93.8206 69.8174 93.6266L69.9044 92.4028C69.8899 92.5967 69.9006 92.7916 69.9363 92.9828C70.5163 96.0858 77.3632 97.8751 85.5267 97.0428C93.1943 96.2801 98.9044 93.5106 99.1045 90.6077Z" fill="#E50019"/>
<g opacity="0.4">
<path opacity="0.4" d="M99.1045 90.6077L99.0204 91.8315C98.8174 94.7315 93.1102 97.4923 85.4426 98.2666C77.2762 99.0902 70.4264 97.3038 69.8522 94.2066C69.8169 94.0154 69.8052 93.8206 69.8174 93.6266L69.9044 92.4028C69.8899 92.5967 69.9006 92.7916 69.9363 92.9828C70.5163 96.0858 77.3632 97.8751 85.5267 97.0428C93.1943 96.2801 98.9044 93.5106 99.1045 90.6077Z" fill="white"/>
</g>
<path d="M77.7809 97.73L77.6098 98.9422C77.6216 98.8459 77.6216 98.7485 77.6098 98.6522C77.3952 96.6918 71.8649 94.6502 64.2698 94.859C57.043 95.0562 52.1217 97.179 51.8491 99.0785L52.0231 97.8634C52.2957 95.9668 57.217 93.844 64.4438 93.6439C72.036 93.4351 77.5663 95.4767 77.7838 97.44C77.7962 97.5363 77.7952 97.6339 77.7809 97.73Z" fill="#E50019"/>
<g opacity="0.4">
<path opacity="0.4" d="M77.7809 97.73L77.6098 98.9422C77.6216 98.8459 77.6216 98.7485 77.6098 98.6522C77.3952 96.6918 71.8649 94.6502 64.2698 94.859C57.043 95.0562 52.1217 97.179 51.8491 99.0785L52.0231 97.8634C52.2957 95.9668 57.217 93.844 64.4438 93.6439C72.036 93.4351 77.5663 95.4767 77.7838 97.44C77.7962 97.5363 77.7952 97.6339 77.7809 97.73Z" fill="white"/>
</g>
<path d="M64.29 92.191C72.497 91.9648 79.196 94.2471 79.5411 97.382C79.8862 100.517 73.7411 103.159 65.5225 103.385C57.3039 103.611 50.6165 101.329 50.2714 98.1882C49.9263 95.0475 56.083 92.4172 64.29 92.191ZM65.363 101.935C72.9552 101.726 78.0041 99.3946 77.7866 97.4313C77.5691 95.468 72.0417 93.4264 64.4466 93.6352C56.8515 93.844 51.8055 96.1785 52.023 98.1418C52.2405 100.105 57.7679 102.147 65.363 101.935Z" fill="#E50019"/>
<g opacity="0.7">
<path opacity="0.7" d="M64.29 92.191C72.497 91.9648 79.196 94.2471 79.5411 97.382C79.8862 100.517 73.7411 103.159 65.5225 103.385C57.3039 103.611 50.6165 101.329 50.2714 98.1882C49.9263 95.0475 56.083 92.4172 64.29 92.191ZM65.363 101.935C72.9552 101.726 78.0041 99.3946 77.7866 97.4313C77.5691 95.468 72.0417 93.4264 64.4466 93.6352C56.8515 93.844 51.8055 96.1785 52.023 98.1418C52.2405 100.105 57.7679 102.147 65.363 101.935Z" fill="white"/>
</g>
<path d="M79.5324 97.9562L79.3584 99.1713C78.9466 102.051 73.0509 104.391 65.3485 104.597C57.1444 104.823 50.4425 102.541 50.0974 99.4033C50.0707 99.2109 50.0707 99.0157 50.0974 98.8233L50.2714 97.6111C50.2445 97.8035 50.2445 97.9987 50.2714 98.1911C50.6165 101.332 57.3184 103.614 65.5225 103.388C73.2249 103.173 79.1206 100.839 79.5324 97.9562Z" fill="#E50019"/>
<g opacity="0.4">
<path opacity="0.4" d="M79.5324 97.9562L79.3584 99.1713C78.9466 102.051 73.0509 104.391 65.3485 104.597C57.1444 104.823 50.4425 102.541 50.0974 99.4033C50.0707 99.2109 50.0707 99.0157 50.0974 98.8233L50.2714 97.6111C50.2445 97.8035 50.2445 97.9987 50.2714 98.1911C50.6165 101.332 57.3184 103.614 65.5225 103.388C73.2249 103.173 79.1206 100.839 79.5324 97.9562Z" fill="white"/>
</g>
<path d="M117.775 95.9641L117.366 97.1241C117.398 97.0303 117.419 96.9329 117.427 96.8341C117.601 94.8708 112.578 91.7823 105.09 90.5005C97.965 89.2796 92.7247 90.3961 92.0867 92.2028L92.4956 91.0428C93.1307 89.239 98.3739 88.1196 105.499 89.3405C112.984 90.6223 118.007 93.7108 117.836 95.677C117.828 95.7749 117.807 95.8714 117.775 95.9641Z" fill="#E50019"/>
<g opacity="0.4">
<path opacity="0.4" d="M117.775 95.9641L117.366 97.1241C117.398 97.0303 117.419 96.9329 117.427 96.8341C117.601 94.8708 112.578 91.7823 105.09 90.5005C97.965 89.2796 92.7247 90.3961 92.0867 92.2028L92.4956 91.0428C93.1307 89.239 98.3739 88.1196 105.499 89.3405C112.984 90.6223 118.007 93.7108 117.836 95.677C117.828 95.7749 117.807 95.8714 117.775 95.9641Z" fill="white"/>
</g>
<path d="M105.627 87.8991C113.718 89.2882 119.837 92.8291 119.567 95.9814C119.297 99.1337 112.734 100.505 104.643 99.1192C96.5525 97.733 90.4335 94.1892 90.7032 91.0369C90.9729 87.8846 97.5356 86.5129 105.627 87.8991ZM104.757 97.6692C112.241 98.951 117.647 97.6547 117.821 95.6856C117.995 93.7165 112.969 90.6309 105.484 89.3491C97.9996 88.0673 92.5911 89.3665 92.42 91.3327C92.2489 93.2989 97.2688 96.3845 104.757 97.6692Z" fill="#E50019"/>
<g opacity="0.7">
<path opacity="0.7" d="M105.627 87.8991C113.718 89.2882 119.837 92.8291 119.567 95.9814C119.297 99.1337 112.734 100.505 104.643 99.1192C96.5525 97.733 90.4335 94.1892 90.7032 91.0369C90.9729 87.8846 97.5356 86.5129 105.627 87.8991ZM104.757 97.6692C112.241 98.951 117.647 97.6547 117.821 95.6856C117.995 93.7165 112.969 90.6309 105.484 89.3491C97.9996 88.0673 92.5911 89.3665 92.42 91.3327C92.2489 93.2989 97.2688 96.3845 104.757 97.6692Z" fill="white"/>
</g>
<path d="M119.445 96.5439L119.036 97.7039C118.068 100.45 111.827 101.584 104.246 100.282C96.1552 98.8958 90.0362 95.352 90.3059 92.1968C90.3227 92.0058 90.3637 91.8177 90.4277 91.6371L90.8366 90.4771C90.7726 90.6587 90.7316 90.8477 90.7148 91.0397C90.4393 94.1862 96.5642 97.7358 104.655 99.122C112.23 100.421 118.477 99.2873 119.445 96.5439Z" fill="#E50019"/>
<g opacity="0.4">
<path opacity="0.4" d="M119.445 96.5439L119.036 97.7039C118.068 100.45 111.827 101.584 104.246 100.282C96.1552 98.8958 90.0362 95.352 90.3059 92.1968C90.3227 92.0058 90.3637 91.8177 90.4277 91.6371L90.8366 90.4771C90.7726 90.6587 90.7316 90.8477 90.7148 91.0397C90.4393 94.1862 96.5642 97.7358 104.655 99.122C112.23 100.421 118.477 99.2873 119.445 96.5439Z" fill="white"/>
</g>
<path d="M107.72 88.302C106.877 89.5635 104.954 90.7061 100.673 91.4079C94.0875 92.4751 84.5349 93.7134 71.9895 92.6114C59.4441 91.5094 50.0626 88.6181 43.6246 86.3967C37.1866 84.1753 36.3746 81.9046 36.4558 79.9181C36.4993 78.9408 36.6907 78.0302 37.2707 77.3226C38.1059 76.0553 40.0228 74.904 44.3293 74.2022C50.9152 73.1321 60.4678 71.8822 73.0103 72.9987C85.5528 74.1152 94.9372 76.992 101.378 79.2105C107.819 81.429 108.628 83.7055 108.544 85.6891C108.501 86.6751 108.306 87.5799 107.72 88.302Z" fill="#E50019"/>
<g opacity="0.5">
<path opacity="0.5" d="M107.72 88.302C106.877 89.5635 104.954 90.7061 100.673 91.4079C94.0875 92.4751 84.5349 93.7134 71.9895 92.6114C59.4441 91.5094 50.0626 88.6181 43.6246 86.3967C37.1866 84.1753 36.3746 81.9046 36.4558 79.9181C36.4993 78.9408 36.6907 78.0302 37.2707 77.3226C38.1059 76.0553 40.0228 74.904 44.3293 74.2022C50.9152 73.1321 60.4678 71.8822 73.0103 72.9987C85.5528 74.1152 94.9372 76.992 101.378 79.2105C107.819 81.429 108.628 83.7055 108.544 85.6891C108.501 86.6751 108.306 87.5799 107.72 88.302Z" fill="black"/>
</g>
<g opacity="0.1">
<path opacity="0.1" d="M98.6783 81.7539C98.1766 82.244 96.9383 82.6558 94.0383 82.8211C87.5139 83.2214 80.9684 83.1157 74.4604 82.505C67.7832 81.881 61.1611 80.7663 54.6476 79.17C50.1004 78.0854 49.4102 77.14 49.3464 76.3251C49.3137 76.1325 49.3336 75.9346 49.404 75.7524C49.4744 75.5702 49.5928 75.4104 49.7466 75.2898C50.2396 74.7968 51.4866 74.3821 54.3866 74.2168C60.9128 73.8168 67.4602 73.9215 73.9703 74.53C80.6472 75.1546 87.2692 76.2683 93.7831 77.8621C98.3332 78.9467 99.0234 79.8921 99.0843 80.707C99.1173 80.9019 99.097 81.1021 99.0255 81.2864C98.954 81.4707 98.8341 81.6323 98.6783 81.7539Z" fill="black"/>
</g>
<path opacity="0.2" d="M38.8803 77.6069C39.5336 77.8899 40.205 78.1292 40.89 78.3232C45.6547 79.7558 50.518 80.8549 55.39 81.8235C60.262 82.7921 65.192 83.5635 70.1307 84.0652C79.3266 84.8366 88.5892 85.3876 97.8112 84.9178C99.2293 84.8308 100.647 84.7177 102.051 84.4973C103.455 84.2769 104.893 84.0333 106.073 83.2242C104.928 84.0942 103.463 84.3668 102.077 84.6481C95.0359 85.8081 87.8439 85.579 80.7389 85.3354C67.8998 84.9273 55.1713 82.821 42.8852 79.0714C41.5144 78.6788 40.1731 78.1894 38.8716 77.6069H38.8803Z" fill="black"/>
<g opacity="0.2">
<path opacity="0.2" d="M44.718 75.8234C48.8607 74.7287 53.0967 74.0239 57.3707 73.718C53.228 74.8129 48.992 75.5177 44.718 75.8234Z" fill="black"/>
<path opacity="0.2" d="M87.9048 83.6157C92.0479 82.5234 96.2838 81.8196 100.557 81.5132C96.4143 82.6052 92.1785 83.3091 87.9048 83.6157Z" fill="black"/>
<path opacity="0.2" d="M45.24 77.8853C52.9998 76.1922 60.8396 74.8894 68.73 73.9819C60.9702 75.6751 53.1303 76.9779 45.24 77.8853Z" fill="black"/>
<path opacity="0.2" d="M71.4648 83.1922C79.2246 81.4987 87.0644 80.196 94.9548 79.2888C87.1944 80.9824 79.3644 82.2836 71.4648 83.1922Z" fill="black"/>
<path opacity="0.2" d="M60.4622 81.4669C69.6552 79.5335 78.9178 77.9936 88.25 76.8472C79.057 78.7805 69.7944 80.3204 60.4622 81.4669Z" fill="black"/>
<path opacity="0.2" d="M51.1328 79.7066C60.7666 77.7017 70.471 76.0883 80.2459 74.8665C70.6121 76.8733 60.9077 78.4866 51.1328 79.7066Z" fill="black"/>
</g>
<g opacity="0.5">
<path opacity="0.5" d="M39.959 79.1699C44.2742 80.8229 48.7808 81.9307 53.299 82.9399C59.329 84.2181 65.4298 85.1361 71.569 85.6891C73.1031 85.8544 74.643 85.9298 76.1829 86.0806C75.4115 86.0806 74.6372 86.0632 73.8629 86.0429C68.4435 85.9172 63.0424 85.3645 57.7099 84.3899C51.6489 83.2473 45.5734 81.7509 39.959 79.1699Z" fill="white"/>
<path opacity="0.5" d="M78.0767 86.1299C82.0236 86.069 86.1503 86.1908 90.0972 86.4025C86.1025 86.972 82.0414 86.8799 78.0767 86.1299Z" fill="white"/>
</g>
<path d="M89.114 67.2944C85.344 66.262 81.6697 65.3195 78.674 64.638C78.6769 64.6592 78.6769 64.6806 78.674 64.7018C78.674 64.9657 78.3318 65.1774 77.9055 65.1774C77.4792 65.1774 77.1399 64.9599 77.1399 64.7018C77.1462 64.6267 77.1727 64.5547 77.2166 64.4934C77.2605 64.4321 77.3202 64.3839 77.3893 64.3538C75.8747 63.9949 74.3383 63.7352 72.7899 63.5766C71.1552 63.5546 69.5209 63.6408 67.8976 63.8347C68.0031 63.9916 68.0597 64.1763 68.06 64.3654C68.06 65.0643 67.2683 65.6385 66.2881 65.6385C65.3079 65.6385 64.5133 65.0585 64.5133 64.3654C64.5122 64.3119 64.5171 64.2584 64.5278 64.2059C61.361 64.5887 57.6954 65.1136 54.0646 65.6849C45.1123 67.103 36.5747 71.8938 36.2006 72.6217C35.8526 73.2887 45.701 73.3061 53.9138 75.977C62.5819 78.79 69.6898 87.7133 71.9315 87.8467C74.1732 87.9801 80.8026 79.8659 89.7375 78.0853C98.2055 76.3946 109.057 77.5778 108.793 76.8731C108.486 76.0466 98.51 69.8725 89.114 67.2944ZM53.3599 67.9527C52.7103 68.0629 52.1303 67.8396 52.0636 67.4568C51.9969 67.074 52.4725 66.6709 53.1221 66.5607C53.7717 66.4505 54.3517 66.6709 54.4213 67.0537C54.4909 67.4365 54.0211 67.8396 53.3599 67.9527ZM67.596 79.3497C67.5264 79.6397 67.1088 79.7963 66.6622 79.6919C66.2156 79.5875 65.9053 79.2685 65.9749 78.9727C66.0445 78.6769 66.4592 78.529 66.9087 78.6305C67.3582 78.732 67.6685 79.0597 67.6047 79.3497H67.596ZM78.6972 81.2202C77.4502 81.7103 76.1539 81.4 75.7972 80.5242C75.4405 79.6484 76.1858 78.5348 77.4386 78.0418C78.6914 77.5488 79.979 77.862 80.3386 78.7407C80.6982 79.6194 79.9587 80.7272 78.7059 81.2202H78.6972ZM82.5339 77.3371C81.6001 77.2965 80.8606 76.8151 80.8838 76.2612C80.907 75.7073 81.6842 75.2926 82.6238 75.3332C83.5634 75.3738 84.2971 75.8552 84.2739 76.4091C84.2507 76.963 83.4793 77.3777 82.5426 77.3371H82.5339ZM90.8018 70.8672C89.8651 70.8266 89.1256 70.3423 89.1488 69.7884C89.172 69.2345 89.955 68.8198 90.8888 68.8604C91.8226 68.901 92.565 69.3853 92.5418 69.9363C92.5186 70.4873 91.7443 70.9049 90.8105 70.8672H90.8018ZM102.857 74.4255C102.788 74.7155 102.37 74.875 101.92 74.7677C101.471 74.6604 101.166 74.3443 101.233 74.0514C101.3 73.7585 101.72 73.6048 102.167 73.7092C102.614 73.8136 102.933 74.1355 102.866 74.4255H102.857Z" fill="#E50019"/>
<path opacity="0.2" d="M89.114 67.2944C85.344 66.262 81.6697 65.3195 78.674 64.638C78.6769 64.6592 78.6769 64.6806 78.674 64.7018C78.674 64.9657 78.3318 65.1774 77.9055 65.1774C77.4792 65.1774 77.1399 64.9599 77.1399 64.7018C77.1462 64.6267 77.1727 64.5547 77.2166 64.4934C77.2605 64.4321 77.3202 64.3839 77.3893 64.3538C75.8747 63.9949 74.3383 63.7352 72.7899 63.5766C71.1552 63.5546 69.5209 63.6408 67.8976 63.8347C68.0031 63.9916 68.0597 64.1763 68.06 64.3654C68.06 65.0643 67.2683 65.6385 66.2881 65.6385C65.3079 65.6385 64.5133 65.0585 64.5133 64.3654C64.5122 64.3119 64.5171 64.2584 64.5278 64.2059C61.361 64.5887 57.6954 65.1136 54.0646 65.6849C45.1123 67.103 36.5747 71.8938 36.2006 72.6217C35.8526 73.2887 45.701 73.3061 53.9138 75.977C62.5819 78.79 69.6898 87.7133 71.9315 87.8467C74.1732 87.9801 80.8026 79.8659 89.7375 78.0853C98.2055 76.3946 109.057 77.5778 108.793 76.8731C108.486 76.0466 98.51 69.8725 89.114 67.2944ZM53.3599 67.9527C52.7103 68.0629 52.1303 67.8396 52.0636 67.4568C51.9969 67.074 52.4725 66.6709 53.1221 66.5607C53.7717 66.4505 54.3517 66.6709 54.4213 67.0537C54.4909 67.4365 54.0211 67.8396 53.3599 67.9527ZM67.596 79.3497C67.5264 79.6397 67.1088 79.7963 66.6622 79.6919C66.2156 79.5875 65.9053 79.2685 65.9749 78.9727C66.0445 78.6769 66.4592 78.529 66.9087 78.6305C67.3582 78.732 67.6685 79.0597 67.6047 79.3497H67.596ZM78.6972 81.2202C77.4502 81.7103 76.1539 81.4 75.7972 80.5242C75.4405 79.6484 76.1858 78.5348 77.4386 78.0418C78.6914 77.5488 79.979 77.862 80.3386 78.7407C80.6982 79.6194 79.9587 80.7272 78.7059 81.2202H78.6972ZM82.5339 77.3371C81.6001 77.2965 80.8606 76.8151 80.8838 76.2612C80.907 75.7073 81.6842 75.2926 82.6238 75.3332C83.5634 75.3738 84.2971 75.8552 84.2739 76.4091C84.2507 76.963 83.4793 77.3777 82.5426 77.3371H82.5339ZM90.8018 70.8672C89.8651 70.8266 89.1256 70.3423 89.1488 69.7884C89.172 69.2345 89.955 68.8198 90.8888 68.8604C91.8226 68.901 92.565 69.3853 92.5418 69.9363C92.5186 70.4873 91.7443 70.9049 90.8105 70.8672H90.8018ZM102.857 74.4255C102.788 74.7155 102.37 74.875 101.92 74.7677C101.471 74.6604 101.166 74.3443 101.233 74.0514C101.3 73.7585 101.72 73.6048 102.167 73.7092C102.614 73.8136 102.933 74.1355 102.866 74.4255H102.857Z" fill="white"/>
<path opacity="0.1" d="M54.4098 66.9899C54.2851 66.6506 53.7399 66.465 53.1309 66.5694C52.5219 66.6738 52.0057 67.0827 52.0724 67.4655C51.8781 66.9696 52.3102 66.5317 53.0352 66.3606C53.7602 66.1895 54.3083 66.4708 54.4098 66.9899Z" fill="black"/>
<path opacity="0.1" d="M67.6047 79.3496C67.6685 79.0596 67.3611 78.7377 66.9174 78.6304C66.4737 78.5231 66.0474 78.6826 65.9836 78.9726C65.9633 78.2302 66.6419 78.2331 67.1291 78.4158C67.3078 78.4877 67.4544 78.622 67.5418 78.7936C67.6292 78.9653 67.6516 79.1627 67.6047 79.3496Z" fill="black"/>
<path opacity="0.1" d="M79.9615 78.2246C79.4018 77.7577 78.4158 77.662 77.4588 78.0419C76.206 78.5349 75.4723 79.6485 75.8174 80.5243C75.8174 80.5562 75.8406 80.5823 75.8551 80.6142C75.394 79.8747 74.9619 78.5088 76.9542 77.5837C78.4216 76.9022 79.4598 77.6562 79.9615 78.2246Z" fill="black"/>
<path opacity="0.1" d="M84.2477 76.1857C84.0969 75.7333 83.4357 75.3679 82.6324 75.3331C81.6928 75.2925 80.9185 75.7101 80.8924 76.2611C80.888 76.2977 80.888 76.3347 80.8924 76.3713C80.7155 75.7391 81.0606 75.0982 82.2409 75.0402C83.4212 74.9822 84.2825 75.6898 84.2477 76.1857Z" fill="black"/>
<path opacity="0.1" d="M92.4228 69.5244C92.1734 69.1619 91.5876 68.8922 90.8974 68.8603C89.9636 68.8197 89.1835 69.2373 89.1574 69.7883C89.1557 69.9739 89.2265 70.1528 89.3546 70.2871C88.8645 69.8347 88.6528 68.9647 89.8331 68.6602C91.0134 68.3557 92.1879 68.7849 92.4228 69.5244Z" fill="black"/>
<path opacity="0.1" d="M102.793 74.0948C102.642 73.8945 102.422 73.7571 102.176 73.7091C101.729 73.6047 101.306 73.7584 101.242 74.0513C101.223 74.1438 101.236 74.2401 101.28 74.3239C101.056 73.9701 101.109 73.6163 101.639 73.4539C101.877 73.3935 102.129 73.4263 102.343 73.5454C102.558 73.6645 102.719 73.861 102.793 74.0948Z" fill="black"/>
<g opacity="0.5">
<path opacity="0.5" d="M38.4973 72.3115C41.6504 72.3901 44.7927 72.712 47.8962 73.2743C52.5101 74.1443 57.2951 75.2405 61.1666 78.0419C63.7592 79.8457 66.0966 81.983 68.4514 84.0768C69.31 84.8785 70.2206 85.6226 71.1774 86.304C71.4674 86.4722 71.7951 86.7274 72.1431 86.594C73.335 86.014 74.8952 84.7119 76.0059 83.9492C77.2848 83.027 78.5811 82.128 79.9209 81.287C86.5155 77.1023 90.3174 76.7282 97.9328 76.4498C100.224 76.3802 102.727 76.4179 105.026 76.473L106.207 76.5049H106.787C106.98 76.5177 107.175 76.5089 107.367 76.4788C106.975 76.5187 106.582 76.5293 106.189 76.5107L105.006 76.4962C102.686 76.4788 100.209 76.4759 97.9212 76.5803C90.3348 76.9051 86.5793 77.2792 80.0311 81.4813C78.7029 82.3223 77.4211 83.2213 76.1451 84.1551C74.9851 84.9526 73.4858 86.2489 72.2243 86.855C72.1153 86.8938 71.9996 86.9104 71.8841 86.904C71.7686 86.8975 71.6555 86.868 71.5515 86.8173C71.0156 86.5569 70.5156 86.2284 70.0638 85.84C69.4519 85.3383 68.8603 84.8134 68.2745 84.2885C65.9371 82.1831 63.6171 80.0429 61.0419 78.2304C57.2023 75.4232 52.4637 74.3241 47.8701 73.4251C44.7788 72.8177 41.6452 72.4493 38.4973 72.3231V72.3115Z" fill="white"/>
<path opacity="0.5" d="M65.676 78.9697C65.7447 79.1873 65.8715 79.3819 66.0427 79.5327C66.2139 79.6834 66.423 79.7846 66.6475 79.8252C67.0622 79.8832 67.6567 79.947 67.8452 79.4685C67.8458 79.5982 67.7959 79.723 67.706 79.8165C67.4421 80.0086 67.1179 80.0994 66.7926 80.0722C66.4673 80.0451 66.1626 79.9018 65.9341 79.6686C65.7794 79.4671 65.6894 79.2234 65.676 78.9697Z" fill="white"/>
<path opacity="0.5" d="M75.655 81.0753C77.1514 82.3281 79.715 81.7249 80.5386 79.9646C80.6608 79.7162 80.7467 79.4515 80.7938 79.1787C80.7764 81.6292 77.2674 82.8849 75.655 81.0753Z" fill="white"/>
<path opacity="0.5" d="M80.6895 76.8818C81.5943 77.8649 84.1115 77.9577 84.6741 76.5686C84.648 76.7699 84.5678 76.9603 84.4421 77.1196C83.5257 78.1578 81.4493 78.0534 80.6895 76.8818Z" fill="white"/>
<path opacity="0.5" d="M51.6023 67.6946C52.2751 68.7357 54.8793 68.4544 54.9112 67.0305C55.1809 68.669 52.1214 69.0605 51.6023 67.6946Z" fill="white"/>
<path opacity="0.5" d="M64.1042 64.725C64.3171 65.1596 64.6536 65.5217 65.0715 65.7657C65.4894 66.0098 65.9701 66.1249 66.4532 66.0967C67.3957 66.0648 68.4658 65.5428 68.5035 64.4785C68.535 64.7314 68.4969 64.9881 68.3933 65.2209C67.7959 66.4012 66.0269 66.6216 64.9945 65.9111C64.5972 65.6211 64.1796 65.2296 64.1042 64.725Z" fill="white"/>
<path opacity="0.5" d="M88.4499 69.5796C88.7138 70.9484 90.3407 71.3196 91.5442 71.1978C92.0314 71.1514 92.5853 71.0354 92.8782 70.6178C93.0262 70.4057 93.0912 70.1467 93.0609 69.8899C93.1335 70.153 93.1002 70.4341 92.9681 70.6729C92.5186 71.4037 91.5181 71.4559 90.7612 71.4269C89.7317 71.3921 88.4673 70.7338 88.4412 69.5854L88.4499 69.5796Z" fill="white"/>
<path opacity="0.5" d="M100.871 74.324C101.32 75.1128 102.596 75.4231 103.26 74.7387C102.802 75.7334 101.036 75.3564 100.871 74.324Z" fill="white"/>
</g>
<path d="M72.6305 55.213C71.2675 54.0153 69.9799 53.5774 69.1099 53.6963C68.2399 53.8152 67.9325 54.8128 67.2974 55.0332C66.6623 55.2536 64.4844 55.9032 63.684 55.6683C62.8836 55.4334 61.0508 55.0477 60.0677 54.8737C59.0847 54.6997 59.276 54.7896 57.3591 55.1637C55.4422 55.5378 50.9443 56.1555 49.9032 55.8307C48.8621 55.5059 46.8061 54.4416 46.026 54.5199C45.2458 54.5982 45.24 55.9931 44.2366 56.1961C43.2332 56.3991 42.2559 55.6538 40.2259 56.4368C38.1959 57.2198 38.4859 57.6548 37.9494 58.4378C37.4129 59.2208 37.2476 59.0381 36.076 60.2677C34.9044 61.4973 36.1978 64.2929 36.366 64.812C36.5342 65.3311 37.6971 66.8188 38.4395 66.8188C39.1819 66.8188 39.0195 65.6211 40.9306 66.0126C42.8417 66.4041 40.8262 67.9788 42.3806 69.0315C43.935 70.0842 44.1206 70.3365 44.7644 70.0784C45.4082 69.8203 45.3879 68.9909 46.6146 69.3824C47.8413 69.7739 47.0932 70.2988 48.314 70.6149C49.535 70.931 49.416 71.1949 50.7153 71.2471C52.0145 71.2993 51.0893 72.7348 52.5364 72.9262C53.9835 73.1176 55.0449 73.0625 55.767 72.7609C56.4891 72.4593 57.1155 72.8798 57.188 73.2916C57.2605 73.7034 56.2948 74.5067 57.2605 75.0983C58.2262 75.6899 56.5906 75.4724 59.2731 76.2003C61.9556 76.9282 63.3158 77.1631 64.177 76.1771C65.0383 75.1911 65.7083 74.0659 66.7696 74.0485C67.8311 74.0311 67.2134 77.3052 70.2496 77.2646C73.2859 77.224 74.2691 75.7392 75.3797 75.7218C76.4904 75.7044 75.3797 78.7726 77.9897 78.7552C80.5998 78.7378 80.8898 76.4961 82.1861 76.354C83.4823 76.2119 82.3514 78.9089 86.0982 78.9089C89.845 78.9089 88.8415 76.9572 90.712 76.5251C92.5826 76.093 93.8876 78.3869 96.8949 78.3724C99.9022 78.3579 99.5426 77.1312 100.975 77.0964C102.408 77.0616 103.02 78.6508 103.521 79.2656C104.023 79.8804 104.084 80.7823 105.401 80.4256C106.717 80.0689 106.517 77.6532 107.431 76.8528C108.344 76.0524 108.805 76.6701 109.722 75.7943C110.638 74.9185 112.155 74.7648 111.789 73.4279C111.424 72.091 109.376 71.8909 109.266 70.2002C109.156 68.5095 111.07 68.4602 111.372 66.4302C111.673 64.4002 110.006 64.464 108.825 63.3562C107.645 62.2484 106.16 63.681 105.369 62.1382C104.577 60.5954 105.502 60.6215 103.716 59.5079C101.929 58.3943 99.821 60.1198 98.2057 59.4847C96.5904 58.8496 94.0848 56.605 92.7566 56.1062C91.4284 55.6074 90.7266 57.1125 89.9058 57.0806C89.0851 57.0487 87.2901 55.6799 85.5501 55.8394C83.8101 55.9989 83.6593 56.6514 82.4587 56.7094C81.258 56.7674 79.2687 56.2309 78.3349 55.9003C77.4011 55.5697 76.7138 55.9003 75.5103 55.9003C74.3068 55.9003 73.1641 55.6799 72.6305 55.213Z" fill="#455A64"/>
<g opacity="0.1">
<path opacity="0.1" d="M83.1807 74.7474C83.9695 75.7769 84.2856 76.5512 85.0367 76.7455C85.7878 76.9398 89.465 77.021 88.5631 75.8755C87.6612 74.73 86.1271 64.4959 85.3064 63.7535C84.4857 63.0111 82.65 74.0717 83.1807 74.7474Z" fill="white"/>
<path opacity="0.1" d="M94.5022 76.6673C95.3722 77.2183 98.8203 77.198 99.3655 76.2845C99.9107 75.371 96.5554 73.9181 95.5405 72.6943C94.5255 71.4705 92.5361 67.2046 91.8546 66.99C91.1731 66.7754 90.6946 66.9436 90.1146 67.57C89.5346 68.1964 89.7637 69.7479 89.7579 70.6324C89.7521 71.5169 90.77 74.24 91.1209 74.5909C91.4718 74.9418 93.67 76.1395 94.5022 76.6673Z" fill="white"/>
<path opacity="0.1" d="M38.1843 65.1977C37.7116 64.9628 36.5197 62.2716 36.7343 61.4277C36.9489 60.5838 41.3366 60.4649 42.7025 60.4794C44.0684 60.4939 50.6746 59.9284 52.0811 59.8182C53.4876 59.708 58.1102 60.0502 57.5679 60.4794C57.0256 60.9086 55.2044 61.4944 53.3832 61.5698C51.562 61.6452 49.1637 62.9183 47.1627 63.2953C45.1617 63.6723 39.121 65.6588 38.1843 65.1977Z" fill="white"/>
<path opacity="0.1" d="M58.3915 74.3618C59.4853 74.8791 60.637 75.2637 61.8222 75.5073C62.4805 75.5798 63.8841 75.1767 64.6642 74.3618C65.4443 73.5469 67.976 71.5517 68.8431 70.6353C69.7102 69.7189 71.5111 65.0586 71.5111 65.0586C71.5111 65.0586 69.3999 66.6855 68.3066 67.0886C67.2133 67.4917 65.1166 68.7793 64.1596 69.1534C63.2026 69.5275 60.9232 69.1911 59.5428 68.9214C58.1624 68.6517 57.8347 69.4028 55.8192 69.3767C54.1961 69.3998 52.5846 69.6556 51.0342 70.1365C50.5673 70.3134 51.9042 70.3395 52.0753 70.7658C52.2464 71.1921 52.2986 71.8214 52.9163 71.9664C53.904 72.1472 54.9187 72.1186 55.8946 71.8823C56.811 71.5923 58.0464 72.0795 58.3915 72.2796C58.7366 72.4797 57.6549 73.9761 58.3915 74.3618Z" fill="white"/>
<path opacity="0.1" d="M55.8191 56.3933C56.2889 56.2483 58.8177 55.2333 59.6587 55.3551C60.4997 55.4769 62.8487 56.3092 64.4582 56.7616C66.0677 57.214 69.8667 58.3305 70.5975 58.6959C71.3283 59.0613 73.9789 60.404 73.4975 60.7462C73.0161 61.0884 71.2732 60.7462 70.3568 60.4794C69.4404 60.2126 67.6337 59.9893 65.0005 59.6877C62.3673 59.3861 59.0497 59.4267 57.7679 58.8757C56.4861 58.3247 53.8326 57.9535 54.198 57.4924C54.5634 57.0313 55.8191 56.3933 55.8191 56.3933Z" fill="white"/>
<path opacity="0.1" d="M80.7418 76.183C79.8718 76.3831 79.9616 77.2444 79.0597 77.343C78.1578 77.4416 77.5662 77.488 77.2211 76.8471C76.876 76.2062 76.5628 74.6257 75.832 74.5996C74.9104 74.6195 73.9979 74.7869 73.1292 75.0955C72.3665 75.371 71.598 76.2555 70.8092 75.7683C70.0204 75.2811 69.5129 75.0259 69.2345 74.6083C68.9561 74.1907 68.6806 73.6281 69.2345 72.9205C69.7884 72.2129 71.482 72.0273 72.091 71.2269C72.7 70.4265 74.1964 68.1819 74.3327 67.3525C74.469 66.5231 76.8151 66.2534 77.3603 65.4965C77.9056 64.7396 79.8282 64.1219 80.0979 64.2466C80.3677 64.3713 80.5417 65.3225 80.7331 65.9866C80.9245 66.6507 81.6407 68.2515 81.7306 68.933C81.8205 69.6145 81.2347 72.7233 81.5131 73.7702C81.7915 74.8171 81.4494 76.0177 80.7418 76.183Z" fill="white"/>
<path opacity="0.1" d="M77.3692 56.7615C78.5292 56.1467 79.3992 57.5677 80.5418 57.6547C81.6844 57.7417 83.2301 57.1704 84.0566 57.1936C84.8831 57.2168 85.4399 58.0781 85.4747 58.5073C85.5095 58.9365 84.3611 59.9573 84.2248 60.3604C84.0885 60.7635 83.7985 63.5301 83.1808 63.5272C82.5631 63.5243 82.3282 62.6572 81.4234 62.402C80.5186 62.1468 79.0715 62.9472 78.129 63.2952C77.1865 63.6432 76.563 64.4552 76.389 63.8752C76.215 63.2952 77.5896 60.8592 77.6302 60.43C77.6708 60.0008 77.897 59.85 77.3692 58.8901C76.8414 57.9302 77.0647 56.9239 77.3692 56.7615Z" fill="white"/>
<path opacity="0.1" d="M104.417 78.3375C105.096 78.2128 106.157 76.3075 106.529 75.9334C106.9 75.5593 107.689 75.3882 108.376 75.1069C109.063 74.8256 110.487 74.9155 110.452 74.0948C110.417 73.2741 107.683 72.3925 107.816 70.6409C107.872 69.4007 108.403 68.2295 109.298 67.3697C109.794 66.9463 111.543 67.5205 110.458 65.9806C109.373 64.4407 109.272 63.6345 108.051 63.8056C106.83 63.9767 106.932 64.7829 105.05 64.6611C103.167 64.5393 102.611 64.6379 100.598 64.49C99.0549 64.329 97.495 64.4879 96.0161 64.9569C94.6966 65.3629 93.4583 65.6355 94.0934 66.2735C94.7285 66.9115 98.0693 67.5379 99.7136 67.5727C101.358 67.6075 103.774 67.7322 103.997 68.3789C104.22 69.0256 102.906 70.551 101.587 69.6723C100.267 68.7936 100.517 68.637 98.6435 68.4833C96.7701 68.3296 95.8102 67.9642 95.7435 68.3789C95.6768 68.7936 94.7169 68.869 95.7435 69.4084C96.7701 69.9478 98.136 71.1977 98.6435 71.6617C99.151 72.1257 100.633 73.3582 100.401 73.5148C100.169 73.6714 103.979 78.4216 104.417 78.3375Z" fill="white"/>
<path opacity="0.1" d="M103.101 62.6951C103.565 62.0687 104.09 60.755 102.735 60.436C101.381 60.117 96.7382 61.5264 95.1374 61.335C93.5366 61.1436 94.4414 61.2335 91.7415 60.7782C89.0416 60.3229 87.6989 60.2707 87.2407 60.5868C86.7825 60.9029 86.3707 61.9759 86.9188 62.6951C87.4669 63.4143 87.1073 65.5806 88.392 65.0586C89.6767 64.5366 90.799 63.5825 92.3505 63.2838C93.8033 62.9704 95.3096 63.0042 96.7469 63.3824C98.2201 63.7797 102.802 63.0982 103.101 62.6951Z" fill="white"/>
</g>
<path opacity="0.5" d="M98.4175 77.8272C99.1599 77.6735 99.6036 77.0413 100.297 76.7832C100.649 76.6652 101.022 76.6169 101.393 76.6411C102.553 76.7426 103.252 77.8649 103.82 78.7378C104.432 79.7325 105.125 80.5909 105.752 79.0278C106.549 76.8499 106.305 76.2409 108.846 75.7015C109.012 75.6702 109.17 75.6029 109.307 75.5043C109.611 75.3047 109.928 75.1255 110.255 74.9678C110.586 74.8299 110.876 74.6104 111.099 74.3298C110.737 74.9504 109.916 75.165 109.403 75.6087C109.145 75.8436 108.683 75.8987 108.373 76.006C108.035 76.1004 107.708 76.2317 107.399 76.3975C106.439 76.8847 106.424 78.2158 106.01 79.1293C105.72 79.9848 104.977 80.6431 104.235 79.7847C103.336 78.761 102.866 77.0819 101.375 76.8325C101.029 76.7995 100.679 76.831 100.343 76.9253C99.6703 77.1283 99.1483 77.7547 98.4175 77.8359V77.8272Z" fill="white"/>
<path opacity="0.5" d="M91.0339 75.8582C92.1939 75.8089 93.2379 76.4382 94.2529 76.8732C95.2679 77.3082 96.2829 77.8157 97.4168 77.9288C96.2742 78.0506 95.149 77.6069 94.1311 77.1371C93.235 76.7282 92.017 75.9916 91.0339 75.8582Z" fill="white"/>
<path opacity="0.5" d="M81.3567 76.2959C82.0527 75.7681 83.32 75.6115 83.7405 76.5656C83.9522 76.9658 84.0566 77.4037 84.3437 77.6734C84.6754 77.9126 85.0717 78.0461 85.4805 78.0562C86.332 78.1568 87.1951 78.0697 88.0093 77.801C88.4037 77.6763 88.6241 77.2732 88.9083 76.931C89.1768 76.575 89.5269 76.2886 89.9291 76.0958C89.5653 76.3358 89.2584 76.6526 89.0301 77.0238C88.8544 77.3118 88.6472 77.5792 88.4124 77.8213C87.9262 78.1244 87.3719 78.3008 86.8 78.3346C85.93 78.3984 84.886 78.4651 84.161 77.8677C83.8101 77.5052 83.7202 77.0412 83.5491 76.6613C83.2011 75.7681 82.0701 75.9247 81.3654 76.2959H81.3567Z" fill="white"/>
<path opacity="0.5" d="M71.63 76.5745C72.6566 76.1366 75.69 74.1878 76.3918 75.7451C76.7079 76.5252 76.4614 77.517 77.0559 78.1608C77.7577 78.7408 78.7031 78.2188 79.3382 77.7693C79.7384 77.4793 80.1154 77.1893 80.4982 76.8848C79.7297 77.4822 79.0308 78.2478 78.0477 78.4856C76.7108 78.7495 76.4875 77.5112 76.3889 76.502C76.2787 75.632 76.0119 75.1883 75.0752 75.4348C73.8891 75.6929 72.8364 76.3396 71.6184 76.5745H71.63Z" fill="white"/>
<path opacity="0.5" d="M52.4465 71.4616C52.4958 71.9865 53.0265 72.2533 53.5021 72.2997C54.8535 72.4476 56.2832 71.7893 57.5853 72.3722C57.7622 72.4534 58 72.639 57.9884 72.8681C57.9884 73.3408 57.7303 73.944 57.6839 74.408C57.7736 74.4868 57.8708 74.5568 57.9739 74.6168C58.3886 74.8778 58.6902 75.2519 59.1716 75.4491C60.2475 75.9247 61.4916 76.3336 62.6719 76.1074C64.1828 75.7739 64.7918 74.0368 66.236 73.5583C67.6193 73.2857 68.034 74.0658 68.4487 75.1794C68.6779 75.6137 69.0126 75.9835 69.4221 76.2546C69.8316 76.5257 70.3026 76.6895 70.7919 76.7309C70.2882 76.7154 69.7969 76.571 69.3649 76.3115C68.9329 76.0521 68.5745 75.6863 68.324 75.249C67.889 74.2311 67.5729 73.4916 66.294 73.7729C64.9252 74.3094 64.264 76.0436 62.7386 76.3829C61.4713 76.6468 60.1982 76.2147 59.0585 75.6956C58.6032 75.5158 58.2523 75.1156 57.8318 74.8256C57.6941 74.7461 57.5722 74.6419 57.4722 74.5182C57.4391 74.3827 57.4472 74.2403 57.4954 74.1093L57.6868 73.3901C57.7216 73.2016 57.8318 72.9145 57.7477 72.755C57.478 72.4302 56.8951 72.3403 56.4746 72.3055C55.3958 72.2011 52.7046 73.0131 52.4639 71.4587L52.4465 71.4616Z" fill="white"/>
<path opacity="0.5" d="M38.248 66.1199C38.5815 66.0097 38.8657 65.8009 39.1876 65.6588C39.8495 65.3768 40.5908 65.3428 41.2756 65.5631C41.6281 65.6447 41.9656 65.7807 42.2761 65.9662C42.373 66.0266 42.4427 66.1223 42.4704 66.233C42.6009 66.813 42.4153 67.4858 42.6241 68.031C42.9659 68.6993 43.4897 69.2573 44.135 69.6405C44.2133 69.6405 44.1727 69.6724 44.2568 69.6405C44.686 69.3505 45.063 68.9793 45.5328 68.7241C46.1824 68.3442 46.9828 68.6255 47.6614 68.8256C47.9411 68.8914 48.1958 69.0364 48.3951 69.2432C48.5198 69.4926 48.2994 69.7942 48.4879 69.9856C49.2064 70.4588 50.0363 70.7358 50.8949 70.7889C50.1901 70.795 49.4921 70.6506 48.8475 70.3655C48.6684 70.3126 48.5037 70.2193 48.3661 70.0929C48.1312 69.8783 48.3023 69.5651 48.224 69.3331C48.0363 69.1927 47.8208 69.0939 47.5918 69.0431C46.9683 68.8981 46.2578 68.6139 45.6604 68.959C45.1848 69.22 44.8107 69.6463 44.3322 69.9276C44.2657 69.9603 44.1897 69.9685 44.1176 69.9508C43.6449 69.7971 43.3085 69.3911 42.9837 69.0489C42.7351 68.7819 42.5314 68.4763 42.3805 68.1441C42.1572 67.5235 42.3399 66.9232 42.2471 66.3113C42.2425 66.2806 42.2309 66.2514 42.2134 66.2257C42.1958 66.2001 42.1726 66.1788 42.1456 66.1634C41.5604 65.8141 40.898 65.6149 40.2171 65.5834C39.5066 65.508 38.9034 65.9546 38.248 66.1431V66.1199Z" fill="white"/>
<path opacity="0.5" d="M50.9355 68.5559C52.4754 68.0728 54.0485 67.7026 55.6422 67.4481C56.6166 67.2712 57.5707 67.6656 58.5422 67.7381C59.4852 67.8823 60.4398 67.9357 61.3929 67.8976C62.3238 67.6996 63.2288 67.395 64.09 66.9899C64.67 66.7405 65.2645 66.4679 65.8474 66.1982C64.4438 66.9754 63.0141 67.8164 61.422 68.1586C59.801 68.2378 58.1773 68.0796 56.6021 67.6888C54.7084 67.6511 52.806 68.2485 50.9355 68.5588V68.5559Z" fill="white"/>
<path opacity="0.5" d="M95.5928 71.1716C96.368 72.0618 97.2804 72.8225 98.2956 73.4249C99.1646 74.0109 99.9584 74.7014 100.659 75.481C100.765 75.5882 100.847 75.7167 100.9 75.858C100.821 75.7349 100.723 75.6253 100.61 75.5332C99.8209 74.8749 98.9858 74.2456 98.1419 73.6656C97.0985 73.0605 96.224 72.2029 95.5986 71.1716H95.5928Z" fill="white"/>
<path opacity="0.5" d="M109.353 68.5415C109.033 68.8454 108.842 69.2607 108.82 69.7015C108.733 70.5715 108.93 71.4212 109.666 71.9577C110.003 72.2477 110.362 72.5 110.734 72.7552C109.913 72.4304 108.939 71.9606 108.66 71.05C108.419 70.2061 108.501 69.02 109.353 68.556V68.5415Z" fill="white"/>
<path opacity="0.1" d="M72.2363 57.3765C71.2793 56.6515 70.3716 56.3876 69.7568 56.4659C69.142 56.5442 68.9187 57.1561 68.4721 57.2953C68.0255 57.4345 66.4798 57.8376 65.9172 57.7042C65.3546 57.5708 64.0612 57.3388 63.3681 57.2344C62.675 57.13 62.8113 57.188 61.4541 57.4345C60.0969 57.681 56.9214 58.0783 56.1906 57.884C55.4598 57.6897 54.0098 57.0488 53.4588 57.101C52.9078 57.1532 52.8962 58 52.2002 58.1363C51.5042 58.2726 50.8082 57.8173 49.3698 58.3074C47.9314 58.7975 48.146 59.0643 47.7516 59.5457C47.3572 60.0271 47.2528 59.9169 46.4205 60.6767C45.5882 61.4365 46.4843 63.1446 46.6032 63.4607C46.7221 63.7768 47.5341 64.6845 48.0532 64.6787C48.5723 64.6729 48.4621 63.9421 49.8193 64.1712C51.1765 64.4003 49.7352 65.3776 50.8227 66.0127C51.9102 66.6478 52.0494 66.8044 52.496 66.642C52.9426 66.4796 52.9426 65.975 53.8068 66.207C54.671 66.439 54.1403 66.7667 55.0016 66.9523C55.8629 67.1379 55.7759 67.3061 56.6923 67.3264C57.6087 67.3467 56.9475 68.237 57.9683 68.3472C58.9891 68.4574 59.7373 68.4168 60.2477 68.2283C60.7581 68.0398 61.2018 68.295 61.2511 68.5473C61.3004 68.7996 60.6131 69.2955 61.2888 69.6522C61.9645 70.0089 60.8161 69.8842 62.7069 70.3192C64.5977 70.7542 65.5547 70.8992 66.1666 70.2786C66.7785 69.658 67.257 68.9736 68.0081 68.9591C68.7592 68.9446 68.2981 70.9514 70.4586 70.9108C72.6191 70.8702 73.3035 69.9538 74.0865 69.9364C74.8695 69.919 74.0865 71.8069 75.9077 71.7837C77.7289 71.7605 77.9725 70.383 78.8802 70.2902C79.7879 70.1974 78.9846 71.8533 81.6294 71.833C84.2742 71.8127 83.5753 70.6237 84.8977 70.3482C86.2201 70.0727 87.1278 71.4705 89.2477 71.4473C91.3676 71.4241 91.1269 70.673 92.1477 70.644C93.1685 70.615 93.5832 71.5836 93.9341 71.9577C94.285 72.3318 94.3227 72.8857 95.2536 72.6537C96.1845 72.4217 96.0569 70.9485 96.7036 70.4526C97.3503 69.9567 97.675 70.3337 98.3246 69.7914C98.9743 69.2491 100.047 69.1476 99.7979 68.3414C99.5485 67.5352 98.1013 67.4134 98.0346 66.3781C97.9679 65.3428 99.3165 65.2935 99.5397 64.0581C99.7631 62.8227 98.5886 62.8604 97.7592 62.1876C96.9298 61.5148 95.8771 62.4022 95.326 61.4597C94.7751 60.5172 95.4276 60.5317 94.166 59.856C92.9046 59.1803 91.414 60.2533 90.2771 59.8734C89.1404 59.4935 87.3772 58.1334 86.4492 57.8434C85.5212 57.5534 85.0224 58.4698 84.4192 58.4553C83.816 58.4408 82.5661 57.6027 81.3307 57.7129C80.0953 57.8231 79.9938 58.2233 79.147 58.2668C78.3002 58.3103 76.9053 57.9768 76.247 57.7941C75.5887 57.6114 75.1044 57.7941 74.2547 57.7941C73.405 57.7941 72.6075 57.6607 72.2363 57.3765Z" fill="black"/>
<path d="M66.8421 69.8405C72.4449 70.9773 80.4344 69.4432 84.2073 64.9105C85.0193 63.9332 85.0918 61.7408 85.0599 60.8128C84.9323 57.3995 80.1299 55.7378 75.8002 54.8736C70.2902 53.7745 61.277 54.7953 57.9797 59.2062C57.1764 60.2792 56.5761 60.7171 56.5964 61.8626C56.6428 64.7945 59.7748 68.405 66.8421 69.8405Z" fill="#E50019"/>
<path opacity="0.2" d="M66.8421 69.8405C72.4449 70.9773 80.4344 69.4432 84.2073 64.9105C85.0193 63.9332 85.0918 61.7408 85.0599 60.8128C84.9323 57.3995 80.1299 55.7378 75.8002 54.8736C70.2902 53.7745 61.277 54.7953 57.9797 59.2062C57.1764 60.2792 56.5761 60.7171 56.5964 61.8626C56.6428 64.7945 59.7748 68.405 66.8421 69.8405Z" fill="black"/>
<path d="M66.6044 68.4398C72.2072 69.5795 80.1967 68.0425 83.9696 63.5098C87.7425 58.9771 81.0696 54.5749 75.5596 53.4729C70.0496 52.3709 61.0393 53.3946 57.742 57.8055C54.8884 61.6219 56.7734 66.4388 66.6044 68.4398Z" fill="#E50019"/>
<path opacity="0.1" d="M66.6044 68.4398C72.2072 69.5795 80.1967 68.0425 83.9696 63.5098C87.7425 58.9771 81.0696 54.5749 75.5596 53.4729C70.0496 52.3709 61.0393 53.3946 57.742 57.8055C54.8884 61.6219 56.7734 66.4388 66.6044 68.4398Z" fill="black"/>
<path d="M67.3322 67.0479C71.9084 67.9788 78.4363 66.7231 81.5161 63.0169C84.5959 59.3107 79.141 55.7176 74.6489 54.8099C70.1568 53.9022 62.7879 54.7461 60.0938 58.3479C57.7593 61.4799 59.3021 65.4152 67.3322 67.0479Z" fill="#E50019"/>
<path d="M65.1631 61.8684C65.1834 61.6016 63.5652 61.3841 63.5623 61.8916C63.5623 62.3179 65.1399 62.2135 65.1631 61.8684Z" fill="white"/>
<path d="M69.1186 57.9681C69.5652 57.9043 69.5623 56.924 68.7242 57.0603C68.0195 57.1763 68.5415 58.0464 69.1186 57.9681Z" fill="white"/>
<path d="M65.1514 57.53C65.4733 57.3357 64.5714 56.5295 63.9711 56.9152C63.481 57.2371 64.7367 57.7823 65.1514 57.53Z" fill="white"/>
<path d="M62.7124 63.0054C62.3934 62.8198 60.9898 63.3737 61.6249 63.7101C62.1556 63.9943 63.1271 63.2432 62.7124 63.0054Z" fill="white"/>
<path d="M72.1084 64.6699C71.685 64.7714 71.946 65.7371 72.7406 65.5399C73.4076 65.3572 72.6594 64.551 72.1084 64.6699Z" fill="white"/>
<path d="M77.5664 59.705C77.5664 59.9718 79.1991 60.1516 79.1672 59.6412C79.1382 59.2178 77.5693 59.357 77.5664 59.705Z" fill="white"/>
<path d="M75.3999 58.5334C75.6029 58.7683 77.2182 58.4986 76.8035 58.0607C76.4497 57.6895 75.1331 58.226 75.3999 58.5334Z" fill="white"/>
<path d="M71.8533 62.3152C71.4038 62.2804 70.8151 63.2084 71.6764 63.2519C72.3956 63.2896 72.4362 62.35 71.8533 62.3152Z" fill="white"/>
<path d="M78.039 66.1198C78.039 66.1198 72.5464 62.6195 73.2627 61.532C73.979 60.4445 83.2416 60.5837 83.2851 61.2565C83.3286 61.9293 80.7882 65.5543 78.039 66.1198Z" fill="#E50019"/>
<path opacity="0.1" d="M78.039 66.1198C78.039 66.1198 72.5464 62.6195 73.2627 61.532C73.979 60.4445 83.2416 60.5837 83.2851 61.2565C83.3286 61.9293 80.7882 65.5543 78.039 66.1198Z" fill="black"/>
<path d="M78.6856 55.7553C78.6856 55.7553 73.7208 59.6674 71.7865 59.4847C69.8522 59.302 68.5965 53.9167 69.713 53.7485C70.8295 53.5803 77.2965 54.285 78.6856 55.7553Z" fill="#E50019"/>
<path opacity="0.1" d="M78.6856 55.7553C78.6856 55.7553 73.7208 59.6674 71.7865 59.4847C69.8522 59.302 68.5965 53.9167 69.713 53.7485C70.8295 53.5803 77.2965 54.285 78.6856 55.7553Z" fill="black"/>
<path d="M60.8999 56.0249C60.8999 56.0249 67.1204 59.0728 66.6448 60.2009C66.1692 61.329 56.9182 61.8858 56.7297 61.2246C56.5412 60.5634 58.2899 56.7905 60.8999 56.0249Z" fill="#E50019"/>
<path opacity="0.1" d="M60.8999 56.0249C60.8999 56.0249 67.1204 59.0728 66.6448 60.2009C66.1692 61.329 56.9182 61.8858 56.7297 61.2246C56.5412 60.5634 58.2899 56.7905 60.8999 56.0249Z" fill="black"/>
<path d="M61.0364 65.7372C61.0364 65.7372 66.3811 61.9991 68.2864 62.2572C70.1917 62.5153 70.8964 67.9354 69.7712 68.0572C68.646 68.179 62.2718 67.2568 61.0364 65.7372Z" fill="#E50019"/>
<path opacity="0.1" d="M61.0364 65.7372C61.0364 65.7372 66.3811 61.9991 68.2864 62.2572C70.1917 62.5153 70.8964 67.9354 69.7712 68.0572C68.646 68.179 62.2718 67.2568 61.0364 65.7372Z" fill="black"/>
<path d="M54.0849 58.4319C59.4731 56.3642 64.9715 50.2771 64.9367 43.6216C64.9367 42.189 63.4867 39.9705 62.811 39.0657C60.3518 35.751 55.2536 36.8472 51.1066 38.4567C45.8344 40.4867 39.1296 46.6666 39.4689 52.9277C39.5501 54.4531 39.3587 55.2303 40.1649 56.3584C42.2297 59.2439 47.2931 61.039 54.0849 58.4319Z" fill="#E50019"/>
<path opacity="0.2" d="M54.0849 58.4319C59.4731 56.3642 64.9715 50.2771 64.9367 43.6216C64.9367 42.189 63.4867 39.9705 62.811 39.0657C60.3518 35.751 55.2536 36.8472 51.1066 38.4567C45.8344 40.4867 39.1296 46.6666 39.4689 52.9277C39.5501 54.4531 39.3587 55.2303 40.1649 56.3584C42.2297 59.2439 47.2931 61.039 54.0849 58.4319Z" fill="black"/>
<path d="M52.9221 57.1734C58.3103 55.0999 63.8 49.0099 63.7768 42.3631C63.742 35.6612 55.2189 35.1508 49.9438 37.1982C44.6687 39.2456 37.9668 45.4081 38.3061 51.6692C38.599 57.0951 43.4739 60.8013 52.9221 57.1734Z" fill="#E50019"/>
<path opacity="0.1" d="M52.9221 57.1734C58.3103 55.0999 63.8 49.0099 63.7768 42.3631C63.742 35.6612 55.2189 35.1508 49.9438 37.1982C44.6687 39.2456 37.9668 45.4081 38.3061 51.6692C38.599 57.0951 43.4739 60.8013 52.9221 57.1734Z" fill="black"/>
<path d="M52.5595 55.3898C56.9617 53.702 61.4538 48.7198 61.4277 43.291C61.4016 37.8622 54.4358 37.4011 50.1177 39.0715C45.7996 40.7419 40.3331 45.7792 40.6086 50.8948C40.858 55.3173 44.8397 58.3449 52.5595 55.3898Z" fill="#E50019"/>
<path d="M47.2062 51.475C47.038 51.185 45.5589 51.9071 45.9098 52.4117C46.2027 52.8351 47.4237 51.8317 47.2062 51.475Z" fill="white"/>
<path d="M47.76 45.3443C48.0819 45.0282 47.4062 44.0538 46.8117 44.6686C46.3129 45.1848 47.3424 45.7532 47.76 45.3443Z" fill="white"/>
<path d="M44.2018 47.1741C44.3323 46.8 43.0215 46.5216 42.8069 47.2379C42.63 47.8498 44.0336 47.6642 44.2018 47.1741Z" fill="white"/>
<path d="M45.9765 54.0007C45.5879 54.0007 44.8165 55.3521 45.5705 55.3231C46.2028 55.3028 46.484 54.0036 45.9765 54.0007Z" fill="white"/>
<path d="M54.8506 50.3033C54.5606 50.6455 55.4538 51.4633 55.9584 50.7905C56.3847 50.2337 55.2131 49.8567 54.8506 50.3033Z" fill="white"/>
<path d="M55.8975 42.247C56.0802 42.5109 57.5447 41.7569 57.1677 41.2726C56.84 40.8637 55.6568 41.9019 55.8975 42.247Z" fill="white"/>
<path d="M53.3049 42.3225C53.6326 42.4443 54.7752 41.2524 54.1285 41.0523C53.5891 40.8899 52.8786 42.1688 53.3049 42.3225Z" fill="white"/>
<path d="M53.0062 48.0993C52.6147 48.3227 52.7713 49.5813 53.5079 49.1318C54.1256 48.7577 53.5166 47.8122 53.0062 48.0993Z" fill="white"/>
<path d="M60.7144 48.3488C60.7144 48.3488 53.7892 48.0095 53.6268 46.5218C53.4644 45.0341 61.1668 39.8808 61.6627 40.5246C62.1586 41.1684 62.5791 46.2144 60.7144 48.3488Z" fill="#E50019"/>
<path opacity="0.1" d="M60.7144 48.3488C60.7144 48.3488 53.7892 48.0095 53.6268 46.5218C53.4644 45.0341 61.1668 39.8808 61.6627 40.5246C62.1586 41.1684 62.5791 46.2144 60.7144 48.3488Z" fill="black"/>
<path d="M54.0878 37.7C54.0878 37.7 52.7132 44.4193 50.9993 45.3415C49.2854 46.2637 44.5352 41.6353 45.3385 40.832C46.1418 40.0287 51.9331 37.0214 54.0878 37.7Z" fill="#E50019"/>
<path opacity="0.1" d="M54.0878 37.7C54.0878 37.7 52.7132 44.4193 50.9993 45.3415C49.2854 46.2637 44.5352 41.6353 45.3385 40.832C46.1418 40.0287 51.9331 37.0214 54.0878 37.7Z" fill="black"/>
<path d="M39.6749 48.105C39.6749 48.105 46.8901 47.5772 47.2758 48.975C47.6615 50.3728 40.4521 56.1989 39.8431 55.645C39.2341 55.0911 38.0596 50.3554 39.6749 48.105Z" fill="#E50019"/>
<path opacity="0.1" d="M39.6749 48.105C39.6749 48.105 46.8901 47.5772 47.2758 48.975C47.6615 50.3728 40.4521 56.1989 39.8431 55.645C39.2341 55.0911 38.0596 50.3554 39.6749 48.105Z" fill="black"/>
<path d="M46.4871 57.6721C46.4871 57.6721 48.2967 50.9093 50.0367 50.0712C51.7767 49.2331 56.1035 54.2153 55.2567 55.0012C54.4099 55.7871 48.549 58.4754 46.4871 57.6721Z" fill="#E50019"/>
<path opacity="0.1" d="M46.4871 57.6721C46.4871 57.6721 48.2967 50.9093 50.0367 50.0712C51.7767 49.2331 56.1035 54.2153 55.2567 55.0012C54.4099 55.7871 48.549 58.4754 46.4871 57.6721Z" fill="black"/>
<path d="M94.1862 66.5143C88.9256 65.711 82.5862 61.8511 81.0289 56.75C80.6896 55.6509 81.4436 53.7427 81.8177 52.9539C83.1981 50.0539 87.9715 50.1612 92.0257 50.7905C97.1819 51.5938 104.594 55.3406 105.801 60.1836C106.091 61.3639 106.447 61.9236 106.007 62.9096C104.873 65.4181 100.824 67.5264 94.1862 66.5143Z" fill="#E50019"/>
<path opacity="0.2" d="M94.1862 66.5143C88.9256 65.711 82.5862 61.8511 81.0289 56.75C80.6896 55.6509 81.4436 53.7427 81.8177 52.9539C83.1981 50.0539 87.9715 50.1612 92.0257 50.7905C97.1819 51.5938 104.594 55.3406 105.801 60.1836C106.091 61.3639 106.447 61.9236 106.007 62.9096C104.873 65.4181 100.824 67.5264 94.1862 66.5143Z" fill="black"/>
<path d="M94.914 65.3832C89.6505 64.5799 83.314 60.7171 81.7538 55.6189C80.1936 50.5207 87.5944 48.8561 92.7506 49.6594C97.9068 50.4627 105.319 54.2095 106.526 59.0496C107.57 63.2459 104.148 66.7897 94.914 65.3832Z" fill="#E50019"/>
<path opacity="0.1" d="M94.914 65.3832C89.6505 64.5799 83.314 60.7171 81.7538 55.6189C80.1936 50.5207 87.5944 48.8561 92.7506 49.6594C97.9068 50.4627 105.319 54.2095 106.526 59.0496C107.57 63.2459 104.148 66.7897 94.914 65.3832Z" fill="black"/>
<path d="M94.8039 63.9564C90.5032 63.301 85.3354 60.1458 84.0536 55.9785C82.7718 51.8112 88.8241 50.4685 93.0436 51.1123C97.2631 51.7561 103.313 54.8272 104.296 58.7828C105.142 62.2106 102.347 65.1077 94.8039 63.9564Z" fill="#E50019"/>
<path d="M98.6001 60.1894C98.6842 59.9545 100.163 60.2822 99.9747 60.7201C99.8181 61.0884 98.4957 60.4968 98.6001 60.1894Z" fill="white"/>
<path d="M96.6397 55.5784C96.2801 55.3841 96.6397 54.5402 97.3183 54.9259C97.8838 55.2478 97.1095 55.8307 96.6397 55.5784Z" fill="white"/>
<path d="M100.227 56.4657C100.024 56.196 101.117 55.7929 101.48 56.3091C101.79 56.7412 100.494 56.8137 100.227 56.4657Z" fill="white"/>
<path d="M100.296 61.9467C100.642 61.8887 101.648 62.8167 100.975 62.9008C100.41 62.9762 99.8499 62.0221 100.296 61.9467Z" fill="white"/>
<path d="M91.5589 60.401C91.8865 60.6243 91.3037 61.3725 90.6889 60.9375C90.1901 60.5721 91.1326 60.1139 91.5589 60.401Z" fill="white"/>
<path d="M88.6993 54.3864C88.6007 54.6155 87.1217 54.2501 87.3392 53.8238C87.5219 53.4671 88.8269 54.0877 88.6993 54.3864Z" fill="white"/>
<path d="M91.0108 54.0704C90.7498 54.2096 89.4535 53.4614 89.9755 53.2149C90.4134 53.009 91.3501 53.8877 91.0108 54.0704Z" fill="white"/>
<path d="M92.6608 58.4494C93.061 58.5625 93.2408 59.5485 92.4665 59.3194C92.4094 59.3067 92.3553 59.2828 92.3074 59.2491C92.2595 59.2155 92.2187 59.1727 92.1873 59.1233C92.156 59.0739 92.1346 59.0188 92.1246 58.9612C92.1145 58.9035 92.1159 58.8444 92.1286 58.7873C92.1414 58.7302 92.1653 58.6761 92.1989 58.6282C92.2326 58.5803 92.2753 58.5395 92.3247 58.5081C92.3741 58.4768 92.4293 58.4554 92.4869 58.4454C92.5446 58.4353 92.6037 58.4367 92.6608 58.4494Z" fill="white"/>
<path d="M85.9009 59.7543C85.9009 59.7543 91.9474 58.4928 91.7328 57.3299C91.5182 56.167 83.4707 53.3395 83.1836 53.905C82.8965 54.4705 83.7375 58.3942 85.9009 59.7543Z" fill="#E50019"/>
<path opacity="0.1" d="M85.9009 59.7543C85.9009 59.7543 91.9474 58.4928 91.7328 57.3299C91.5182 56.167 83.4707 53.3395 83.1836 53.905C82.8965 54.4705 83.7375 58.3942 85.9009 59.7543Z" fill="black"/>
<path d="M89.2041 50.6339C89.2041 50.6339 92.0345 55.5785 93.7716 56.0338C95.5087 56.4891 98.6001 52.2638 97.6982 51.7621C96.7963 51.2604 90.9499 49.8103 89.2041 50.6339Z" fill="#E50019"/>
<path opacity="0.1" d="M89.2041 50.6339C89.2041 50.6339 92.0345 55.5785 93.7716 56.0338C95.5087 56.4891 98.6001 52.2638 97.6982 51.7621C96.7963 51.2604 90.9499 49.8103 89.2041 50.6339Z" fill="black"/>
<path d="M104.458 56.521C104.458 56.521 97.9474 57.1619 97.9387 58.2842C97.93 59.4065 105.714 62.8285 106.12 62.3181C106.526 61.8077 106.43 58 104.458 56.521Z" fill="#E50019"/>
<path opacity="0.1" d="M104.458 56.521C104.458 56.521 97.9474 57.1619 97.9387 58.2842C97.93 59.4065 105.714 62.8285 106.12 62.3181C106.526 61.8077 106.43 58 104.458 56.521Z" fill="black"/>
<path d="M100.729 64.8323C100.729 64.8323 97.5038 59.9168 95.7609 59.5282C94.018 59.1396 91.3878 63.5882 92.3187 64.0493C93.2496 64.5104 99.0959 65.7458 100.729 64.8323Z" fill="#E50019"/>
<path opacity="0.1" d="M100.729 64.8323C100.729 64.8323 97.5038 59.9168 95.7609 59.5282C94.018 59.1396 91.3878 63.5882 92.3187 64.0493C93.2496 64.5104 99.0959 65.7458 100.729 64.8323Z" fill="black"/>
<path d="M111.206 56.0889C103.289 63.7478 77.7287 56.0512 70.0988 53.3339C62.4689 50.6166 38.0074 40.5014 38.2945 30.1339C38.5816 19.7664 62.0136 5.60281 87.6583 14.7378C113.303 23.8728 119.123 48.43 111.206 56.0889Z" fill="#E50019"/>
<path opacity="0.2" d="M111.206 56.0889C103.289 63.7478 77.7287 56.0512 70.0988 53.3339C62.4689 50.6166 38.0074 40.5014 38.2945 30.1339C38.5816 19.7664 62.0136 5.60281 87.6583 14.7378C113.303 23.8728 119.123 48.43 111.206 56.0889Z" fill="black"/>
<path opacity="0.1" d="M89.3374 26.39C86.2692 30.3978 78.0651 30.9401 70.7397 29.87C67.0683 29.3335 55.9932 25.6273 55.419 20.9061C54.8448 16.1849 63.7043 10.3936 75.9452 12.7861C88.1861 15.1786 92.4056 22.3764 89.3374 26.39Z" fill="white"/>
<path opacity="0.1" d="M111.206 56.089C103.289 63.7479 77.7287 56.0513 70.1017 53.334C62.4747 50.6167 38.0074 40.5015 38.2945 30.134C38.4105 25.9116 42.3545 21.0657 48.7345 17.4146C44.5643 22.5476 40.7566 28.2548 43.4217 32.8223C48.0356 40.7248 83.1517 51.217 99.7571 50.579C113.297 50.0599 113.567 41.9022 111.783 35.4497C115.71 43.8597 115.246 52.1798 111.206 56.089Z" fill="black"/>
<path d="M79.3644 38.9384C78.8859 38.7992 77.3721 40.5885 78.3059 40.8176C79.086 41.0061 79.9821 39.1211 79.3644 38.9384Z" fill="white"/>
<path d="M96.7063 22.2025C96.9441 22.6375 99.2815 22.4403 98.7827 21.6225C98.3622 20.9352 96.3989 21.6341 96.7063 22.2025Z" fill="white"/>
<path d="M92.22 39.298C91.7676 39.5039 91.8053 41.85 92.6579 41.4092C93.38 41.038 92.8 39.0283 92.22 39.298Z" fill="white"/>
<path d="M53.0875 17.3159C52.9599 16.8345 50.6428 16.472 50.9328 17.3884C51.1764 18.154 53.2528 17.9394 53.0875 17.3159Z" fill="white"/>
<path d="M67.6105 30.0934C67.3582 29.6642 65.0295 29.9455 65.5573 30.7459C66.001 31.4187 67.9411 30.6502 67.6105 30.0934Z" fill="white"/>
<path d="M101.773 31.03C101.448 31.407 102.454 33.524 103.046 32.77C103.53 32.1465 102.196 30.5544 101.773 31.03Z" fill="white"/>
<path d="M98.365 35.0582C97.8691 35.1075 97.147 37.3405 98.0982 37.1955C98.8899 37.0766 99.0059 34.9915 98.365 35.0582Z" fill="white"/>
<path d="M91.84 22.6693C91.4804 23.0144 92.2895 25.2155 92.9478 24.5166C93.4988 23.9308 92.304 22.2227 91.84 22.6693Z" fill="white"/>
<path d="M51.7216 15.1815C51.5389 14.7204 49.1957 14.6334 49.5901 15.5063C49.9236 16.24 51.9594 15.7818 51.7216 15.1815Z" fill="white"/>
<path d="M102.933 45.7329C102.442 45.8083 101.833 48.0732 102.773 47.8818C103.562 47.7223 103.571 45.6372 102.933 45.7329Z" fill="white"/>
<path d="M111.54 38.7557C111.189 39.1066 112.044 41.2903 112.7 40.5798C113.228 39.9824 111.995 38.2975 111.54 38.7557Z" fill="white"/>
<path d="M55.7033 35.4206C55.2973 35.1306 53.2905 36.3457 54.1025 36.8706C54.7811 37.2882 56.2311 35.7918 55.7033 35.4206Z" fill="white"/>
<path d="M69.4841 16.324C69.5798 15.8368 67.6629 14.4883 67.5179 15.4366C67.399 16.2399 69.3565 16.9562 69.4841 16.324Z" fill="white"/>
<path d="M80.2285 18.2206C79.9385 17.8291 77.6504 18.4033 78.2768 19.1312C78.8017 19.7402 80.62 18.731 80.2285 18.2206Z" fill="white"/>
<path d="M85.3585 46.0201C84.8713 46.1245 84.4073 48.4242 85.3353 48.1748C86.1096 47.9631 85.9878 45.8809 85.3585 46.0201Z" fill="white"/>
<path d="M54.3778 23.4899C54.0878 23.081 51.791 23.5189 52.3739 24.2816C52.8611 24.9225 54.7432 24.0235 54.3778 23.4899Z" fill="white"/>
<path d="M82.3136 48.8882C81.8177 48.8621 80.7621 50.9588 81.7336 50.9617C82.5282 50.9617 82.9574 48.9201 82.3136 48.8882Z" fill="white"/>
<path opacity="0.5" d="M44.4425 26.1001C43.2245 30.395 47.3773 33.7271 50.5093 35.8963C54.9898 38.8311 59.972 40.8698 64.9252 42.8824C59.7777 41.3396 54.6911 39.3589 50.1932 36.3661C47.0032 34.1592 42.7808 30.4008 44.4425 26.1001Z" fill="white"/>
<path d="M109.255 6.00002L6 99.0037L36.6212 133L139.876 39.9964L109.255 6.00002Z" fill="#E50019"/>
<path d="M63.0803 86.4187L65 88.5998L56.2842 97L46 85.1929L54.4759 77L56.387 79.1902L50.4993 84.8864L52.7361 87.4461L57.9382 82.4168L59.7979 84.5349L54.5701 89.5913L56.9526 92.2952L63.0803 86.4187Z" fill="white"/>
<path d="M57 74.4566L59.6401 72L68.2293 81.3509L74.0023 76.0679L76 78.234L67.5604 86L57 74.4566Z" fill="white"/>
<path d="M96.5 60L93.5 62.5L84.1704 52.6991L80.3236 56L78 54L84.8745 47.8217L89 44L91 46L87 50L96.5 60Z" fill="white"/>
<path d="M84.9846 65.4091L87 67.6013L77.845 76L67 64.2003L75.9381 56L77.9535 58.1922L71.7356 63.8936L74.1035 66.4556L79.5892 61.4217L81.5504 63.5417L76.0646 68.5846L78.5861 71.2909L84.9846 65.4091Z" fill="white"/>
<path d="M108.085 43.4091L110 45.6013L101.303 54L91 42.2003L99.4912 34L101.406 36.1922L95.4989 41.8936L97.7483 44.4556L102.96 39.4217L104.823 41.5417L99.6114 46.5846L102.007 49.2909L108.085 43.4091Z" fill="white"/>
<path d="M32 97.4599L37.2297 92.6339C40.9979 89.1665 45.6641 89.1048 48.8776 92.5544C52.0911 96.0041 51.5893 100.707 47.8211 104.183L42.5914 109L32 97.4599ZM45.6817 102.109C47.9619 100.001 48.2085 97.2481 46.1747 95.0513C44.1409 92.8544 41.394 92.8544 39.1314 94.963L36.7102 97.1952L43.2781 104.35L45.6817 102.109Z" fill="white"/>
</svg>
