<svg width="23" height="23" viewBox="0 0 23 23" fill="none" xmlns="http://www.w3.org/2000/svg">
<path fill-rule="evenodd" clip-rule="evenodd" d="M6.94792 16.2917C7.6095 16.2917 8.14583 15.7554 8.14583 15.0938C8.14583 14.825 8.05728 14.5769 7.90783 14.377C9.00646 14.3849 9.38472 14.4248 9.51496 14.6256C9.58333 14.7311 9.58333 14.8808 9.58333 15.0936C9.58333 16.5491 8.40343 17.729 6.94792 17.729C5.4924 17.729 4.3125 16.5491 4.3125 15.0936C4.3125 14.4757 4.3125 14.3891 5.988 14.377C5.83855 14.5769 5.75 14.825 5.75 15.0938C5.75 15.7554 6.28633 16.2917 6.94792 16.2917Z" fill="#0E0101"/>
<path fill-rule="evenodd" clip-rule="evenodd" d="M4.89967 14.4189C4.3125 14.4865 4.3125 14.658 4.3125 15.0936C4.3125 16.5491 5.4924 17.729 6.94792 17.729C8.40343 17.729 9.58333 16.5491 9.58333 15.0936C9.58333 14.8808 9.58333 14.7311 9.51496 14.6256C9.44332 14.5152 9.2966 14.4534 8.99616 14.4188C8.75049 14.3906 8.40204 14.3806 7.90783 14.377C8.05728 14.5769 8.14583 14.825 8.14583 15.0938C8.14583 15.1773 8.1373 15.2588 8.12101 15.3375C8.00841 15.8822 7.52598 16.2917 6.94792 16.2917C6.36985 16.2917 5.88742 15.8822 5.77482 15.3375C5.75853 15.2588 5.75 15.1773 5.75 15.0938C5.75 14.825 5.83855 14.5769 5.988 14.377C5.49379 14.3806 5.14534 14.3906 4.89967 14.4189Z" fill="#0E0101"/>
<path d="M10.0625 11.9792H14.7418L14.375 14.8542H10.0625V11.9792Z" fill="#0E0101"/>
<path fill-rule="evenodd" clip-rule="evenodd" d="M13.6535 12.9375H11.0208V13.8959H13.5312L13.6535 12.9375ZM10.0625 11.9792V14.8542H14.375L14.7418 11.9792H10.0625Z" fill="#0E0101"/>
<path d="M16.2917 8.625V12.4583L14.8542 13.8958V14.375H13.8958L14.8542 8.625H16.2917Z" fill="#0E0101"/>
<path fill-rule="evenodd" clip-rule="evenodd" d="M14.4483 8.14581H16.7708V12.6568L15.3333 14.0943V14.8541H13.3302L14.4483 8.14581ZM14.5185 13.5539L15.8125 12.2598V9.10415H15.2601L14.5185 13.5539Z" fill="#0E0101"/>
<path fill-rule="evenodd" clip-rule="evenodd" d="M17.4896 16.2921C18.1512 16.2921 18.6875 15.7558 18.6875 15.0942C18.6875 14.9268 18.6532 14.7674 18.5911 14.6227L19.9955 14.354C20.269 15.7836 19.3319 17.1642 17.9023 17.4377C16.4728 17.7113 15.0921 16.7741 14.8186 15.3445L16.2921 15.0626C16.2918 15.0731 16.2917 15.0836 16.2917 15.0942C16.2917 15.7558 16.828 16.2921 17.4896 16.2921Z" fill="#0E0101"/>
<path fill-rule="evenodd" clip-rule="evenodd" d="M14.8186 15.3445C14.8988 15.7639 15.0743 16.1408 15.3183 16.4573C15.8575 17.1566 16.7315 17.5605 17.6519 17.4735C17.7351 17.4656 17.8186 17.4538 17.9023 17.4377C18.2259 17.3758 18.5242 17.2572 18.789 17.0941C19.351 16.7481 19.7618 16.2018 19.9418 15.5726C20.0518 15.1884 20.0757 14.7733 19.9955 14.354L18.5911 14.6227C18.6532 14.7674 18.6875 14.9268 18.6875 15.0942C18.6875 15.1043 18.6874 15.1143 18.6871 15.1244C18.6772 15.5264 18.4692 15.8792 18.1571 16.0891C18.0164 16.1837 17.8546 16.2492 17.6802 16.277C17.6394 16.2836 17.5979 16.288 17.5559 16.2903C17.534 16.2915 17.5118 16.2921 17.4896 16.2921C16.9959 16.2921 16.572 15.9935 16.3886 15.567C16.3262 15.422 16.2917 15.2621 16.2917 15.0942C16.2917 15.0836 16.2918 15.0731 16.2921 15.0626L14.8186 15.3445Z" fill="#0E0101"/>
<path d="M15.3661 15.0076C15.1055 15.0535 14.8523 14.8785 14.8542 14.6139C14.8581 14.0833 15.0222 13.5622 15.3308 13.1215C15.7317 12.549 16.3436 12.1591 17.0319 12.0377C17.7203 11.9164 18.4287 12.0734 19.0012 12.4743C19.4419 12.7829 19.7744 13.2165 19.9595 13.7137C20.0518 13.9617 19.8737 14.2127 19.6131 14.2587L17.4896 14.6331L15.3661 15.0076Z" fill="#0E0101"/>
<path fill-rule="evenodd" clip-rule="evenodd" d="M19.4768 13.7961C19.3204 13.4248 19.0616 13.1016 18.7264 12.8668C18.2579 12.5388 17.6783 12.4103 17.1152 12.5096C16.5519 12.6089 16.0513 12.9278 15.7233 13.3963C15.4885 13.7316 15.3559 14.1238 15.336 14.5263L19.4768 13.7961ZM19.5305 13.7866C19.5308 13.7866 19.5305 13.7866 19.5305 13.7866V13.7866ZM19.6963 14.7306L15.4493 15.4794C14.957 15.5662 14.3705 15.2352 14.3751 14.6104C14.3796 13.9834 14.5736 13.3675 14.9383 12.8466C15.4121 12.17 16.1353 11.7093 16.9487 11.5658C17.7622 11.4224 18.5994 11.608 19.2761 12.0818C19.7969 12.4465 20.1897 12.9589 20.4085 13.5465C20.6265 14.1321 20.1886 14.6437 19.6963 14.7306Z" fill="#0E0101"/>
<path d="M4.3125 9.58331C4.3125 8.78938 4.95607 8.14581 5.75 8.14581H10.0625C10.8564 8.14581 11.5 8.78938 11.5 9.58331C11.5 9.84796 11.2855 10.0625 11.0208 10.0625H4.79167C4.52703 10.0625 4.3125 9.84796 4.3125 9.58331Z" fill="#0E0101"/>
<path fill-rule="evenodd" clip-rule="evenodd" d="M5.75 8.14581C4.95607 8.14581 4.3125 8.78938 4.3125 9.58331C4.3125 9.84796 4.52703 10.0625 4.79167 10.0625H11.0208C11.2855 10.0625 11.5 9.84796 11.5 9.58331C11.5 8.78938 10.8564 8.14581 10.0625 8.14581H5.75Z" fill="#0E0101"/>
<path d="M2.39584 14.6412C2.39584 12.1125 4.07293 11.0208 6.01624 11.0208H10.6375C10.8492 11.0208 11.0208 11.1925 11.0208 11.4041V13.8958C11.0208 14.4251 10.5918 14.8541 10.0625 14.8541H2.6088C2.49119 14.8541 2.39584 14.7588 2.39584 14.6412Z" fill="#0E0101"/>
<path fill-rule="evenodd" clip-rule="evenodd" d="M10.0625 11.9791H6.01624C5.21397 11.9791 4.55754 12.2045 4.11422 12.5988C3.80289 12.8757 3.53929 13.2865 3.42096 13.8958H10.0625V11.9791ZM6.01624 11.0208C4.07293 11.0208 2.39584 12.1125 2.39584 14.6412C2.39584 14.7588 2.49119 14.8541 2.6088 14.8541H10.0625C10.5918 14.8541 11.0208 14.4251 11.0208 13.8958V11.4041C11.0208 11.1925 10.8492 11.0208 10.6375 11.0208H6.01624Z" fill="#0E0101"/>
<path d="M13.8958 7.42708C13.8958 6.50085 14.6467 5.75 15.5729 5.75H17.4343C17.5972 5.75 17.7292 5.88201 17.7292 6.04488V8.80929C17.7292 8.97216 17.5972 9.10417 17.4343 9.10417H15.5729C14.6467 9.10417 13.8958 8.35331 13.8958 7.42708Z" fill="#0E0101"/>
<path fill-rule="evenodd" clip-rule="evenodd" d="M16.7708 6.70833H15.5729C15.176 6.70833 14.8542 7.03014 14.8542 7.42708C14.8542 7.82403 15.176 8.14583 15.5729 8.14583H16.7708V6.70833ZM15.5729 5.75C14.6467 5.75 13.8958 6.50085 13.8958 7.42708C13.8958 8.35331 14.6467 9.10417 15.5729 9.10417H17.4343C17.5972 9.10417 17.7292 8.97216 17.7292 8.80929V6.04488C17.7292 5.88201 17.5972 5.75 17.4343 5.75H15.5729Z" fill="#0E0101"/>
<path d="M12.0621 6.70111C12.1079 6.44049 12.3563 6.26631 12.617 6.31212L14.0328 6.56095C14.2935 6.60676 14.4676 6.85516 14.4218 7.11583C14.376 7.37645 14.1276 7.55062 13.8669 7.50482L12.4511 7.25598C12.1905 7.21018 12.0163 6.96178 12.0621 6.70111Z" fill="#0E0101"/>
</svg>
