<svg width="24" height="24" viewBox="0 0 24 24" fill="none" xmlns="http://www.w3.org/2000/svg">
<path d="M12 10.5267H21.7098C21.817 11.1249 21.8705 11.6964 21.8705 12.241C21.8705 14.1785 21.4643 15.9084 20.6518 17.4307C19.8393 18.9531 18.6808 20.1428 17.1763 20.9999C15.6719 21.8571 13.9464 22.2857 12 22.2857C10.5982 22.2857 9.2634 22.0156 7.99554 21.4754C6.72769 20.9352 5.63394 20.2053 4.71429 19.2857C3.79465 18.366 3.06474 17.2723 2.52456 16.0044C1.98438 14.7366 1.71429 13.4017 1.71429 11.9999C1.71429 10.5982 1.98438 9.26334 2.52456 7.99548C3.06474 6.72763 3.79465 5.63388 4.71429 4.71423C5.63394 3.79459 6.72769 3.06468 7.99554 2.5245C9.2634 1.98432 10.5982 1.71423 12 1.71423C14.6786 1.71423 16.9777 2.61155 18.8973 4.4062L16.0982 7.09816C15 6.03566 13.6339 5.50441 12 5.50441C10.8482 5.50441 9.78349 5.79459 8.80581 6.37495C7.82813 6.9553 7.05358 7.74325 6.48215 8.73879C5.91072 9.73432 5.62501 10.8214 5.62501 11.9999C5.62501 13.1785 5.91072 14.2656 6.48215 15.2611C7.05358 16.2566 7.82813 17.0446 8.80581 17.6249C9.78349 18.2053 10.8482 18.4955 12 18.4955C12.7768 18.4955 13.4911 18.3883 14.1429 18.1741C14.7947 17.9598 15.3304 17.6919 15.75 17.3705C16.1697 17.0491 16.5357 16.683 16.8482 16.2723C17.1607 15.8616 17.3906 15.4732 17.538 15.1071C17.6853 14.741 17.7857 14.3928 17.8393 14.0624H12V10.5267Z" fill="white"/>
</svg>
