<svg width="15" height="23" viewBox="0 0 15 23" fill="none" xmlns="http://www.w3.org/2000/svg">
<path fill-rule="evenodd" clip-rule="evenodd" d="M15 8.36364H0L0 21.4318C0 21.7205 0.239847 21.9545 0.535714 21.9545H14.4643C14.7602 21.9545 15 21.7205 15 21.4318V8.36364ZM2.41071 9.93182C2.41071 9.78747 2.29079 9.67045 2.14286 9.67045C1.99492 9.67045 1.875 9.78747 1.875 9.93182L1.875 15.1591C1.875 15.3034 1.99492 15.4205 2.14286 15.4205C2.29079 15.4205 2.41071 15.3034 2.41071 15.1591V9.93182Z" fill="#263238"/>
<path fill-rule="evenodd" clip-rule="evenodd" d="M0.535714 0C0.239847 0 0 0.234033 0 0.522727L0 7.31818H15V0.522727C15 0.234033 14.7602 0 14.4643 0L0.535714 0ZM2.41071 4.18182C2.41071 4.03747 2.29079 3.92045 2.14286 3.92045C1.99492 3.92045 1.875 4.03747 1.875 4.18182L1.875 5.75C1.875 5.89435 1.99492 6.01136 2.14286 6.01136C2.29079 6.01136 2.41071 5.89435 2.41071 5.75V4.18182Z" fill="#263238"/>
<path d="M11.25 21.9545H13.3929V22.4773C13.3929 22.766 13.153 23 12.8571 23H11.7857C11.4898 23 11.25 22.766 11.25 22.4773V21.9545Z" fill="#263238"/>
<path d="M1.60714 21.9545H3.75V22.4773C3.75 22.766 3.51015 23 3.21429 23H2.14286C1.84699 23 1.60714 22.766 1.60714 22.4773V21.9545Z" fill="#263238"/>
</svg>
