<svg width="28" height="22" viewBox="0 0 28 22" fill="none" xmlns="http://www.w3.org/2000/svg">
<path fill-rule="evenodd" clip-rule="evenodd" d="M11.4545 2.58824C11.4545 1.15879 12.5942 0 14 0C15.4058 0 16.5455 1.15879 16.5455 2.58824V4.6818C22.316 5.61249 26.7273 10.6942 26.7273 16.8235H1.27273C1.27273 10.6942 5.68403 5.61249 11.4545 4.6818V2.58824ZM12.7273 4.54615C12.938 4.53504 13.1502 4.52941 13.3636 4.52941H14.6364C14.8498 4.52941 15.062 4.53504 15.2727 4.54615V2.58824C15.2727 1.87351 14.7029 1.29412 14 1.29412C13.2971 1.29412 12.7273 1.87351 12.7273 2.58824V4.54615Z" fill="black"/>
<path d="M0.636364 18.1176C0.28491 18.1176 0 18.4073 0 18.7647C0 19.1221 0.284909 19.4118 0.636363 19.4118H27.3636C27.7151 19.4118 28 19.1221 28 18.7647C28 18.4073 27.7151 18.1176 27.3636 18.1176H0.636364Z" fill="black"/>
<path d="M2.54545 20.7059C2.194 20.7059 1.90909 20.9956 1.90909 21.3529C1.90909 21.7103 2.194 22 2.54546 22H25.4545C25.806 22 26.0909 21.7103 26.0909 21.3529C26.0909 20.9956 25.806 20.7059 25.4545 20.7059H2.54545Z" fill="black"/>
</svg>
