<svg width="337" height="337" viewBox="0 0 337 337" fill="none" xmlns="http://www.w3.org/2000/svg">
<path d="M52.3766 243.496C58.0756 243.496 62.6955 238.876 62.6955 233.177C62.6955 227.478 58.0756 222.858 52.3766 222.858C46.6776 222.858 42.0576 227.478 42.0576 233.177C42.0576 238.876 46.6776 243.496 52.3766 243.496Z" fill="#E0E0E0"/>
<path d="M79.8038 240.303C83.8336 236.273 83.8336 229.739 79.8038 225.709C75.774 221.68 69.2405 221.68 65.2107 225.709C61.1809 229.739 61.1809 236.273 65.2107 240.303C69.2405 244.332 75.774 244.332 79.8038 240.303Z" fill="#EBEBEB"/>
<path d="M39.5441 240.304C43.5739 236.275 43.5739 229.741 39.5441 225.711C35.5143 221.681 28.9807 221.681 24.9509 225.711C20.9211 229.741 20.9211 236.275 24.9509 240.304C28.9807 244.334 35.5143 244.334 39.5441 240.304Z" fill="#EBEBEB"/>
<path d="M18.5352 235.226H85.9352C85.9352 235.226 85.2612 263.015 67.1508 266.412L66.861 272.296H36.531V266.291C36.531 266.291 18.5352 261.707 18.5352 235.226Z" fill="#E0E0E0"/>
<path d="M67.1441 266.412C67.1441 266.513 60.2625 266.587 51.7769 266.587C43.2912 266.587 36.4097 266.513 36.4097 266.412C36.4097 266.311 43.2912 266.237 51.7769 266.237C60.2625 266.237 67.1441 266.318 67.1441 266.412Z" fill="white"/>
<path d="M83.3201 249.542C83.3201 249.542 83.1718 249.542 82.8887 249.596L81.6149 249.704C79.981 249.863 78.3326 249.783 76.7216 249.468C75.5529 249.231 74.4363 248.786 73.4258 248.153C72.2155 247.391 71.2476 246.299 70.6354 245.006C70.3121 244.274 70.1511 243.481 70.1636 242.68C70.1923 241.82 70.4892 240.991 71.0128 240.308C71.293 239.949 71.653 239.661 72.0643 239.465C72.4893 239.286 72.9548 239.223 73.4123 239.283C73.8875 239.377 74.3363 239.573 74.7266 239.86C75.1169 240.147 75.4391 240.516 75.6702 240.942C76.1359 241.842 76.2741 242.876 76.0611 243.867C75.8531 244.882 75.4601 245.851 74.9018 246.724C73.7116 248.582 71.949 250.002 69.8805 250.768C67.6647 251.59 65.2252 251.576 63.0192 250.728C61.8693 250.288 60.8094 249.642 59.8918 248.821C58.911 248.001 58.1762 246.925 57.7687 245.713C57.5802 245.073 57.5802 244.392 57.7687 243.752C57.9582 243.085 58.4042 242.521 59.0089 242.182C59.6417 241.901 60.3483 241.832 61.0234 241.985C61.6986 242.138 62.3064 242.505 62.7563 243.031C63.6302 244.09 64.176 245.38 64.3268 246.745C64.5358 248.109 64.4947 249.5 64.2054 250.849C63.6337 253.646 62.0885 256.149 59.8447 257.913C58.6937 258.795 57.3785 259.439 55.9759 259.807C54.5512 260.162 53.0744 260.261 51.6151 260.097C48.6853 259.804 45.9779 258.403 44.0461 256.181C43.1013 255.09 42.4618 253.77 42.1926 252.352C41.9348 250.933 42.2446 249.468 43.0553 248.275C43.4306 247.672 43.9541 247.175 44.5759 246.831C45.1977 246.488 45.897 246.31 46.6073 246.313C47.3062 246.352 47.9822 246.577 48.5652 246.964C49.1482 247.352 49.6171 247.888 49.9234 248.517C50.2072 249.154 50.255 249.871 50.0582 250.539C49.8591 251.191 49.4918 251.779 48.9933 252.244C48.0244 253.122 46.8486 253.739 45.5761 254.037C43.2415 254.677 40.7813 254.703 38.4338 254.113C36.0862 253.522 33.931 252.336 32.177 250.667C31.3733 249.882 30.752 248.929 30.3572 247.877C29.979 246.852 29.9157 245.737 30.1752 244.675C30.4053 243.641 30.9923 242.72 31.8332 242.074C32.662 241.486 33.687 241.245 34.691 241.4C35.6529 241.519 36.5329 242.001 37.1511 242.748C37.7269 243.458 38.0473 244.341 38.061 245.255C38.0644 246.117 37.7876 246.957 37.2724 247.648C36.7934 248.285 36.1904 248.82 35.4998 249.218C34.2671 249.918 32.9354 250.427 31.5501 250.728C30.3992 251.003 29.2303 251.197 28.0521 251.308C26.4207 251.473 24.7768 251.473 23.1454 251.308C22.0333 251.18 21.4536 251.052 21.4536 251.052C21.4536 251.052 21.6019 251.052 21.8917 251.099C22.1815 251.146 22.5994 251.186 23.1521 251.233C24.7783 251.378 26.4145 251.366 28.0386 251.2C29.2079 251.076 30.3676 250.873 31.5097 250.593C32.8747 250.296 34.1862 249.791 35.3987 249.097C36.0659 248.709 36.6481 248.191 37.1106 247.574C37.5943 246.918 37.8521 246.124 37.8453 245.309C37.8261 244.446 37.5202 243.613 36.9758 242.943C36.3921 242.246 35.5662 241.796 34.664 241.683C33.7119 241.549 32.7453 241.791 31.968 242.357C31.1847 242.971 30.6391 243.838 30.4246 244.81C30.1785 245.821 30.2419 246.882 30.6065 247.857C30.9903 248.872 31.5906 249.792 32.3657 250.553C34.0904 252.172 36.2028 253.321 38.4997 253.889C40.7966 254.457 43.201 254.424 45.4817 253.795C46.6989 253.507 47.8234 252.915 48.7506 252.076C49.2064 251.651 49.5433 251.114 49.7279 250.519C49.9023 249.921 49.8569 249.28 49.5999 248.713C49.3241 248.136 48.8983 247.644 48.367 247.288C47.8358 246.932 47.2187 246.726 46.5803 246.691C45.9341 246.665 45.2944 246.829 44.7403 247.163C44.1722 247.498 43.6881 247.959 43.3249 248.511C42.5658 249.632 42.2778 251.007 42.5229 252.339C42.7856 253.693 43.3991 254.955 44.3022 255.999C46.1768 258.152 48.8017 259.509 51.6421 259.793C53.0586 259.95 54.4917 259.854 55.8748 259.51C57.2327 259.149 58.5061 258.524 59.6222 257.67C61.8247 255.939 63.3337 253.476 63.8752 250.728C64.1575 249.419 64.1986 248.069 63.9965 246.745C63.8525 245.448 63.3403 244.22 62.5204 243.206C62.1189 242.729 61.5738 242.394 60.9665 242.252C60.3591 242.11 59.7221 242.168 59.1504 242.418C58.6281 242.708 58.2407 243.192 58.072 243.766C57.9001 244.346 57.9001 244.964 58.072 245.545C58.4656 246.698 59.1644 247.723 60.094 248.511C60.9866 249.302 62.0139 249.928 63.127 250.357C65.2655 251.2 67.6382 251.234 69.7996 250.452C71.812 249.704 73.5285 248.326 74.6929 246.522C75.2378 245.681 75.6218 244.747 75.8252 243.766C76.0296 242.834 75.9058 241.86 75.4747 241.009C75.2639 240.614 74.9684 240.272 74.6096 240.005C74.2507 239.738 73.8372 239.554 73.3988 239.465C72.9768 239.401 72.5452 239.454 72.1519 239.62C71.7747 239.8 71.4429 240.063 71.1813 240.389C70.6804 241.033 70.3951 241.818 70.3658 242.633C70.3472 243.402 70.4968 244.166 70.8039 244.871C71.3919 246.135 72.3268 247.205 73.4999 247.958C74.4862 248.602 75.583 249.059 76.7351 249.306C78.3328 249.634 79.9686 249.736 81.5946 249.609L82.8618 249.535C83.1718 249.542 83.3201 249.542 83.3201 249.542Z" fill="white"/>
<path d="M286.059 116.278C285.796 117.161 281.307 124.238 274.83 126.645C268.353 129.051 263.541 131.713 265.34 134.881C267.14 138.049 275.093 136.323 275.093 136.323C275.093 136.323 258.951 153.847 274.15 163.897C292.678 176.13 312.062 132.36 312.062 132.36L286.059 116.278Z" fill="#EBEBEB"/>
<path d="M308.989 138.365C308.941 138.446 302.835 134.807 295.347 130.237C287.859 125.667 281.833 121.886 281.867 121.805C281.901 121.724 288.027 125.364 295.509 129.934C302.99 134.503 309.042 138.285 308.989 138.365Z" fill="#E0E0E0"/>
<path d="M306.124 143.616C306.07 143.697 299.472 139.821 291.384 134.969C283.296 130.116 276.778 126.099 276.825 126.018C276.873 125.937 283.478 129.806 291.566 134.665C299.654 139.525 306.171 143.562 306.124 143.616Z" fill="#E0E0E0"/>
<path d="M302.66 148.59C302.612 148.671 295.198 144.31 286.113 138.851C277.027 133.391 269.694 128.896 269.741 128.815C269.789 128.734 277.203 133.088 286.295 138.547C295.387 144.007 302.707 148.502 302.66 148.59Z" fill="#E0E0E0"/>
<path d="M298.339 154.744C298.286 154.825 292.543 151.32 285.533 146.919C278.524 142.517 272.842 138.884 272.896 138.831C272.95 138.777 278.686 142.254 285.702 146.656C292.718 151.057 298.387 154.663 298.339 154.744Z" fill="#E0E0E0"/>
<path d="M293.258 160.682C293.204 160.762 287.866 157.312 281.314 152.978C274.763 148.644 269.513 145.058 269.6 144.977C269.688 144.897 274.992 148.347 281.543 152.688C288.095 157.029 293.311 160.601 293.258 160.682Z" fill="#E0E0E0"/>
<path d="M286.774 164.806C286.492 164.708 286.221 164.581 285.965 164.429C285.453 164.159 284.725 163.755 283.828 163.256C282.035 162.252 279.596 160.803 276.954 159.111C274.311 157.419 271.973 155.802 270.308 154.595C269.479 153.989 268.812 153.49 268.36 153.14C268.115 152.972 267.889 152.777 267.686 152.56C267.955 152.689 268.21 152.845 268.448 153.025L270.47 154.373C272.168 155.525 274.514 157.109 277.162 158.801C279.811 160.493 282.217 161.969 283.977 163.034L286.053 164.294C286.308 164.442 286.55 164.614 286.774 164.806Z" fill="#E0E0E0"/>
<path d="M271.575 136.728C270.293 136.399 269.08 135.842 267.996 135.083C266.85 134.423 265.833 133.56 264.997 132.535C265.064 132.454 266.345 133.641 268.185 134.787C270.025 135.932 271.622 136.627 271.575 136.728Z" fill="#E0E0E0"/>
<path d="M310.835 131.43C310.778 131.568 310.701 131.698 310.606 131.814L309.885 132.859C309.258 133.769 308.328 135.07 307.189 136.66C304.864 139.855 301.581 144.216 297.834 148.934C294.087 153.652 290.575 157.837 287.994 160.83C286.706 162.326 285.648 163.526 284.907 164.341C284.556 164.726 284.273 165.015 284.051 165.278C283.956 165.395 283.85 165.501 283.734 165.595C283.809 165.467 283.897 165.347 283.997 165.238L284.806 164.254L287.798 160.682C290.332 157.655 293.803 153.443 297.551 148.732C301.298 144.02 304.608 139.68 306.987 136.525L309.804 132.791L310.573 131.787C310.651 131.661 310.739 131.542 310.835 131.43Z" fill="#E0E0E0"/>
<path d="M305.585 127.703C305.659 127.763 299.223 136.161 291.209 146.46C283.195 156.759 276.637 165.063 276.556 165.002C276.475 164.941 282.918 156.55 290.932 146.245C298.946 135.939 305.511 127.642 305.585 127.703Z" fill="#E0E0E0"/>
<path d="M298.258 123.551C298.201 123.696 298.131 123.836 298.05 123.969L297.376 125.128C296.796 126.132 295.92 127.568 294.794 129.307C292.543 132.791 289.2 137.449 285.257 142.403C281.314 147.357 277.587 151.704 274.898 154.858L271.696 158.572L270.806 159.576C270.709 159.696 270.6 159.806 270.483 159.906C270.564 159.775 270.654 159.648 270.753 159.529L271.588 158.484L274.709 154.696C277.351 151.502 281.044 147.127 284.981 142.18C288.917 137.233 292.287 132.609 294.585 129.165C295.738 127.447 296.641 126.038 297.281 125.054L297.996 123.928C298.069 123.793 298.157 123.666 298.258 123.551Z" fill="#E0E0E0"/>
<path d="M292.247 120.107C292.321 120.167 286.855 127.426 279.993 136.323C273.132 145.22 267.578 152.385 267.464 152.324C267.349 152.263 272.856 145.004 279.717 136.101C286.578 127.197 292.166 120.046 292.247 120.107Z" fill="#E0E0E0"/>
<path d="M287.724 117.161C287.556 117.5 287.362 117.824 287.144 118.132C286.955 118.435 286.706 118.806 286.403 119.224C286.099 119.642 285.762 120.127 285.345 120.626C284.394 121.808 283.375 122.934 282.291 123.996C279.629 126.62 276.601 128.845 273.3 130.601C271.955 131.314 270.569 131.947 269.148 132.495C268.549 132.744 267.982 132.913 267.497 133.081C267.082 133.231 266.659 133.359 266.23 133.465C265.871 133.579 265.503 133.667 265.131 133.728C265.472 133.567 265.826 133.436 266.19 133.337C266.533 133.223 266.951 133.088 267.43 132.899C267.908 132.711 268.468 132.529 269.054 132.266C270.45 131.687 271.816 131.037 273.145 130.318C274.766 129.422 276.331 128.427 277.83 127.339C279.316 126.235 280.732 125.04 282.069 123.76C283.157 122.711 284.185 121.601 285.149 120.437C285.581 119.952 285.924 119.48 286.241 119.089C286.558 118.698 286.827 118.327 287.036 118.031C287.239 117.721 287.469 117.43 287.724 117.161Z" fill="#E0E0E0"/>
<path d="M319.159 107.49H232.975V116.589H319.159V107.49Z" fill="#E0E0E0"/>
<path d="M260.299 116.278C260.036 117.161 255.547 124.238 249.07 126.645C242.593 129.051 237.781 131.713 239.58 134.881C241.38 138.049 249.333 136.323 249.333 136.323C249.333 136.323 233.191 153.847 248.389 163.897C266.918 176.13 286.282 132.36 286.282 132.36L260.299 116.278Z" fill="#F5F5F5"/>
<path d="M283.228 138.365C283.181 138.446 277.075 134.807 269.587 130.237C262.098 125.667 256.073 121.886 256.107 121.805C256.14 121.724 262.267 125.364 269.748 129.934C277.23 134.503 283.282 138.285 283.228 138.365Z" fill="#E0E0E0"/>
<path d="M280.384 143.616C280.33 143.697 273.732 139.821 265.644 134.969C257.556 130.116 251.018 126.099 251.065 126.038C251.112 125.977 257.718 129.826 265.806 134.685C273.894 139.545 280.384 143.562 280.384 143.616Z" fill="#E0E0E0"/>
<path d="M276.899 148.59C276.852 148.671 269.438 144.31 260.353 138.851C251.267 133.391 243.934 128.896 243.988 128.815C244.042 128.734 251.449 133.088 260.542 138.547C269.634 144.007 276.947 148.502 276.899 148.59Z" fill="#E0E0E0"/>
<path d="M272.579 154.744C272.525 154.825 266.783 151.32 259.773 146.919C252.764 142.517 247.082 138.884 247.136 138.831C247.19 138.777 252.925 142.254 259.942 146.656C266.958 151.057 272.626 154.663 272.579 154.744Z" fill="#E0E0E0"/>
<path d="M267.497 160.682C267.443 160.762 262.105 157.312 255.554 152.978C249.003 148.644 243.752 145.058 243.806 144.977C243.86 144.897 249.198 148.347 255.749 152.688C262.301 157.029 267.578 160.601 267.497 160.682Z" fill="#E0E0E0"/>
<path d="M261.013 164.806C260.732 164.708 260.461 164.581 260.205 164.429C259.692 164.159 258.965 163.755 258.068 163.256C256.275 162.252 253.835 160.803 251.193 159.111C248.551 157.419 246.212 155.802 244.548 154.595C243.719 153.989 243.051 153.49 242.6 153.14C242.354 152.972 242.128 152.777 241.926 152.56C242.194 152.689 242.449 152.845 242.687 153.025L244.709 154.373C246.408 155.525 248.753 157.109 251.402 158.801C254.051 160.493 256.457 161.969 258.21 163.034L260.292 164.294C260.548 164.442 260.79 164.614 261.013 164.806Z" fill="#E0E0E0"/>
<path d="M245.815 136.728C244.533 136.399 243.32 135.842 242.236 135.083C241.089 134.423 240.073 133.56 239.236 132.535C239.304 132.454 240.584 133.641 242.424 134.787C244.264 135.932 245.855 136.627 245.815 136.728Z" fill="#E0E0E0"/>
<path d="M285.102 131.43C285.044 131.568 284.967 131.698 284.873 131.814L284.152 132.859C283.525 133.769 282.595 135.07 281.456 136.66C279.13 139.855 275.848 144.216 272.1 148.934C268.353 153.652 264.788 157.851 262.186 160.843C260.899 162.34 259.84 163.539 259.099 164.355C258.749 164.739 258.465 165.029 258.243 165.292C258.149 165.408 258.043 165.514 257.926 165.609C258.001 165.48 258.089 165.361 258.189 165.251L258.998 164.267L261.997 160.682C264.531 157.655 268.003 153.443 271.75 148.732C275.497 144.02 278.807 139.68 281.186 136.525L284.003 132.791L284.772 131.787C284.871 131.659 284.982 131.539 285.102 131.43Z" fill="#E0E0E0"/>
<path d="M279.825 127.703C279.899 127.763 273.462 136.161 265.448 146.46C257.435 156.759 250.877 165.063 250.796 165.002C250.715 164.941 257.158 156.55 265.172 146.245C273.186 135.939 279.751 127.642 279.825 127.703Z" fill="#E0E0E0"/>
<path d="M272.498 123.551C272.441 123.696 272.371 123.836 272.289 123.969L271.615 125.128C271.036 126.132 270.159 127.568 269.034 129.307C266.783 132.791 263.44 137.449 259.497 142.403C255.554 147.357 251.827 151.704 249.137 154.858L245.936 158.572L245.046 159.576C244.948 159.696 244.84 159.806 244.723 159.906C244.801 159.773 244.891 159.646 244.992 159.529L245.828 158.484L248.949 154.696C251.591 151.502 255.284 147.127 259.22 142.18C263.157 137.233 266.527 132.609 268.825 129.165C269.977 127.447 270.881 126.038 271.521 125.054C271.811 124.589 272.053 124.218 272.235 123.928C272.308 123.793 272.396 123.666 272.498 123.551Z" fill="#E0E0E0"/>
<path d="M266.486 120.107C266.56 120.167 261.094 127.426 254.233 136.323C247.371 145.22 241.784 152.385 241.703 152.324C241.622 152.263 247.095 145.004 253.956 136.101C260.818 127.197 266.405 120.046 266.486 120.107Z" fill="#E0E0E0"/>
<path d="M261.964 117.161C261.796 117.5 261.602 117.824 261.384 118.132C261.195 118.435 260.946 118.806 260.643 119.224C260.339 119.642 260.002 120.127 259.584 120.626C258.634 121.808 257.615 122.934 256.531 123.996C253.869 126.62 250.84 128.845 247.54 130.601C246.194 131.313 244.808 131.945 243.388 132.495C242.788 132.744 242.222 132.913 241.737 133.081C241.321 133.231 240.898 133.359 240.47 133.465C240.11 133.579 239.743 133.667 239.371 133.728C239.712 133.567 240.066 133.436 240.429 133.337C240.773 133.223 241.191 133.088 241.669 132.899C242.148 132.711 242.707 132.529 243.294 132.266C244.69 131.687 246.056 131.037 247.385 130.318C249.007 129.438 250.574 128.458 252.076 127.386C253.562 126.283 254.978 125.087 256.315 123.807C257.403 122.758 258.432 121.648 259.396 120.484C259.827 119.999 260.171 119.527 260.488 119.136C260.804 118.745 261.067 118.375 261.276 118.078C261.478 117.753 261.708 117.446 261.964 117.161Z" fill="#E0E0E0"/>
<path d="M278.874 61.9541H273.361V67.4674H278.874V61.9541Z" fill="#E0E0E0"/>
<path d="M301.932 74.8005H250.56V107.22H301.932V74.8005Z" fill="#F5F5F5"/>
<path d="M250.56 74.814C250.56 74.814 258.425 66.5979 278.146 66.9282C297.868 67.2584 301.952 74.814 301.952 74.814H250.56Z" fill="#F5F5F5"/>
<path d="M301.736 75.333C301.736 75.4273 290.184 75.5082 275.942 75.5082C261.701 75.5082 250.148 75.4273 250.148 75.333C250.148 75.2386 261.694 75.151 275.942 75.151C290.191 75.151 301.736 75.2319 301.736 75.333Z" fill="#E0E0E0"/>
<path d="M301.736 75.333H313.343C313.836 75.333 314.309 75.529 314.658 75.8778C315.007 76.2267 315.203 76.6998 315.203 77.1932V77.9076C315.203 78.401 315.007 78.8742 314.658 79.223C314.309 79.5719 313.836 79.7679 313.343 79.7679H301.736V75.3262V75.333Z" fill="#E0E0E0"/>
<path d="M250.748 79.7679H239.142C238.648 79.7679 238.175 79.5719 237.826 79.223C237.477 78.8742 237.282 78.401 237.282 77.9077V77.1932C237.282 76.6999 237.477 76.2267 237.826 75.8778C238.175 75.529 238.648 75.333 239.142 75.333H250.748V79.7746V79.7679Z" fill="#E0E0E0"/>
<path d="M281.867 60.3634H270.631C269.894 60.3634 269.297 60.9609 269.297 61.698V62.2102C269.297 62.9472 269.894 63.5447 270.631 63.5447H281.867C282.604 63.5447 283.202 62.9472 283.202 62.2102V61.698C283.202 60.9609 282.604 60.3634 281.867 60.3634Z" fill="#E0E0E0"/>
<path d="M317.117 272.141C317.117 272.235 250.573 272.316 168.507 272.316C86.4406 272.316 19.8831 272.235 19.8831 272.141C19.8831 272.047 86.4136 271.966 168.507 271.966C250.6 271.966 317.117 272.047 317.117 272.141Z" fill="#263238"/>
<path d="M218.322 173.595C218.053 174.748 212.317 226.97 212.317 226.97L207.127 234.35L205.718 245.646L216.502 272.316H136.714C136.714 272.316 135.454 258.223 135.562 254.455C135.67 250.688 137.584 236.864 137.584 236.864L137.402 222.824L134.382 161.632L161.41 152.91C177.741 150.1 201.776 162.346 201.776 162.346L218.322 173.595Z" fill="#E50019"/>
<path d="M207.956 134.672C211.508 134.45 214.231 131.484 216.185 128.512C218.019 125.735 219.555 122.621 219.596 119.298C219.596 116.413 218.464 113.663 217.331 111.008C216.199 108.352 214.979 105.508 213.152 103.169C211.326 100.83 208.738 98.9297 205.786 98.5658" fill="#263238"/>
<path d="M166.438 148.59L166.478 147.707L168.561 96.719L169.713 93.8275L195.217 90.316C197.195 90.1619 199.183 90.4102 201.061 91.0457C202.94 91.6812 204.671 92.6908 206.148 94.0136C207.626 95.3364 208.82 96.9449 209.659 98.7421C210.498 100.539 210.964 102.488 211.029 104.47C211.353 113.751 211.393 125.094 210.099 131.976C207.511 145.779 196.808 147.256 196.808 147.256C196.808 147.256 196.626 150.875 196.424 156.112C196.275 160.062 192.784 171.459 188.828 171.573C187.129 171.621 182.492 170.145 180.281 169.821C166.336 167.786 166.438 148.59 166.438 148.59Z" fill="#FFBE9D"/>
<path d="M206.318 112.518C206.311 112.982 206.122 113.426 205.792 113.754C205.462 114.081 205.017 114.266 204.552 114.27C204.325 114.282 204.098 114.248 203.884 114.17C203.67 114.093 203.473 113.973 203.306 113.819C203.139 113.664 203.005 113.478 202.911 113.271C202.817 113.063 202.765 112.839 202.759 112.612C202.766 112.147 202.955 111.703 203.285 111.376C203.615 111.048 204.06 110.863 204.525 110.86C204.752 110.848 204.98 110.882 205.194 110.959C205.408 111.037 205.604 111.156 205.771 111.311C205.938 111.465 206.073 111.651 206.167 111.859C206.261 112.066 206.312 112.29 206.318 112.518Z" fill="#263238"/>
<path d="M208.407 110.26C208.178 110.489 206.857 109.451 204.936 109.404C203.015 109.356 201.566 110.273 201.384 110.03C201.283 109.929 201.519 109.511 202.146 109.087C202.991 108.532 203.987 108.254 204.997 108.292C205.995 108.315 206.961 108.655 207.754 109.262C208.327 109.734 208.515 110.159 208.407 110.26Z" fill="#263238"/>
<path d="M187.548 112.336C187.54 112.8 187.352 113.244 187.022 113.572C186.692 113.899 186.247 114.084 185.782 114.088C185.554 114.1 185.327 114.066 185.113 113.988C184.899 113.911 184.703 113.791 184.536 113.637C184.369 113.482 184.234 113.296 184.14 113.089C184.046 112.881 183.995 112.657 183.989 112.43C183.996 111.965 184.185 111.521 184.515 111.194C184.845 110.866 185.29 110.681 185.755 110.678C185.982 110.666 186.209 110.7 186.423 110.777C186.637 110.854 186.834 110.974 187.001 111.129C187.168 111.283 187.302 111.469 187.396 111.677C187.49 111.884 187.542 112.108 187.548 112.336Z" fill="#263238"/>
<path d="M189.542 110.098C189.313 110.327 187.985 109.289 186.071 109.242C184.157 109.195 182.701 110.111 182.519 109.869C182.418 109.768 182.654 109.35 183.281 108.925C184.125 108.369 185.122 108.091 186.132 108.13C187.13 108.153 188.095 108.493 188.888 109.1C189.461 109.572 189.65 109.997 189.542 110.098Z" fill="#263238"/>
<path d="M196.134 124.515C196.134 124.407 197.327 124.232 199.268 124.043C199.76 124.003 200.225 123.915 200.32 123.585C200.372 123.079 200.271 122.569 200.03 122.122L198.682 118.354C196.822 112.962 195.48 108.581 195.703 108.507C195.925 108.433 197.604 112.727 199.471 118.092C199.915 119.44 200.347 120.673 200.751 121.879C201.045 122.48 201.117 123.165 200.953 123.814C200.875 123.98 200.761 124.127 200.619 124.244C200.476 124.361 200.31 124.444 200.131 124.488C199.857 124.553 199.576 124.583 199.295 124.575C197.32 124.65 196.134 124.623 196.134 124.515Z" fill="#263238"/>
<path d="M196.808 147.255C190.26 147.174 183.862 145.277 178.327 141.776C178.327 141.776 182.58 151.448 196.525 150.538L196.808 147.255Z" fill="#EB996E"/>
<path d="M195.17 129.118C194.816 128.653 194.35 128.285 193.814 128.049C193.279 127.813 192.693 127.717 192.11 127.77C191.685 127.797 191.27 127.908 190.889 128.098C190.508 128.288 190.17 128.552 189.893 128.876C189.63 129.19 189.47 129.577 189.433 129.985C189.395 130.393 189.483 130.803 189.684 131.16C189.985 131.508 190.383 131.758 190.828 131.878C191.272 131.998 191.742 131.983 192.178 131.834C193.094 131.54 193.942 131.066 194.671 130.439C194.891 130.292 195.081 130.105 195.231 129.887C195.303 129.781 195.341 129.657 195.341 129.529C195.341 129.402 195.303 129.277 195.231 129.172" fill="#EB996E"/>
<path d="M190.426 125.688C190.742 125.688 190.688 127.757 192.448 129.287C194.207 130.817 196.411 130.635 196.424 130.938C196.424 131.066 195.919 131.329 194.975 131.329C193.756 131.314 192.581 130.867 191.659 130.069C190.772 129.303 190.218 128.223 190.116 127.056C190.068 126.18 190.284 125.674 190.426 125.688Z" fill="#263238"/>
<path d="M190.243 102.596C190.041 103.109 188.134 102.812 185.876 103.021C183.618 103.23 181.778 103.789 181.495 103.317C181.367 103.088 181.697 102.643 182.445 102.124C183.441 101.533 184.559 101.175 185.714 101.079C186.869 100.984 188.031 101.152 189.111 101.572C189.926 101.929 190.331 102.347 190.243 102.596Z" fill="#263238"/>
<path d="M207.855 104.686C207.504 105.117 206.197 104.625 204.606 104.564C203.015 104.504 201.661 104.773 201.364 104.308C201.236 104.086 201.459 103.634 202.038 103.257C202.842 102.785 203.768 102.562 204.699 102.616C205.63 102.67 206.524 102.998 207.268 103.56C207.835 104.025 208.01 104.47 207.855 104.686Z" fill="#263238"/>
<path d="M166.303 112.302C163.596 113.961 161.221 116.11 159.3 118.637C157.089 121.408 155.653 124.993 156.206 128.498C156.968 133.358 161.18 136.809 165.096 139.788C167.347 140.111 169.026 137.624 169.376 135.373C169.727 133.122 169.417 130.689 170.481 128.673C171.439 126.867 173.326 125.762 174.586 124.151C176.932 121.158 176.777 116.946 176.204 113.185C175.631 109.424 176.204 103.749 181.036 98.3568C181.036 98.404 169.282 102.994 166.303 112.302Z" fill="#263238"/>
<path d="M162.137 124.818C164.159 121.9 163.647 117.62 161.308 114.917C158.97 112.214 155.195 111.041 151.636 111.345C149.048 111.567 146.426 112.585 144.755 114.573C143.083 116.562 142.578 119.628 143.966 121.825C144.735 123.039 146.069 124.184 145.766 125.593C145.463 127.002 143.865 127.453 142.733 128.249C141.76 128.979 141.042 129.997 140.679 131.158C140.316 132.319 140.327 133.565 140.711 134.719C141.13 135.858 141.83 136.874 142.745 137.671C143.66 138.469 144.762 139.023 145.948 139.282C148.346 139.766 150.838 139.317 152.917 138.028C152.917 140.192 155.242 141.843 157.392 141.661C159.543 141.479 161.369 139.909 162.522 138.082C164.07 135.432 164.806 132.385 164.638 129.32C164.469 126.271 164.002 123.246 163.243 120.289" fill="#263238"/>
<path d="M165.696 140.448C165.582 140.395 165.475 140.327 165.379 140.246L164.503 139.612C163.755 139.053 162.67 138.264 161.41 137.132C159.909 135.851 158.583 134.378 157.467 132.751C156.084 130.735 155.284 128.378 155.155 125.937C155.097 124.67 155.296 123.404 155.741 122.216C156.174 121.116 156.815 120.109 157.628 119.251C159.037 117.874 160.592 116.656 162.266 115.618C163.364 114.896 164.411 114.099 165.4 113.232C165.743 112.915 166 112.659 166.168 112.477C166.248 112.382 166.339 112.296 166.438 112.221C166.438 112.221 166.37 112.336 166.215 112.524C165.994 112.808 165.753 113.077 165.494 113.326C164.536 114.244 163.503 115.08 162.407 115.827C160.771 116.885 159.249 118.109 157.864 119.48C157.086 120.31 156.475 121.283 156.065 122.344C155.641 123.49 155.451 124.71 155.505 125.93C155.627 128.305 156.391 130.601 157.716 132.576C158.808 134.19 160.099 135.659 161.558 136.95C162.791 138.069 163.849 138.911 164.571 139.504L165.4 140.178C165.508 140.257 165.607 140.348 165.696 140.448Z" fill="#455A64"/>
<path d="M155.788 122.857C155.728 122.89 155.377 122.142 154.488 121.199C153.349 119.949 151.863 119.067 150.221 118.665C148.579 118.263 146.855 118.359 145.267 118.941C144.047 119.372 143.387 119.864 143.353 119.81C143.319 119.756 143.488 119.655 143.791 119.44C144.227 119.147 144.693 118.901 145.18 118.705C146.806 118.042 148.6 117.91 150.305 118.328C152.01 118.745 153.54 119.691 154.676 121.03C155.02 121.427 155.318 121.861 155.566 122.324C155.67 122.488 155.746 122.668 155.788 122.857Z" fill="#455A64"/>
<path d="M144.971 126.55C144.93 126.55 145.18 125.876 146.09 125.31C146.62 124.996 147.206 124.785 147.815 124.69C148.548 124.577 149.291 124.534 150.032 124.562C151.375 124.598 152.707 124.809 153.996 125.189C154.537 125.312 155.056 125.522 155.532 125.809C154.991 125.71 154.455 125.582 153.928 125.425C152.645 125.124 151.336 124.953 150.019 124.912C148.718 124.788 147.407 124.999 146.211 125.526C145.747 125.801 145.328 126.147 144.971 126.55Z" fill="#455A64"/>
<path d="M142.652 137.563C142.652 137.503 143.616 137.523 145.132 137.226C147.099 136.845 148.964 136.06 150.612 134.921C152.243 133.761 153.619 132.279 154.656 130.567C155.451 129.253 155.768 128.336 155.829 128.363C155.8 128.595 155.739 128.822 155.647 129.037C155.432 129.616 155.172 130.177 154.872 130.716C153.875 132.507 152.484 134.049 150.804 135.224C149.124 136.399 147.198 137.176 145.173 137.496C144.564 137.591 143.949 137.639 143.333 137.638C143.103 137.653 142.873 137.628 142.652 137.563Z" fill="#455A64"/>
<path d="M156.462 122.668C156.462 122.634 156.874 123.032 157.723 123.497C158.939 124.131 160.303 124.429 161.672 124.36C162.611 124.327 163.538 124.149 164.422 123.834C165.436 123.454 166.382 122.915 167.226 122.237C169.132 120.632 170.648 118.615 171.661 116.339C172.659 114.046 173.515 111.694 174.222 109.296C174.821 107.328 175.569 105.408 176.46 103.553C177.066 102.302 177.82 101.128 178.704 100.055C179.021 99.6846 179.284 99.3813 179.473 99.2263C179.563 99.1317 179.663 99.046 179.769 98.9702C179.769 98.9702 179.405 99.3746 178.812 100.143C177.979 101.236 177.264 102.416 176.682 103.661C175.828 105.519 175.11 107.436 174.532 109.397C173.838 111.814 172.985 114.183 171.978 116.487C170.945 118.815 169.386 120.871 167.422 122.493C166.549 123.183 165.57 123.727 164.523 124.104C163.608 124.422 162.648 124.593 161.679 124.609C160.264 124.663 158.863 124.317 157.635 123.612C157.442 123.508 157.259 123.386 157.089 123.248C156.957 123.158 156.833 123.056 156.719 122.944C156.625 122.86 156.539 122.768 156.462 122.668Z" fill="#455A64"/>
<path d="M176.244 110.145C176.278 110.145 176.002 110.549 175.692 111.338C175.293 112.464 175.065 113.643 175.018 114.836C174.982 116.63 174.781 118.417 174.418 120.174C173.819 122.326 172.589 124.249 170.886 125.694C169.201 127.168 167.095 128.075 164.867 128.289C163.059 128.446 161.24 128.166 159.563 127.474C158.437 127.015 157.398 126.368 156.489 125.559C156.25 125.35 156.025 125.125 155.815 124.885C155.733 124.804 155.661 124.714 155.6 124.616C155.633 124.616 155.937 124.953 156.597 125.479C157.521 126.237 158.561 126.842 159.677 127.271C161.325 127.914 163.1 128.161 164.86 127.993C167.016 127.769 169.048 126.881 170.677 125.452C172.33 124.053 173.531 122.195 174.128 120.114C174.504 118.379 174.729 116.616 174.802 114.843C174.876 113.631 175.145 112.438 175.597 111.311C175.732 111.01 175.89 110.719 176.069 110.442C176.116 110.336 176.175 110.237 176.244 110.145Z" fill="#455A64"/>
<path d="M216.186 127.608C216.186 127.608 216.415 127.399 216.772 126.988C217.285 126.407 217.685 125.735 217.952 125.007C218.348 123.93 218.511 122.781 218.43 121.637C218.31 120.227 217.918 118.854 217.278 117.593C215.93 114.897 214.11 112.828 212.903 111.25C212.424 110.624 211.987 109.967 211.596 109.282C211.438 109.038 211.311 108.776 211.218 108.501C211.405 108.722 211.57 108.961 211.71 109.215C212.014 109.673 212.479 110.327 213.099 111.095C214.339 112.625 216.233 114.681 217.594 117.438C218.253 118.731 218.647 120.142 218.754 121.59C218.824 122.776 218.631 123.964 218.187 125.067C217.877 125.812 217.418 126.486 216.839 127.049C216.686 127.198 216.521 127.335 216.347 127.46C216.26 127.581 216.192 127.622 216.186 127.608Z" fill="#455A64"/>
<path d="M214.191 131.558C214.859 130.839 215.42 130.026 215.855 129.145C216.291 128.179 216.521 127.132 216.529 126.072C216.529 124.771 216.263 123.485 215.748 122.291C215.211 121.092 214.603 119.926 213.928 118.799C213.341 117.734 212.836 116.777 212.425 115.935C212.014 115.092 211.704 114.438 211.501 113.967C211.377 113.728 211.284 113.474 211.225 113.212C211.378 113.424 211.511 113.65 211.623 113.886L212.647 115.8C213.085 116.609 213.611 117.566 214.211 118.624C214.91 119.751 215.531 120.924 216.071 122.136C216.605 123.374 216.871 124.71 216.853 126.058C216.827 127.158 216.567 128.24 216.091 129.233C215.765 129.894 215.335 130.5 214.818 131.026C214.676 131.166 214.528 131.299 214.373 131.423C214.258 131.524 214.197 131.565 214.191 131.558Z" fill="#455A64"/>
<path d="M165.642 114.088C170.259 106.209 176.716 98.8825 185.599 96.7594C189.935 95.6881 194.445 95.5164 198.85 96.2548C203.255 96.9932 207.462 98.6261 211.211 101.053V85.5171L200.124 49.7277L191.49 45.158L171.081 56.8317L165.804 99.88L165.642 114.088Z" fill="#E50019"/>
<g opacity="0.7">
<path opacity="0.7" d="M165.642 114.088C170.259 106.209 176.716 98.8825 185.599 96.7594C189.935 95.6881 194.445 95.5164 198.85 96.2548C203.255 96.9932 207.462 98.6261 211.211 101.053V85.5171L200.124 49.7277L191.49 45.158L171.081 56.8317L165.804 99.88L165.642 114.088Z" fill="white"/>
</g>
<path d="M210.787 86.0833C210.615 86.0236 210.451 85.9468 210.295 85.8541C209.978 85.6991 209.533 85.4295 208.947 85.1801C207.248 84.3523 205.474 83.6888 203.649 83.1985C200.944 82.4664 198.16 82.0658 195.359 82.0056C193.705 81.9676 192.051 82.0284 190.405 82.1875C188.64 82.3193 186.893 82.6379 185.195 83.1379C181.937 84.2107 178.853 85.7548 176.042 87.7211C173.732 89.3018 171.64 91.1805 169.821 93.3085C168.601 94.7574 167.55 96.3402 166.687 98.0265C166.431 98.6129 166.222 99.078 166.06 99.4285C165.999 99.5981 165.92 99.7608 165.824 99.9137C165.866 99.74 165.925 99.5707 165.999 99.4082C166.128 99.078 166.303 98.586 166.566 97.9659C167.388 96.2465 168.416 94.6329 169.626 93.1603C171.44 90.9915 173.537 89.076 175.86 87.465C178.689 85.4632 181.801 83.8957 185.094 82.8144C186.817 82.3105 188.588 81.9897 190.378 81.8573C192.036 81.7012 193.701 81.6472 195.366 81.6955C198.191 81.7721 200.996 82.2 203.717 82.9694C205.548 83.4863 207.321 84.191 209.007 85.0723C209.614 85.3621 210.052 85.6519 210.355 85.8271C210.506 85.9011 210.65 85.9868 210.787 86.0833Z" fill="#263238"/>
<path d="M197.3 81.9247C197.206 81.9247 195.757 73.7626 194.072 63.6593C192.387 53.556 191.093 45.3535 191.187 45.34C191.281 45.3265 192.73 53.5021 194.415 63.6054C196.1 73.7086 197.395 81.9112 197.3 81.9247Z" fill="#263238"/>
<path d="M183.773 83.4008C183.679 83.4008 183.827 75.643 184.117 66.0722C184.407 56.5014 184.71 48.7504 184.791 48.7504C184.872 48.7504 184.73 56.5149 184.447 66.0857C184.164 75.6565 183.874 83.4075 183.773 83.4008Z" fill="#263238"/>
<path d="M172.261 89.8509C172.245 89.7279 172.245 89.6033 172.261 89.4802C172.261 89.1971 172.261 88.8467 172.302 88.4221C172.349 87.5054 172.436 86.1709 172.564 84.5331C172.821 81.2574 173.238 76.7282 173.912 71.7271C174.586 66.726 175.26 62.2911 175.793 59.0154C176.076 57.3911 176.319 56.0835 176.507 55.1804C176.595 54.7625 176.669 54.4255 176.723 54.1492C176.739 54.0258 176.773 53.9055 176.824 53.7919C176.839 53.915 176.839 54.0395 176.824 54.1626C176.777 54.439 176.73 54.7827 176.669 55.2073C176.521 56.1644 176.312 57.4652 176.069 59.0559C175.564 62.3046 174.917 66.8001 174.29 71.7743C173.663 76.7484 173.178 81.2642 172.861 84.5331C172.706 86.1372 172.578 87.4448 172.49 88.4086C172.443 88.8399 172.409 89.1837 172.376 89.4668C172.356 89.5997 172.318 89.7291 172.261 89.8509Z" fill="#263238"/>
<path d="M199.268 84.5465C199.323 85.0663 199.323 85.5904 199.268 86.1102C199.187 87.2021 199.093 88.4625 198.992 89.8577C198.891 91.2528 198.789 92.5132 198.709 93.6051C198.699 94.1274 198.634 94.6471 198.513 95.1553C198.432 94.6382 198.413 94.1131 198.459 93.5916C198.459 92.6278 198.533 91.3 198.641 89.8307C198.749 88.3614 198.891 87.0403 199.019 86.0833C199.042 85.5631 199.126 85.0474 199.268 84.5465Z" fill="#263238"/>
<path d="M134.948 237.821C134.099 236.581 131.814 235.475 130.318 235.314C125.142 234.747 120.424 236.978 116.339 240.214L115.537 241.676C113.34 243.388 111.048 245.343 110.368 248.045C109.745 250.861 109.431 253.735 109.431 256.619C109.495 258.15 110.115 259.604 111.176 260.71C112.153 261.791 113.511 262.451 114.964 262.55C117.712 262.763 120.462 262.148 122.857 260.784C125.236 259.415 127.335 257.608 129.044 255.459C132.234 251.56 134.402 246.927 135.353 241.979C135.622 240.618 135.757 239.014 134.948 237.821Z" fill="#E50019"/>
<g opacity="0.4">
<path opacity="0.4" d="M134.948 237.821C134.099 236.581 131.814 235.475 130.318 235.314C125.142 234.747 120.424 236.978 116.339 240.214L115.537 241.676C113.34 243.388 111.048 245.343 110.368 248.045C109.745 250.861 109.431 253.735 109.431 256.619C109.495 258.15 110.115 259.604 111.176 260.71C112.153 261.791 113.511 262.451 114.964 262.55C117.712 262.763 120.462 262.148 122.857 260.784C125.236 259.415 127.335 257.608 129.044 255.459C132.234 251.56 134.402 246.927 135.353 241.979C135.622 240.618 135.757 239.014 134.948 237.821Z" fill="black"/>
</g>
<path d="M134.389 161.632C133.573 161.902 93.1806 219.151 92.0954 222.966C91.0103 226.781 85.0993 235.846 93.4434 244.359C98.6184 249.6 104.135 254.493 109.956 259.005C108.083 244.574 122.284 232.941 132.198 235.961L124.616 230.818L141.944 207.801" fill="#E50019"/>
<path d="M218.322 173.595C218.322 173.595 224.678 181.542 226.262 186.684C227.61 191.079 234.822 211.414 234.822 211.414L247.944 243.934C247.944 243.934 245.922 246.805 245.471 249.238C245.282 250.209 243.617 265.152 239.641 271.48L218.592 262.044L215.936 243.206L212.31 226.969L216.057 183.261L218.322 173.595Z" fill="#E50019"/>
<path d="M159.246 153.369C159.246 153.369 164.638 148.395 166.134 147.694C166.134 147.694 167.846 153.537 172.874 156.301C177.902 159.064 181.144 162.043 181.144 162.441V169.686C181.144 169.686 160.54 164.058 159.246 153.369Z" fill="#E50019"/>
<path d="M162.69 190.23L202.726 187.81L200.852 164.941L199.134 161.086L196.438 156.22C196.299 157.865 195.635 159.422 194.544 160.661C192.339 162.898 189.498 164.399 186.408 164.961L185.62 169.679L165.333 161.302C165.333 161.302 162.69 188.936 162.69 189.569" fill="#E50019"/>
<path d="M186.395 164.941C186.405 165.044 186.405 165.148 186.395 165.251C186.361 165.474 186.314 165.777 186.26 166.161C186.13 166.984 185.945 168.163 185.707 169.7V169.76H185.64L169.174 170.266L166.478 170.34L165.069 170.38C164.614 170.368 164.159 170.427 163.721 170.556C163.279 170.71 162.878 170.962 162.548 171.294C162.217 171.625 161.966 172.027 161.814 172.47C161.666 172.933 161.614 173.421 161.659 173.905C161.659 174.418 161.659 174.93 161.659 175.442C161.747 179.567 161.841 183.935 161.935 188.45C162.245 201.108 162.441 212.573 162.38 220.87C162.38 225.022 162.313 228.378 162.259 230.697C162.225 231.836 162.205 232.719 162.185 233.393C162.185 233.683 162.185 233.912 162.185 234.067C162.193 234.145 162.193 234.224 162.185 234.303C162.175 234.224 162.175 234.145 162.185 234.067C162.185 233.891 162.185 233.662 162.185 233.393C162.185 232.759 162.185 231.863 162.185 230.697C162.185 228.358 162.185 225.008 162.185 220.877C162.185 212.58 161.949 201.122 161.639 188.464C161.551 183.948 161.464 179.581 161.376 175.456V173.919C161.336 173.398 161.398 172.873 161.558 172.376C161.726 171.886 162.003 171.441 162.369 171.074C162.734 170.707 163.178 170.429 163.668 170.259C164.142 170.12 164.636 170.059 165.13 170.077L166.532 170.043L169.228 169.976L185.701 169.612L185.626 169.68C185.896 168.147 186.103 166.972 186.247 166.154L186.422 165.251C186.406 165.149 186.397 165.045 186.395 164.941Z" fill="#263238"/>
<path d="M166.31 180.228C167.255 180.228 168.022 179.461 168.022 178.516C168.022 177.57 167.255 176.804 166.31 176.804C165.364 176.804 164.598 177.57 164.598 178.516C164.598 179.461 165.364 180.228 166.31 180.228Z" fill="#263238"/>
<path d="M175.914 176.676C175.914 176.783 173.986 177.033 171.641 177.579C169.295 178.125 167.442 178.745 167.408 178.65C168.718 177.984 170.116 177.508 171.56 177.235C172.979 176.85 174.444 176.661 175.914 176.676Z" fill="#263238"/>
<path d="M173.009 180.079C172.001 179.925 171.002 179.715 170.016 179.453C169.008 179.299 168.009 179.09 167.024 178.826C169.089 178.78 171.136 179.208 173.009 180.079Z" fill="#263238"/>
<path d="M166.31 199.585C167.255 199.585 168.022 198.818 168.022 197.873C168.022 196.927 167.255 196.161 166.31 196.161C165.364 196.161 164.598 196.927 164.598 197.873C164.598 198.818 165.364 199.585 166.31 199.585Z" fill="#263238"/>
<path d="M175.914 196.04C175.914 196.141 173.986 196.39 171.641 196.936C169.295 197.482 167.442 198.102 167.408 198.008C168.718 197.342 170.116 196.867 171.56 196.599C172.978 196.21 174.444 196.021 175.914 196.04Z" fill="#263238"/>
<path d="M173.009 199.437C172.001 199.282 171.002 199.073 170.016 198.81C169.008 198.657 168.009 198.447 167.024 198.183C169.089 198.137 171.136 198.566 173.009 199.437Z" fill="#263238"/>
<path d="M166.31 218.949C167.255 218.949 168.022 218.182 168.022 217.237C168.022 216.291 167.255 215.525 166.31 215.525C165.364 215.525 164.598 216.291 164.598 217.237C164.598 218.182 165.364 218.949 166.31 218.949Z" fill="#263238"/>
<path d="M175.914 215.397C175.914 215.498 173.986 215.747 171.641 216.293C169.295 216.839 167.442 217.459 167.408 217.365C168.718 216.699 170.116 216.225 171.56 215.956C172.978 215.567 174.444 215.379 175.914 215.397Z" fill="#263238"/>
<path d="M173.009 218.794C172.001 218.639 171.002 218.43 170.016 218.167C169.008 218.014 168.009 217.805 167.024 217.54C168.055 217.46 169.092 217.556 170.091 217.823C171.112 217.976 172.1 218.304 173.009 218.794Z" fill="#263238"/>
<path d="M139.518 212.984C139.532 212.817 139.563 212.652 139.612 212.492C139.693 212.141 139.808 211.683 139.949 211.11C140.246 209.904 140.691 208.172 141.196 206.022C141.702 203.872 142.261 201.304 142.699 198.405C143.189 195.285 143.396 192.127 143.319 188.969C143.21 185.808 142.67 182.677 141.715 179.661C140.942 177.199 139.821 174.859 138.386 172.712C137.42 171.265 136.289 169.935 135.016 168.749C134.584 168.311 134.187 168.035 133.951 167.812C133.817 167.712 133.695 167.597 133.587 167.469C133.729 167.553 133.864 167.647 133.991 167.752C134.247 167.961 134.665 168.224 135.11 168.648C136.429 169.807 137.599 171.125 138.595 172.571C140.072 174.722 141.23 177.077 142.032 179.56C143.011 182.601 143.565 185.763 143.677 188.956C143.752 192.142 143.526 195.329 143.003 198.473C142.551 201.371 141.958 203.946 141.426 206.096C140.893 208.246 140.408 209.971 140.078 211.164C139.916 211.73 139.781 212.189 139.68 212.512C139.637 212.673 139.583 212.831 139.518 212.984Z" fill="#263238"/>
<path d="M138.844 212.404C138.742 212.113 138.665 211.813 138.615 211.508C138.487 210.928 138.339 210.079 138.183 209.021C137.793 206.268 137.615 203.49 137.651 200.71C137.691 197.929 137.948 195.155 138.419 192.414C138.601 191.369 138.777 190.52 138.925 189.947C138.98 189.64 139.065 189.34 139.181 189.05C139.169 189.361 139.129 189.67 139.06 189.974C138.952 190.553 138.817 191.403 138.669 192.454C138.266 195.191 138.041 197.951 137.995 200.717C137.963 203.48 138.107 206.242 138.426 208.987C138.547 210.045 138.655 210.895 138.743 211.481C138.811 211.784 138.845 212.094 138.844 212.404Z" fill="#263238"/>
<path d="M100.527 229.969C100.868 229.856 101.218 229.768 101.572 229.706C102.505 229.433 103.408 229.067 104.268 228.614C105.366 228.048 106.613 227.266 108.035 226.41C109.555 225.426 111.24 224.725 113.01 224.341C114.823 224.048 116.683 224.353 118.307 225.21C119.609 225.904 120.81 226.77 121.879 227.785C122.6 228.454 123.275 229.17 123.901 229.928C124.152 230.197 124.378 230.488 124.575 230.798C124.306 230.557 124.054 230.298 123.821 230.023C123.154 229.314 122.452 228.639 121.718 228.001C120.643 227.029 119.45 226.198 118.166 225.527C116.598 224.717 114.811 224.434 113.07 224.718C111.339 225.098 109.689 225.783 108.197 226.74C106.775 227.563 105.501 228.338 104.376 228.884C103.489 229.326 102.552 229.661 101.585 229.881C101.32 229.936 101.053 229.977 100.783 230.002C100.697 230.002 100.611 229.99 100.527 229.969Z" fill="#263238"/>
<path d="M114.486 215.943C114.709 215.998 114.924 216.081 115.126 216.192C115.376 216.291 115.617 216.41 115.847 216.549C116.162 216.718 116.468 216.903 116.764 217.102C117.542 217.613 118.271 218.195 118.941 218.841C120.589 220.427 121.871 222.355 122.695 224.489C123.033 225.362 123.288 226.265 123.457 227.185C123.527 227.535 123.578 227.888 123.612 228.243C123.647 228.509 123.665 228.777 123.666 229.045C123.699 229.269 123.699 229.496 123.666 229.719C123.598 229.719 123.571 228.742 123.234 227.219C123.033 226.329 122.761 225.456 122.419 224.611C121.982 223.583 121.457 222.595 120.848 221.658C120.224 220.735 119.515 219.871 118.732 219.077C118.085 218.432 117.386 217.841 116.643 217.311C115.348 216.401 114.459 216.004 114.486 215.943Z" fill="#263238"/>
<g opacity="0.4">
<path opacity="0.4" d="M123.342 228.877C122.119 226.092 120.15 223.701 117.652 221.966C115.154 220.232 112.224 219.222 109.188 219.05C108.37 218.971 107.545 219.099 106.789 219.421C106.415 219.59 106.099 219.866 105.881 220.213C105.663 220.561 105.552 220.965 105.562 221.375C105.664 221.761 105.727 222.156 105.751 222.555C105.65 223.451 104.538 223.775 103.668 224.024C101.972 224.508 100.462 225.492 99.3343 226.848C98.7479 227.522 98.2761 228.607 98.8355 229.335C99.3006 229.928 100.184 229.928 100.932 229.794C103.709 229.308 106.182 227.812 108.716 226.585C111.251 225.359 114.108 224.368 116.858 224.988C119.898 225.662 122.156 228.156 124.198 230.508" fill="black"/>
</g>
<path d="M212.31 226.969C212.236 227.075 212.152 227.175 212.061 227.266L211.286 228.061C210.955 228.405 210.537 228.816 210.032 229.275C209.526 229.733 208.967 230.279 208.307 230.825C206.777 232.131 205.182 233.359 203.528 234.505C199.468 237.32 195.073 239.618 190.446 241.346C188.309 242.128 186.354 242.741 184.69 243.166C183.861 243.395 183.099 243.55 182.432 243.698C181.764 243.846 181.192 243.961 180.713 244.035L179.628 244.21C179.502 244.242 179.373 244.255 179.244 244.251C179.362 244.198 179.486 244.162 179.614 244.143L180.693 243.9C181.158 243.806 181.731 243.678 182.391 243.509C183.052 243.341 183.807 243.172 184.622 242.923C186.273 242.471 188.215 241.838 190.331 241.043C194.918 239.293 199.284 237.01 203.339 234.242C205.206 232.961 206.83 231.728 208.145 230.629C208.819 230.104 209.385 229.578 209.897 229.133C210.409 228.688 210.848 228.291 211.191 227.96L212.007 227.212C212.098 227.12 212.2 227.038 212.31 226.969Z" fill="#263238"/>
<path d="M218.592 182.654C218.591 182.806 218.575 182.957 218.544 183.106C218.497 183.436 218.43 183.867 218.349 184.4L217.608 189.118C216.987 193.114 216.172 198.655 215.336 204.775C214.5 210.895 213.772 216.415 213.227 220.465L212.593 225.217C212.512 225.75 212.451 226.181 212.404 226.511C212.39 226.662 212.36 226.811 212.317 226.956C212.299 226.804 212.299 226.65 212.317 226.498C212.344 226.165 212.384 225.734 212.438 225.204C212.566 224.031 212.741 222.413 212.964 220.432C213.429 216.388 214.123 210.854 214.986 204.727C215.848 198.601 216.677 193.067 217.358 189.077C217.709 187.055 217.992 185.465 218.221 184.359C218.322 183.833 218.41 183.409 218.477 183.079C218.497 182.933 218.536 182.79 218.592 182.654Z" fill="#263238"/>
<path d="M195.784 249.286C195.875 249.046 195.997 248.819 196.148 248.612C196.404 248.214 196.781 247.641 197.26 246.933C198.224 245.531 199.592 243.617 201.162 241.541C202.733 239.465 204.215 237.646 205.321 236.352C205.867 235.678 206.318 235.186 206.669 234.828C207.019 234.471 207.174 234.289 207.194 234.309C207.079 234.527 206.939 234.73 206.777 234.916L205.509 236.574C204.465 237.922 203.016 239.755 201.465 241.818C199.915 243.88 198.5 245.767 197.489 247.136L196.262 248.706C196.127 248.918 195.966 249.113 195.784 249.286Z" fill="#263238"/>
<path d="M239.169 235.226C238.801 235.1 238.441 234.952 238.091 234.781C237.417 234.485 236.406 234.06 235.145 233.622C231.868 232.439 228.404 231.857 224.921 231.903C223.943 231.925 222.977 232.123 222.07 232.49C221.234 232.851 220.473 233.365 219.825 234.006C218.729 235.129 217.869 236.46 217.298 237.922C216.893 238.899 216.537 239.895 216.233 240.908C216.133 241.285 216.005 241.655 215.849 242.013C215.904 241.626 215.987 241.243 216.098 240.867C216.361 239.836 216.685 238.821 217.069 237.828C217.629 236.333 218.492 234.97 219.603 233.824C220.272 233.147 221.063 232.603 221.935 232.22C222.878 231.835 223.882 231.625 224.9 231.6C228.427 231.534 231.933 232.15 235.226 233.413C236.224 233.784 237.2 234.21 238.151 234.687C238.488 234.849 238.744 234.997 238.92 235.091C239.009 235.124 239.093 235.17 239.169 235.226Z" fill="#263238"/>
<path d="M234.128 224.671C234.128 224.745 233.069 224.712 231.432 225.001C230.459 225.173 229.504 225.425 228.574 225.756C226.296 226.579 224.209 227.856 222.44 229.51C221.721 230.188 221.06 230.925 220.466 231.714C219.455 233.062 219.003 234.02 218.936 233.986C219.005 233.751 219.103 233.524 219.225 233.312C219.349 233.047 219.488 232.791 219.643 232.543C219.833 232.21 220.04 231.886 220.263 231.573C220.843 230.75 221.497 229.983 222.218 229.281C223.992 227.56 226.126 226.255 228.466 225.46C229.418 225.143 230.397 224.918 231.391 224.786C231.816 224.712 232.207 224.698 232.544 224.671C232.833 224.655 233.123 224.655 233.413 224.671C233.651 224.646 233.89 224.646 234.128 224.671Z" fill="#263238"/>
<path d="M239.546 267.383C239.219 265.18 238.343 263.095 236.999 261.319C235.655 259.543 233.887 258.133 231.856 257.219C228.641 255.783 224.206 255.453 221.153 257.219C218.1 258.985 214.015 263.325 214.844 266.742L221.847 278.504C223.65 279.811 225.804 280.547 228.031 280.618C230.257 280.689 232.453 280.091 234.336 278.901C236.179 277.646 237.641 275.906 238.56 273.874C239.479 271.842 239.82 269.596 239.546 267.383Z" fill="#E50019"/>
<g opacity="0.4">
<path opacity="0.4" d="M239.546 267.383C239.219 265.18 238.343 263.095 236.999 261.319C235.655 259.543 233.887 258.133 231.856 257.219C228.641 255.783 224.206 255.453 221.153 257.219C218.1 258.985 214.015 263.325 214.844 266.742L221.847 278.504C223.65 279.811 225.804 280.547 228.031 280.618C230.257 280.689 232.453 280.091 234.336 278.901C236.179 277.646 237.641 275.906 238.56 273.874C239.479 271.842 239.82 269.596 239.546 267.383Z" fill="black"/>
</g>
<path d="M237.363 275.956C237.363 275.956 237.612 275.484 238.037 274.648C238.624 273.443 239.03 272.157 239.243 270.833C239.549 268.868 239.374 266.858 238.731 264.976C238.539 264.435 238.314 263.906 238.057 263.392C237.789 262.86 237.485 262.347 237.147 261.856C235.748 259.76 233.755 258.129 231.425 257.171C228.448 256.044 225.161 256.044 222.184 257.171C220.923 257.626 219.734 258.259 218.653 259.052C217.891 259.625 217.5 259.982 217.473 259.955C217.555 259.855 217.645 259.763 217.743 259.679C218.001 259.417 218.276 259.172 218.565 258.944C219.63 258.091 220.822 257.409 222.097 256.922C225.125 255.729 228.489 255.707 231.533 256.861C232.729 257.341 233.845 258 234.842 258.816C235.837 259.635 236.707 260.596 237.424 261.667C237.763 262.176 238.071 262.705 238.347 263.251C238.607 263.779 238.832 264.324 239.021 264.882C239.67 266.813 239.825 268.875 239.472 270.881C239.232 272.223 238.777 273.518 238.124 274.716C237.895 275.134 237.673 275.444 237.538 275.652C237.494 275.761 237.435 275.863 237.363 275.956Z" fill="#263238"/>
<path d="M218.106 259.416C218.005 259.416 217.19 254.819 216.273 249.11C215.356 243.402 214.696 238.764 214.79 238.744C214.885 238.724 215.707 243.348 216.624 249.056C217.54 254.765 218.201 259.402 218.106 259.416Z" fill="#263238"/>
<g opacity="0.4">
<path opacity="0.4" d="M213.537 232.476L217.116 232.227C219.487 228.586 223.201 226.03 227.448 225.116C228.425 224.86 229.448 224.84 230.434 225.055C230.925 225.169 231.378 225.408 231.749 225.75C232.12 226.091 232.396 226.523 232.55 227.003C232.674 227.491 232.603 228.008 232.351 228.444C232.099 228.88 231.687 229.199 231.202 229.335C232.197 229.596 233.126 230.061 233.931 230.7C234.737 231.34 235.4 232.139 235.88 233.049C236.082 233.433 236.23 233.959 235.927 234.269C235.696 234.443 235.406 234.521 235.118 234.485C233.467 234.485 231.829 234.114 230.178 234.04C228.525 233.871 226.863 234.263 225.46 235.152C224.112 236.116 223.384 237.686 222.764 239.196C220.49 244.641 218.809 250.315 217.749 256.12C216.92 252.838 216.846 249.38 216.246 246.266C215.39 241.851 214.561 237.336 213.55 232.49" fill="black"/>
</g>
<g opacity="0.4">
<path opacity="0.4" d="M135.912 262.24C140.367 266.992 146.38 269.216 152.816 270.267C159.253 271.319 165.824 270.941 172.362 270.577C173.966 270.483 175.867 270.207 176.568 268.757C177.067 267.726 176.723 266.506 176.325 265.441C173.454 257.845 167.779 251.705 162.232 245.781C160.21 243.611 158.04 241.359 155.202 240.483C152.082 239.526 148.536 240.369 145.577 238.994C142.019 237.342 140.57 233.15 139.471 229.382L137.206 221.631C137.705 230.077 137.618 236.864 137.618 236.864C137.618 236.864 135.285 252.474 135.596 256.012C135.906 259.551 135.912 262.24 135.912 262.24Z" fill="black"/>
</g>
<path d="M180.282 165.885C179.981 165.853 179.685 165.787 179.399 165.689C178.833 165.548 178.051 165.298 177.04 164.948C174.477 164.029 172.019 162.84 169.707 161.403C167.392 159.965 165.235 158.289 163.27 156.402C162.522 155.674 161.922 155.054 161.565 154.616C161.349 154.403 161.159 154.165 160.999 153.908C161.24 154.093 161.466 154.298 161.673 154.521C162.077 154.939 162.684 155.519 163.452 156.22C167.445 159.879 172.085 162.761 177.134 164.719C178.098 165.096 178.893 165.393 179.446 165.561C179.733 165.645 180.013 165.753 180.282 165.885Z" fill="#263238"/>
<path d="M199.073 162.144C199.017 162.324 198.93 162.493 198.816 162.643C198.559 163.082 198.268 163.501 197.947 163.897C195.822 166.54 192.904 168.43 189.623 169.289C189.132 169.423 188.632 169.52 188.127 169.578C187.943 169.619 187.754 169.631 187.567 169.612C187.567 169.551 188.342 169.423 189.556 169.053C191.135 168.559 192.641 167.854 194.031 166.957C195.414 166.051 196.665 164.96 197.752 163.715C198.587 162.778 199.019 162.11 199.073 162.144Z" fill="#263238"/>
<path d="M202.2 166.303C201.169 168.944 199.218 171.125 196.707 172.443C197.769 171.56 198.784 170.622 199.747 169.632C200.622 168.566 201.441 167.455 202.2 166.303Z" fill="#263238"/>
<path d="M166.842 246.448L167.26 246.36C168.756 246.071 173.717 245.167 174.519 245.97C175.456 246.913 182.176 253.512 182.176 253.512C182.176 253.512 180.882 255.635 176.636 253.512C172.389 251.389 166.842 246.448 166.842 246.448Z" fill="#FFBE9D"/>
<path d="M157.312 233.042C158.042 232.557 158.931 232.371 159.795 232.524C160.658 232.678 161.43 233.158 161.949 233.865L182.432 261.033L177.181 264.882L156.496 237.976C156.209 237.605 156.001 237.178 155.886 236.723C155.771 236.268 155.751 235.794 155.827 235.331C155.904 234.868 156.075 234.426 156.331 234.032C156.586 233.638 156.92 233.301 157.312 233.042Z" fill="#263238"/>
<path d="M110.475 251.234C110.475 251.234 134.8 255.183 138.17 255.446C141.54 255.709 150.767 265.495 153.443 266.432C156.119 267.369 163.364 267.234 163.364 267.234C163.364 267.234 176.494 267.908 176.898 267.234C177.302 266.56 178.105 266.695 176.898 264.147C176.15 262.587 175.247 261.105 174.202 259.726C174.202 259.726 177.572 263.878 178.495 264.013C179.419 264.147 181.441 264.39 181.306 262.597C181.171 260.804 177.687 253.431 177.687 253.431C177.687 253.431 176.217 249.987 173.535 249.225C170.852 248.463 159.192 242.842 159.192 242.842H146.723L132.178 235.927C132.178 235.927 123.376 233.096 114.998 242.337C113.366 244.172 112.125 246.321 111.352 248.652L110.475 251.234Z" fill="#FFBE9D"/>
<path d="M180.026 258.984C179.874 258.765 179.752 258.528 179.662 258.277C179.426 257.738 179.136 257.077 178.799 256.295C178.462 255.513 178.01 254.435 177.552 253.343C177.173 252.119 176.433 251.039 175.429 250.243C174.881 249.865 174.296 249.545 173.683 249.286L171.965 248.517C170.859 248.032 169.862 247.614 169.026 247.264L167.004 246.435C166.755 246.348 166.515 246.235 166.29 246.098C166.552 246.14 166.81 246.21 167.058 246.307C167.536 246.468 168.237 246.711 169.08 247.028C169.922 247.344 170.947 247.749 172.059 248.221L173.791 248.976C174.43 249.236 175.038 249.566 175.604 249.96C176.662 250.798 177.436 251.942 177.822 253.235C178.26 254.334 178.651 255.338 178.994 256.208C179.338 257.077 179.547 257.677 179.756 258.23C179.872 258.471 179.962 258.724 180.026 258.984Z" fill="#EB996E"/>
<path d="M167.826 252.231C168.296 252.508 168.728 252.843 169.114 253.229C170.078 254.105 170.979 255.048 171.81 256.053C172.655 257.055 173.425 258.118 174.115 259.234C174.428 259.677 174.682 260.16 174.869 260.669C174.511 260.265 174.189 259.829 173.906 259.369C173.333 258.553 172.517 257.441 171.54 256.275C170.563 255.109 169.619 254.118 168.911 253.411C168.515 253.05 168.152 252.656 167.826 252.231Z" fill="#EB996E"/>
<path d="M174.748 267.436C174.567 267.4 174.393 267.332 174.236 267.234C173.789 267.008 173.36 266.747 172.955 266.452C171.647 265.45 170.456 264.304 169.403 263.035C168.143 261.586 167.017 260.265 166.222 259.295C165.763 258.792 165.346 258.254 164.975 257.684C165.494 258.123 165.972 258.608 166.404 259.133C167.253 260.063 168.426 261.357 169.666 262.799C170.708 264.049 171.858 265.204 173.104 266.25C174.081 267.032 174.775 267.389 174.748 267.436Z" fill="#EB996E"/>
<path d="M167.523 267.423C167.078 267.273 166.656 267.062 166.269 266.796C165.299 266.222 164.363 265.591 163.465 264.909C162.57 264.228 161.711 263.501 160.891 262.732C160.528 262.432 160.204 262.088 159.927 261.707C160.001 261.627 161.598 263.055 163.681 264.633C165.764 266.21 167.577 267.335 167.523 267.423Z" fill="#EB996E"/>
<path d="M207.43 277.533C207.43 277.533 205.294 274.23 204.997 273.051C204.701 271.871 204.997 266.257 201.061 267.14V267.578C201.162 268.057 201.061 279.474 201.061 279.474L207.43 277.533Z" fill="#FFBE9D"/>
<path d="M156.995 283.511C156.995 283.511 153.362 317.036 192.616 316.059C224.617 315.263 224.058 284.071 224.058 284.071L156.995 283.511Z" fill="#E50019"/>
<path d="M189.94 292.671C210.141 292.671 226.518 288.712 226.518 283.828C226.518 278.944 210.141 274.985 189.94 274.985C169.738 274.985 153.362 278.944 153.362 283.828C153.362 288.712 169.738 292.671 189.94 292.671Z" fill="#E50019"/>
<path opacity="0.4" d="M190.486 289.099C209.027 289.099 224.058 286.597 224.058 283.511C224.058 280.425 209.027 277.924 190.486 277.924C171.945 277.924 156.914 280.425 156.914 283.511C156.914 286.597 171.945 289.099 190.486 289.099Z" fill="black"/>
<path d="M225.278 286.356L225.116 286.45L224.665 286.733C224.267 286.982 223.66 287.326 222.865 287.731C220.601 288.864 218.225 289.756 215.775 290.393C212.141 291.31 208.454 291.999 204.734 292.455C200.175 292.969 195.587 293.194 190.998 293.129C186.125 293.089 181.475 292.927 177.262 292.556C173.525 292.248 169.816 291.671 166.161 290.831C163.7 290.264 161.284 289.512 158.936 288.58C158.1 288.263 157.474 287.953 157.042 287.764L156.564 287.535C156.449 287.488 156.395 287.454 156.402 287.448C156.462 287.463 156.52 287.484 156.577 287.508L157.076 287.704C157.514 287.872 158.141 288.155 158.983 288.452C161.344 289.331 163.763 290.045 166.222 290.588C169.869 291.391 173.567 291.941 177.289 292.233C181.495 292.583 186.132 292.738 191.005 292.779C195.578 292.836 200.149 292.611 204.694 292.105C208.402 291.669 212.08 291.007 215.707 290.123C218.151 289.513 220.529 288.662 222.804 287.582C223.6 287.191 224.22 286.875 224.624 286.645L225.096 286.389C225.217 286.376 225.271 286.349 225.278 286.356Z" fill="#263238"/>
<path d="M202.874 282.756C202.874 282.756 206.878 269.337 208.266 267.551C209.405 266.075 217.473 259.969 220.243 257.899C220.926 257.384 221.702 257.007 222.528 256.787C225.271 256.066 228.014 255.581 232.53 257.535C233.955 258.166 235.236 259.081 236.295 260.223C237.354 261.366 238.169 262.713 238.69 264.181L223.626 273.543L223.04 279.879L210.908 276.785C210.967 276.148 210.843 275.507 210.551 274.938C210.551 274.938 206.696 284.28 202.874 282.756Z" fill="#FFBE9D"/>
<path d="M188.329 273.226C186.799 271.204 185.525 269.256 184.514 267.605C183.503 265.954 182.782 264.565 182.304 263.561C182.084 263.041 181.82 262.54 181.515 262.065C181.671 262.608 181.872 263.138 182.115 263.649C182.731 265.058 183.424 266.433 184.191 267.767C185.341 269.735 186.592 271.642 187.938 273.482C189.448 275.565 191.221 277.776 193.101 280.06C195.73 283.215 198.156 286.16 200.131 288.742H200.677C198.702 286.046 196.215 282.992 193.512 279.744C191.632 277.472 189.859 275.282 188.329 273.226Z" fill="#F5F5F5"/>
<path d="M178.705 263.615C178.874 264.15 179.086 264.671 179.338 265.172C179.776 266.169 180.41 267.605 181.158 269.391C183.102 274.047 184.796 278.803 186.233 283.639C186.759 285.533 187.318 287.373 187.979 289.079H188.518C187.844 287.346 187.291 285.473 186.739 283.498C185.308 278.639 183.558 273.879 181.502 269.25C180.706 267.477 180.019 266.061 179.527 265.091C179.293 264.578 179.018 264.084 178.705 263.615Z" fill="#F5F5F5"/>
<path d="M180.025 262.004C180.225 262.535 180.466 263.048 180.747 263.541C181.245 264.518 181.98 265.92 182.903 267.645C184.757 271.09 187.352 275.841 190.513 280.916C192.346 283.869 194.186 286.571 195.905 288.937H196.471C194.759 286.504 192.872 283.707 190.985 280.654C187.83 275.592 185.188 270.881 183.254 267.484L180.949 263.44C180.681 262.937 180.372 262.456 180.025 262.004Z" fill="#F5F5F5"/>
<path d="M209.5 285.041C208.168 281.894 206.132 279.095 203.548 276.859C201.235 274.854 198.754 273.05 196.134 271.467C193.715 269.937 191.416 268.549 189.462 267.14C186.329 264.92 183.481 262.324 180.983 259.409C180.1 258.378 179.446 257.542 179.015 256.976L178.516 256.302C178.466 256.224 178.405 256.153 178.334 256.093C178.371 256.18 178.418 256.261 178.476 256.336L178.927 257.01C179.338 257.603 179.958 258.459 180.828 259.517C183.282 262.502 186.111 265.157 189.246 267.416C191.221 268.852 193.492 270.267 195.898 271.811C198.488 273.398 200.939 275.202 203.225 277.203C205.751 279.397 207.741 282.14 209.041 285.223C209.429 286.141 209.729 287.093 209.938 288.068L210.464 288.014C210.234 286.995 209.912 286 209.5 285.041Z" fill="#F5F5F5"/>
<path d="M208.266 287.266C207.387 285.045 206.173 282.972 204.667 281.119C202.811 278.868 200.709 276.833 198.399 275.053C195.979 273.132 193.56 271.474 191.403 269.917C189.246 268.36 187.359 266.904 185.822 265.596C184.618 264.564 183.475 263.464 182.398 262.301C182.026 261.849 181.628 261.419 181.205 261.013C181.265 261.155 181.347 261.287 181.448 261.404C181.616 261.647 181.886 261.997 182.243 262.435C183.268 263.661 184.38 264.81 185.573 265.873C187.344 267.443 189.193 268.923 191.113 270.308C193.263 271.892 195.669 273.563 198.069 275.464C200.347 277.219 202.433 279.212 204.29 281.408C205.785 283.21 207.006 285.222 207.916 287.38C208.037 287.67 208.138 287.953 208.239 288.229L208.59 288.196C208.509 287.906 208.414 287.596 208.266 287.266Z" fill="#F5F5F5"/>
<path d="M190.614 284.145C188.026 279.427 185.849 275.032 184.305 271.844L182.485 268.07C182.286 267.601 182.047 267.15 181.771 266.722C181.903 267.22 182.079 267.705 182.297 268.171C182.674 269.088 183.234 270.402 183.961 272.02C185.424 275.248 187.554 279.663 190.142 284.415C191.025 286.025 191.894 287.569 192.737 289.025H193.317C192.447 287.468 191.537 285.843 190.614 284.145Z" fill="#F5F5F5"/>
<path d="M195.999 278.092C192.368 274.519 188.935 270.75 185.714 266.803C184.481 265.286 183.51 264.039 182.829 263.177C182.504 262.699 182.141 262.249 181.744 261.829C182.012 262.332 182.321 262.812 182.668 263.264C183.294 264.168 184.218 265.455 185.424 267.005C188.566 271.048 191.975 274.876 195.629 278.463C197.758 280.573 199.922 282.433 201.735 284.259C203.048 285.548 204.233 286.961 205.273 288.479H205.718C204.679 286.837 203.46 285.316 202.085 283.943C200.266 282.055 198.116 280.189 195.999 278.092Z" fill="#F5F5F5"/>
<path d="M184.932 287.373C184.036 284.677 183.429 282.062 182.863 279.697C181.771 274.978 180.753 271.116 179.668 268.602C179.161 267.281 178.513 266.017 177.734 264.835C177.734 264.835 177.734 264.929 177.842 265.091L178.219 265.819C178.536 266.459 178.994 267.409 179.48 268.677C180.497 271.204 181.454 275.026 182.492 279.784C183.045 282.157 183.631 284.765 184.514 287.508C184.69 288.027 184.885 288.553 185.08 289.085H185.566C185.35 288.512 185.128 287.933 184.932 287.373Z" fill="#F5F5F5"/>
<path d="M212.095 279.231C212.148 279.224 212.203 279.224 212.256 279.231C212.413 279.223 212.571 279.223 212.728 279.231C213.139 279.265 213.746 279.333 214.521 279.44C216.715 279.743 218.882 280.223 220.998 280.876C221.694 281.122 222.37 281.422 223.02 281.772C223.385 281.964 223.7 282.236 223.943 282.568C224.065 282.755 224.145 282.967 224.177 283.187C224.21 283.408 224.194 283.634 224.132 283.848C224.058 284.063 223.943 284.261 223.793 284.431C223.642 284.601 223.46 284.74 223.256 284.839C222.887 285.081 222.497 285.289 222.09 285.459C221.255 285.816 220.398 286.116 219.522 286.356C215.64 287.412 211.684 288.171 207.687 288.627C200.428 289.4 193.119 289.603 185.829 289.234C183.032 289.126 180.774 288.991 179.21 288.897L177.411 288.769L176.945 288.728C176.892 288.739 176.837 288.739 176.784 288.728H177.417L179.217 288.789L185.836 289.011C193.112 289.315 200.402 289.089 207.646 288.337C211.625 287.879 215.565 287.131 219.434 286.099C220.297 285.865 221.144 285.574 221.969 285.23C222.362 285.071 222.739 284.875 223.094 284.644C223.443 284.479 223.715 284.187 223.856 283.828C223.908 283.652 223.922 283.468 223.896 283.286C223.871 283.105 223.806 282.931 223.708 282.777C223.49 282.479 223.209 282.232 222.885 282.056C222.25 281.71 221.59 281.413 220.91 281.166C218.81 280.495 216.663 279.981 214.487 279.629C213.719 279.501 213.139 279.407 212.715 279.353C212.29 279.299 212.095 279.245 212.095 279.231Z" fill="#263238"/>
<path d="M215.363 270.948C215.424 271.029 214.17 272.006 212.735 273.334C211.299 274.662 210.227 275.834 210.146 275.767C211.523 273.808 213.301 272.165 215.363 270.948Z" fill="#EB996E"/>
<path d="M215.067 276.259C214.373 275.997 213.643 275.844 212.903 275.807C212.163 275.877 211.438 276.058 210.753 276.347C210.753 276.313 210.901 276.111 211.279 275.895C211.77 275.616 212.324 275.466 212.89 275.457C213.458 275.444 214.02 275.571 214.527 275.828C214.912 276.03 215.094 276.225 215.067 276.259Z" fill="#EB996E"/>
<path d="M92.803 137.146C92.4121 137.456 71.0396 147.053 71.0396 147.053C71.0396 147.053 76.9236 159.549 88.3411 153.982C98.7679 148.9 92.803 137.146 92.803 137.146Z" fill="#455A64"/>
<path d="M92.5673 68.1212C93.0458 68.1212 93.4435 84.7151 93.4435 105.191C93.4435 125.667 93.0458 142.261 92.5673 142.261C92.0887 142.261 91.6843 125.674 91.6843 105.191C91.6843 84.7083 92.082 68.1212 92.5673 68.1212Z" fill="#455A64"/>
<path d="M77.355 118.179C76.9641 118.489 55.5916 128.087 55.5916 128.087C55.5916 128.087 61.4756 140.583 72.8999 135.016C83.3267 129.934 77.355 118.179 77.355 118.179Z" fill="#455A64"/>
<path d="M77.1191 66.8676C77.6044 66.8676 77.9953 79.4983 77.9953 95.0745C77.9953 110.651 77.6044 123.281 77.1191 123.281C76.6338 123.281 76.2429 110.651 76.2429 95.0745C76.2429 79.4983 76.6338 66.8676 77.1191 66.8676Z" fill="#455A64"/>
<path d="M58.6381 99.4756C58.2405 99.7789 36.8679 109.377 36.8679 109.377C36.8679 109.377 42.7587 121.873 54.1762 116.305C64.6165 111.21 58.6381 99.4756 58.6381 99.4756Z" fill="#455A64"/>
<path d="M58.4089 68.748C58.8942 68.748 59.2851 76.7618 59.2851 86.6427C59.2851 96.5235 58.8942 104.544 58.4089 104.544C57.9236 104.544 57.5327 96.5303 57.5327 86.6427C57.5327 76.7551 57.9236 68.748 58.4089 68.748Z" fill="#455A64"/>
<path d="M117.99 140.549C130.051 140.549 139.828 130.772 139.828 118.712C139.828 106.651 130.051 96.874 117.99 96.874C105.93 96.874 96.1528 106.651 96.1528 118.712C96.1528 130.772 105.93 140.549 117.99 140.549Z" fill="#455A64"/>
<path d="M117.175 99.3206L115.463 71.235H123.51L121.28 99.3206H117.175Z" fill="#455A64"/>
<path d="M127.177 134.032L127.036 134.133L126.591 134.389C126.395 134.497 126.159 134.652 125.863 134.793L124.825 135.258C122.574 136.169 120.162 136.614 117.734 136.566C114.122 136.504 110.606 135.384 107.624 133.344C105.87 132.125 104.37 130.575 103.21 128.781C100.696 124.905 99.7041 120.235 100.426 115.672C100.752 113.562 101.487 111.536 102.59 109.707C104.489 106.621 107.252 104.161 110.536 102.63C112.734 101.597 115.118 101.019 117.546 100.931H118.624C118.954 100.931 119.231 100.985 119.453 100.999L119.959 101.06C120.017 101.053 120.076 101.053 120.134 101.06H119.972H119.46C119.237 101.06 118.961 101.019 118.631 101.019H117.505C115.109 101.163 112.763 101.77 110.597 102.805C107.381 104.355 104.686 106.807 102.839 109.862C101.762 111.659 101.046 113.648 100.729 115.719C100.035 120.199 101.011 124.778 103.472 128.586C104.603 130.347 106.066 131.872 107.779 133.075C110.239 134.759 113.068 135.825 116.027 136.183C118.986 136.541 121.988 136.18 124.778 135.13L125.816 134.692C126.119 134.557 126.355 134.423 126.557 134.321L127.015 134.092L127.177 134.032Z" fill="#263238"/>
<path d="M30.4377 34.9065L38.1685 62.8775H70.9182L78.6557 34.9065H30.4377Z" fill="#455A64"/>
<path d="M77.1191 40.44C77.1191 40.5411 67.0091 40.622 54.5469 40.622C42.0846 40.622 31.9746 40.5478 31.9746 40.44C31.9746 40.3322 42.0846 40.2648 54.5469 40.2648C67.0091 40.2648 77.1191 40.3524 77.1191 40.44Z" fill="#263238"/>
<path d="M83.1245 42.1183H76.3845L77.4629 39.1931H83.0908C83.4787 39.1931 83.8507 39.3472 84.125 39.6215C84.3993 39.8958 84.5534 40.2678 84.5534 40.6557C84.5535 41.0378 84.404 41.4048 84.137 41.6781C83.87 41.9515 83.5066 42.1095 83.1245 42.1183Z" fill="#263238"/>
<path d="M25.9152 42.1183H32.6215L31.5499 39.1931H25.9152C25.5273 39.1931 25.1553 39.3472 24.881 39.6215C24.6067 39.8958 24.4526 40.2678 24.4526 40.6557C24.4526 41.0436 24.6067 41.4156 24.881 41.6899C25.1553 41.9642 25.5273 42.1183 25.9152 42.1183Z" fill="#263238"/>
<path d="M144.472 62.5H22.1611V71.2418H144.472V62.5Z" fill="#E50019"/>
<path d="M302.707 186.981C301.808 186.63 300.806 186.651 299.922 187.037C299.038 187.424 298.342 188.145 297.989 189.044L292.563 203.582L299.303 206.062L304.776 191.665C305.118 190.769 305.092 189.775 304.705 188.898C304.318 188.021 303.6 187.332 302.707 186.981Z" fill="#E50019"/>
<path d="M302.559 191.578C302.559 191.885 302.468 192.185 302.297 192.44C302.126 192.695 301.884 192.893 301.6 193.011C301.317 193.128 301.005 193.158 300.704 193.098C300.403 193.037 300.127 192.889 299.91 192.672C299.694 192.454 299.547 192.177 299.487 191.876C299.428 191.575 299.46 191.263 299.578 190.98C299.697 190.697 299.897 190.455 300.152 190.286C300.408 190.116 300.709 190.026 301.015 190.028C301.219 190.027 301.421 190.066 301.609 190.144C301.797 190.222 301.968 190.336 302.111 190.48C302.255 190.624 302.368 190.796 302.445 190.984C302.522 191.172 302.561 191.374 302.559 191.578Z" fill="#FAFAFA"/>
<path d="M298.717 201.108C298.718 201.415 298.629 201.715 298.459 201.971C298.29 202.227 298.048 202.427 297.765 202.545C297.482 202.664 297.17 202.695 296.869 202.636C296.567 202.577 296.291 202.43 296.073 202.213C295.856 201.997 295.707 201.721 295.647 201.42C295.587 201.119 295.617 200.807 295.734 200.523C295.851 200.24 296.05 199.997 296.305 199.826C296.56 199.656 296.86 199.565 297.167 199.565C297.577 199.565 297.97 199.727 298.261 200.016C298.551 200.306 298.715 200.698 298.717 201.108Z" fill="#FAFAFA"/>
<path d="M292.577 203.582L282.123 230.852L294.99 230.69L305.484 208.158L292.577 203.582Z" fill="#E0E0E0"/>
<path d="M302.296 230.852H266.237V272.323H302.296V230.852Z" fill="#E50019"/>
<path d="M302.296 241.177C302.296 241.279 294.208 241.359 284.266 241.359C274.325 241.359 266.23 241.292 266.23 241.177C266.23 241.063 274.318 241.002 284.259 241.002C294.201 241.002 302.296 241.083 302.296 241.177Z" fill="white"/>
<path d="M302.296 245.646C302.296 245.74 294.208 245.821 284.266 245.821C274.325 245.821 266.23 245.74 266.23 245.646C266.23 245.552 274.318 245.471 284.259 245.471C294.201 245.471 302.296 245.545 302.296 245.646Z" fill="white"/>
<path d="M302.296 250.108C302.296 250.209 294.208 250.283 284.266 250.283C274.325 250.283 266.237 250.209 266.237 250.108C266.237 250.007 274.325 249.933 284.266 249.933C294.208 249.933 302.296 250.014 302.296 250.108Z" fill="white"/>
<path d="M302.296 254.577C302.296 254.671 294.208 254.752 284.266 254.752C274.325 254.752 266.237 254.671 266.237 254.577C266.237 254.482 274.325 254.401 284.266 254.401C294.208 254.401 302.296 254.475 302.296 254.577Z" fill="white"/>
<path d="M302.296 259.038C302.296 259.133 294.208 259.214 284.266 259.214C274.325 259.214 266.237 259.133 266.237 259.038C266.237 258.944 274.325 258.863 284.266 258.863C294.208 258.863 302.296 258.944 302.296 259.038Z" fill="white"/>
<path d="M302.296 263.534C302.296 263.635 294.208 263.709 284.266 263.709C274.325 263.709 266.23 263.601 266.23 263.534C266.23 263.467 274.318 263.359 284.259 263.359C294.201 263.359 302.296 263.406 302.296 263.534Z" fill="white"/>
<path d="M245.046 208.023L269.155 209.951C269.155 209.951 269.829 198.244 258.547 197.003C247.264 195.763 245.046 208.023 245.046 208.023Z" fill="#455A64"/>
<path d="M275.767 230.852C275.309 231.007 272.802 225.001 270.173 217.432C267.545 209.863 265.779 203.588 266.237 203.433C266.695 203.278 269.196 209.284 271.831 216.853C274.466 224.422 276.226 230.69 275.767 230.852Z" fill="#455A64"/>
<path d="M277.209 310.269C277.054 310.32 276.893 310.356 276.731 310.377L275.349 310.606L274.352 310.761C273.981 310.808 273.583 310.835 273.152 310.883C272.289 310.957 271.312 311.085 270.227 311.098L268.522 311.152C267.928 311.152 267.308 311.152 266.668 311.152C265.387 311.152 264.026 311.024 262.624 310.909C256.383 310.307 250.291 308.645 244.608 305.996C243.321 305.362 242.081 304.776 240.975 304.122C240.422 303.806 239.877 303.516 239.371 303.199L237.922 302.249C236.992 301.682 236.217 301.069 235.516 300.57C235.165 300.314 234.842 300.085 234.545 299.856L233.763 299.182L232.692 298.285C232.563 298.186 232.444 298.075 232.334 297.955C232.481 298.03 232.617 298.122 232.739 298.232L233.851 299.074L234.646 299.694C234.943 299.917 235.273 300.139 235.63 300.368C236.338 300.853 237.12 301.447 238.057 301.999L239.499 302.896C240.005 303.206 240.551 303.482 241.103 303.792C242.209 304.432 243.442 305.005 244.729 305.632C247.567 306.909 250.496 307.973 253.491 308.813C256.49 309.613 259.546 310.185 262.631 310.525C264.053 310.647 265.408 310.788 266.675 310.795C267.315 310.795 267.928 310.856 268.515 310.842L270.22 310.808C271.298 310.808 272.276 310.701 273.138 310.647C273.563 310.647 273.967 310.593 274.331 310.552L275.329 310.431L276.717 310.262C276.881 310.252 277.046 310.255 277.209 310.269Z" fill="#455A64"/>
<path d="M248.511 307.614C243.456 306.94 236.85 308.894 233.062 312.332C238.434 311.61 243.652 310.016 248.511 307.614Z" fill="#455A64"/>
<path d="M248.767 307.674C250.62 302.916 247.884 296.216 247.884 296.216C247.351 295.313 247.587 302.397 248.767 307.674Z" fill="#455A64"/>
<path d="M240.786 303.9C242.134 300.409 240.173 295.502 240.173 295.502C239.796 294.828 239.951 300.038 240.786 303.9Z" fill="#455A64"/>
<path d="M255.911 309.366C257.259 305.875 255.298 300.968 255.298 300.968C254.913 300.294 255.069 305.504 255.911 309.366Z" fill="#455A64"/>
<path d="M240.941 303.974C237.174 303.475 232.26 304.931 229.45 307.479C233.446 306.944 237.327 305.761 240.941 303.974Z" fill="#455A64"/>
<path d="M256.679 309.898C251.335 309.973 244.797 313.006 241.393 317.124C246.848 315.564 252.012 313.124 256.679 309.898Z" fill="#455A64"/>
<path d="M277.048 284.374C275.958 282.737 274.445 281.426 272.67 280.58C270.896 279.733 268.925 279.383 266.967 279.566C265.009 279.749 263.138 280.459 261.551 281.62C259.964 282.781 258.72 284.35 257.953 286.16C256.729 289.26 256.785 292.719 258.108 295.778C259.451 298.803 261.636 301.377 264.403 303.192C271.528 308.045 281.86 307.823 288.479 302.302C290.939 300.28 292.914 297.456 293.365 294.289C293.627 292.446 293.369 290.566 292.619 288.862C291.869 287.159 290.657 285.699 289.121 284.647C287.585 283.596 285.786 282.994 283.926 282.912C282.067 282.829 280.221 283.268 278.598 284.179" fill="#E50019"/>
<path d="M277.074 284.361C276.838 283.494 276.302 282.739 275.562 282.231C274.821 281.722 273.924 281.493 273.03 281.584L275.416 284.421C274.768 284.51 274.155 284.77 273.639 285.174C273.124 285.578 272.726 286.111 272.485 286.72C272.377 287.009 272.343 287.394 272.619 287.569C272.717 287.601 272.821 287.612 272.923 287.6C273.026 287.588 273.124 287.555 273.212 287.501L276.111 286.302C276.309 287.919 276.902 289.462 277.836 290.797C278.499 289.378 278.87 287.84 278.928 286.275L282.129 287.69C281.877 286.769 281.353 285.945 280.626 285.324C281.581 285.143 282.495 284.789 283.322 284.28C283.572 284.125 283.841 283.862 283.734 283.606C283.626 283.35 283.383 283.343 283.161 283.323C281.046 283.122 278.921 283.564 277.061 284.59" fill="#455A64"/>
<path d="M276.866 285.56C277.362 282.321 277.09 279.01 276.07 275.895C276.832 275.727 277.769 275.612 278.268 276.219C278.514 276.6 278.628 277.053 278.591 277.506C278.628 280.572 278.046 283.614 276.879 286.45" fill="#455A64"/>
<path d="M261.323 297.16C261.134 297.019 260.966 296.851 260.825 296.661C260.41 296.165 260.051 295.625 259.753 295.05C258.74 293.14 258.382 290.949 258.735 288.816C259.089 286.682 260.133 284.724 261.708 283.242C262.171 282.792 262.685 282.396 263.238 282.062C263.435 281.931 263.648 281.824 263.871 281.745C263.175 282.261 262.511 282.819 261.883 283.417C260.401 284.897 259.421 286.804 259.079 288.87C258.737 290.936 259.05 293.057 259.975 294.936C260.377 295.705 260.828 296.448 261.323 297.16Z" fill="white"/>
<path d="M264.538 299.586C264.505 299.674 263.999 299.586 263.487 299.202C262.975 298.818 262.712 298.393 262.813 298.333C262.914 298.272 263.251 298.582 263.716 298.919C264.181 299.256 264.572 299.492 264.538 299.586Z" fill="white"/>
<path d="M129.091 247.392C128.795 247.459 130.972 258.391 130.972 258.391H136.539L138.999 247.83C135.807 246.735 132.367 246.583 129.091 247.392Z" fill="#455A64"/>
<path d="M125.735 308.935C125.735 308.935 117.539 285.978 118.685 279.75C119.83 273.523 122.29 272.208 124.259 270.24C126.227 268.272 127.864 266.634 128.356 264.666C128.848 262.698 128.356 254.833 128.356 254.833C128.356 254.833 126.88 252.534 127.372 251.719C127.864 250.903 139.996 251.719 139.996 251.719C139.928 252.719 139.587 253.681 139.012 254.502C139.012 254.502 138.689 263.682 139.181 264.666C139.673 265.65 147.215 274.015 148.361 278.274C149.507 282.534 143.831 308.935 143.831 308.935H125.735Z" fill="#F5F5F5"/>
<path d="M125.735 308.935H126.051H126.975H130.534L143.832 308.874L143.724 308.962C144.398 305.625 145.173 301.844 145.941 297.686C146.71 293.527 147.512 288.984 148.071 284.111C148.199 282.891 148.314 281.658 148.341 280.397C148.457 279.136 148.187 277.869 147.566 276.765C146.312 274.43 144.848 272.214 143.191 270.146C142.369 269.068 141.506 267.996 140.637 266.917C140.205 266.372 139.767 265.832 139.343 265.266C139.229 265.119 139.123 264.966 139.026 264.808C138.958 264.628 138.913 264.44 138.891 264.248C138.84 263.893 138.808 263.535 138.797 263.177C138.669 260.339 138.756 257.468 138.837 254.55V254.502V254.462C138.959 254.26 139.093 254.044 139.208 253.788C139.536 253.16 139.733 252.472 139.788 251.766L139.949 251.934C137.186 251.759 134.449 251.624 131.774 251.577C130.462 251.53 129.148 251.582 127.844 251.732C127.721 251.753 127.603 251.794 127.494 251.854C127.434 251.963 127.406 252.087 127.413 252.211C127.432 252.516 127.501 252.817 127.615 253.1C127.846 253.687 128.131 254.251 128.464 254.785V254.826V254.866C128.586 256.963 128.673 259.025 128.68 261.054C128.696 262.064 128.658 263.074 128.565 264.08C128.439 265.085 128.061 266.043 127.467 266.864C126.909 267.657 126.284 268.401 125.6 269.088C124.926 269.762 124.252 270.436 123.578 271.076C122.891 271.675 122.243 272.317 121.637 272.997C121.066 273.669 120.582 274.409 120.194 275.201C119.473 276.737 118.976 278.369 118.718 280.047C118.634 280.849 118.634 281.658 118.718 282.46C118.772 283.248 118.88 284.03 118.988 284.792C119.463 287.598 120.079 290.379 120.835 293.123C122.183 298.137 123.45 302.087 124.319 304.803C124.764 306.151 125.108 307.182 125.344 307.903C125.458 308.247 125.539 308.517 125.607 308.705C125.674 308.894 125.687 308.982 125.687 308.982C125.645 308.897 125.609 308.809 125.58 308.719L125.283 307.924C125.034 307.25 124.67 306.185 124.211 304.837C123.302 302.141 121.994 298.198 120.619 293.177C119.945 290.669 119.237 287.892 118.732 284.832C118.617 284.064 118.509 283.282 118.449 282.473C118.358 281.654 118.358 280.826 118.449 280.007C118.706 278.299 119.208 276.638 119.938 275.073C120.334 274.257 120.83 273.495 121.414 272.801C122.025 272.111 122.681 271.46 123.376 270.854C124.05 270.227 124.724 269.553 125.364 268.872C126.036 268.195 126.649 267.462 127.197 266.682C127.76 265.902 128.117 264.994 128.235 264.039C128.322 263.047 128.358 262.05 128.343 261.054C128.343 259.032 128.242 256.976 128.121 254.887V254.967C127.767 254.414 127.469 253.827 127.231 253.215C127.107 252.893 127.032 252.555 127.009 252.211C126.997 252.01 127.051 251.811 127.164 251.645C127.316 251.507 127.506 251.42 127.709 251.395C129.04 251.237 130.381 251.183 131.72 251.233C134.416 251.274 137.112 251.409 139.916 251.591H140.192V251.759C140.14 252.526 139.932 253.274 139.579 253.956C139.458 254.188 139.326 254.413 139.181 254.63V254.543C139.1 257.448 139.012 260.326 139.134 263.136C139.148 263.484 139.179 263.83 139.228 264.174C139.245 264.33 139.279 264.484 139.329 264.633C139.417 264.767 139.504 264.902 139.612 265.044C140.023 265.596 140.468 266.136 140.9 266.675C141.769 267.76 142.632 268.832 143.454 269.917C145.124 272.005 146.598 274.243 147.855 276.603C148.494 277.755 148.773 279.072 148.657 280.384C148.657 281.658 148.509 282.905 148.374 284.125C147.808 289.011 146.979 293.561 146.211 297.713C145.442 301.864 144.654 305.659 143.933 308.989V309.083H143.838L130.486 309.022H126.948H126.045L125.735 308.935Z" fill="#263238"/>
<path d="M142.261 306.555C144.338 298.884 145.714 291.04 146.373 283.12C146.447 282.217 146.447 281.173 145.759 280.573C144.924 279.845 143.65 280.236 142.591 280.573C139.481 281.56 136.171 281.736 132.973 281.085C129.866 280.411 126.779 279.023 123.652 279.542C123.254 279.575 122.867 279.688 122.514 279.875C122.161 280.061 121.849 280.317 121.596 280.627C121.091 281.382 121.212 282.372 121.354 283.269C122.587 290.979 125.101 299.836 127.143 306.555H142.261Z" fill="#E50019"/>
<path d="M144.317 281.523C144.148 281.759 143.951 281.974 143.73 282.163C143.152 282.71 142.53 283.208 141.87 283.653C139.693 285.152 137.188 286.107 134.566 286.436C131.943 286.766 129.28 286.461 126.8 285.547C126.05 285.28 125.324 284.951 124.629 284.563C124.366 284.437 124.122 284.276 123.901 284.084C123.901 284.024 124.993 284.684 126.88 285.318C129.333 286.142 131.94 286.403 134.508 286.08C137.075 285.756 139.537 284.858 141.708 283.451C143.407 282.406 144.27 281.469 144.317 281.523Z" fill="white"/>
</svg>
