<svg width="157" height="157" viewBox="0 0 157 157" fill="none" xmlns="http://www.w3.org/2000/svg">
<path d="M126.112 20.457L127.657 18.8023L130.834 21.4399L136.69 15.4048L138.232 16.9559L130.712 24.5328L126.112 20.457Z" fill="#E0E0E0"/>
<path d="M144.87 20.0646C144.87 20.0646 144.87 19.9955 144.854 19.8605C144.839 19.7255 144.832 19.5245 144.814 19.267C144.814 19.1351 144.798 18.9907 144.788 18.8306C144.779 18.6704 144.738 18.4946 144.71 18.3062C144.682 18.1178 144.647 17.9137 144.613 17.697C144.571 17.4671 144.516 17.2396 144.449 17.0156C144.158 15.8441 143.69 14.7239 143.061 13.6935C142.241 12.3216 141.164 11.1202 139.89 10.1547L139.35 9.75595C139.162 9.63035 138.964 9.51731 138.766 9.39485C138.568 9.27239 138.373 9.14051 138.157 9.04317L137.51 8.72917L137.18 8.57531L136.835 8.44971L136.135 8.19223C135.896 8.11373 135.648 8.06349 135.4 7.99755C135.153 7.92481 134.901 7.86817 134.646 7.82799C134.128 7.73044 133.603 7.66958 133.076 7.64587C132.806 7.64587 132.536 7.60819 132.263 7.61447L131.44 7.65529C131.302 7.65529 131.161 7.65529 131.023 7.68355L130.608 7.74635C130.332 7.79345 130.049 7.82485 129.77 7.88451C128.629 8.1423 127.527 8.54542 126.489 9.08399C126.225 9.22529 125.974 9.39799 125.713 9.54557C125.581 9.62055 125.453 9.7023 125.33 9.79049L124.963 10.0637C124.466 10.4329 123.994 10.8336 123.55 11.2632C123.112 11.7171 122.705 12.1996 122.331 12.7076L122.045 13.0906L121.794 13.4988L121.543 13.9102L121.417 14.1174L121.314 14.3341L120.89 15.2164L120.551 16.1364C120.147 17.4061 119.935 18.7291 119.923 20.0614C119.935 21.3948 120.147 22.7189 120.551 23.9896L120.89 24.9127C121.031 25.2048 121.173 25.4968 121.311 25.7888L121.417 26.0055L121.543 26.2127L121.794 26.6272L122.045 27.0354L122.331 27.4185C122.705 27.9254 123.112 28.4068 123.55 28.8597C123.994 29.2912 124.466 29.6929 124.963 30.0623L125.327 30.3355C125.449 30.4266 125.584 30.4988 125.713 30.5773C125.974 30.7343 126.225 30.8913 126.489 31.042C127.013 31.3158 127.555 31.5539 128.112 31.7548C128.653 31.9542 129.207 32.1169 129.77 32.2415C130.049 32.3011 130.332 32.3326 130.608 32.3797L131.023 32.4424C131.164 32.4613 131.302 32.4613 131.44 32.4707L132.263 32.5115C132.536 32.5115 132.806 32.4896 133.076 32.4801C133.603 32.4564 134.128 32.3956 134.646 32.298C134.902 32.2575 135.155 32.2009 135.403 32.1284C135.648 32.0625 135.896 32.0091 136.135 31.9306L136.838 31.6763L137.183 31.5507L137.497 31.3937L138.16 31.086C138.377 30.9886 138.568 30.8505 138.769 30.7374C138.97 30.6244 139.165 30.5019 139.356 30.3763L139.893 29.9744C141.169 29.0116 142.246 27.811 143.065 26.4388C143.689 25.4067 144.153 24.2854 144.44 23.1135C144.506 22.8894 144.561 22.662 144.603 22.4321C144.638 22.2155 144.669 22.0114 144.701 21.823C144.732 21.6346 144.763 21.4587 144.779 21.2986C144.795 21.1385 144.798 20.9846 144.804 20.8621C144.823 20.6047 144.836 20.4068 144.845 20.2655C144.854 20.1242 144.861 20.0646 144.861 20.0646C144.861 20.0646 144.861 20.1337 144.861 20.2687C144.861 20.4037 144.861 20.6047 144.839 20.8621L144.82 21.3017C144.82 21.465 144.773 21.6377 144.748 21.8293C144.723 22.0208 144.691 22.2249 144.66 22.4573C144.628 22.6896 144.556 22.9031 144.503 23.1449C144.219 24.3262 143.756 25.4571 143.131 26.4984C142.312 27.8865 141.233 29.1032 139.953 30.0812L139.416 30.458C139.224 30.5867 139.023 30.6998 138.826 30.8254C138.628 30.951 138.43 31.0828 138.213 31.1802L137.56 31.4942L137.227 31.6512C137.114 31.6951 136.998 31.7391 136.879 31.7799L136.172 32.0405C135.931 32.1222 135.679 32.1724 135.431 32.2415C135.181 32.3163 134.926 32.3751 134.668 32.4173C134.143 32.5156 133.613 32.5786 133.079 32.6057C132.806 32.6057 132.533 32.6434 132.257 32.6371L131.425 32.5963C131.283 32.5963 131.142 32.5963 131.004 32.5712L130.583 32.5084C130.301 32.4613 130.018 32.4299 129.735 32.3702C129.164 32.2456 128.601 32.082 128.052 31.8804C127.489 31.6787 126.94 31.4384 126.41 31.1613C126.143 31.0169 125.886 30.8473 125.625 30.6935C125.493 30.6118 125.358 30.5428 125.233 30.4486L124.862 30.1722C124.359 29.7987 123.881 29.3927 123.43 28.9571C122.986 28.4994 122.573 28.0115 122.196 27.497L121.904 27.1107L121.65 26.6963L121.395 26.2786L121.27 26.0683L121.163 25.8485C121.019 25.5533 120.877 25.255 120.733 24.9598C120.589 24.6647 120.507 24.3318 120.391 24.0178C119.976 22.7318 119.757 21.3907 119.741 20.0395C119.757 18.6893 119.976 17.3492 120.391 16.0642L120.733 15.1222C120.877 14.8239 121.022 14.5288 121.163 14.2336L121.27 14.0107L121.399 13.8034L121.653 13.3858L121.904 12.9713L122.196 12.582C122.574 12.0682 122.988 11.5814 123.433 11.125C123.882 10.6886 124.359 10.2826 124.862 9.90981L125.236 9.63349C125.358 9.53929 125.496 9.47021 125.625 9.38857C125.889 9.23157 126.143 9.07457 126.41 8.92071C126.94 8.6423 127.488 8.40201 128.052 8.20165C128.601 8.00009 129.164 7.83643 129.735 7.71181C130.018 7.65215 130.301 7.62075 130.583 7.57365L131.001 7.51085C131.142 7.49201 131.283 7.49515 131.425 7.48573L132.257 7.44177C132.533 7.44177 132.806 7.46689 133.076 7.47631C133.611 7.50335 134.142 7.5663 134.668 7.66471C134.926 7.70699 135.181 7.76572 135.431 7.84055C135.679 7.90963 135.931 7.95987 136.172 8.04151L136.879 8.30213L137.227 8.42773L137.56 8.58787L138.213 8.90187C138.43 9.00235 138.622 9.14365 138.826 9.25983C139.03 9.37601 139.224 9.49847 139.416 9.62407L139.956 10.0323C141.238 11.0094 142.318 12.2262 143.137 13.615C143.763 14.656 144.226 15.7871 144.509 16.9685C144.562 17.2103 144.641 17.4333 144.666 17.6562C144.691 17.8791 144.726 18.077 144.754 18.2842C144.782 18.4914 144.81 18.6484 144.826 18.8086C144.842 18.9687 144.826 19.1226 144.845 19.2482C144.845 19.5088 144.861 19.7066 144.867 19.8448C144.873 19.9829 144.87 20.0646 144.87 20.0646Z" fill="#E0E0E0"/>
<path d="M121.75 32.5869C121.735 32.5869 121.735 32.4581 121.672 32.2415C121.584 31.9366 121.397 31.6694 121.141 31.4816C120.936 31.3256 120.692 31.2299 120.436 31.2053C120.18 31.1807 119.921 31.2283 119.691 31.3425C119.46 31.4568 119.266 31.6333 119.13 31.852C118.994 32.0708 118.922 32.3231 118.922 32.5806C118.922 32.8381 118.994 33.0904 119.13 33.3092C119.266 33.5279 119.46 33.7044 119.691 33.8187C119.921 33.9329 120.18 33.9805 120.436 33.9559C120.692 33.9313 120.936 33.8356 121.141 33.6796C121.397 33.4917 121.584 33.2245 121.672 32.9197C121.735 32.6999 121.735 32.5712 121.75 32.5712C121.757 32.6023 121.757 32.6343 121.75 32.6654C121.754 32.7561 121.745 32.8469 121.725 32.9354C121.658 33.272 121.473 33.5737 121.204 33.7864C121.005 33.9432 120.769 34.047 120.518 34.0882C120.268 34.1294 120.011 34.1066 119.772 34.0219C119.477 33.9159 119.222 33.7214 119.041 33.4648C118.861 33.2082 118.764 32.9022 118.764 32.5885C118.764 32.2747 118.861 31.9687 119.041 31.7121C119.222 31.4556 119.477 31.261 119.772 31.155C120.012 31.0716 120.269 31.0504 120.52 31.0932C120.77 31.136 121.005 31.2416 121.204 31.4C121.472 31.6094 121.657 31.9061 121.728 32.2383C121.748 32.3258 121.757 32.4156 121.754 32.5052C121.757 32.5324 121.756 32.56 121.75 32.5869Z" fill="#E0E0E0"/>
<path d="M12.0732 88.8651H3.12109V97.8172H12.0732V88.8651Z" fill="#F5F5F5"/>
<path d="M12.0732 98.7687H3.12109V107.721H12.0732V98.7687Z" fill="#F5F5F5"/>
<path d="M12.0732 108.669H3.12109V117.621H12.0732V108.669Z" fill="#F5F5F5"/>
<path d="M22.1997 88.8651H13.2476V97.8172H22.1997V88.8651Z" fill="#F5F5F5"/>
<path d="M22.1997 98.7687H13.2476V107.721H22.1997V98.7687Z" fill="#F5F5F5"/>
<path d="M22.1997 108.669H13.2476V117.621H22.1997V108.669Z" fill="#F5F5F5"/>
<path d="M32.3296 88.8651H23.3774V97.8172H32.3296V88.8651Z" fill="#F5F5F5"/>
<path d="M32.3296 98.7687H23.3774V107.721H32.3296V98.7687Z" fill="#F5F5F5"/>
<path d="M32.3296 108.669H23.3774V117.621H32.3296V108.669Z" fill="#F5F5F5"/>
<path d="M42.459 88.8651H33.5068V97.8172H42.459V88.8651Z" fill="#F5F5F5"/>
<path d="M42.459 98.7687H33.5068V107.721H42.459V98.7687Z" fill="#F5F5F5"/>
<path d="M42.459 108.669H33.5068V117.621H42.459V108.669Z" fill="#F5F5F5"/>
<path d="M52.5889 88.8651H43.6367V97.8172H52.5889V88.8651Z" fill="#F5F5F5"/>
<path d="M52.5889 98.7687H43.6367V107.721H52.5889V98.7687Z" fill="#F5F5F5"/>
<path d="M52.5889 108.669H43.6367V117.621H52.5889V108.669Z" fill="#F5F5F5"/>
<path d="M62.7183 88.8651H53.7661V97.8172H62.7183V88.8651Z" fill="#F5F5F5"/>
<path d="M62.7183 98.7687H53.7661V107.721H62.7183V98.7687Z" fill="#F5F5F5"/>
<path d="M62.7183 108.669H53.7661V117.621H62.7183V108.669Z" fill="#F5F5F5"/>
<path d="M72.8447 88.8651H63.8926V97.8172H72.8447V88.8651Z" fill="#F5F5F5"/>
<path d="M72.8447 98.7687H63.8926V107.721H72.8447V98.7687Z" fill="#F5F5F5"/>
<path d="M72.8447 108.669H63.8926V117.621H72.8447V108.669Z" fill="#F5F5F5"/>
<path d="M82.9746 88.8651H74.0225V97.8172H82.9746V88.8651Z" fill="#F5F5F5"/>
<path d="M82.9746 98.7687H74.0225V107.721H82.9746V98.7687Z" fill="#F5F5F5"/>
<path d="M82.9746 108.669H74.0225V117.621H82.9746V108.669Z" fill="#F5F5F5"/>
<path d="M93.104 88.8651H84.1519V97.8172H93.104V88.8651Z" fill="#F5F5F5"/>
<path d="M93.104 98.7687H84.1519V107.721H93.104V98.7687Z" fill="#F5F5F5"/>
<path d="M93.104 108.669H84.1519V117.621H93.104V108.669Z" fill="#F5F5F5"/>
<path d="M103.234 88.8651H94.2817V97.8172H103.234V88.8651Z" fill="#F5F5F5"/>
<path d="M103.234 98.7687H94.2817V107.721H103.234V98.7687Z" fill="#F5F5F5"/>
<path d="M103.234 108.669H94.2817V117.621H103.234V108.669Z" fill="#F5F5F5"/>
<path d="M113.363 88.8651H104.411V97.8172H113.363V88.8651Z" fill="#F5F5F5"/>
<path d="M113.363 98.7687H104.411V107.721H113.363V98.7687Z" fill="#F5F5F5"/>
<path d="M113.363 108.669H104.411V117.621H113.363V108.669Z" fill="#F5F5F5"/>
<path d="M123.493 88.8651H114.541V97.8172H123.493V88.8651Z" fill="#F5F5F5"/>
<path d="M123.493 98.7687H114.541V107.721H123.493V98.7687Z" fill="#F5F5F5"/>
<path d="M123.493 108.669H114.541V117.621H123.493V108.669Z" fill="#F5F5F5"/>
<path d="M133.62 88.8651H124.667V97.8172H133.62V88.8651Z" fill="#F5F5F5"/>
<path d="M133.62 98.7687H124.667V107.721H133.62V98.7687Z" fill="#F5F5F5"/>
<path d="M133.62 108.669H124.667V117.621H133.62V108.669Z" fill="#F5F5F5"/>
<path d="M143.749 88.8651H134.797V97.8172H143.749V88.8651Z" fill="#F5F5F5"/>
<path d="M143.749 98.7687H134.797V107.721H143.749V98.7687Z" fill="#F5F5F5"/>
<path d="M143.749 108.669H134.797V117.621H143.749V108.669Z" fill="#F5F5F5"/>
<path d="M153.879 88.8651H144.927V97.8172H153.879V88.8651Z" fill="#F5F5F5"/>
<path d="M153.879 98.7687H144.927V107.721H153.879V98.7687Z" fill="#F5F5F5"/>
<path d="M153.879 108.669H144.927V117.621H153.879V108.669Z" fill="#F5F5F5"/>
<path d="M82.563 22.991C82.563 22.991 79.4576 23.4871 77.7714 28.957C76.0852 34.4269 74.3676 43.087 74.4273 43.5203C74.5686 44.5754 75.564 44.6821 76.3804 45.4263C76.8608 45.8691 76.9581 45.7403 76.6284 47.5207C76.3333 49.1252 72.3298 62.7842 71.5102 65.5726C71.492 65.6355 71.4872 65.7016 71.496 65.7665C71.5047 65.8315 71.527 65.8939 71.5613 65.9497C71.5956 66.0056 71.6411 66.0537 71.6951 66.0909C71.749 66.1282 71.8101 66.1537 71.8745 66.166L75.2719 66.794C75.3338 66.8062 75.3974 66.8056 75.459 66.7924C75.5206 66.7792 75.5788 66.7536 75.6302 66.7172C75.6816 66.6808 75.7251 66.6343 75.7579 66.5806C75.7908 66.5268 75.8124 66.467 75.8214 66.4047L79.0557 44.8015C79.0557 44.8015 83.257 24.4229 83.2727 24.0775C83.2884 23.7321 83.4705 23.013 82.563 22.991Z" fill="#E0E0E0"/>
<path d="M20.3315 69.2621C19.4712 68.6184 19.1603 66.3011 17.9891 64.7845C16.8179 63.2679 9.25049 58.9692 8.68215 58.6521C8.53062 58.5539 8.34962 58.5117 8.17033 58.5327C8.13986 58.5392 8.11187 58.5543 8.08968 58.5761C8.06749 58.598 8.05201 58.6257 8.04508 58.6561C8.03815 58.6865 8.04005 58.7182 8.05056 58.7475C8.06107 58.7769 8.07974 58.8026 8.10439 58.8216L14.6984 63.7451C14.7545 63.785 14.795 63.8432 14.8128 63.9097C14.8306 63.9762 14.8245 64.0468 14.7957 64.1094C14.7766 64.1456 14.7499 64.1772 14.7174 64.2022C14.6849 64.2272 14.6475 64.2449 14.6076 64.2541C14.5677 64.2633 14.5262 64.2639 14.4861 64.2557C14.446 64.2475 14.4081 64.2308 14.375 64.2067L7.71503 59.4779C7.64549 59.4262 7.55829 59.4043 7.47261 59.417C7.38693 59.4297 7.30979 59.4758 7.25816 59.5454C7.20652 59.6149 7.18463 59.7021 7.19729 59.7878C7.20995 59.8735 7.25613 59.9506 7.32567 60.0023L13.816 64.9697C13.8717 65.01 13.9115 65.0684 13.9287 65.1349C13.9459 65.2014 13.9394 65.2718 13.9102 65.334C13.8915 65.3706 13.865 65.4026 13.8325 65.4279C13.8001 65.4532 13.7625 65.4711 13.7225 65.4804C13.6824 65.4896 13.6408 65.49 13.6006 65.4816C13.5603 65.4731 13.5224 65.456 13.4895 65.4313L6.83583 60.6774C6.76254 60.6241 6.67109 60.6021 6.58158 60.6162C6.49207 60.6303 6.41184 60.6794 6.35855 60.7527C6.30525 60.826 6.28325 60.9175 6.29738 61.007C6.31151 61.0965 6.36062 61.1767 6.43391 61.23L12.874 66.1943C12.9302 66.2342 12.9704 66.2926 12.9876 66.3593C13.0049 66.4259 12.998 66.4965 12.9682 66.5586C12.9495 66.5952 12.923 66.6272 12.8905 66.6525C12.8581 66.6778 12.8205 66.6957 12.7805 66.705C12.7404 66.7142 12.6988 66.7146 12.6586 66.7062C12.6183 66.6977 12.5804 66.6805 12.5475 66.6559L5.93151 61.7261C5.90426 61.706 5.8718 61.6943 5.83802 61.6922C5.80425 61.6901 5.77059 61.6978 5.74108 61.7144C5.71158 61.731 5.68748 61.7557 5.67169 61.7856C5.6559 61.8156 5.64908 61.8494 5.65205 61.8831C5.68135 62.0647 5.77496 62.2296 5.91581 62.3478C6.38053 62.8031 12.6637 68.8225 14.4503 69.5133C16.237 70.2041 18.5512 69.8273 19.4115 70.4773C20.1997 71.0613 36.468 84.0138 39.2971 86.2684C39.352 86.3114 39.415 86.343 39.4822 86.3613C39.5495 86.3795 39.6198 86.3841 39.6889 86.3748C39.758 86.3654 39.8245 86.3423 39.8845 86.3067C39.9445 86.2712 39.9968 86.224 40.0382 86.1679L41.3601 84.3906C41.4026 84.335 41.4332 84.2714 41.4502 84.2035C41.4673 84.1357 41.4703 84.0651 41.4591 83.996C41.4479 83.927 41.4228 83.8609 41.3853 83.8019C41.3478 83.7429 41.2986 83.6921 41.2408 83.6527C38.2609 81.6023 21.1165 69.8462 20.3315 69.2621Z" fill="#E0E0E0"/>
<path d="M146.638 148.33C146.638 148.374 115.866 148.412 77.891 148.412C39.9158 148.412 9.125 148.374 9.125 148.33C9.125 148.286 39.897 148.249 77.891 148.249C115.885 148.249 146.638 148.283 146.638 148.33Z" fill="#263238"/>
<path d="M38.7729 133.014C38.8655 132.413 38.8383 131.8 38.6929 131.21C38.5475 130.62 38.2868 130.064 37.9257 129.575C37.5647 129.086 37.1105 128.674 36.5892 128.361C36.068 128.049 35.49 127.842 34.8887 127.754C34.7828 127.73 34.672 127.744 34.5747 127.792C34.518 127.849 34.4769 127.919 34.4554 127.997C34.434 128.075 34.4329 128.156 34.4523 128.234C34.5631 129.402 35.04 130.504 35.8148 131.385C36.5896 132.265 37.6227 132.878 38.7666 133.136" fill="#455A64"/>
<path d="M32.3168 141.514C33.4786 143.909 35.1428 145.52 37.2183 145.596C37.6296 145.611 37.9436 145.338 38.3393 145.316C38.5705 145.368 38.7934 145.451 39.0018 145.564C39.1097 145.612 39.226 145.639 39.3441 145.643C41.4824 145.53 43.3036 144.026 44.5314 141.51C46.2395 137.99 45.712 134.207 43.3539 133.057C43.0449 132.902 42.7222 132.776 42.3899 132.681C42.0076 132.576 41.6117 132.529 41.2155 132.543C40.2962 132.601 39.3921 132.806 38.5371 133.149L38.4209 133.189C36.5055 132.345 34.9669 132.338 33.488 133.057C31.1298 134.21 30.6055 137.994 32.3168 141.514Z" fill="#E50019"/>
<path d="M32.3576 137.946C32.2465 137.726 32.1803 137.486 32.1629 137.24C32.0934 136.644 32.1655 136.041 32.3734 135.478C32.5812 134.915 32.919 134.41 33.3592 134.003C33.5326 133.826 33.7398 133.686 33.9684 133.591C33.9684 133.616 33.7486 133.767 33.4377 134.084C33.0378 134.499 32.7281 134.992 32.5281 135.533C32.3282 136.073 32.2423 136.649 32.2759 137.224C32.3073 137.67 32.3858 137.937 32.3576 137.946Z" fill="#FAFAFA"/>
<path d="M32.791 139.62C32.747 139.62 32.6716 139.463 32.6214 139.25C32.5711 139.036 32.568 138.851 32.6214 138.841C32.6748 138.832 32.7407 138.998 32.791 139.212C32.8412 139.425 32.8349 139.611 32.791 139.62Z" fill="#FAFAFA"/>
<path d="M43.6463 127.255C43.6463 127.283 43.2035 127.453 42.5379 127.851C42.15 128.085 41.7805 128.347 41.4326 128.636C41.0119 128.997 40.6222 129.392 40.2676 129.817C39.9148 130.248 39.5996 130.708 39.3256 131.192C39.1101 131.591 38.9254 132.006 38.773 132.433C38.5155 133.161 38.4402 133.642 38.4088 133.635C38.404 133.521 38.4156 133.407 38.4433 133.296C38.4612 133.164 38.4875 133.033 38.5218 132.904C38.5626 132.753 38.5972 132.59 38.6631 132.395C38.8038 131.957 38.9813 131.531 39.1938 131.123C39.7199 130.12 40.4442 129.235 41.3227 128.52C41.6801 128.23 42.0626 127.973 42.4656 127.751C42.6178 127.662 42.7751 127.582 42.9366 127.512C43.0556 127.452 43.1783 127.4 43.304 127.355C43.4125 127.305 43.5279 127.271 43.6463 127.255Z" fill="#263238"/>
<path d="M20.9189 142.845V143.291L26.6557 145.966C26.6557 145.966 27.1267 147.385 31.3061 147.458C35.4854 147.53 45.5428 147.539 45.5428 147.539C45.5428 147.539 48.3092 147.599 50.0958 146.035L55.5783 143.372L55.506 142.813L20.9189 142.845Z" fill="#E0E0E0"/>
<path d="M45.1346 147.492H31.708V148.086H45.1346V147.492Z" fill="#E0E0E0"/>
<path d="M50.1898 146.01H50.1301H49.9511L49.2666 146.029L46.7546 146.076C44.6226 146.107 41.6804 146.142 38.4336 146.145C35.1869 146.148 32.2384 146.126 30.1095 146.073C29.045 146.048 28.1847 146.023 27.5975 145.991L26.913 145.96H26.734H26.6743H26.913L27.6006 145.975C28.1941 145.997 29.0544 146.01 30.1126 146.029C32.2415 146.063 35.1837 146.079 38.4368 146.073C41.6898 146.066 44.6257 146.048 46.7546 146.032L49.2666 146.013H50.1898V146.01Z" fill="#263238"/>
<path d="M44.8206 147.492C44.8206 147.517 41.8407 147.539 38.1701 147.539C34.4994 147.539 31.5195 147.517 31.5195 147.492C31.5195 147.467 34.4963 147.448 38.1701 147.448C41.8439 147.448 44.8206 147.467 44.8206 147.492Z" fill="#263238"/>
<path d="M55.4619 143.372C55.4619 143.398 47.7186 143.416 38.1699 143.416C28.6212 143.416 20.8779 143.398 20.8779 143.372C20.8779 143.347 28.618 143.328 38.1699 143.328C47.7218 143.328 55.4619 143.347 55.4619 143.372Z" fill="#263238"/>
<path d="M66.5428 46.6542C66.472 50.8767 65.1506 54.9835 62.7458 58.4551C60.3409 61.9266 56.9606 64.6071 53.0323 66.1575C49.104 67.7078 44.8042 68.0584 40.6766 67.165C36.549 66.2715 32.7791 64.1741 29.8436 61.138C26.908 58.1019 24.9388 54.2635 24.1848 50.1082C23.4309 45.9529 23.9261 41.6673 25.6079 37.7934C27.2896 33.9196 30.0824 30.6314 33.633 28.3448C37.1836 26.0582 41.3325 24.8759 45.555 24.9473C51.2166 25.0431 56.6082 27.3838 60.5441 31.4545C64.4799 35.5252 66.6377 40.9926 66.5428 46.6542Z" fill="#E50019"/>
<g opacity="0.3">
<path opacity="0.3" d="M66.5428 46.6542C66.472 50.8767 65.1506 54.9835 62.7458 58.4551C60.3409 61.9266 56.9606 64.6071 53.0323 66.1575C49.104 67.7078 44.8042 68.0584 40.6766 67.165C36.549 66.2715 32.7791 64.1741 29.8436 61.138C26.908 58.1019 24.9388 54.2635 24.1848 50.1082C23.4309 45.9529 23.9261 41.6673 25.6079 37.7934C27.2896 33.9196 30.0824 30.6314 33.633 28.3448C37.1836 26.0582 41.3325 24.8759 45.555 24.9473C51.2166 25.0431 56.6082 27.3838 60.5441 31.4545C64.4799 35.5252 66.6377 40.9926 66.5428 46.6542Z" fill="black"/>
</g>
<path d="M58.7979 60.8141C67.194 52.418 67.194 38.8052 58.7979 30.4091C50.4018 22.013 36.789 22.013 28.3929 30.4091C19.9968 38.8052 19.9968 52.418 28.3929 60.8141C36.789 69.2102 50.4018 69.2102 58.7979 60.8141Z" fill="#E50019"/>
<path d="M60.8326 54.0837C65.5103 44.5648 61.5857 33.0561 52.0667 28.3784C42.5478 23.7007 31.0391 27.6253 26.3614 37.1442C21.6836 46.6632 25.6082 58.1719 35.1272 62.8496C44.6462 67.5273 56.1548 63.6027 60.8326 54.0837Z" fill="white"/>
<path d="M62.8003 45.9351C62.8003 45.9351 62.8003 45.8283 62.8003 45.6211C62.8003 45.4138 62.8003 45.1092 62.772 44.7073C62.6342 41.9662 61.91 39.2865 60.6485 36.8489C59.3869 34.4114 57.6173 32.2728 55.459 30.5773C53.1138 28.7329 50.3695 27.4629 47.4457 26.869C44.9725 26.3686 42.4255 26.3558 39.9474 26.8313C39.0728 27.0033 38.2105 27.233 37.3663 27.519C33.6595 28.8064 30.4375 31.2013 28.1362 34.3797C25.8349 37.558 24.5653 41.3666 24.4992 45.29C24.4331 49.2135 25.5736 53.0627 27.7665 56.3168C29.9595 59.5709 33.0989 62.0729 36.7603 63.4845C37.5906 63.7962 38.4402 64.0543 39.3037 64.257C40.1464 64.4501 41.0015 64.5844 41.8628 64.6589C43.5103 64.8114 45.1706 64.7491 46.802 64.4736C49.7406 63.97 52.5211 62.7872 54.922 61.0196C58.4212 58.4536 60.9498 54.7797 62.0969 50.5948C62.4029 49.464 62.6068 48.3081 62.7061 47.1408C62.7501 46.7421 62.7469 46.4343 62.7658 46.2302C62.7846 46.0261 62.7846 45.9162 62.7846 45.9162C62.7846 45.9162 62.7846 46.3401 62.7375 47.1408C62.6525 48.3078 62.458 49.4642 62.1566 50.5948C61.0312 54.8085 58.5039 58.5131 54.9911 61.0981C52.5782 62.8778 49.7824 64.0682 46.8271 64.5741C45.1849 64.8569 43.5128 64.9234 41.8534 64.7719C40.986 64.6959 40.1248 64.5616 39.2754 64.37C38.4042 64.1682 37.5472 63.9091 36.71 63.5944C33.0105 62.1805 29.8359 59.6619 27.6177 56.3808C25.3995 53.0998 24.2453 49.2153 24.3118 45.2553C24.3783 41.2953 25.6625 37.4519 27.9896 34.2472C30.3168 31.0424 33.5742 28.6319 37.3192 27.3431C38.1711 27.0704 39.0395 26.8522 39.9191 26.69C42.6395 26.1621 45.4419 26.2283 48.1343 26.884C50.8268 27.5398 53.3457 28.7697 55.5186 30.4894C57.4533 32.0239 59.0774 33.9135 60.304 36.0566C61.8216 38.6978 62.678 41.6668 62.8003 44.7105C62.8191 45.53 62.8003 45.9351 62.8003 45.9351Z" fill="#263238"/>
<path d="M34.7161 71.3125L35.746 65.312L39.1152 66.5366L36.553 71.906C36.4588 72.1066 36.2985 72.2688 36.099 72.3654C35.8995 72.462 35.6729 72.4872 35.4571 72.4367C35.2125 72.3809 34.999 72.2328 34.8609 72.0234C34.7228 71.8139 34.671 71.5593 34.7161 71.3125Z" fill="#E50019"/>
<path d="M64.2915 63.1549L60.8721 58.1309L58.313 60.6429L62.8597 64.4611C63.0296 64.6033 63.2429 64.6833 63.4644 64.6879C63.686 64.6924 63.9024 64.6213 64.078 64.4862C64.2792 64.3353 64.414 64.1121 64.4538 63.8637C64.4937 63.6153 64.4355 63.3612 64.2915 63.1549Z" fill="#E50019"/>
<path d="M37.5286 21.3057L36.5684 21.6119L37.9366 25.9018L38.8969 25.5955L37.5286 21.3057Z" fill="#E50019"/>
<path d="M37.4183 19.5442L35.6353 20.1126C35.2833 20.2247 35.089 20.601 35.2012 20.9529L35.3509 21.4226C35.4631 21.7745 35.8393 21.9689 36.1912 21.8567L37.9743 21.2884C38.3262 21.1762 38.5206 20.7999 38.4084 20.448L38.2587 19.9783C38.1465 19.6264 37.7703 19.432 37.4183 19.5442Z" fill="#E50019"/>
<path d="M43.2034 41.1623C42.9742 40.462 43.7215 39.0396 43.6681 37.7271C43.6147 36.4146 41.0807 31.0075 40.8892 30.6024C40.8417 30.4875 40.7564 30.3923 40.6474 30.3324C40.6293 30.3266 40.6099 30.3256 40.5912 30.3296C40.5726 30.3336 40.5553 30.3423 40.541 30.355C40.5267 30.3676 40.516 30.3838 40.5099 30.4019C40.5038 30.4199 40.5025 30.4393 40.5061 30.458L42.2551 35.8368C42.2701 35.8814 42.2693 35.9299 42.2527 35.974C42.2361 36.018 42.2048 36.055 42.164 36.0786C42.1389 36.0919 42.1111 36.0995 42.0827 36.1009C42.0542 36.1023 42.0258 36.0974 41.9995 36.0866C41.9731 36.0758 41.9495 36.0594 41.9302 36.0385C41.9109 36.0176 41.8964 35.9927 41.8877 35.9656L40.0288 30.6715C40.0101 30.6153 39.9698 30.5688 39.9168 30.5423C39.8638 30.5159 39.8025 30.5115 39.7462 30.5302C39.69 30.549 39.6436 30.5893 39.6171 30.6423C39.5906 30.6953 39.5862 30.7566 39.6049 30.8128L41.2566 36.1508C41.2722 36.1954 41.2717 36.2441 41.2551 36.2883C41.2384 36.3325 41.2067 36.3694 41.1655 36.3926C41.1406 36.4059 41.113 36.4135 41.0848 36.4149C41.0566 36.4162 41.0284 36.4113 41.0023 36.4005C40.9762 36.3897 40.9528 36.3733 40.9338 36.3524C40.9148 36.3314 40.9006 36.3066 40.8923 36.2796L39.0617 30.9855C39.0386 30.9324 38.9965 30.8899 38.9437 30.8662C38.8909 30.8425 38.8311 30.8394 38.7761 30.8575C38.7211 30.8755 38.6748 30.9135 38.6463 30.9639C38.6179 31.0143 38.6092 31.0735 38.6221 31.13L40.2612 36.468C40.2762 36.5126 40.2754 36.561 40.2588 36.6051C40.2422 36.6492 40.2109 36.6861 40.1701 36.7097C40.145 36.723 40.1172 36.7306 40.0888 36.732C40.0603 36.7334 40.0319 36.7285 40.0056 36.7177C39.9792 36.707 39.9556 36.6905 39.9363 36.6696C39.917 36.6487 39.9025 36.6238 39.8938 36.5967L38.1448 31.2148C38.1376 31.1929 38.1242 31.1736 38.1062 31.1592C38.0883 31.1448 38.0665 31.1359 38.0436 31.1336C38.0207 31.1313 37.9976 31.1356 37.9772 31.1461C37.9567 31.1566 37.9397 31.1728 37.9282 31.1928C37.872 31.3056 37.8586 31.435 37.8905 31.557C37.9721 31.9935 39.0994 37.8558 39.8279 38.9517C40.5564 40.0476 41.9945 40.7572 42.2237 41.4637C42.4309 42.0917 46.403 55.8072 47.0938 58.1873C47.1071 58.2332 47.1294 58.2759 47.1595 58.313C47.1897 58.35 47.2269 58.3806 47.2692 58.4028C47.3114 58.4251 47.3577 58.4387 47.4052 58.4426C47.4528 58.4466 47.5007 58.4409 47.546 58.426L48.9904 57.9581C49.0362 57.9437 49.0787 57.9201 49.1151 57.8887C49.1515 57.8574 49.1812 57.819 49.2024 57.7758C49.2235 57.7326 49.2357 57.6856 49.2381 57.6376C49.2405 57.5896 49.2332 57.5416 49.2165 57.4965C48.3561 55.1792 43.4106 41.7997 43.2034 41.1623Z" fill="#E0E0E0"/>
<path d="M55.1795 32.2886C55.1795 32.2886 53.2201 31.7329 50.7364 34.4866C48.2526 37.2404 44.8866 41.8374 44.8018 42.1137C44.5945 42.7731 45.1503 43.1059 45.4298 43.7685C45.5931 44.1578 45.6873 44.1013 45.0027 45.0622C44.3904 45.9225 38.3145 52.8431 37.0742 54.2561C37.048 54.2887 37.0286 54.3262 37.017 54.3664C37.0055 54.4066 37.0021 54.4487 37.0071 54.4903C37.0121 54.5318 37.0253 54.5719 37.046 54.6083C37.0667 54.6446 37.0944 54.6765 37.1276 54.702L38.9457 56.0019C39.0135 56.0473 39.0964 56.0645 39.1767 56.0499C39.257 56.0352 39.3284 55.9899 39.3759 55.9234L47.1662 44.1327C47.1662 44.1327 55.1952 33.328 55.3019 33.1207C55.4087 32.9135 55.7039 32.5493 55.1795 32.2886Z" fill="#E0E0E0"/>
<path d="M50.6011 14.2148C50.8975 13.6937 51.3581 13.2855 51.911 13.0539C52.4639 12.8223 53.078 12.7803 53.6572 12.9345C54.2365 13.0888 54.7484 13.4305 55.1129 13.9064C55.4775 14.3823 55.6741 14.9655 55.6722 15.565L50.6011 14.2148Z" fill="#E50019"/>
<path d="M40.6821 19.782C40.6821 19.782 44.5883 12.0168 53.4243 14.4974C62.2602 16.978 61.7735 25.4121 61.7735 25.4121L40.6821 19.782Z" fill="#E50019"/>
<path d="M61.9275 25.5251C61.6135 26.6461 56.624 26.2787 50.7585 24.7024C44.893 23.1261 40.3808 20.9344 40.6822 19.8166C40.9837 18.6987 45.9826 19.063 51.8512 20.6392C57.7199 22.2155 62.2289 24.4041 61.9275 25.5251Z" fill="#263238"/>
<path d="M50.1962 20.2216L49.0596 25.1232L51.8762 25.7041L53.1384 21.0035L50.1962 20.2216Z" fill="#E50019"/>
<g opacity="0.3">
<path opacity="0.3" d="M40.6849 20.0552C40.6849 20.0552 46.0575 20.4508 47.8033 20.7805C49.5492 21.1102 55.5591 22.6645 57.5028 23.4464C59.4464 24.2282 61.4246 25.9584 61.4246 25.9584L61.927 25.5282C61.927 25.5282 62.1249 24.9473 60.9442 24.2439C56.8359 21.9732 52.3638 20.4347 47.728 19.6972C41.0084 18.6673 40.7038 19.512 40.6284 19.9359" fill="black"/>
</g>
<path d="M57.0506 16.0831C57.0349 16.1082 56.6895 15.8539 56.0929 15.5211C55.3149 15.0887 54.4941 14.7382 53.6437 14.4754C52.7941 14.2087 51.9142 14.0504 51.0249 14.0044C50.3435 13.9762 49.9196 14.0421 49.9165 14.0044C50.0104 13.9694 50.1087 13.9473 50.2085 13.9385C50.3249 13.9191 50.4423 13.9065 50.5602 13.9008C50.7157 13.886 50.8719 13.8797 51.0281 13.882C51.9332 13.897 52.8313 14.044 53.6939 14.3184C54.5567 14.5834 55.3835 14.9535 56.1557 15.4206C56.3911 15.5615 56.6176 15.7167 56.8339 15.8853C56.9143 15.9418 56.9871 16.0083 57.0506 16.0831Z" fill="#263238"/>
<g opacity="0.3">
<path opacity="0.3" d="M51.2451 14.3844C49.5556 14.243 47.8582 14.5408 46.3177 15.2488C44.7772 15.9569 43.446 17.0512 42.4531 18.4255L44.9212 18.6924C46.1081 16.2841 48.5573 14.5005 51.2451 14.3844Z" fill="white"/>
</g>
<g opacity="0.3">
<path opacity="0.3" d="M53.9043 13.4769C53.5265 13.3485 53.1288 13.289 52.73 13.3011C52.3361 13.3662 51.9573 13.5024 51.6121 13.703C51.5964 13.703 51.6844 13.5711 51.8728 13.4392C52.1239 13.2711 52.4126 13.1677 52.7134 13.1381C53.0141 13.1085 53.3175 13.1537 53.5966 13.2697C53.807 13.3639 53.9137 13.4581 53.9043 13.4769Z" fill="white"/>
</g>
<g opacity="0.3">
<path opacity="0.3" d="M24.3573 53.0283C24.3258 52.9712 24.2995 52.9113 24.2788 52.8493L24.081 52.325C23.972 52.0507 23.8777 51.7708 23.7984 51.4866C23.7042 51.1537 23.5723 50.7801 23.4844 50.353C23.3965 49.926 23.2709 49.4644 23.1924 48.9589C23.1139 48.4533 23.0354 47.9101 22.9726 47.3355C22.8685 46.089 22.8685 44.836 22.9726 43.5895C23.0901 42.3431 23.3128 41.1089 23.6383 39.9C23.7984 39.3473 23.9523 38.8198 24.1344 38.33C24.3165 37.8401 24.4923 37.4068 24.665 37.0049C24.8377 36.603 25.0199 36.2576 25.1706 35.9467C25.3213 35.6359 25.4689 35.3752 25.5945 35.168L25.8834 34.6844C25.9141 34.628 25.9498 34.5744 25.9901 34.5243C25.9714 34.5869 25.945 34.6471 25.9116 34.7033L25.651 35.1963C25.5348 35.4098 25.3935 35.6704 25.2522 35.9875C25.1109 36.3047 24.9382 36.6469 24.7718 37.052C24.6054 37.4571 24.4201 37.8904 24.2631 38.3739C24.1061 38.8575 23.9491 39.3756 23.7827 39.9439C23.1373 42.3479 22.9184 44.8465 23.1359 47.3261C23.1955 47.8944 23.2458 48.4376 23.34 48.9369C23.4342 49.4362 23.5158 49.9072 23.61 50.3279C23.7042 50.7487 23.811 51.1286 23.8989 51.4615C23.9868 51.7943 24.0747 52.0895 24.1532 52.3092L24.3228 52.8399C24.3425 52.9009 24.3541 52.9643 24.3573 53.0283Z" fill="white"/>
</g>
<path d="M53.7917 26.69C53.7239 26.6716 53.6586 26.6452 53.597 26.6115L53.0663 26.3384L52.6801 26.15L52.206 25.949L51.6628 25.7198L51.0348 25.4937C48.7541 24.6846 46.363 24.2293 43.9446 24.1435C43.3167 24.117 42.6879 24.1233 42.0606 24.1623C40.9592 24.1971 39.865 24.3541 38.7982 24.6302C37.9407 24.8349 37.0957 25.0886 36.2673 25.3901C35.7074 25.5848 35.1581 25.8091 34.622 26.062C34.2515 26.241 34.0536 26.3509 34.0474 26.3384C34.09 26.3031 34.1363 26.2726 34.1855 26.2473C34.2766 26.1908 34.4116 26.106 34.5969 26.0118C35.1168 25.736 35.6537 25.4938 36.2045 25.2865C37.0331 24.9697 37.8804 24.7044 38.7417 24.492C39.2315 24.3664 39.7548 24.2618 40.3117 24.178C40.8833 24.0792 41.4617 24.0246 42.0418 24.0148C42.6804 23.9727 43.3209 23.9654 43.9603 23.9928C46.394 24.0763 48.7985 24.5502 51.0819 25.3964L51.7099 25.635L52.2531 25.8799L52.7209 26.0903C52.8654 26.1625 52.991 26.2347 53.1072 26.2944L53.6315 26.5801C53.6874 26.6131 53.7409 26.6498 53.7917 26.69Z" fill="#263238"/>
<path d="M37.8435 21.4525C37.6331 21.6045 37.3937 21.7114 37.1401 21.7665C36.9033 21.8687 36.6475 21.919 36.3896 21.9141C36.5995 21.7612 36.8391 21.6543 37.093 21.6001C37.3298 21.498 37.5857 21.4477 37.8435 21.4525Z" fill="#263238"/>
<path d="M17.3268 26.376C17.0086 25.8709 16.8656 25.2751 16.92 24.6806C16.9744 24.0861 17.2231 23.5261 17.6277 23.0872C18.0324 22.6482 18.5703 22.3548 19.1584 22.2523C19.7465 22.1498 20.352 22.2439 20.8813 22.5201L17.3268 26.376Z" fill="#E50019"/>
<path d="M17.6562 37.7585C17.6562 37.7585 12.5788 30.6967 18.8902 24.0148C25.2016 17.3328 32.433 21.6974 32.433 21.6974L17.6562 37.7585Z" fill="#E50019"/>
<path d="M32.5245 21.7006C33.3786 22.4887 30.7441 26.7246 26.6433 31.1614C22.5424 35.5982 18.5264 38.5592 17.6754 37.7711C16.8245 36.983 19.4684 32.7471 23.5504 28.3103C27.6324 23.8735 31.6736 20.9124 32.5245 21.7006Z" fill="#263238"/>
<path d="M22.4575 29.5349L26.2663 32.8193L28.0938 30.5962L24.5174 27.2929L22.4575 29.5349Z" fill="#E50019"/>
<g opacity="0.3">
<path opacity="0.3" d="M17.8979 37.8778C17.8979 37.8778 20.7459 33.3029 21.848 31.9119C22.9502 30.5208 27.1201 25.9207 28.7184 24.5643C30.3166 23.2078 32.6999 22.1904 32.6999 22.1904L32.6402 21.845L32.5523 21.7131C32.5523 21.7131 32.1347 21.2453 30.7908 22.0554C29.6164 22.7619 24.8813 26.0149 20.8495 31.4754C16.8178 36.9358 17.4206 37.611 17.7598 37.8716" fill="black"/>
</g>
<path d="M21.9804 21.5404C21.9804 21.5655 21.6099 21.7539 21.0384 22.1276C20.293 22.6151 19.6005 23.1792 18.9723 23.8106C18.3407 24.4384 17.792 25.1444 17.3395 25.9113C16.9972 26.5016 16.8559 26.9035 16.8276 26.8941C16.8414 26.7949 16.8678 26.6978 16.9061 26.6052C16.9426 26.498 16.9856 26.3932 17.0349 26.2912C17.0946 26.1476 17.1616 26.0072 17.2358 25.8705C17.6671 25.0757 18.213 24.3489 18.8561 23.7133C19.4909 23.072 20.2028 22.5119 20.9756 22.0459C21.2085 21.9022 21.4509 21.7742 21.7009 21.6629C21.7881 21.6095 21.8821 21.5683 21.9804 21.5404Z" fill="#263238"/>
<path d="M29.7896 28.976C29.7896 28.9979 29.441 29.29 28.879 29.8238C28.1501 30.5018 27.4663 31.2266 26.8317 31.9935C26.1999 32.763 25.6358 33.5856 25.1455 34.4521C24.7687 35.1178 24.5803 35.5543 24.5552 35.5417C24.5784 35.4332 24.6142 35.3278 24.6619 35.2277C24.7734 34.9447 24.9003 34.6679 25.0419 34.3987C25.5087 33.5064 26.0664 32.6646 26.7061 31.8867C27.3441 31.1116 28.0457 30.3911 28.8036 29.7327C29.0925 29.4815 29.3374 29.2868 29.5101 29.1612C29.5946 29.0872 29.6885 29.0249 29.7896 28.976Z" fill="#263238"/>
<g opacity="0.3">
<path opacity="0.3" d="M18.0584 25.5188C17.1467 26.95 16.6205 28.5926 16.5308 30.2871C16.4412 31.9816 16.7911 33.6706 17.5465 35.19L18.9313 33.127C17.3519 30.951 16.9123 27.946 18.0584 25.5188Z" fill="white"/>
</g>
<g opacity="0.3">
<path opacity="0.3" d="M18.0929 23.0225C17.8044 23.2983 17.5664 23.6224 17.3896 23.9802C17.266 24.36 17.2107 24.7586 17.2263 25.1577C17.2074 25.1577 17.1446 25.0352 17.1164 24.806C17.0834 24.5052 17.1255 24.2009 17.2389 23.9203C17.3524 23.6398 17.5336 23.3917 17.7664 23.1983C17.9453 23.057 18.0804 23.0068 18.0929 23.0225Z" fill="white"/>
</g>
<path d="M60.2472 47.6872C59.7982 47.6307 59.4434 47.5177 59.4528 47.436C59.4622 47.3544 59.8359 47.323 60.2849 47.367C60.7339 47.4109 61.0888 47.5271 61.0793 47.6213C61.0699 47.7155 60.6963 47.7437 60.2472 47.6872Z" fill="#263238"/>
<path d="M53.9046 58.853C53.6252 58.4951 53.4556 58.1654 53.5215 58.112C53.5875 58.0586 53.8701 58.3035 54.1495 58.6521C54.429 59.0006 54.6049 59.3334 54.5326 59.3931C54.4604 59.4528 54.1809 59.2078 53.9046 58.853Z" fill="#263238"/>
<path d="M41.5202 62.2631C41.5767 61.8141 41.6898 61.4593 41.7745 61.4687C41.8593 61.4781 41.8876 61.8486 41.8405 62.2976C41.7934 62.7467 41.6803 63.1015 41.5861 63.092C41.492 63.0826 41.4637 62.709 41.5202 62.2631Z" fill="#263238"/>
<path d="M30.3578 55.9171C30.7127 55.6408 31.0455 55.4681 31.0957 55.5341C31.146 55.6 30.9073 55.8826 30.5557 56.1621C30.204 56.4415 29.8743 56.6174 29.8146 56.5452C29.755 56.4729 29.9999 56.206 30.3578 55.9171Z" fill="#263238"/>
<path d="M26.9475 43.5361C27.3965 43.5927 27.7514 43.7057 27.7419 43.7874C27.7325 43.869 27.3589 43.9004 26.9098 43.8533C26.4608 43.8062 26.106 43.6932 26.1154 43.6021C26.1248 43.511 26.4985 43.4796 26.9475 43.5361Z" fill="#263238"/>
<path d="M33.2844 32.3703C33.5638 32.7282 33.7334 33.058 33.6675 33.1113C33.6015 33.1647 33.3189 32.9198 33.0395 32.5713C32.76 32.2227 32.5842 31.8867 32.6564 31.8302C32.7286 31.7737 33.0143 32.028 33.2844 32.3703Z" fill="#263238"/>
<path d="M45.6745 28.9603C45.618 29.4093 45.5049 29.7641 45.4202 29.7547C45.3354 29.7453 45.3071 29.3747 45.3542 28.9257C45.4013 28.4767 45.5144 28.1187 45.6086 28.1313C45.7028 28.1439 45.731 28.5144 45.6745 28.9603Z" fill="#263238"/>
<path d="M56.8339 35.3062C56.4791 35.5825 56.1463 35.752 56.096 35.6892C56.0458 35.6264 56.2844 35.3376 56.6361 35.0612C56.9878 34.7849 57.3175 34.6028 57.3771 34.6782C57.4368 34.7535 57.195 35.0298 56.8339 35.3062Z" fill="#263238"/>
<path d="M16.9939 19.9327C16.9679 19.9784 16.9362 20.0206 16.8997 20.0583L16.6045 20.41C16.4458 20.5823 16.2959 20.7626 16.1555 20.9501C15.9891 21.1699 15.7818 21.4085 15.5966 21.6974L15.2826 22.1464C15.179 22.3034 15.0848 22.4761 14.9686 22.6488C14.7488 22.9942 14.5635 23.3867 14.3406 23.7918C13.9207 24.6891 13.5823 25.6223 13.3295 26.5801C13.1039 27.5445 12.9642 28.527 12.9119 29.516C12.9119 29.9713 12.8773 30.4046 12.9119 30.8128C12.9119 31.0138 12.9119 31.2116 12.937 31.4C12.9621 31.5884 12.9747 31.7674 12.9904 31.9401C13.0155 32.2855 13.0814 32.5901 13.1223 32.8633C13.1555 33.0959 13.2016 33.3265 13.2604 33.5541L13.3546 33.9905C13.3692 34.0416 13.3766 34.0944 13.3766 34.1475C13.3514 34.1013 13.3334 34.0516 13.3232 33.9999L13.1976 33.5698C13.1276 33.3432 13.072 33.1125 13.0312 32.879C12.9639 32.5678 12.9125 32.2534 12.8773 31.937C12.8554 31.7643 12.8334 31.5821 12.8114 31.3937C12.7894 31.2053 12.7863 31.0075 12.7737 30.8003C12.7423 30.3921 12.7737 29.9525 12.7737 29.4909C12.8169 28.4929 12.9557 27.5014 13.1882 26.5299C13.4448 25.5577 13.7917 24.6115 14.2244 23.7039C14.4379 23.2957 14.6326 22.9032 14.8524 22.5578C14.9592 22.3851 15.0565 22.2124 15.1664 22.0554L15.4804 21.6095C15.6751 21.3206 15.8886 21.0851 16.0613 20.8716C16.2092 20.6869 16.3675 20.5108 16.5354 20.3441C16.6642 20.2185 16.7678 20.1117 16.8494 20.0301C16.8931 19.9914 16.9417 19.9587 16.9939 19.9327Z" fill="#263238"/>
<path d="M12.1394 24.6898C12.1834 24.7118 11.8819 25.3492 11.6433 26.175C11.4046 27.0009 11.3293 27.7011 11.2665 27.6979C11.2358 27.1652 11.3105 26.6317 11.4863 26.1279C11.6087 25.6107 11.8305 25.1223 12.1394 24.6898Z" fill="#263238"/>
<path d="M65.1993 22.8498C65.1447 22.6916 65.1047 22.5287 65.08 22.3631C65.0486 22.2061 65.0109 22.0146 64.9481 21.7948C64.8853 21.575 64.8351 21.3206 64.744 21.0474C64.6529 20.7743 64.5682 20.476 64.43 20.162C64.2918 19.848 64.1725 19.5151 64.0218 19.1697C63.675 18.4252 63.272 17.7082 62.816 17.0251C62.3502 16.3504 61.8349 15.7112 61.2743 15.1128C61.0043 14.8459 60.7562 14.5853 60.5019 14.3655C60.2475 14.1457 60.012 13.9385 59.7891 13.7595C59.5661 13.5805 59.3558 13.4455 59.1611 13.2916C58.9664 13.1378 58.8157 13.0467 58.6807 12.9588C58.5359 12.8754 58.3993 12.7786 58.2725 12.6699C58.4247 12.7373 58.5716 12.8161 58.7121 12.9054C58.8839 13.0013 59.0505 13.1061 59.2113 13.2194C59.3997 13.3513 59.6227 13.4895 59.8393 13.6716C60.056 13.8537 60.3197 14.039 60.5709 14.2682C60.8221 14.4974 61.0859 14.7455 61.3591 15.0124C61.9341 15.6101 62.4591 16.2538 62.9291 16.9372C63.3885 17.6281 63.7917 18.3547 64.1348 19.1101C64.2824 19.4617 64.43 19.7946 64.5336 20.118C64.6372 20.4414 64.7409 20.746 64.8162 21.0192C64.8916 21.2924 64.9512 21.553 65.0015 21.7759C65.0517 21.9989 65.0831 22.1967 65.1051 22.3568C65.1496 22.5184 65.1811 22.6832 65.1993 22.8498Z" fill="#263238"/>
<path d="M65.3968 19.5465C65.3073 19.0929 65.1835 18.6468 65.0263 18.212C64.8182 17.7964 64.58 17.3965 64.3135 17.0157C64.7107 17.296 65.0122 17.6918 65.177 18.1492C65.3905 18.5818 65.4672 19.0692 65.3968 19.5465Z" fill="#263238"/>
<path d="M32.0845 66.612C32.0238 66.602 31.9647 66.5841 31.9087 66.5586L31.4094 66.3765C31.1464 66.2858 30.8886 66.181 30.637 66.0625C30.3387 65.9243 30.009 65.7799 29.6353 65.5758L29.067 65.2618C28.8691 65.155 28.6745 65.0231 28.4672 64.8975C28.0496 64.6495 27.632 64.3418 27.1861 64.0278C25.2777 62.6123 23.6434 60.8609 22.3631 58.8593C22.0805 58.3915 21.801 57.955 21.5843 57.5185C21.4713 57.305 21.3551 57.1009 21.2703 56.8906C21.1856 56.6802 21.0882 56.4886 21.0003 56.3002C20.8213 55.9297 20.702 55.5749 20.5827 55.2703C20.4788 55.0104 20.3887 54.7453 20.3126 54.4759L20.1619 53.9641C20.1433 53.9057 20.1296 53.8458 20.1211 53.7851C20.1534 53.8378 20.1777 53.8949 20.1933 53.9547L20.3723 54.4539C20.4445 54.6737 20.5387 54.9375 20.6675 55.2358C20.7962 55.5341 20.9218 55.8858 21.1071 56.2531C21.195 56.4384 21.286 56.6331 21.3834 56.834C21.4807 57.035 21.6 57.236 21.7131 57.462C21.9329 57.8891 22.2155 58.3224 22.4981 58.784C23.1453 59.7588 23.8676 60.6816 24.6584 61.544C25.4674 62.3973 26.3431 63.1848 27.2772 63.899C27.7168 64.213 28.1281 64.527 28.5332 64.7751C28.7373 64.9038 28.9288 65.0357 29.1235 65.1487L29.6855 65.4627C30.0372 65.6731 30.3763 65.8238 30.6684 65.9714C30.9604 66.119 31.2147 66.232 31.4282 66.32L31.9118 66.5335C31.9718 66.5539 32.0297 66.5802 32.0845 66.612Z" fill="#263238"/>
<path d="M24.9316 65.3529C24.2575 64.8034 23.6178 64.213 23.0162 63.585C22.377 62.995 21.7751 62.3658 21.2139 61.701C21.8896 62.2486 22.5294 62.8391 23.1293 63.4689C23.7685 64.0589 24.3704 64.6881 24.9316 65.3529Z" fill="#263238"/>
<path d="M66.8823 36.3455C66.9201 36.4016 66.9516 36.4616 66.9765 36.5245L67.2152 37.052C67.3219 37.2812 67.4444 37.5638 67.5637 37.8998C67.683 38.2358 67.8432 38.6126 67.9688 39.0428L68.1823 39.7179C68.2545 39.9534 68.311 40.2014 68.3801 40.4589C68.5245 40.9676 68.6282 41.5234 68.7475 42.1074C69.216 44.6529 69.2838 47.256 68.9484 49.8224C68.8574 50.4096 68.782 50.9716 68.6658 51.4866C68.6093 51.7472 68.5685 51.9984 68.5057 52.2371C68.4429 52.4757 68.3864 52.7018 68.3299 52.9216C68.2262 53.358 68.0912 53.7443 67.9845 54.0834C67.8777 54.4225 67.7741 54.7114 67.6705 54.9469L67.4601 55.487C67.4381 55.5504 67.4097 55.6114 67.3753 55.6691C67.3852 55.6023 67.4031 55.5369 67.4287 55.4744L67.6108 54.928C67.6956 54.6894 67.7929 54.4005 67.8871 54.0583C67.9813 53.716 68.1132 53.3298 68.2011 52.8902C68.2545 52.6735 68.311 52.4443 68.3675 52.2088C68.4241 51.9733 68.4649 51.719 68.5183 51.4615C68.6282 50.9465 68.6972 50.3876 68.782 49.8036C68.9341 48.5284 68.997 47.2441 68.9704 45.9602C68.9295 44.677 68.8005 43.3981 68.5842 42.1325C68.468 41.5516 68.3707 40.999 68.2325 40.4903C68.1666 40.236 68.1132 39.9879 68.0441 39.7524C67.975 39.5169 67.9091 39.294 67.8432 39.0773C67.7238 38.6471 67.5763 38.2672 67.4632 37.9312C67.3502 37.5952 67.2371 37.3032 67.1492 37.0771C67.0613 36.8511 66.9954 36.6784 66.9388 36.5402C66.9119 36.4779 66.8929 36.4125 66.8823 36.3455Z" fill="#263238"/>
<path d="M70.6503 41.7181C70.6988 41.8239 70.7326 41.9359 70.7507 42.0509C70.8041 42.2644 70.8701 42.5816 70.936 42.9709C71.2762 45.0214 71.2709 47.1143 70.9203 49.163C70.8544 49.5555 70.7884 49.8695 70.7319 50.0862C70.7104 50.1994 70.6767 50.3099 70.6314 50.4159C70.6032 50.4159 70.7005 49.9292 70.8073 49.1599C70.9463 48.1389 71.0187 47.1099 71.0239 46.0795C71.0246 45.0505 70.9575 44.0225 70.823 43.0023C70.7068 42.2048 70.6126 41.7244 70.6503 41.7181Z" fill="#263238"/>
<path d="M34.5117 22.5075C34.5117 22.5075 34.3547 22.4165 34.1977 22.1778C34.002 21.8635 33.9108 21.4953 33.937 21.1259C33.9618 20.7551 34.1024 20.4014 34.339 20.1148C34.5179 19.9013 34.6749 19.8008 34.6875 19.8322C34.7001 19.8636 34.5776 19.9641 34.43 20.1839C34.2341 20.4651 34.1186 20.7944 34.0959 21.1363C34.0732 21.4782 34.1442 21.8199 34.3013 22.1244C34.4206 22.3599 34.5399 22.4887 34.5117 22.5075Z" fill="#263238"/>
<path d="M39.1686 21.889C39.274 21.5481 39.3393 21.1962 39.3633 20.8402C39.3351 20.483 39.2667 20.1301 39.1592 19.7883C39.178 19.7883 39.2659 19.8731 39.3539 20.0584C39.4687 20.3019 39.5277 20.5679 39.5266 20.8371C39.5313 21.107 39.4744 21.3744 39.3601 21.6189C39.2722 21.8073 39.1843 21.9015 39.1686 21.889Z" fill="#263238"/>
<path d="M28.8692 23.3773C28.7659 23.4835 28.6523 23.5792 28.5301 23.6631C28.3071 23.8358 27.9869 24.0932 27.5881 24.4167C26.5755 25.2633 25.6081 26.1626 24.6899 27.1108C23.6128 28.2192 22.6928 29.2774 22.0334 30.0498L21.2578 30.9667C21.164 31.0817 21.0588 31.1869 20.9438 31.2807C21.0151 31.1509 21.0981 31.0279 21.1919 30.9133C21.3615 30.6872 21.6127 30.3607 21.9298 29.9713C22.5578 29.18 23.4747 28.1062 24.558 26.9946C25.4783 26.0395 26.4612 25.1468 27.5002 24.3225C27.9021 24.0085 28.2318 23.7635 28.4673 23.6065C28.5935 23.5172 28.7281 23.4404 28.8692 23.3773Z" fill="#263238"/>
<path d="M56.9471 22.3097C56.8391 22.2923 56.7337 22.2617 56.6331 22.2186L55.7791 21.9266C55.0537 21.6754 54.0552 21.3394 52.953 21.0035C51.8509 20.6675 50.8147 20.4069 50.0674 20.2373C49.3201 20.0677 48.8616 19.9767 48.8648 19.9516C48.9763 19.9438 49.0884 19.9523 49.1976 19.9767C49.4111 20.0018 49.7157 20.052 50.0925 20.1243C50.8461 20.2656 51.8792 20.5136 52.997 20.8465C54.1149 21.1793 55.1165 21.5404 55.823 21.8167C56.181 21.9549 56.4667 22.0742 56.6645 22.159C56.7638 22.1991 56.8585 22.2496 56.9471 22.3097Z" fill="#263238"/>
<path d="M34.0784 40.5939C34.1928 40.3295 34.365 40.0941 34.5824 39.905C34.7997 39.7159 35.0567 39.5779 35.3344 39.5012C35.9373 39.3086 36.3047 39.4206 36.4365 39.8372C36.5238 40.1058 36.54 40.3925 36.4836 40.6693C36.4248 40.9426 36.3069 41.1998 36.1382 41.4229C35.7686 41.8787 35.3157 42.2601 34.8037 42.547C35.0518 43.825 35.1177 44.7732 35.011 45.3918C35.7415 45.4044 36.2314 45.4044 36.4805 45.3918C36.7365 45.3773 36.9896 45.3309 37.2341 45.2537C37.346 45.2283 37.4469 45.1681 37.5225 45.0818C37.5981 44.9955 37.6444 44.8875 37.6549 44.7732C37.6831 44.5377 37.7177 44.4121 37.7616 44.3996C37.8056 44.387 37.9061 44.3996 37.9406 44.5189C37.9935 44.6801 38.0119 44.8506 37.9946 45.0194C37.9773 45.1882 37.9247 45.3515 37.8401 45.4986C37.6953 45.7872 37.4426 46.0072 37.1368 46.1109C36.8583 46.2059 36.5635 46.2433 36.2701 46.2208L35.7489 46.1768L35.2967 46.1172L34.8226 46.0575C34.7258 46.2473 34.5903 46.4146 34.4248 46.5488C34.2593 46.6829 34.0674 46.7808 33.8617 46.8362C33.7701 46.8657 33.6735 46.8767 33.5776 46.8686C33.4816 46.8605 33.3882 46.8335 33.3028 46.7891C33.216 46.7496 33.1384 46.6923 33.0751 46.6209C33.0118 46.5495 32.9642 46.4656 32.9354 46.3746C32.8035 45.9664 32.9731 45.687 33.4378 45.5394C33.7258 45.4622 34.0221 45.42 34.3202 45.4138C34.2777 44.5802 34.1727 43.7511 34.0062 42.9332C33.9308 42.9646 33.8241 43.0023 33.6922 43.0462C33.5603 43.0902 33.4881 43.0871 33.4724 43.0462C33.4315 42.9112 33.5886 42.7668 33.9497 42.6098C33.7907 41.94 33.8356 41.238 34.0784 40.5939ZM34.2322 45.9947C33.9497 45.9505 33.6626 45.9431 33.3782 45.9727C33.3573 45.9763 33.3375 45.9847 33.3205 45.9974C33.3035 46.01 33.2897 46.0265 33.2802 46.0454C33.2707 46.0644 33.2659 46.0853 33.266 46.1065C33.2661 46.1277 33.2712 46.1485 33.2808 46.1674C33.2974 46.218 33.3257 46.264 33.3633 46.3016C33.4009 46.3392 33.4469 46.3675 33.4975 46.3841C33.6214 46.4281 33.7567 46.4281 33.8806 46.3841C33.9626 46.3476 34.0359 46.294 34.0955 46.2268C34.1551 46.1597 34.1996 46.0805 34.226 45.9947H34.2322ZM35.7049 41.3538C35.8119 41.1976 35.8807 41.0185 35.9057 40.8309C35.9308 40.6433 35.9115 40.4524 35.8493 40.2736C35.7269 39.8843 35.5354 39.7335 35.2685 39.8183C34.6886 40.0046 34.5107 40.8074 34.7347 42.2267C35.1208 42.014 35.4527 41.7153 35.7049 41.3538Z" fill="#263238"/>
<path d="M37.8806 44.5252L37.5666 43.3006C37.3216 42.5344 37.2243 42.1042 37.2745 42.01C37.3582 41.8577 37.4516 41.7109 37.554 41.5704C37.6922 41.3726 37.8021 41.2564 37.868 41.2344C37.9339 41.2125 38.0093 41.2062 38.0376 41.2344C38.0826 41.2788 38.1133 41.3357 38.1255 41.3977C38.2243 41.7207 38.2563 42.0605 38.2197 42.3962C38.2948 42.9624 38.4134 43.5219 38.5745 44.0699C38.7095 44.4906 38.8445 44.6822 38.9827 44.6382C39.1209 44.5942 39.2967 44.3807 39.4254 44.0102C39.5781 43.5269 39.6647 43.0252 39.6829 42.5187C39.5721 42.1238 39.5006 41.7188 39.4694 41.3098C39.5234 41.1698 39.5885 41.0344 39.6641 40.9047C39.7247 40.7546 39.8358 40.6303 39.9781 40.5531C40.0817 40.5217 40.179 40.641 40.2638 40.911C40.3019 41.055 40.3272 41.2021 40.3392 41.3506C40.3639 41.514 40.3639 41.6802 40.3392 41.8436C40.3235 42.0697 40.4836 42.7008 40.8133 43.7276C40.8761 43.9223 40.9295 44.0102 40.9703 43.9976C41.0896 43.9505 41.209 43.7464 41.3314 43.3696C41.4662 42.9306 41.5577 42.4794 41.6046 42.0226C41.6075 41.7406 41.6629 41.4616 41.7679 41.1999C41.815 41.1999 41.8464 41.1999 41.8652 41.2658C41.9351 41.6141 41.9351 41.9727 41.8652 42.3209C41.6831 43.7025 41.4005 44.4561 41.0111 44.5817C40.7916 44.6682 40.5494 44.6781 40.3235 44.6099C40.2575 44.5754 40.1822 44.431 40.1005 44.1735C40.0189 43.916 39.9561 43.646 39.8776 43.332C39.8304 43.7893 39.7184 44.2376 39.5448 44.6633C39.4891 44.8087 39.4024 44.9403 39.2907 45.0487C39.1789 45.1572 39.0449 45.24 38.8979 45.2913C38.7986 45.3399 38.6883 45.3614 38.578 45.3537C38.4678 45.346 38.3615 45.3093 38.2699 45.2474C38.0797 45.0444 37.9456 44.7956 37.8806 44.5252Z" fill="#263238"/>
<path d="M42.7511 43.3602L42.8705 43.6742C42.9333 43.8836 42.9081 44.0029 42.7951 44.0322C42.627 44.0843 42.4528 44.1138 42.277 44.1201C42.1043 44.1201 42.0038 44.0824 41.9787 44.0008C41.9536 43.9192 41.8814 43.6303 41.7683 43.1342C41.6553 42.638 41.5579 42.2675 41.4794 42.0257L41.2785 41.3977C41.1825 41.1921 41.1497 40.9626 41.1843 40.7384C41.2703 40.5887 41.3646 40.444 41.4669 40.305C41.6082 40.1104 41.7181 39.991 41.7997 39.991C41.8814 39.991 41.9379 39.9628 41.9693 39.991C42.012 40.0317 42.0415 40.0842 42.0541 40.1418C42.1732 40.5102 42.2159 40.8991 42.1797 41.2847C42.2739 41.7023 42.3461 41.9912 42.3963 42.1482C42.3963 42.098 42.4842 41.8059 42.6161 41.2753C42.7085 40.8654 42.8356 40.4641 42.9961 40.0758C43.0651 39.8696 43.213 39.6991 43.4074 39.6017C43.5556 39.5525 43.7168 39.5604 43.8596 39.6237C43.9294 39.65 43.9924 39.692 44.0435 39.7465C44.0947 39.8009 44.1327 39.8663 44.1547 39.9377C44.2935 40.4066 44.4077 40.8824 44.497 41.3632C44.6257 41.9912 44.7136 42.3931 44.767 42.5533C44.8204 42.7134 44.8644 42.7888 44.9083 42.7762C45.0276 42.7291 45.147 42.525 45.2663 42.1482C45.3967 41.715 45.485 41.2702 45.53 40.82C45.5928 40.2862 45.6493 40.013 45.6964 39.9973C45.7435 39.9816 45.7749 39.9973 45.7938 40.0601C45.86 40.4087 45.86 40.7666 45.7938 41.1151C45.6117 42.5009 45.327 43.2545 44.9397 43.3759C44.7197 43.4647 44.476 43.4758 44.2489 43.4073C44.184 43.3739 44.1181 43.2514 44.0511 43.04C43.982 42.8296 43.8941 42.4779 43.7811 41.9881C43.668 41.4982 43.5738 41.1371 43.4985 40.9016C43.4231 40.6661 43.3446 40.5594 43.263 40.5876C43.1813 40.6159 43.04 40.9267 42.8453 41.5296C42.7015 41.8864 42.6146 42.2637 42.5879 42.6475C42.6234 42.889 42.678 43.1273 42.7511 43.3602Z" fill="#263238"/>
<path d="M47.175 39.7147L47.0871 39.1401C47.0631 39.0612 47.0119 38.9933 46.9426 38.9486C46.9112 38.9249 46.8744 38.9093 46.8355 38.9033C46.7966 38.8973 46.7568 38.901 46.7197 38.914C46.4528 38.9988 46.2864 39.2688 46.2204 39.7273C46.1513 40.14 46.1771 40.5631 46.2958 40.9644C46.3803 41.2812 46.5574 41.5655 46.8045 41.7808C46.8913 41.862 46.9977 41.9194 47.1132 41.9475C47.2287 41.9755 47.3495 41.9733 47.4639 41.941C47.6707 41.8792 47.8572 41.7632 48.004 41.605C48.1513 41.4341 48.2653 41.2371 48.3399 41.0241C48.5183 40.5102 48.6343 39.9768 48.6853 39.4353C48.6853 39.2877 48.7167 39.1809 48.7293 39.1213C48.7419 39.0616 48.7701 39.0145 48.8078 39.002C48.8455 38.9894 48.8769 39.002 48.8957 39.0679C48.9751 39.3761 48.9826 39.6983 48.9177 40.0099C48.858 40.3898 48.8015 40.6881 48.7481 40.8985C48.6832 41.1338 48.6003 41.3637 48.5001 41.5862C48.3951 41.8317 48.2375 42.0512 48.0384 42.2292C47.8392 42.4071 47.6035 42.5392 47.3477 42.6161C47.1724 42.6842 46.9828 42.7072 46.7963 42.6831C46.6098 42.659 46.4323 42.5884 46.2801 42.4779C45.9909 42.2759 45.7758 41.9848 45.6678 41.649C45.4082 40.8326 45.3873 40.1554 45.605 39.6174C45.6996 39.3626 45.8521 39.1333 46.0504 38.9475C46.2488 38.7617 46.4876 38.6245 46.748 38.5467C46.941 38.4724 47.1547 38.4724 47.3477 38.5467C47.421 38.5779 47.4868 38.6242 47.541 38.6827C47.5951 38.7411 47.6362 38.8103 47.6617 38.8858C47.7484 39.099 47.766 39.334 47.7119 39.5577C47.6902 39.6322 47.6501 39.7001 47.5952 39.755C47.5403 39.8099 47.4725 39.85 47.3979 39.8717C47.3006 39.9 47.219 39.8498 47.175 39.7147Z" fill="#263238"/>
<path d="M49.8632 41.0932L49.9825 41.4072C50.0453 41.6081 50.0202 41.7212 49.904 41.762C49.7379 41.8173 49.5642 41.847 49.3891 41.8499C49.2164 41.8499 49.1159 41.8154 49.0908 41.7337C49.0657 41.6521 48.9934 41.3632 48.8804 40.8671C48.7674 40.371 48.6669 40.0004 48.5915 39.7555L48.3906 39.1275C47.8065 37.2938 47.7605 36.0221 48.2524 35.3124C48.3504 35.1658 48.4938 35.0555 48.6606 34.9984C48.7328 34.9733 48.827 35.0298 48.9495 35.1648C49.0938 35.3331 49.2008 35.53 49.2635 35.7426C49.456 36.3327 49.5369 36.9535 49.5021 37.5732C49.4851 38.0599 49.4049 38.5422 49.2635 39.0082C49.3137 39.1903 49.3985 39.4729 49.5178 39.8497C49.5335 39.7995 49.6057 39.5075 49.7376 38.9768C49.8286 38.5665 49.9557 38.1651 50.1176 37.7773C50.2432 37.5104 50.3782 37.3503 50.5289 37.3032C50.6771 37.254 50.8383 37.2619 50.9811 37.3252C51.0506 37.3521 51.1132 37.3943 51.1643 37.4487C51.2153 37.503 51.2536 37.5681 51.2762 37.6392C51.4155 38.1069 51.5297 38.5817 51.6185 39.0616C51.7472 39.6896 51.8351 40.0946 51.8854 40.2548C51.9356 40.4149 51.9859 40.4903 52.0267 40.4777C52.1491 40.4306 52.2685 40.2234 52.3878 39.8497C52.522 39.4105 52.6135 38.9594 52.661 38.5027C52.7238 37.9689 52.7803 37.6957 52.8274 37.68C52.8745 37.6643 52.9059 37.68 52.9247 37.7428C52.9924 38.0912 52.9924 38.4494 52.9247 38.7978C52.7426 40.1836 52.459 40.9372 52.0738 41.0586C51.8538 41.1474 51.6101 41.1585 51.383 41.09C51.316 41.0565 51.2501 40.9341 51.1852 40.7226C51.1161 40.5091 51.025 40.1606 50.9151 39.6707C50.8052 39.1809 50.7079 38.8198 50.6325 38.5843C50.5572 38.3488 50.4787 38.242 50.397 38.2703C50.3154 38.2986 50.1741 38.6126 49.9794 39.2123C49.8355 39.5691 49.7486 39.9463 49.7219 40.3301C49.7476 40.588 49.7948 40.8432 49.8632 41.0932ZM49.0374 36.0911C48.9432 35.7771 48.8553 35.6515 48.7768 35.6767C48.648 35.7175 48.648 36.1571 48.7768 36.9892C48.849 37.4319 48.9558 37.9312 49.1065 38.5058C49.2592 37.7055 49.2357 36.8814 49.0374 36.0911Z" fill="#263238"/>
<path d="M34.4645 50.3844L32.4517 51.0124L31.9839 49.5429L37.8525 47.6589L38.3235 49.1284L36.3202 49.7564L37.9405 54.8401L36.0847 55.4335L34.4645 50.3844Z" fill="#263238"/>
<path d="M38.5464 47.4611L40.399 46.8708L42.4902 53.424L40.6376 54.0174L38.5464 47.4611Z" fill="#263238"/>
<path d="M49.7283 51.1161L48.601 47.6621L47.8191 51.0281L46.9933 51.2888L44.4468 49.0908L45.5301 52.4568L43.8156 53.0032L41.7275 46.45L43.2536 45.9633L46.761 49.0123L47.8034 44.5126L49.3295 44.0259L51.4364 50.5728L49.7283 51.1161Z" fill="#263238"/>
<path d="M57.5467 47.0466L58.0051 48.4784L52.7519 50.1552L50.6606 43.602L55.8008 41.963L56.2593 43.3948L52.9528 44.4498L53.3045 45.5551L56.2184 44.6131L56.6612 45.9979L53.7473 46.9399L54.1303 48.1393L57.5467 47.0466Z" fill="#263238"/>
<path d="M106.742 81.8944C108.98 70.7409 112.03 59.7657 115.866 49.0562L122.526 40.5248C125.393 39.765 128.546 41.0304 130.549 43.2158C132.552 45.4013 133.529 48.3654 133.852 51.3139C134.176 54.2624 133.906 57.2359 133.708 60.197C133.262 66.9354 133.202 73.7963 131.212 80.249C130.433 82.7798 129.233 85.3735 126.985 86.7708C124.589 88.2591 121.54 88.0707 118.752 87.6594C115.406 87.1656 112.101 86.4193 108.867 85.4268C108.076 85.1851 107.216 84.8679 106.817 84.1426C106.446 83.4706 106.591 82.6479 106.742 81.8944Z" fill="#263238"/>
<path d="M106.343 31.2022C110.607 30.7563 114.211 32.6183 117.618 35.2245C121.025 37.8307 123.474 41.5925 124.765 45.6839C126.125 49.9888 126.219 54.7459 124.686 58.9943C123.154 63.2427 119.945 66.9291 115.794 68.7283C110.142 71.165 103.171 69.7425 98.4988 65.7171C93.8265 61.6916 91.4118 55.3551 91.5719 49.2038C91.6818 44.9554 92.9724 40.685 95.566 37.3189C98.1597 33.9528 102.107 31.5664 106.343 31.2179" fill="#263238"/>
<path d="M117.436 46.3213C116.925 44.6665 117.279 42.8673 117.144 41.1528C116.849 37.3503 114.004 34.1381 110.591 32.4425C107.414 30.8725 103.404 30.9102 99.3877 31.9275C96.6371 32.6277 94.0026 33.9842 92.0621 36.0598C90.7842 37.4534 89.8582 39.1325 89.3617 40.957C88.8652 42.7815 88.8124 44.6983 89.2079 46.5474L108.66 44.9774C110.368 46.5882 112.114 48.2241 114.256 49.1975C114.869 49.5169 115.555 49.6716 116.246 49.6465C116.59 49.6261 116.92 49.5079 117.198 49.3059C117.476 49.1039 117.691 48.8266 117.816 48.5067C118.03 47.7845 117.644 47.0372 117.436 46.3213Z" fill="#263238"/>
<path d="M95.6321 89.3707C95.6321 89.3707 96.7751 76.3648 96.772 76.3962C96.7688 76.4276 89.9425 75.0837 88.7461 66.097C88.1527 61.6288 88.5609 54.3377 89.0852 48.3811C89.5594 43.0211 93.2834 36.5213 98.6214 37.2247L115.219 41.8688C116.002 41.9696 116.717 42.3613 117.224 42.9658C117.731 43.5702 117.992 44.3433 117.954 45.1312L115.094 77.4356L114.092 90.6612L95.6321 89.3707Z" fill="#FFBF9D"/>
<path d="M92.4323 56.0521C92.4219 56.3513 92.5287 56.6427 92.7298 56.8643C92.9309 57.086 93.2106 57.2204 93.5093 57.239C93.6551 57.2546 93.8025 57.2408 93.9428 57.1984C94.0831 57.156 94.2134 57.0858 94.3262 56.9921C94.4389 56.8985 94.5317 56.7831 94.599 56.6529C94.6664 56.5227 94.7069 56.3804 94.7182 56.2342C94.7286 55.9351 94.6219 55.6437 94.4208 55.4221C94.2197 55.2004 93.94 55.066 93.6412 55.0473C93.4955 55.0318 93.3481 55.0456 93.2078 55.088C93.0675 55.1304 92.9371 55.2006 92.8244 55.2942C92.7117 55.3879 92.6189 55.5033 92.5516 55.6335C92.4842 55.7636 92.4437 55.906 92.4323 56.0521Z" fill="#263238"/>
<path d="M90.5737 52.2182C90.7119 52.3689 91.5974 51.7504 92.8345 51.7818C94.0717 51.8132 94.9572 52.4569 95.0953 52.3093C95.1644 52.2465 95.0263 51.9702 94.6369 51.6813C94.1127 51.2961 93.4818 51.0833 92.8314 51.0721C92.189 51.053 91.5574 51.24 91.029 51.6059C90.6428 51.8823 90.5046 52.1491 90.5737 52.2182Z" fill="#263238"/>
<path d="M103.573 56.0521C103.563 56.3513 103.669 56.6427 103.87 56.8643C104.072 57.086 104.351 57.2204 104.65 57.239C104.796 57.2546 104.943 57.2408 105.083 57.1984C105.224 57.156 105.354 57.0858 105.467 56.9921C105.58 56.8985 105.672 56.7831 105.74 56.6529C105.807 56.5227 105.848 56.3804 105.859 56.2343C105.869 55.9356 105.763 55.6447 105.563 55.4231C105.362 55.2015 105.083 55.0667 104.785 55.0473C104.639 55.0318 104.492 55.0456 104.351 55.088C104.211 55.1303 104.08 55.2004 103.967 55.2941C103.854 55.3877 103.761 55.503 103.693 55.6332C103.626 55.7634 103.585 55.9059 103.573 56.0521Z" fill="#263238"/>
<path d="M102.455 52.0957C102.597 52.2496 103.482 51.6279 104.716 51.6624C105.95 51.697 106.842 52.3375 106.977 52.1899C107.046 52.124 106.908 51.8508 106.519 51.5619C105.994 51.1779 105.363 50.9661 104.713 50.9559C104.071 50.9374 103.44 51.1232 102.911 51.4866C102.525 51.7598 102.39 52.0267 102.455 52.0957Z" fill="#263238"/>
<path d="M97.9966 61.8015C97.9966 61.7293 97.2399 61.5786 95.9996 61.387C95.6856 61.3462 95.3716 61.2771 95.3402 61.073C95.3088 60.8689 95.4124 60.5078 95.5725 60.131C95.8865 59.3743 96.2194 58.583 96.5679 57.754C97.9495 54.366 98.9575 51.5777 98.8193 51.5243C98.6812 51.4709 97.4534 54.1713 96.0718 57.5562C95.739 58.3915 95.4187 59.189 95.1298 59.9489C95.0011 60.3069 94.7844 60.7088 94.9351 61.1829C94.9775 61.2954 95.0451 61.3966 95.1327 61.4788C95.2204 61.561 95.3257 61.622 95.4407 61.6571C95.6138 61.7103 95.7934 61.7399 95.9745 61.745C97.2116 61.858 97.9872 61.858 97.9966 61.8015Z" fill="#263238"/>
<path d="M96.7717 76.3962C100.984 76.5668 105.162 75.5646 108.839 73.5012C108.839 73.5012 105.435 80.0669 96.4985 79.0056L96.7717 76.3962Z" fill="#FF9A6C"/>
<path d="M102.204 47.1C102.317 47.4391 103.554 47.3104 104.999 47.5208C106.443 47.7311 107.605 48.1488 107.806 47.8599C107.894 47.7186 107.699 47.3983 107.234 47.0623C106.614 46.6466 105.908 46.3781 105.168 46.2774C104.428 46.1767 103.676 46.2465 102.967 46.4814C102.43 46.6949 102.154 46.9524 102.204 47.1Z" fill="#263238"/>
<path d="M91.0601 46.8237C91.2705 47.1094 92.1277 46.8425 93.1513 46.8519C94.175 46.8614 95.0353 47.0906 95.2426 46.8017C95.3336 46.6604 95.2049 46.3778 94.8312 46.1015C94.331 45.7704 93.7436 45.5954 93.1438 45.5988C92.5439 45.6022 91.9585 45.7837 91.462 46.1203C91.1009 46.3998 90.9753 46.6855 91.0601 46.8237Z" fill="#263238"/>
<path d="M120.674 43.9192C119.258 38.6817 112.089 31.2116 106.666 31.3592L97.8052 36.154C98.0217 37.6387 98.6347 39.0376 99.5797 40.2031C100.525 41.3686 101.767 42.2575 103.175 42.7762C104.682 43.31 106.512 43.5173 107.363 44.8706C108.214 46.224 107.602 48.1802 108.406 49.5995C109.514 51.5682 112.786 51.6216 113.593 53.7348C113.945 54.6549 113.69 55.7287 114.061 56.6456C114.551 57.8671 117.515 59.5156 118.771 59.1765C120.027 58.8373 120.14 56.699 120.598 55.6C121.383 53.716 121.139 52.7175 120.956 51.6405C120.533 49.0814 121.349 46.4186 120.674 43.9192Z" fill="#263238"/>
<path d="M115.041 60.0619C115.059 59.3962 115.869 57.8419 116.529 57.7572C118.294 57.5279 121.459 57.7572 121.374 62.2128C121.261 68.317 115.157 66.9416 115.15 66.7689C115.144 66.5962 114.978 62.3635 115.041 60.0619Z" fill="#FFBF9D"/>
<path d="M117.056 64.4894C117.085 64.4705 117.163 64.5679 117.342 64.6526C117.593 64.766 117.878 64.7772 118.136 64.684C118.783 64.458 119.345 63.4469 119.392 62.3447C119.418 61.8222 119.326 61.3006 119.122 60.8187C119.069 60.6272 118.97 60.4514 118.834 60.3065C118.698 60.1616 118.528 60.0518 118.34 59.9866C118.22 59.9542 118.091 59.9643 117.977 60.0152C117.863 60.0661 117.769 60.1546 117.712 60.2661C117.628 60.4356 117.665 60.5581 117.631 60.5801C117.596 60.602 117.502 60.4764 117.555 60.2252C117.593 60.0753 117.681 59.9426 117.804 59.8484C117.974 59.7249 118.186 59.673 118.394 59.704C118.865 59.7448 119.279 60.1844 119.487 60.6711C119.738 61.204 119.855 61.7907 119.826 62.3793C119.763 63.607 119.113 64.7468 118.224 64.9855C118.059 65.03 117.887 65.0371 117.719 65.0061C117.551 64.9751 117.392 64.9069 117.254 64.8065C117.066 64.6401 117.037 64.5019 117.056 64.4894Z" fill="#FF9A6C"/>
<path d="M99.692 34.4207C98.973 36.8636 95.0009 39.7995 93.2268 41.6207C89.8356 45.0998 89.1448 46.2805 88.6393 54.4947C87.333 51.5588 86.369 48.7014 86.6893 45.5018C87.0096 42.3021 88.3975 39.1684 90.7713 37.0018C93.1451 34.8352 96.5426 33.7425 99.6889 34.405" fill="#263238"/>
<path d="M121.559 61.4467C121.793 61.232 121.999 60.9882 122.171 60.7214C122.399 60.4308 122.608 60.1267 122.799 59.8108L123.528 58.5234C124.536 56.5766 125.333 53.5622 125.283 50.2055C125.241 48.6293 125.031 47.0621 124.658 45.53C124.338 44.2849 123.891 43.076 123.324 41.9222C123.075 41.4323 122.812 41.0084 122.586 40.6379C122.36 40.2674 122.112 39.9785 121.917 39.743C121.717 39.4949 121.485 39.2752 121.226 39.0899C121.148 39.1558 122.146 40.0916 123.016 42.0698C123.526 43.2199 123.93 44.4138 124.225 45.6368C124.568 47.1382 124.764 48.6693 124.812 50.2086C124.856 53.4837 124.14 56.4227 123.242 58.3726L122.589 59.6695C122.404 60.0557 122.174 60.3477 122.027 60.6115C121.834 60.8673 121.676 61.1483 121.559 61.4467Z" fill="#455A64"/>
<path d="M101.849 64.6212C101.79 64.3415 101.684 64.0739 101.535 63.83C101.461 63.7084 101.357 63.6073 101.234 63.536C101.11 63.4647 100.971 63.4254 100.829 63.4218C100.622 63.446 100.425 63.5227 100.257 63.6447L97.9681 64.998L97.7671 65.557C98.2237 66.2697 98.8197 66.8827 99.5192 67.3593C99.7201 67.5188 99.9638 67.615 100.219 67.6356C100.544 67.5998 100.847 67.4535 101.077 67.2212C101.417 66.9895 101.698 66.6807 101.896 66.32C102.141 65.7987 101.997 65.1833 101.849 64.6212Z" fill="#FF9A6C"/>
<path d="M100.129 67.824C100.103 67.7675 100.662 67.6733 101.243 67.0861C101.577 66.7459 101.806 66.3179 101.906 65.8521C102.015 65.2829 101.926 64.6935 101.655 64.1816C101.584 64.0484 101.501 63.9222 101.406 63.8048C101.326 63.6952 101.226 63.6015 101.111 63.5285C101.065 63.4982 101.013 63.4795 100.958 63.474C100.903 63.4685 100.848 63.4765 100.797 63.4971C100.676 63.5508 100.559 63.6149 100.449 63.6886C99.9652 63.9838 99.5288 64.2412 99.1614 64.4579C98.4235 64.8849 97.9525 65.133 97.9305 65.0859C97.9085 65.0388 98.3324 64.7311 99.0389 64.2507C99.3906 64.012 99.8145 63.7326 100.295 63.4248C100.422 63.3348 100.557 63.258 100.7 63.1956C100.791 63.16 100.89 63.1455 100.988 63.1531C101.085 63.1607 101.18 63.1903 101.265 63.2396C101.416 63.3314 101.548 63.4507 101.655 63.5913C101.763 63.7241 101.859 63.8671 101.94 64.0183C102.248 64.5956 102.338 65.2641 102.195 65.9023C102.075 66.4197 101.797 66.8872 101.4 67.2399C101.141 67.4758 100.835 67.6535 100.502 67.7612C100.27 67.8397 100.132 67.8397 100.129 67.824Z" fill="#263238"/>
<path d="M132.621 148.255L128.159 136.766C128.159 136.766 128.473 124.906 129.563 119.496C130.653 114.086 128.219 83.9918 128.219 83.9918L114.868 80.4122C114.868 80.4122 111.624 85.8947 105.74 85.3515C98.8318 84.7235 96.4202 80.4122 96.4202 80.4122L88.1903 81.7405C88.1903 81.7405 83.069 100.037 80.871 104.314C78.673 108.591 78.5003 121.769 78.5003 121.769C78.5003 121.769 80.8804 129.139 81.4676 131.604C81.5532 131.961 81.5235 132.335 81.3828 132.674L75.8501 148.255H132.621Z" fill="#E50019"/>
<g opacity="0.3">
<path opacity="0.3" d="M122.85 118.202C122.972 119.844 122.63 122.385 122.938 124.002L125.588 124.57C126.594 122.619 127.259 120.51 127.553 118.334C127.553 118.334 122.812 117.75 122.85 118.202Z" fill="black"/>
</g>
<g opacity="0.3">
<path opacity="0.3" d="M119.091 128.627C118.738 128.243 118.293 127.955 117.797 127.792C117.267 127.717 116.725 127.782 116.227 127.98L108.424 130.332L102.86 128.891C103.962 131.071 105.782 132.804 108.013 133.798C110.243 134.792 112.749 134.986 115.106 134.348C116.067 134.087 117.053 133.686 118.023 133.899C118.94 134.1 119.644 134.8 120.36 135.403C122.558 137.249 125.889 137.356 128.743 137.601C126.012 134.015 122.394 131.704 119.091 128.627Z" fill="black"/>
</g>
<path d="M123.519 122.312L128.963 123.32L128.021 103.13L128.207 83.9761C128.207 83.9761 135.09 86.1741 138.515 92.6425C141.941 99.1109 142.594 108.016 142.962 112.82C143.385 118.359 143.746 131.99 143.219 135.287C142.691 138.584 138.949 142.003 132.621 139.972C129.425 138.945 118.13 129.315 118.13 129.315L123.519 122.312Z" fill="#E50019"/>
<path d="M88.1902 81.7311C88.1902 81.7311 76.7543 83.8788 74.4307 88.3785C72.1071 92.8781 61.0731 117.759 62.4987 124.925C63.9242 132.09 72.4085 135.287 75.2722 132.433C78.1359 129.578 80.874 121.622 80.874 121.622L88.1902 81.7311Z" fill="#E50019"/>
<path d="M130.137 138.634L130.075 138.596L129.896 138.471L129.217 137.975L126.705 136.091L118.08 129.651L118.017 129.6L118.067 129.538L121.053 125.77C122.021 124.558 122.959 123.38 123.854 122.253L123.886 122.215H123.936L128.577 123.229H128.549C129.991 123.031 131.459 123.151 132.85 123.581C133.925 123.906 134.939 124.406 135.852 125.06C136.44 125.48 136.979 125.965 137.46 126.504C137.63 126.69 137.739 126.847 137.821 126.947L137.909 127.063C137.92 127.076 137.929 127.09 137.937 127.104C137.937 127.104 137.937 127.104 137.9 127.07L137.802 126.963C137.717 126.865 137.598 126.715 137.429 126.536C136.171 125.203 134.581 124.23 132.822 123.716C131.447 123.304 129.998 123.197 128.577 123.402H128.552L123.908 122.403L123.986 122.375L121.188 125.892C120.152 127.195 119.144 128.461 118.196 129.66V129.55L126.775 136.047L129.268 137.956L129.933 138.474L130.103 138.609C130.122 138.615 130.141 138.631 130.137 138.634Z" fill="#263238"/>
<path d="M128.979 104.625C128.992 104.687 129 104.75 129.004 104.813C129.004 104.955 129.032 105.127 129.051 105.353C129.086 105.846 129.133 106.521 129.192 107.347C129.299 109.027 129.434 111.354 129.485 113.925C129.535 116.497 129.459 118.833 129.318 120.519C129.287 120.94 129.243 121.317 129.208 121.65C129.174 121.983 129.136 122.278 129.101 122.504L129.017 123.041C129.01 123.104 128.997 123.166 128.979 123.226C128.971 123.164 128.971 123.1 128.979 123.038C128.979 122.896 129.01 122.724 129.029 122.498C129.048 122.272 129.086 121.976 129.111 121.644C129.136 121.311 129.174 120.931 129.196 120.51C129.309 118.83 129.365 116.503 129.315 113.932C129.265 111.36 129.149 109.04 129.07 107.357C129.032 106.531 129.004 105.853 128.982 105.363C128.982 105.14 128.982 104.961 128.966 104.819C128.961 104.754 128.966 104.689 128.979 104.625Z" fill="#263238"/>
<path d="M80.5883 98.3291C80.5921 98.3583 80.5921 98.3878 80.5883 98.417L80.5255 98.6682C80.4596 98.8974 80.3748 99.2177 80.2618 99.6102C80.1487 100.003 80.0043 100.53 79.8536 101.121C79.7029 101.711 79.5145 102.377 79.3449 103.133C78.9157 104.88 78.5792 106.648 78.337 108.43C78.2804 108.936 78.2019 109.451 78.158 109.979C78.114 110.506 78.0795 111.049 78.0387 111.599C77.9978 112.148 78.0104 112.713 77.9978 113.282C77.9853 113.85 78.023 114.431 78.0324 115.015C78.1415 117.219 78.4027 119.413 78.8142 121.581L79.1282 123.031C79.2256 123.502 79.3198 123.973 79.4422 124.397C79.6715 125.27 79.8536 126.093 80.0702 126.831C80.2869 127.569 80.469 128.238 80.6386 128.825C80.8081 129.412 80.9746 129.908 81.1033 130.323L81.3922 131.265C81.4204 131.365 81.4424 131.447 81.4613 131.509C81.4717 131.538 81.4781 131.567 81.4801 131.597C81.4665 131.571 81.455 131.544 81.4456 131.516L81.3608 131.274C81.2823 131.048 81.1755 130.734 81.0468 130.332C80.918 129.93 80.7328 129.421 80.5569 128.844C80.3811 128.266 80.1833 127.588 79.9666 126.853C79.75 126.118 79.549 125.283 79.3166 124.419C79.1942 123.983 79.1 123.524 79.0026 123.053C78.9053 122.582 78.7954 122.111 78.6886 121.6C78.2653 119.431 77.9966 117.235 77.8848 115.028C77.8848 114.437 77.844 113.856 77.8503 113.285C77.8565 112.713 77.8785 112.148 77.8942 111.596C77.9099 111.043 77.979 110.5 78.0198 109.966C78.0606 109.432 78.1454 108.92 78.2051 108.415C78.4536 106.628 78.8016 104.856 79.2476 103.108C79.4265 102.361 79.6181 101.689 79.7814 101.102C79.9446 100.515 80.0954 100.006 80.2178 99.5945C80.3403 99.1832 80.4376 98.8755 80.5098 98.6525C80.5412 98.552 80.5664 98.4704 80.5883 98.4076C80.5859 98.3815 80.5859 98.3552 80.5883 98.3291Z" fill="#263238"/>
<path d="M79.3009 100.91C78.9615 100.265 78.6697 99.595 78.428 98.9069C78.1351 98.2382 77.8926 97.5487 77.7026 96.8439C78.0447 97.4886 78.3375 98.1583 78.5787 98.8472C78.8732 99.5149 79.1146 100.205 79.3009 100.91Z" fill="#263238"/>
<path d="M131.148 99.7233C130.82 100.582 130.44 101.421 130.012 102.235C129.632 103.074 129.203 103.89 128.728 104.678C129.056 103.819 129.436 102.98 129.864 102.166C130.244 101.327 130.673 100.512 131.148 99.7233Z" fill="#263238"/>
<path d="M88.7588 81.7311L102.669 100.91L122.639 82.312L114.868 80.4028H96.4204L88.7588 81.7311Z" fill="#FFBF9D"/>
<g opacity="0.3">
<path opacity="0.3" d="M78.0983 97.8456C78.0983 102.11 77.7497 106.779 76.7857 110.933L77.0778 115.643C77.2505 119.659 76.23 122.504 74.437 126.099C76.1044 125.321 77.2002 123.619 77.6712 121.838C78.1422 120.058 78.07 118.18 77.9601 116.343C77.7968 113.596 77.7685 110.924 78.2741 108.217C78.5661 106.647 79.0685 103.636 79.4673 102.176C79.4641 102.163 79.6808 101.519 78.0983 97.8456Z" fill="black"/>
</g>
<g opacity="0.3">
<path opacity="0.3" d="M139.416 126.966C139.036 124.919 137.105 123.443 135.077 122.972C133.048 122.501 131.042 122.859 128.995 123.223C133.557 123.022 136.386 125.082 138.355 127.619C138.467 127.812 138.649 127.954 138.864 128.015C138.979 128.018 139.093 127.985 139.189 127.92C139.284 127.854 139.356 127.76 139.394 127.65C139.465 127.429 139.473 127.192 139.416 126.966Z" fill="black"/>
</g>
<path d="M104.386 115.169C104.334 114.875 104.362 114.572 104.466 114.292C104.571 114.012 104.748 113.765 104.98 113.577C105.452 113.203 106.042 113.012 106.644 113.037C107.17 113.037 107.686 113.187 108.129 113.47C108.381 113.627 108.591 113.841 108.744 114.095C108.896 114.348 108.986 114.635 109.006 114.931C109.025 115.226 108.974 115.522 108.857 115.794C108.739 116.066 108.559 116.306 108.33 116.494C107.825 116.927 107.174 117.152 106.509 117.122C105.952 117.127 105.414 116.916 105.008 116.535C104.625 116.139 104.336 115.593 104.38 115.172" fill="#E50019"/>
<path d="M98.6404 116.667C96.3922 117.015 94.2287 114.469 93.7263 112.852C93.6889 112.77 93.6716 112.681 93.676 112.591C93.6803 112.501 93.7062 112.414 93.7514 112.337C93.8246 112.274 93.9125 112.23 94.0069 112.211C94.1014 112.191 94.1993 112.195 94.2915 112.224C95.3957 112.403 96.4135 112.931 97.196 113.731C97.9785 114.53 98.4847 115.559 98.6404 116.667Z" fill="#455A64"/>
<path d="M96.15 115.382C96.0981 115.088 96.1258 114.786 96.2301 114.506C96.3345 114.226 96.5117 113.979 96.7434 113.79C97.2147 113.418 97.804 113.226 98.4045 113.25C98.9311 113.248 99.4471 113.398 99.8897 113.684C100.142 113.84 100.354 114.054 100.507 114.309C100.661 114.563 100.751 114.851 100.77 115.147C100.79 115.443 100.739 115.74 100.62 116.013C100.502 116.285 100.321 116.526 100.091 116.714C99.5853 117.147 98.9342 117.371 98.2695 117.342C97.7121 117.347 97.1744 117.137 96.7685 116.755C96.3823 116.356 96.0966 115.813 96.1405 115.392" fill="#E50019"/>
<path d="M118.896 115.382C118.843 115.089 118.87 114.786 118.974 114.506C119.077 114.226 119.255 113.979 119.487 113.791C119.959 113.417 120.549 113.225 121.151 113.25C121.677 113.248 122.193 113.399 122.636 113.684C122.889 113.84 123.101 114.054 123.254 114.309C123.407 114.563 123.497 114.851 123.517 115.147C123.536 115.443 123.485 115.74 123.367 116.013C123.249 116.285 123.067 116.526 122.837 116.714C122.331 117.146 121.681 117.371 121.016 117.342C120.458 117.347 119.919 117.137 119.512 116.755C119.129 116.356 118.84 115.813 118.884 115.392" fill="#E50019"/>
<g opacity="0.3">
<path opacity="0.3" d="M104.386 115.169C104.334 114.875 104.362 114.572 104.466 114.292C104.571 114.012 104.748 113.765 104.98 113.577C105.452 113.203 106.042 113.012 106.644 113.037C107.17 113.037 107.686 113.187 108.129 113.47C108.381 113.627 108.591 113.841 108.744 114.095C108.896 114.348 108.986 114.635 109.006 114.931C109.025 115.226 108.974 115.522 108.857 115.794C108.739 116.066 108.559 116.306 108.33 116.494C107.825 116.927 107.174 117.152 106.509 117.122C105.952 117.127 105.414 116.916 105.008 116.535C104.625 116.139 104.336 115.593 104.38 115.172" fill="black"/>
</g>
<g opacity="0.3">
<path opacity="0.3" d="M96.15 115.382C96.0981 115.088 96.1258 114.786 96.2301 114.506C96.3345 114.226 96.5117 113.979 96.7434 113.79C97.2147 113.418 97.804 113.226 98.4045 113.25C98.9311 113.248 99.4471 113.398 99.8897 113.684C100.142 113.84 100.354 114.054 100.507 114.309C100.661 114.563 100.751 114.851 100.77 115.147C100.79 115.443 100.739 115.74 100.62 116.013C100.502 116.285 100.321 116.526 100.091 116.714C99.5853 117.147 98.9342 117.371 98.2695 117.342C97.7121 117.347 97.1744 117.137 96.7685 116.755C96.3823 116.356 96.0966 115.813 96.1405 115.392" fill="black"/>
</g>
<g opacity="0.3">
<path opacity="0.3" d="M118.896 115.382C118.843 115.089 118.87 114.786 118.974 114.506C119.077 114.226 119.255 113.979 119.487 113.791C119.959 113.417 120.549 113.225 121.151 113.25C121.677 113.248 122.193 113.399 122.636 113.684C122.889 113.84 123.101 114.054 123.254 114.309C123.407 114.563 123.497 114.851 123.517 115.147C123.536 115.443 123.485 115.74 123.367 116.013C123.249 116.285 123.067 116.526 122.837 116.714C122.331 117.146 121.681 117.371 121.016 117.342C120.458 117.347 119.919 117.137 119.512 116.755C119.129 116.356 118.84 115.813 118.884 115.392" fill="black"/>
</g>
<path d="M107.702 116.13C107.749 114.965 108.588 113.558 109.294 112.632C110.01 111.696 110.996 111.003 112.12 110.647C112.197 110.618 112.282 110.618 112.359 110.647C112.395 110.67 112.427 110.701 112.451 110.736C112.475 110.772 112.492 110.812 112.5 110.855C112.722 111.543 112.759 112.278 112.606 112.985C112.453 113.692 112.116 114.347 111.629 114.882C111.142 115.417 110.523 115.814 109.833 116.033C109.144 116.252 108.409 116.286 107.702 116.13Z" fill="#455A64"/>
<path d="M115.91 114.318C116.365 113.817 116.774 113.276 117.132 112.701C117.488 112.121 117.676 111.454 117.675 110.773C117.679 110.723 117.673 110.672 117.655 110.625C117.638 110.578 117.61 110.535 117.574 110.5C117.532 110.476 117.485 110.461 117.436 110.456C117.387 110.451 117.338 110.456 117.292 110.472C116.019 110.726 114.858 111.374 113.973 112.324C113.088 113.274 112.523 114.478 112.359 115.766L112.287 116.095C113.34 116.748 114.605 116.966 115.816 116.704C116.794 116.554 117.731 116.209 118.573 115.69C119.42 115.163 120.035 114.334 120.294 113.37C119.538 113.197 118.754 113.192 117.996 113.356C117.239 113.52 116.527 113.848 115.91 114.318Z" fill="#455A64"/>
<path d="M102.006 112.023C100.983 110.924 99.5415 110.302 98.0877 109.922C97.9806 110.661 98.0212 111.415 98.2071 112.139C98.393 112.862 98.7206 113.542 99.1709 114.138C99.6211 114.734 100.185 115.235 100.83 115.612C101.475 115.989 102.189 116.235 102.93 116.334L103.021 116.177C103.558 114.773 103.03 113.122 102.006 112.023Z" fill="#455A64"/>
<path d="M122.105 116.638C122.149 115.473 122.988 114.067 123.694 113.137C124.412 112.203 125.398 111.511 126.52 111.153C126.597 111.123 126.682 111.123 126.759 111.153C126.795 111.176 126.826 111.207 126.849 111.242C126.873 111.278 126.889 111.318 126.897 111.36C127.122 112.048 127.16 112.783 127.01 113.491C126.859 114.199 126.524 114.854 126.039 115.391C125.554 115.928 124.935 116.327 124.246 116.548C123.557 116.77 122.822 116.805 122.115 116.651" fill="#455A64"/>
<path d="M93.9209 115.533C93.9209 115.533 96.973 124.623 99.6106 126.036C102.248 127.449 108.136 128.787 111.122 128.753C114.108 128.718 115.907 128.646 118.309 127.311L118.382 127.27C121.308 125.622 123.582 123.021 124.825 119.901L126.709 115.191L93.9209 115.533Z" fill="#E0E0E0"/>
<path d="M124.592 120.661C124.3 120.924 123.966 121.136 123.603 121.289C123.181 121.478 122.734 121.603 122.275 121.659C121.665 121.738 121.046 121.693 120.454 121.527C119.798 121.352 119.135 120.984 118.36 120.899C117.96 120.873 117.559 120.934 117.185 121.078C116.793 121.213 116.406 121.411 115.995 121.593C115.576 121.795 115.126 121.925 114.664 121.976C114.18 122.009 113.694 121.955 113.229 121.816C112.287 121.565 111.376 121.094 110.375 120.925C109.885 120.839 109.383 120.871 108.908 121.016C108.446 121.177 108.003 121.388 107.586 121.644C107.174 121.889 106.745 122.105 106.302 122.29C105.868 122.473 105.395 122.545 104.927 122.501C104.007 122.375 103.294 121.851 102.537 121.669C101.823 121.528 101.087 121.543 100.38 121.713C99.7857 121.845 99.1837 121.94 98.5775 121.995C98.1159 122.032 97.6515 121.987 97.2053 121.863C96.9237 121.783 96.6604 121.648 96.4298 121.468C96.3477 121.408 96.2738 121.337 96.21 121.257C96.5017 121.515 96.8487 121.702 97.2242 121.804C97.6644 121.913 98.1198 121.947 98.5712 121.904C99.1726 121.836 99.7693 121.731 100.358 121.59C101.078 121.411 101.828 121.392 102.556 121.534C103.344 121.719 104.066 122.237 104.933 122.344C105.376 122.385 105.823 122.314 106.233 122.14C106.665 121.958 107.085 121.749 107.489 121.512C107.916 121.254 108.37 121.043 108.842 120.884C109.341 120.73 109.87 120.697 110.384 120.786C111.42 120.965 112.324 121.436 113.251 121.684C114.132 121.969 115.09 121.894 115.917 121.477C116.322 121.301 116.714 121.104 117.119 120.965C117.512 120.815 117.934 120.754 118.353 120.786C119.166 120.874 119.829 121.251 120.466 121.43C121.044 121.599 121.649 121.65 122.247 121.581C122.698 121.532 123.141 121.418 123.559 121.242C123.833 121.128 124.096 120.989 124.344 120.827C124.504 120.717 124.589 120.658 124.592 120.661Z" fill="#263238"/>
<path d="M124.592 119.609C124.296 119.873 123.957 120.085 123.59 120.237C123.163 120.427 122.71 120.553 122.247 120.611C121.63 120.69 121.004 120.644 120.406 120.475C119.744 120.3 119.072 119.932 118.287 119.848C117.883 119.822 117.479 119.883 117.1 120.026C116.701 120.165 116.312 120.362 115.894 120.541C115.471 120.745 115.017 120.874 114.55 120.925C114.06 120.957 113.568 120.904 113.097 120.768C112.155 120.513 111.213 120.045 110.214 119.873C109.719 119.789 109.21 119.82 108.729 119.964C108.261 120.125 107.812 120.336 107.388 120.592C106.971 120.837 106.538 121.053 106.091 121.238C105.652 121.421 105.174 121.493 104.7 121.446C103.758 121.32 103.049 120.796 102.282 120.617C101.56 120.474 100.816 120.488 100.1 120.658C99.5007 120.79 98.8935 120.885 98.2821 120.94C97.8155 120.976 97.3462 120.933 96.8942 120.811C96.61 120.73 96.3438 120.596 96.1092 120.416C96.0267 120.355 95.9518 120.284 95.8862 120.205C96.1834 120.461 96.5343 120.647 96.913 120.749C97.3583 120.859 97.8191 120.893 98.2758 120.849C98.8824 120.781 99.4843 120.676 100.078 120.535C100.81 120.355 101.573 120.335 102.314 120.475C103.111 120.661 103.843 121.179 104.719 121.286C105.167 121.327 105.619 121.258 106.035 121.085C106.474 120.899 106.901 120.683 107.313 120.441C107.745 120.183 108.204 119.973 108.682 119.813C109.19 119.658 109.728 119.624 110.252 119.716C111.297 119.895 112.217 120.366 113.153 120.614C114.043 120.902 115.011 120.827 115.847 120.406C116.259 120.231 116.654 120.033 117.066 119.895C117.466 119.745 117.895 119.684 118.322 119.716C119.144 119.804 119.813 120.18 120.46 120.359C121.044 120.529 121.655 120.581 122.259 120.513C122.715 120.463 123.163 120.349 123.587 120.174C123.856 120.062 124.115 119.926 124.36 119.769C124.433 119.71 124.511 119.657 124.592 119.609Z" fill="#263238"/>
<path d="M112.912 128.74C112.912 128.74 108.387 125.914 107.326 126.256C107.024 126.36 106.761 126.553 106.572 126.81C106.383 127.067 106.277 127.376 106.267 127.694C105.45 126.924 104.577 126.214 103.655 125.572C103.127 125.233 102.481 124.985 101.893 125.258L101.714 125.478L101.793 125.87C101.793 125.87 99.1051 125.079 100.327 126.661C101.548 128.244 106.87 131.494 107.743 131.902C108.616 132.31 112.657 133.513 114.526 132.389C115.684 132.076 116.733 131.45 117.559 130.58C118.853 129.154 120.759 126.834 120.759 126.834L120.633 124.51L115.446 128.366L112.912 128.74Z" fill="#FFBF9D"/>
<path d="M124.052 123.145C124.009 122.824 123.875 122.522 123.666 122.275C123.443 122.046 122.9 121.848 122.655 122.058C122.043 122.491 121.327 123.763 121.327 123.763C120.915 124.049 120.385 124.077 120.011 124.407C119.811 124.556 119.647 124.748 119.53 124.968C119.414 125.189 119.347 125.432 119.336 125.682C119.369 125.978 119.487 126.258 119.677 126.488C119.867 126.717 120.119 126.887 120.404 126.975C120.977 127.142 121.581 127.174 122.168 127.07C122.796 126.994 123.484 126.856 123.88 126.363C124.179 125.91 124.31 125.367 124.25 124.828C124.236 124.262 124.17 123.698 124.052 123.145Z" fill="#FFBF9D"/>
<path d="M104.986 129.855C104.727 129.71 104.489 129.531 104.277 129.324C103.741 128.849 103.259 128.317 102.838 127.738C102.415 127.161 102.059 126.538 101.777 125.88C101.722 125.759 101.701 125.625 101.717 125.493C101.733 125.391 101.788 125.298 101.871 125.236C102.016 125.135 102.122 125.195 102.113 125.201C102.038 125.205 101.967 125.235 101.912 125.286C101.851 125.343 101.814 125.422 101.808 125.506C101.804 125.62 101.83 125.734 101.884 125.836C102.193 126.468 102.556 127.072 102.97 127.641C103.386 128.212 103.849 128.746 104.355 129.239C104.577 129.432 104.788 129.638 104.986 129.855Z" fill="#FF9A6C"/>
<path d="M114.356 132.141C114.23 132.159 114.103 132.164 113.976 132.156C113.827 132.157 113.678 132.15 113.53 132.134C113.357 132.119 113.156 132.109 112.94 132.072C112.431 131.996 111.929 131.88 111.439 131.723C110.838 131.527 110.256 131.278 109.699 130.979C109.145 130.671 108.619 130.314 108.129 129.911C107.734 129.581 107.367 129.218 107.03 128.828C106.899 128.681 106.775 128.527 106.66 128.366C106.567 128.249 106.481 128.127 106.402 127.999C106.326 127.897 106.263 127.787 106.214 127.669C106.239 127.669 106.528 128.109 107.115 128.753C107.46 129.126 107.83 129.474 108.223 129.795C108.709 130.184 109.225 130.531 109.768 130.834C110.316 131.128 110.886 131.378 111.473 131.582C111.956 131.741 112.449 131.866 112.949 131.955C113.816 132.106 114.359 132.106 114.356 132.141Z" fill="#FF9A6C"/>
<path d="M121.597 127.17C121.532 127.202 121.462 127.221 121.389 127.223C121.195 127.249 120.997 127.242 120.805 127.201C120.517 127.151 120.244 127.033 120.011 126.856C119.722 126.629 119.517 126.312 119.43 125.955C119.338 125.597 119.379 125.217 119.546 124.887C119.691 124.622 119.909 124.404 120.174 124.259C120.347 124.162 120.539 124.101 120.736 124.08C120.875 124.08 120.95 124.08 120.95 124.08C120.699 124.129 120.457 124.218 120.234 124.344C120.004 124.49 119.817 124.695 119.694 124.937C119.549 125.236 119.516 125.577 119.6 125.898C119.681 126.22 119.862 126.508 120.118 126.721C120.33 126.894 120.578 127.019 120.843 127.088C121.091 127.138 121.344 127.166 121.597 127.17Z" fill="#FF9A6C"/>
<g opacity="0.6">
<path opacity="0.6" d="M101.541 123.964C101.314 123.246 100.969 122.572 100.521 121.967L97.877 117.948C97.7178 117.657 97.4891 117.41 97.2113 117.229C96.9538 117.087 96.2033 116.739 96.0463 117.367C96.0143 117.516 96.0252 117.67 96.0777 117.813C96.946 120.307 98.4325 122.54 100.398 124.303C100.694 124.567 101.152 124.831 101.441 124.485C101.497 124.412 101.536 124.327 101.553 124.237C101.57 124.146 101.566 124.053 101.541 123.964Z" fill="white"/>
</g>
<path d="M65.7958 74.2108C65.2117 73.297 64.612 72.3645 63.7611 71.6988C63.6202 71.5647 63.4541 71.4599 63.2725 71.3904C63.0909 71.3209 62.8973 71.288 62.7029 71.2937C62.5367 71.3217 62.3795 71.3887 62.2441 71.4891C62.1088 71.5895 61.9991 71.7205 61.9242 71.8715C61.7767 72.1761 61.7096 72.5133 61.7295 72.8512C61.7577 74.0255 62.392 75.1025 63.1142 76.032C63.8364 76.9614 64.6842 77.8124 65.2337 78.858H68.7568L65.7958 74.2108Z" fill="#FF9A6C"/>
<path d="M88.3125 75.9189C87.2355 75.068 85.8508 74.7006 84.4849 74.5593C84.4881 75.2423 84.627 75.9178 84.8934 76.5466C85.1599 77.1755 85.5486 77.7451 86.0371 78.2225C86.5255 78.6998 87.1039 79.0754 87.7388 79.3273C88.3736 79.5793 89.0521 79.7026 89.7349 79.6901L89.7946 79.5362C90.0866 78.186 89.3864 76.773 88.3125 75.9189Z" fill="#455A64"/>
<path d="M85.9766 75.8687C86.2102 75.9917 86.4275 76.1436 86.6234 76.3208C87.0065 76.6348 87.5152 77.0619 88.049 77.5768C88.5828 78.0918 89.0349 78.5973 89.3458 78.971C89.5254 79.1624 89.6833 79.373 89.8168 79.599C89.6134 79.4317 89.4263 79.2456 89.2579 79.0432C88.9282 78.6915 88.4634 78.208 87.9359 77.693C87.4084 77.178 86.9091 76.7259 86.548 76.4025C86.3437 76.2399 86.1526 76.0614 85.9766 75.8687Z" fill="#263238"/>
<path d="M93.0854 75.5139C92.9912 74.1511 92.3287 72.8857 91.5154 71.7836C91.016 72.2454 90.6132 72.8018 90.3303 73.4204C90.0473 74.039 89.8899 74.7076 89.8671 75.3874C89.8444 76.0673 89.9567 76.7449 90.1976 77.381C90.4385 78.0172 90.8031 78.5992 91.2705 79.0935L91.4275 79.0338C92.6081 78.3493 93.1828 76.8798 93.0854 75.5139Z" fill="#455A64"/>
<path d="M91.6881 73.2499C91.7023 73.5144 91.6886 73.7796 91.6472 74.0412C91.6001 74.5844 91.5436 75.2281 91.4808 75.9252C91.418 76.6223 91.3741 77.2786 91.3301 77.8249C91.325 78.0898 91.2956 78.3536 91.2422 78.613C91.2041 78.35 91.1957 78.0835 91.2171 77.8186C91.2171 77.3319 91.2548 76.6537 91.3176 75.9095C91.3804 75.1653 91.462 74.4934 91.5342 74.0098C91.5582 73.7517 91.6097 73.497 91.6881 73.2499Z" fill="#263238"/>
<path d="M90.4164 79.9538C91.4864 79.9538 92.3538 79.0864 92.3538 78.0164C92.3538 76.9464 91.4864 76.079 90.4164 76.079C89.3464 76.079 88.479 76.9464 88.479 78.0164C88.479 79.0864 89.3464 79.9538 90.4164 79.9538Z" fill="#E50019"/>
<g opacity="0.3">
<path opacity="0.3" d="M90.4164 79.9538C91.4864 79.9538 92.3538 79.0864 92.3538 78.0164C92.3538 76.9464 91.4864 76.079 90.4164 76.079C89.3464 76.079 88.479 76.9464 88.479 78.0164C88.479 79.0864 89.3464 79.9538 90.4164 79.9538Z" fill="black"/>
</g>
<path d="M82.7265 80.5724C80.9022 80.5724 79.0339 79.084 77.7716 77.8123L77.7276 77.7684C77.6791 77.7207 77.6254 77.6785 77.5675 77.6428C77.4087 77.5475 77.2282 77.4945 77.0431 77.4889C68.8163 77.1027 57.8891 74.1919 57.7792 74.1637C57.6734 74.1353 57.5833 74.0662 57.5285 73.9714C57.4737 73.8766 57.4589 73.7639 57.4872 73.6581C57.5155 73.5524 57.5847 73.4622 57.6795 73.4074C57.7743 73.3526 57.887 73.3378 57.9927 73.3661C58.1026 73.3975 68.9451 76.2832 77.0808 76.6631C77.414 76.6741 77.7386 76.7715 78.0228 76.9457C78.1316 77.014 78.2318 77.0952 78.3211 77.1875L78.3682 77.2346C80.0418 78.9208 81.6464 79.8125 82.8741 79.7466C84.9716 79.6335 90.2562 78.0667 90.3096 78.051C90.3614 78.0351 90.4158 78.0296 90.4696 78.035C90.5235 78.0403 90.5758 78.0563 90.6234 78.082C90.671 78.1077 90.713 78.1426 90.7471 78.1847C90.7811 78.2269 90.8063 78.2753 90.8214 78.3273C90.8527 78.4322 90.8413 78.5453 90.7895 78.6418C90.7377 78.7382 90.6499 78.8103 90.5451 78.8423C90.3253 78.9082 85.1129 80.4499 82.9181 80.5693L82.7265 80.5724Z" fill="#E0E0E0"/>
<path d="M82.7267 80.5725H82.9088C83.0281 80.5568 83.2071 80.5473 83.4395 80.5159C83.9073 80.4563 84.5887 80.3307 85.4585 80.1391C86.3283 79.9476 87.3896 79.6807 88.5985 79.3479C89.2077 79.1814 89.8702 78.9962 90.5453 78.7889C90.6204 78.7573 90.6825 78.701 90.7213 78.6293C90.7601 78.5576 90.7732 78.4749 90.7586 78.3947C90.744 78.3145 90.7024 78.2417 90.6408 78.1884C90.5791 78.135 90.5011 78.1043 90.4197 78.1013C90.3304 78.1066 90.2425 78.1257 90.1591 78.1578L89.8796 78.2394L89.3113 78.4027C87.7727 78.8298 86.0834 79.2945 84.2339 79.643C83.7617 79.7326 83.2846 79.7944 82.8052 79.8283C82.3008 79.8279 81.8021 79.7209 81.3419 79.5143C80.3983 79.0793 79.5344 78.4892 78.786 77.7684C78.3841 77.4199 78.0638 76.9646 77.5488 76.8264C77.2928 76.7578 77.0289 76.7229 76.7638 76.7228L75.938 76.6694C74.8359 76.5941 73.7117 76.4748 72.5719 76.3366C70.2891 76.0477 67.9436 75.6521 65.5509 75.1748C63.1582 74.6975 60.8409 74.1763 58.6115 73.6048L58.1939 73.498L57.9866 73.4446C57.9288 73.4308 57.8686 73.4308 57.8108 73.4446C57.7543 73.4556 57.7016 73.481 57.6579 73.5184C57.6142 73.5558 57.5809 73.6039 57.5613 73.6579C57.5417 73.712 57.5364 73.7703 57.546 73.827C57.5556 73.8837 57.5798 73.937 57.6161 73.9816C57.6852 74.0789 57.8014 74.0978 57.9458 74.1355L58.3509 74.2391L59.1578 74.4432C60.2317 74.7069 61.2836 74.9539 62.3135 75.1842C65.9567 76.0156 69.6393 76.6633 73.3475 77.1247C74.1388 77.2252 74.8955 77.2849 75.6114 77.3508L76.6539 77.4199C76.8266 77.4356 76.9836 77.4387 77.1563 77.4576C77.3243 77.4793 77.4842 77.543 77.621 77.6428C77.7442 77.7395 77.8606 77.8444 77.9696 77.9568L78.2836 78.2708C78.5002 78.4687 78.7106 78.6571 78.9116 78.8298C79.2913 79.1455 79.692 79.4351 80.1111 79.6964C80.6888 80.066 81.3262 80.3327 81.9951 80.4845C82.2287 80.5275 82.4646 80.5569 82.7016 80.5725H82.5194C82.3415 80.5681 82.1641 80.5502 81.9888 80.5191C81.3131 80.3769 80.6678 80.1165 80.0828 79.7498C79.6583 79.4914 79.2523 79.2039 78.8676 78.8894C78.6541 78.7199 78.4406 78.5315 78.2239 78.3336L77.9099 78.0196C77.8055 77.906 77.6921 77.801 77.5708 77.7056C77.4461 77.6148 77.3001 77.5575 77.1469 77.5392C76.993 77.5235 76.8329 77.5172 76.6508 77.5078L75.6052 77.4419C74.8892 77.3822 74.1294 77.3225 73.3381 77.2283C69.6222 76.7825 65.9319 76.1442 62.2821 75.3161C61.2522 75.09 60.1993 74.8451 59.1233 74.5813L58.3163 74.3804L57.9081 74.2736C57.8359 74.2548 57.7794 74.2453 57.6977 74.2171C57.6188 74.1867 57.5494 74.1357 57.4968 74.0695C57.4432 74.0034 57.4076 73.9245 57.3935 73.8406C57.3794 73.7567 57.3873 73.6705 57.4164 73.5905C57.4455 73.5106 57.4948 73.4395 57.5595 73.3842C57.6242 73.3289 57.7021 73.2913 57.7857 73.2751C57.8674 73.2612 57.9513 73.2666 58.0306 73.2908L58.2378 73.3442L58.6523 73.4509C60.8786 74.013 63.199 74.5342 65.5886 75.0209C67.9781 75.5076 70.3174 75.8938 72.5939 76.1827C73.7337 76.324 74.8547 76.4433 75.9537 76.5218L76.7732 76.5752C77.0521 76.5764 77.3296 76.6134 77.5991 76.6851C77.7341 76.726 77.8638 76.7829 77.9853 76.8547C78.1046 76.9269 78.2051 77.0243 78.3181 77.109C78.5159 77.2912 78.6949 77.4827 78.8927 77.6585C79.6277 78.3696 80.4769 78.9523 81.4047 79.3824C81.8456 79.5838 82.3237 79.6907 82.8083 79.6964C83.2814 79.6642 83.7521 79.6045 84.2182 79.5174C86.0614 79.1752 87.7507 78.7199 89.2893 78.2991L89.8576 78.139L90.1371 78.0573C90.2316 78.0217 90.3313 78.0016 90.4323 77.9976C90.5371 78.0035 90.6369 78.0445 90.7157 78.114C90.7944 78.1835 90.8475 78.2775 90.8663 78.3808C90.8852 78.4841 90.8687 78.5908 90.8196 78.6836C90.7705 78.7764 90.6915 78.85 90.5955 78.8926C89.8953 79.1029 89.2485 79.2756 88.633 79.4421C87.4053 79.7561 86.344 80.0261 85.4679 80.2082C84.5919 80.3903 83.8979 80.5065 83.4426 80.5536C83.2071 80.5787 83.0281 80.585 82.9088 80.5944C82.8477 80.5905 82.7869 80.5831 82.7267 80.5725Z" fill="#263238"/>
<path d="M58.9033 81.4705C58.9033 81.4705 59.3052 74.8765 60.0902 74.2171C60.8752 73.5577 64.0529 72.7727 64.4705 72.9611C64.8882 73.1495 67.2965 74.0852 67.3813 74.484C67.4207 74.6146 67.4297 74.7525 67.4076 74.8872C67.3855 75.0218 67.3329 75.1497 67.2538 75.2609C67.1747 75.3721 67.0712 75.4637 66.9513 75.5288C66.8314 75.5939 66.6981 75.6307 66.5618 75.6363L64.6778 75.2941L62.7938 76.3114L62.5708 78.1295C62.5708 78.1295 64.4894 76.5972 65.1331 76.145C65.7768 75.6929 67.3719 75.7117 67.4347 76.8923C67.4347 76.8923 69.9153 77.1906 69.9907 78.6225C69.9907 78.6225 72.1887 80.2145 72.3111 81.0309C72.4336 81.8473 71.3471 83.4801 71.3471 83.4801C71.3471 83.4801 74.6975 86.7205 74.6065 87.8227C74.5154 88.9248 74.8514 92.3945 74.8514 92.3945L67.2306 93.3365L67.0642 90.1965C67.0642 90.1965 59.3994 83.0185 58.9033 81.4705Z" fill="#FFBF9D"/>
<path d="M71.2341 81.2067C71.1726 81.5565 71.0221 81.8846 70.7972 82.1596C70.5723 82.4345 70.2805 82.647 69.9499 82.7767C69.9247 82.7359 70.3204 82.491 70.6721 82.0545C71.0238 81.6181 71.1902 81.191 71.2341 81.2067Z" fill="#FF9A6C"/>
<path d="M71.7678 81.8629C71.8055 81.8912 71.6203 82.0922 71.3157 82.0796C71.0111 82.067 70.8415 81.8504 70.8792 81.8253C70.9169 81.8001 71.0833 81.91 71.322 81.9163C71.5606 81.9226 71.7396 81.8284 71.7678 81.8629Z" fill="#FF9A6C"/>
<path d="M69.9215 78.7073C69.9215 78.7355 69.6609 78.8297 69.2653 79.0652C68.7531 79.3704 68.3026 79.7687 67.9371 80.2396C67.6599 80.5971 67.4376 80.994 67.2777 81.4171V81.4485H67.2525C66.89 81.6102 66.5138 81.7395 66.1284 81.8347C66.4685 81.6339 66.8258 81.4637 67.196 81.326L67.1583 81.3669C67.3045 80.9202 67.5276 80.5026 67.8177 80.1328C68.1947 79.6445 68.6723 79.2429 69.2182 78.9553C69.4358 78.831 69.6741 78.7469 69.9215 78.7073Z" fill="#FF9A6C"/>
<path d="M63.6416 80.6258C63.6416 80.6258 63.673 80.5505 63.7829 80.4594C63.9442 80.3392 64.1262 80.2498 64.3198 80.1957C64.5923 80.1236 64.8496 80.0034 65.0797 79.8408C65.3378 79.6045 65.5781 79.3494 65.7988 79.0778C66.298 78.5095 66.7408 78.0039 67.0925 77.6428C67.264 77.4351 67.4565 77.2457 67.6671 77.0776C67.5271 77.3033 67.3639 77.5137 67.1804 77.7056C66.8664 78.0856 66.4205 78.6068 65.9244 79.172C65.6979 79.4515 65.4479 79.7109 65.1771 79.9476C64.9289 80.1149 64.6506 80.2322 64.3575 80.293C64.1707 80.335 63.9909 80.4038 63.8237 80.4971C63.7075 80.5787 63.651 80.6352 63.6416 80.6258Z" fill="#FF9A6C"/>
<path d="M62.5365 78.1075C62.3986 78.5742 62.1435 78.9978 61.7956 79.338C61.4477 79.6783 61.0185 79.9238 60.5488 80.0512C60.9505 79.8078 61.3298 79.5294 61.6824 79.2191C61.9987 78.874 62.2844 78.5021 62.5365 78.1075Z" fill="#FF9A6C"/>
<path d="M71.4289 83.524C71.4289 83.5491 71.3158 83.524 71.1463 83.524C70.9256 83.521 70.7084 83.5786 70.5183 83.6904L70.4021 83.7595V83.6245V83.5837C70.3992 83.3527 70.3589 83.1236 70.2828 82.9054C70.22 82.7422 70.1446 82.6574 70.1603 82.6385C70.176 82.6197 70.2859 82.6825 70.3864 82.8521C70.5031 83.075 70.5644 83.3227 70.5654 83.5743V83.6151L70.4398 83.5491C70.6544 83.4225 70.9061 83.3737 71.1525 83.411C71.3409 83.4267 71.4383 83.4958 71.4289 83.524Z" fill="#FF9A6C"/>
<path d="M66.16 92.316C66.16 92.316 61.45 118.821 61.8299 121.615C62.2099 124.41 63.0137 135.563 71.3064 134.339C79.5992 133.114 78.161 121.518 77.8722 119.295C77.5833 117.072 75.6333 102.226 75.6333 102.226L75.0053 91.8419L66.16 92.316Z" fill="#E50019"/>
<path d="M77.0776 114.823C77.055 114.748 77.0403 114.67 77.0337 114.591C77.0148 114.422 76.9834 114.202 76.9489 113.925C76.8767 113.345 76.7825 112.506 76.6757 111.467C76.4622 109.388 76.2141 106.515 75.9629 103.337C75.7117 100.16 75.4794 97.2866 75.2941 95.2079C75.2031 94.1812 75.1277 93.3459 75.0743 92.7462C75.0534 92.4678 75.0346 92.2448 75.0178 92.0774C75.0136 91.9989 75.0136 91.9203 75.0178 91.8419C75.0407 91.9164 75.0555 91.9933 75.0618 92.0711C75.0827 92.2406 75.111 92.4636 75.1465 92.7399C75.2188 93.3177 75.313 94.1592 75.4197 95.1985C75.6332 97.2741 75.8813 100.15 76.1356 103.325C76.39 106.499 76.6161 109.376 76.7919 111.47C76.883 112.497 76.9583 113.335 77.0117 113.932C77.0337 114.211 77.0525 114.434 77.0682 114.604C77.075 114.677 77.0782 114.75 77.0776 114.823Z" fill="#263238"/>
<g opacity="0.6">
<path opacity="0.6" d="M93.6003 123.204H80.7671V148.258H93.6003V123.204Z" fill="white"/>
</g>
<path d="M90.994 146.638H83.4077C82.963 146.638 82.5365 146.461 82.2221 146.147C81.9076 145.832 81.731 145.406 81.731 144.961V129.867L85.2823 130.454C86.2245 130.608 87.1843 130.621 88.1303 130.492L92.6707 129.864V144.955C92.6716 145.176 92.6288 145.394 92.5449 145.599C92.461 145.803 92.3376 145.988 92.1818 146.145C92.0261 146.301 91.8409 146.425 91.6371 146.51C91.4332 146.594 91.2147 146.638 90.994 146.638Z" fill="#EBEBEB"/>
<path d="M93.572 123.346C93.4153 123.413 93.2537 123.469 93.0885 123.512C92.6448 123.651 92.1941 123.766 91.7383 123.857C91.0644 124 90.3829 124.105 89.6973 124.171C88.8562 124.252 88.0112 124.284 87.1664 124.269C85.6291 124.235 84.0988 124.05 82.5977 123.716C82.0262 123.587 81.5647 123.468 81.2507 123.371C81.0853 123.329 80.9236 123.275 80.7671 123.207C80.9362 123.226 81.1033 123.259 81.2663 123.308C81.5803 123.386 82.0482 123.49 82.6228 123.603C84.1187 123.905 85.6378 124.076 87.1633 124.115C88.0015 124.131 88.84 124.103 89.6753 124.03C90.4446 123.958 91.1354 123.861 91.71 123.747C92.2846 123.634 92.7493 123.537 93.0665 123.455C93.2313 123.404 93.4005 123.367 93.572 123.346Z" fill="#263238"/>
<path d="M81.753 125.531C81.797 125.531 81.8347 129.842 81.8347 135.161C81.8347 140.48 81.797 144.792 81.753 144.792C81.7091 144.792 81.6714 140.48 81.6714 135.161C81.6714 129.842 81.7059 125.531 81.753 125.531Z" fill="#263238"/>
<path d="M90.3127 146.738C90.3127 146.782 88.7741 146.82 86.8775 146.82C84.981 146.82 83.4424 146.782 83.4424 146.738C83.4424 146.695 84.9778 146.657 86.8775 146.657C88.7773 146.657 90.3127 146.695 90.3127 146.738Z" fill="#263238"/>
<path d="M81.7563 129.93C82.7819 131.051 84.176 131.765 85.6845 131.943C88.1808 132.232 90.5829 131.026 92.806 129.855C89.1354 130.373 85.3203 130.881 81.7877 129.767" fill="white"/>
<g opacity="0.6">
<path opacity="0.6" d="M87.8256 136.04C86.6921 136.794 85.7846 137.865 84.6385 138.6C83.4924 139.334 81.9161 139.677 80.814 138.873V140.603C81.9161 141.407 83.4924 141.068 84.6385 140.33C85.7846 139.592 86.6921 138.527 87.8256 137.771C88.6682 137.217 89.6178 136.848 90.6126 136.685C91.6075 136.523 92.6253 136.572 93.6001 136.829V135.098C92.6254 134.841 91.6074 134.792 90.6124 134.954C89.6175 135.116 88.6679 135.487 87.8256 136.04Z" fill="white"/>
</g>
</svg>
