<svg width="145" height="145" viewBox="0 0 145 145" fill="none" xmlns="http://www.w3.org/2000/svg">
<path d="M49.1985 104.09L49.4044 105.139C49.3902 105.057 49.3638 104.977 49.3261 104.902C48.5837 103.347 43.4391 103.263 37.2476 105.627C31.3519 107.874 27.9154 111.044 28.2373 112.685L28.0314 111.65C27.7066 110.009 31.146 106.842 37.0388 104.591C43.2303 102.228 48.3749 102.312 49.1202 103.866C49.1543 103.938 49.1806 104.013 49.1985 104.09Z" fill="#DBDBDB"/>
<path d="M36.4907 103.431C43.1839 100.877 49.3609 100.821 50.5499 103.307C51.7389 105.792 47.4324 109.739 40.7392 112.297C34.046 114.855 27.869 114.907 26.6771 112.421C25.4852 109.936 29.8004 105.986 36.4907 103.431ZM40.1882 111.148C46.3797 108.785 49.8655 105.406 49.1202 103.852C48.3749 102.298 43.2303 102.213 37.0388 104.577C30.8473 106.94 27.3644 110.319 28.1097 111.873C28.855 113.428 33.9967 113.512 40.1882 111.148Z" fill="#EBEBEB"/>
<path d="M50.7094 103.782L50.9153 104.832C51.4083 107.323 47.2265 110.945 40.9451 113.344C34.2548 115.898 28.0778 115.954 26.8859 113.468C26.8121 113.317 26.7585 113.158 26.7264 112.993L26.5205 111.94C26.5529 112.104 26.6055 112.264 26.6771 112.416C27.869 114.901 34.046 114.846 40.7392 112.291C47.0206 109.91 51.1995 106.273 50.7094 103.782Z" fill="#DBDBDB"/>
<path d="M38.4714 79.8022C34.6173 80.8984 29.2581 80.5243 26.8917 78.01C26.3813 77.4677 26.4219 76.1279 26.4857 75.5566C26.7148 73.4541 30.0527 72.0766 33.0252 71.253C36.7952 70.1858 42.8852 70.1713 44.9384 72.645C45.4372 73.2482 45.8258 73.4715 45.7649 74.1791C45.6112 75.98 43.3289 78.4189 38.4714 79.8022Z" fill="#C7C7C7"/>
<path d="M38.6916 78.9235C34.8375 80.0226 29.4783 79.6456 27.109 77.1313C24.7397 74.617 29.4638 71.4415 33.2454 70.3743C37.027 69.3071 43.1054 69.2955 45.1586 71.7663C46.9363 73.9094 45.4486 77.0008 38.6916 78.9235Z" fill="#DBDBDB"/>
<path d="M38.2567 78.1231C35.1102 79.0192 30.7312 78.7031 28.7969 76.6586C26.8626 74.6141 30.7196 72.0186 33.8081 71.1486C36.8966 70.2786 41.8643 70.2641 43.5405 72.2854C44.9934 74.0254 43.7899 76.56 38.2567 78.1231Z" fill="#EBEBEB"/>
<path d="M39.9475 74.791C39.9475 74.6286 41.0553 74.3792 41.035 74.6924C41.0176 74.9535 39.9504 75.0028 39.9475 74.791Z" fill="white"/>
<path d="M37.4274 72.6798C37.1374 72.6798 37.1722 72.0708 37.7348 72.0998C38.2075 72.1143 37.816 72.6856 37.4274 72.6798Z" fill="white"/>
<path d="M40.1389 72.1288C39.9301 72.0331 40.5884 71.4734 40.9683 71.6677C41.2873 71.8301 40.4115 72.2535 40.1389 72.1288Z" fill="white"/>
<path d="M41.5626 75.313C41.7888 75.1767 42.7226 75.4174 42.2731 75.6697C41.9019 75.8814 41.2726 75.4899 41.5626 75.313Z" fill="white"/>
<path d="M35.113 77.0124C35.403 77.0443 35.1797 77.6533 34.6461 77.5924C34.2024 77.5199 34.7447 76.9689 35.113 77.0124Z" fill="white"/>
<path d="M31.61 74.3444C31.61 74.5097 30.4819 74.7359 30.5254 74.4198C30.5718 74.1588 31.6332 74.1327 31.61 74.3444Z" fill="white"/>
<path d="M33.144 73.4715C32.9961 73.631 31.9115 73.5817 32.2102 73.2801C32.4625 73.0307 33.3499 73.2656 33.144 73.4715Z" fill="white"/>
<path d="M35.3798 75.5421C35.6872 75.487 36.0497 76.0148 35.4639 76.1047C34.9767 76.1772 34.9883 75.6088 35.3798 75.5421Z" fill="white"/>
<path d="M31.0298 78.3174C31.0298 78.3174 34.91 75.7799 34.4692 75.1622C34.0284 74.5445 27.7325 75.2898 27.6774 75.7045C27.6223 76.1192 29.1825 78.1637 31.0298 78.3174Z" fill="#DBDBDB"/>
<path d="M31.03 72.0012C31.03 72.0012 34.2345 74.0486 35.554 73.7992C36.8735 73.5498 37.9581 70.1568 37.207 70.1336C36.4559 70.1104 32.0334 71.0007 31.03 72.0012Z" fill="#DBDBDB"/>
<path d="M43.088 70.9021C43.088 70.9021 38.738 73.2221 39.0106 73.8746C39.2832 74.5271 45.5414 74.2168 45.698 73.7963C45.8546 73.3758 44.828 71.1863 43.088 70.9021Z" fill="#DBDBDB"/>
<path d="M42.5865 76.8732C42.5865 76.8732 39.1065 74.9592 37.8102 75.2492C36.5139 75.5392 35.7802 78.9177 36.5545 78.9177C37.3288 78.9177 41.6817 77.8911 42.5865 76.8732Z" fill="#DBDBDB"/>
<path d="M111.331 119.01C107.477 120.106 102.118 119.732 99.7513 117.218C99.2409 116.676 99.2815 115.336 99.3453 114.765C99.5744 112.662 102.912 111.299 105.885 110.461C109.655 109.394 115.745 109.379 117.798 111.853C118.297 112.456 118.685 112.68 118.624 113.387C118.468 115.188 116.188 117.627 111.331 119.01Z" fill="#C7C7C7"/>
<path d="M111.551 118.132C107.697 119.231 102.338 118.854 99.9686 116.339C97.5993 113.825 102.323 110.65 106.105 109.582C109.887 108.515 115.965 108.504 118.018 110.974C119.796 113.117 118.32 116.209 111.551 118.132Z" fill="#DBDBDB"/>
<path d="M111.116 117.331C107.97 118.227 103.576 117.911 101.656 115.881C99.7367 113.851 103.579 111.241 106.668 110.371C109.756 109.501 114.724 109.487 116.4 111.508C117.853 113.233 116.638 115.759 111.116 117.331Z" fill="#EBEBEB"/>
<path d="M112.81 113.999C112.81 113.837 113.918 113.587 113.894 113.9C113.874 114.161 112.81 114.211 112.81 113.999Z" fill="white"/>
<path d="M110.287 111.885C109.997 111.885 110.032 111.279 110.594 111.305C111.07 111.322 110.676 111.894 110.287 111.885Z" fill="white"/>
<path d="M112.998 111.337C112.79 111.241 113.448 110.681 113.828 110.876C114.147 111.038 113.271 111.461 112.998 111.337Z" fill="white"/>
<path d="M114.422 114.521C114.648 114.385 115.582 114.625 115.133 114.878C114.759 115.089 114.132 114.698 114.422 114.521Z" fill="white"/>
<path d="M107.973 116.22C108.263 116.252 108.039 116.861 107.506 116.8C107.062 116.728 107.604 116.177 107.973 116.22Z" fill="white"/>
<path d="M104.478 113.552C104.478 113.718 103.35 113.944 103.394 113.628C103.431 113.367 104.493 113.341 104.478 113.552Z" fill="white"/>
<path d="M106.004 112.68C105.856 112.839 104.768 112.79 105.07 112.488C105.322 112.23 106.192 112.474 106.004 112.68Z" fill="white"/>
<path d="M108.245 114.75C108.553 114.695 108.915 115.223 108.327 115.313C107.836 115.385 107.848 114.817 108.245 114.75Z" fill="white"/>
<path d="M103.884 117.525C103.884 117.525 107.764 114.988 107.323 114.37C106.882 113.752 100.587 114.498 100.531 114.912C100.476 115.327 102.042 117.372 103.884 117.525Z" fill="#DBDBDB"/>
<path d="M103.887 111.209C103.887 111.209 107.077 113.257 108.411 113.007C109.745 112.758 110.815 109.365 110.064 109.342C109.313 109.318 104.893 110.2 103.887 111.209Z" fill="#DBDBDB"/>
<path d="M115.948 110.11C115.948 110.11 111.598 112.43 111.868 113.083C112.137 113.735 118.401 113.425 118.558 113.004C118.714 112.584 117.688 110.394 115.948 110.11Z" fill="#DBDBDB"/>
<path d="M115.446 116.081C115.446 116.081 111.966 114.167 110.67 114.457C109.373 114.747 108.64 118.126 109.414 118.126C110.188 118.126 114.55 117.099 115.446 116.081Z" fill="#DBDBDB"/>
<path d="M120.863 37.7986C116.887 37.323 112.085 34.8986 110.87 31.6767C110.609 30.9807 111.16 29.7627 111.45 29.2581C112.473 27.405 116.09 27.4369 119.143 27.8081C123.041 28.2837 128.661 30.6153 129.601 33.6864C129.83 34.4346 130.1 34.7942 129.772 35.4264C128.925 37.0243 125.88 38.3931 120.863 37.7986Z" fill="#C7C7C7"/>
<path d="M121.406 37.0736C117.427 36.598 112.627 34.1736 111.412 30.9517C110.197 27.7298 115.78 26.6017 119.677 27.0831C123.575 27.5645 129.192 29.8903 130.132 32.9614C130.947 35.6236 128.383 37.903 121.406 37.0736Z" fill="#DBDBDB"/>
<path d="M121.313 36.1659C118.065 35.7802 114.141 33.8082 113.149 31.1663C112.158 28.5244 116.716 27.6196 119.9 28.0053C123.085 28.391 127.675 30.2992 128.444 32.8077C129.108 34.9827 127.02 36.8445 121.313 36.1659Z" fill="#EBEBEB"/>
<path d="M124.158 33.7415C124.219 33.5936 125.338 33.7908 125.199 34.0692C125.083 34.3041 124.079 33.93 124.158 33.7415Z" fill="white"/>
<path d="M122.65 30.8212C122.374 30.7023 122.65 30.16 123.157 30.4007C123.586 30.6037 123.004 30.9807 122.65 30.8212Z" fill="white"/>
<path d="M125.361 31.3606C125.207 31.1924 126.028 30.9285 126.306 31.2533C126.538 31.5259 125.57 31.581 125.361 31.3606Z" fill="white"/>
<path d="M125.448 34.8493C125.709 34.8087 126.472 35.3887 125.964 35.4496C125.541 35.5018 125.112 34.8986 125.448 34.8493Z" fill="white"/>
<path d="M118.842 33.93C119.091 34.0692 118.653 34.5506 118.192 34.2751C117.807 34.046 118.517 33.7473 118.842 33.93Z" fill="white"/>
<path d="M116.647 30.1194C116.574 30.2673 115.455 30.044 115.617 29.7714C115.753 29.5423 116.739 29.928 116.647 30.1194Z" fill="white"/>
<path d="M118.39 29.9019C118.192 29.9918 117.209 29.5278 117.604 29.3654C117.931 29.232 118.645 29.7859 118.39 29.9019Z" fill="white"/>
<path d="M119.663 32.6772C119.953 32.7468 120.095 33.3703 119.521 33.2282C119.039 33.1064 119.268 32.5873 119.663 32.6772Z" fill="white"/>
<path d="M114.567 33.5559C114.567 33.5559 119.123 32.7091 118.955 31.9725C118.787 31.2359 112.691 29.4901 112.479 29.8526C112.268 30.2151 112.926 32.7033 114.567 33.5559Z" fill="#DBDBDB"/>
<path d="M117.003 27.7298C117.003 27.7298 119.17 30.8531 120.483 31.1315C121.797 31.4099 124.12 28.71 123.424 28.3881C122.728 28.0662 118.32 27.1933 117.003 27.7298Z" fill="#DBDBDB"/>
<path d="M128.554 31.3664C128.554 31.3664 123.647 31.8217 123.647 32.5264C123.647 33.2311 129.543 35.3626 129.847 35.0349C130.152 34.7072 130.053 32.3002 128.554 31.3664Z" fill="#DBDBDB"/>
<path d="M125.79 36.6821C125.79 36.6821 123.325 33.5762 122.02 33.3413C120.715 33.1064 118.743 35.9513 119.448 36.2413C120.153 36.5313 124.564 37.2737 125.79 36.6821Z" fill="#DBDBDB"/>
<path d="M24.7282 72.4652C20.7552 71.8649 15.976 68.9533 14.7899 65.105C14.5347 64.2756 15.1002 62.8343 15.3699 62.2369C16.411 60.0503 20.0099 60.1257 23.0752 60.5984C26.9699 61.19 32.5756 64.0233 33.4891 67.6773C33.7124 68.5676 33.9821 68.9968 33.6457 69.7363C32.7931 71.63 29.7394 73.225 24.7282 72.4652Z" fill="#C7C7C7"/>
<path d="M25.2763 71.6126C21.3004 71.0094 16.5299 68.0978 15.3351 64.2495C14.1403 60.4012 19.7373 59.1397 23.632 59.74C27.5267 60.3403 33.1237 63.1649 34.0372 66.8218C34.8289 69.9915 32.245 72.6682 25.2763 71.6126Z" fill="#DBDBDB"/>
<path d="M25.1921 70.5367C21.9441 70.0437 18.0407 67.6657 17.0721 64.5192C16.1035 61.3727 20.671 60.3461 23.8523 60.8391C27.0336 61.3321 31.6069 63.6376 32.3522 66.6391C32.996 69.2114 30.8848 71.398 25.1921 70.5367Z" fill="#EBEBEB"/>
<path d="M28.0574 67.6889C28.1183 67.512 29.2348 67.7585 29.0956 68.0891C28.9738 68.3646 27.9762 67.9209 28.0574 67.6889Z" fill="white"/>
<path d="M26.5727 64.2089C26.3001 64.061 26.5727 63.423 27.0831 63.7159C27.5094 63.9595 26.9265 64.3974 26.5727 64.2089Z" fill="white"/>
<path d="M29.2899 64.8759C29.1362 64.6729 29.9598 64.3684 30.2353 64.757C30.4499 65.0847 29.4813 65.1398 29.2899 64.8759Z" fill="white"/>
<path d="M29.3363 69.02C29.5973 68.9765 30.3571 69.6725 29.8496 69.7392C29.4233 69.7914 28.9999 69.0722 29.3363 69.02Z" fill="white"/>
<path d="M22.7388 67.86C22.9882 68.0282 22.5474 68.5937 22.0863 68.2631C21.7006 67.9818 22.4169 67.6367 22.7388 67.86Z" fill="white"/>
<path d="M20.5899 63.3157C20.5145 63.4868 19.4009 63.2142 19.5633 62.8923C19.688 62.6197 20.6711 63.0895 20.5899 63.3157Z" fill="white"/>
<path d="M22.33 63.0721C22.1328 63.1794 21.1526 62.6168 21.547 62.4283C21.8689 62.2717 22.5765 62.93 22.33 63.0721Z" fill="white"/>
<path d="M23.5683 66.3781C23.8583 66.4622 23.9975 67.2075 23.4233 67.0306C23.3368 67.0114 23.2615 66.9585 23.2139 66.8838C23.1663 66.809 23.1504 66.7184 23.1696 66.6318C23.1888 66.5453 23.2416 66.47 23.3164 66.4224C23.3912 66.3748 23.4818 66.3588 23.5683 66.3781Z" fill="white"/>
<path d="M18.4672 67.3699C18.4672 67.3699 23.0318 66.41 22.8694 65.54C22.707 64.67 16.6257 62.5327 16.4111 62.959C16.1965 63.3853 16.8345 66.3433 18.4672 67.3699Z" fill="#DBDBDB"/>
<path d="M20.9553 60.4795C20.9553 60.4795 23.0955 64.2118 24.4063 64.5395C25.7171 64.8672 28.0487 61.6888 27.3672 61.3118C26.6857 60.9348 22.2719 59.8589 20.9553 60.4795Z" fill="#DBDBDB"/>
<path d="M32.4798 64.9136C32.4798 64.9136 27.5498 65.4037 27.5498 66.2505C27.5498 67.0973 33.4194 69.6754 33.7268 69.2897C34.0342 68.904 33.9617 66.0359 32.4798 64.9136Z" fill="#DBDBDB"/>
<path d="M29.664 71.1921C29.664 71.1921 27.2251 67.483 25.9114 67.1901C24.5977 66.8972 22.6199 70.2525 23.3159 70.6063C24.0119 70.9601 28.4199 71.8823 29.664 71.1921Z" fill="#DBDBDB"/>
<path d="M116.188 75.0288L116.159 75.9423C116.162 75.8702 116.155 75.7981 116.139 75.7277C115.82 74.2922 111.554 73.225 105.94 73.9877C100.598 74.7185 97.1208 76.6905 97.0715 78.1173L97.1034 77.2038C97.1498 75.7828 100.63 73.8108 105.972 73.08C111.586 72.3115 115.852 73.37 116.171 74.82C116.185 74.8886 116.191 74.9588 116.188 75.0288Z" fill="#DBDBDB"/>
<path d="M105.737 72.0186C111.804 71.1892 116.957 72.3376 117.467 74.6286C117.978 76.9196 113.625 79.3817 107.555 80.2111C101.485 81.0405 96.335 79.8921 95.8246 77.6011C95.3142 75.3101 99.6699 72.8509 105.737 72.0186ZM107.32 79.17C112.935 78.4015 116.49 76.27 116.171 74.82C115.852 73.37 111.586 72.3144 105.972 73.08C100.357 73.8456 96.8019 75.98 97.1209 77.43C97.4399 78.88 101.709 79.9327 107.32 79.17Z" fill="#EBEBEB"/>
<path d="M117.508 75.0636L117.476 75.9771C117.403 78.1463 113.219 80.3561 107.526 81.1362C101.459 81.9656 96.306 80.8143 95.7956 78.5262C95.7634 78.3865 95.7498 78.2432 95.755 78.0999L95.784 77.1864C95.7802 77.3296 95.7939 77.4728 95.8246 77.6127C96.335 79.9124 101.491 81.0637 107.555 80.2227C113.251 79.4397 117.45 77.2328 117.508 75.0636Z" fill="#DBDBDB"/>
<path d="M127.652 68.5647L127.191 69.5275C127.226 69.4515 127.252 69.3717 127.269 69.2897C127.6 67.6019 123.54 64.4496 117.16 62.64C111.093 60.9 106.43 61.3843 105.717 62.8894L106.181 61.9266C106.903 60.4186 111.557 59.943 117.621 61.6743C124.001 63.4955 128.061 66.6449 127.728 68.3443C127.711 68.4203 127.685 68.4942 127.652 68.5647Z" fill="#DBDBDB"/>
<path d="M117.876 60.4215C124.764 62.3877 129.74 66.0446 129.206 68.7474C128.673 71.4502 122.853 72.0273 115.965 70.0611C109.078 68.0949 104.11 64.438 104.635 61.7323C105.16 59.0266 110.989 58.4553 117.876 60.4215ZM116.212 68.8141C122.592 70.6324 127.397 70.0176 127.733 68.3269C128.07 66.6362 124.001 63.4868 117.627 61.6569C111.252 59.827 106.441 60.4563 106.108 62.1441C105.774 63.8319 109.837 66.9871 116.212 68.8141Z" fill="#EBEBEB"/>
<path d="M129.05 69.223L128.586 70.1887C127.487 72.4768 121.968 72.8712 115.504 71.0268C108.617 69.0606 103.637 65.4008 104.174 62.698C104.206 62.5333 104.26 62.3735 104.333 62.2224L104.794 61.2596C104.722 61.4096 104.669 61.5685 104.638 61.7323C104.101 64.438 109.081 68.0949 115.968 70.0611C122.429 71.92 127.948 71.5111 129.05 69.223Z" fill="#DBDBDB"/>
<path d="M72.4999 134.908C89.6405 134.908 103.536 133.594 103.536 131.973C103.536 130.352 89.6405 129.038 72.4999 129.038C55.3593 129.038 41.4641 130.352 41.4641 131.973C41.4641 133.594 55.3593 134.908 72.4999 134.908Z" fill="#EBEBEB"/>
<path d="M110.017 125.811C103.904 130.027 89.6507 132.304 73.2598 131.153C56.869 130.001 43.0824 125.759 37.6188 120.713C35.844 118.053 35.7483 113.637 37.12 112.169C37.1351 112.152 37.1516 112.137 37.1693 112.123L37.3665 111.957C42.8765 107.297 57.768 104.707 75.0346 105.92C92.3013 107.132 106.645 111.766 111.462 117.137L111.691 117.398C111.699 117.402 111.705 117.41 111.708 117.418C112.851 119.077 112.14 123.427 110.017 125.811Z" fill="#E50019"/>
<path opacity="0.2" d="M110.017 125.811C103.904 130.027 89.6507 132.304 73.2598 131.153C56.869 130.001 43.0824 125.759 37.6188 120.713C35.844 118.053 35.7483 113.637 37.12 112.169C37.1351 112.152 37.1516 112.137 37.1693 112.123L37.3665 111.957C42.8765 107.297 57.768 104.707 75.0346 105.92C92.3013 107.132 106.645 111.766 111.462 117.137L111.691 117.398C111.699 117.402 111.705 117.41 111.708 117.418C112.851 119.077 112.14 123.427 110.017 125.811Z" fill="black"/>
<path d="M110.017 125.811C109.77 126.092 109.495 126.349 109.197 126.576C104.212 130.312 88.7256 133.183 73.1961 132.086C57.6666 130.99 42.746 125.996 38.3235 121.591C38.0585 121.327 37.8223 121.035 37.6188 120.721C35.844 118.062 35.7483 113.645 37.12 112.178C37.1351 112.161 37.1516 112.145 37.1693 112.131L37.3665 111.966C37.7986 111.644 38.3467 111.583 39.005 111.888C42.4125 113.445 55.9788 120.614 73.9124 121.875C91.846 123.137 106.285 117.934 109.872 116.867C110.137 116.764 110.426 116.737 110.705 116.788C110.985 116.839 111.244 116.967 111.456 117.157L111.685 117.418C111.693 117.423 111.699 117.43 111.702 117.438C112.851 119.077 112.14 123.427 110.017 125.811Z" fill="#E50019"/>
<path opacity="0.3" d="M110.017 125.811C109.77 126.092 109.495 126.349 109.197 126.576C104.212 130.312 88.7256 133.183 73.1961 132.086C57.6666 130.99 42.746 125.996 38.3235 121.591C38.0585 121.327 37.8223 121.035 37.6188 120.721C35.844 118.062 35.7483 113.645 37.12 112.178C37.1351 112.161 37.1516 112.145 37.1693 112.131L37.3665 111.966C37.7986 111.644 38.3467 111.583 39.005 111.888C42.4125 113.445 55.9788 120.614 73.9124 121.875C91.846 123.137 106.285 117.934 109.872 116.867C110.137 116.764 110.426 116.737 110.705 116.788C110.985 116.839 111.244 116.967 111.456 117.157L111.685 117.418C111.693 117.423 111.699 117.43 111.702 117.438C112.851 119.077 112.14 123.427 110.017 125.811Z" fill="black"/>
<path opacity="0.5" d="M104.081 117.549C105.666 116.71 107.398 116.184 109.182 116C107.642 116.944 105.886 117.477 104.081 117.549Z" fill="white"/>
<path opacity="0.5" d="M92.8523 119.77C95.9393 118.973 99.0778 118.392 102.245 118.03C99.2451 119.172 96.0627 119.762 92.8523 119.77Z" fill="white"/>
<path opacity="0.5" d="M58.29 116.986C60.1576 117.711 62.1238 118.129 64.09 118.523C67.3611 119.156 70.6643 119.61 73.9848 119.883C77.9718 120.216 81.974 120.33 85.9734 120.225H86.9739C87.9367 120.179 89.0184 120.127 89.9812 120.098C81.9908 121.164 73.8795 120.908 65.9721 119.341C63.3621 118.784 60.7115 118.166 58.2987 116.998L58.29 116.986Z" fill="white"/>
<g opacity="0.1">
<path opacity="0.1" d="M100.63 115.333C100.094 115.954 98.7624 116.513 95.6768 116.835C88.7434 117.598 81.7557 117.741 74.7968 117.262C67.6747 116.775 60.6069 115.683 53.6703 113.996C48.8186 112.853 48.0849 111.714 48.0182 110.725C47.9831 110.492 48.0034 110.254 48.0774 110.03C48.1515 109.806 48.2773 109.603 48.4445 109.437C48.9752 108.811 50.3034 108.248 53.4064 107.926C60.3399 107.164 67.3275 107.02 74.2864 107.497C81.4079 107.991 88.4746 109.089 95.41 110.78C100.262 111.92 100.995 113.062 101.059 114.051C101.092 114.284 101.071 114.52 100.996 114.743C100.922 114.965 100.796 115.167 100.63 115.333Z" fill="black"/>
</g>
<path d="M113.77 102.37C113.225 103.788 111.604 105.325 107.584 106.955C101.396 109.452 92.3533 112.755 79.8717 114.463C67.3901 116.171 57.6055 115.411 50.8369 114.666C44.0683 113.921 42.772 111.885 42.4269 109.93C42.2529 108.968 42.2384 108.04 42.6473 107.219C43.1809 105.798 44.7991 104.255 48.8417 102.617C55.0303 100.12 64.0725 96.8165 76.5512 95.1084C89.0299 93.4003 98.8174 94.163 105.592 94.9054C112.366 95.6478 113.654 97.6836 114.002 99.6411C114.17 100.595 114.187 101.532 113.77 102.37Z" fill="#E50019"/>
<g opacity="0.5">
<path opacity="0.5" d="M113.77 102.37C113.225 103.788 111.604 105.325 107.584 106.955C101.396 109.452 92.3533 112.755 79.8717 114.463C67.3901 116.171 57.6055 115.411 50.8369 114.666C44.0683 113.921 42.772 111.885 42.4269 109.93C42.2529 108.968 42.2384 108.04 42.6473 107.219C43.1809 105.798 44.7991 104.255 48.8417 102.617C55.0303 100.12 64.0725 96.8165 76.5512 95.1084C89.0299 93.4003 98.8174 94.163 105.592 94.9054C112.366 95.6478 113.654 97.6836 114.002 99.6411C114.17 100.595 114.187 101.532 113.77 102.37Z" fill="black"/>
</g>
<g opacity="0.1">
<path opacity="0.1" d="M104.049 98.716C103.631 99.4932 102.384 100.369 99.2988 101.367C92.3678 103.647 85.2414 105.284 78.0099 106.256C70.6167 107.25 63.1501 107.587 55.6973 107.265C50.4918 107.083 49.4971 106.024 49.2216 104.986C49.1385 104.747 49.1105 104.493 49.1396 104.242C49.1687 103.99 49.2543 103.749 49.3898 103.536C49.7987 102.756 51.0399 101.877 54.1458 100.874C61.0768 98.593 68.2032 96.9563 75.4347 95.9842C82.8289 94.9905 90.2965 94.6528 97.7502 94.975C102.953 95.1577 103.948 96.2162 104.22 97.2544C104.304 97.4951 104.333 97.7517 104.303 98.0049C104.273 98.2581 104.186 98.5013 104.049 98.716Z" fill="black"/>
</g>
<path opacity="0.2" d="M44.2683 107.126C44.9674 107.259 45.6747 107.344 46.3853 107.381C51.3501 107.726 56.3381 107.723 61.3087 107.593C66.2793 107.462 71.2557 107.135 76.1828 106.523C85.3207 105.244 94.476 103.733 103.367 101.239C104.73 100.845 106.088 100.418 107.407 99.8963C108.727 99.3743 110.081 98.8146 111.052 97.7648C110.124 98.861 108.75 99.4584 107.468 100.036C100.856 102.721 93.7945 104.096 86.8084 105.418C74.1961 107.857 61.3163 108.614 48.5052 107.668C47.0929 107.538 45.6545 107.457 44.2683 107.126Z" fill="black"/>
<g opacity="0.2">
<path opacity="0.2" d="M49.5696 104.11C53.3684 102.129 57.3442 100.508 61.4451 99.267C57.646 101.248 53.6702 102.869 49.5696 104.11Z" fill="black"/>
<path opacity="0.2" d="M93.4089 102.161C97.2079 100.18 101.184 98.5574 105.284 97.3153C101.485 99.2956 97.5092 100.918 93.4089 102.161Z" fill="black"/>
<path opacity="0.2" d="M50.5381 105.992C57.7302 102.63 65.086 99.6292 72.5781 97.0021C65.3868 100.366 58.0308 103.367 50.5381 105.992Z" fill="black"/>
<path opacity="0.2" d="M77.2791 105.377C84.4711 102.015 91.827 99.0144 99.3191 96.3873C92.1277 99.7515 84.7718 102.752 77.2791 105.377Z" fill="black"/>
<path opacity="0.2" d="M66.1721 106.14C74.7097 102.225 83.402 98.6773 92.2489 95.497C83.7229 99.4062 75.0307 102.954 66.1721 106.14Z" fill="black"/>
<path opacity="0.2" d="M56.6804 106.468C65.6356 102.386 74.7445 98.6706 84.0071 95.3201C75.0539 99.4053 65.945 103.121 56.6804 106.468Z" fill="black"/>
</g>
<g opacity="0.5">
<path opacity="0.5" d="M74.5444 112.598C86.8636 111.261 99.1944 108.582 110.426 103.226C104.336 106.706 97.5936 108.982 90.7525 110.507C85.4253 111.7 79.9998 112.4 74.5444 112.598Z" fill="white"/>
<path opacity="0.5" d="M44.6165 108.388C49.5373 108.981 54.4953 109.211 59.45 109.075C60.1604 109.075 60.8652 109.023 61.5756 109.014C55.9269 109.655 50.2141 109.443 44.6281 108.388H44.6165Z" fill="white"/>
</g>
<path d="M117.45 97.7648C117.102 97.0195 108.75 91.8952 99.8732 90.1262C91.9881 88.5573 83.9087 87.2262 81.2407 87.2784C78.8105 87.3277 71.9172 88.6907 64.7919 90.3495C60.5869 91.3268 56.2427 93.003 52.6757 94.6415C52.745 94.6586 52.8094 94.6913 52.8642 94.737C52.919 94.7827 52.9626 94.8403 52.9918 94.9054C53.1397 95.2969 52.5771 95.8711 51.7332 96.1901C50.8893 96.5091 50.0889 96.4482 49.9381 96.0596C49.9266 96.0309 49.9197 96.0006 49.9178 95.9697C46.9105 97.498 44.895 98.7914 44.7442 99.1452C44.4542 99.8412 55.3408 99.0814 63.7363 101.109C72.5958 103.243 79.0367 108.153 81.2813 108.112C83.5259 108.071 90.8513 102.892 99.6151 100.415C100.247 100.239 100.891 100.076 101.538 99.9253C101.561 99.2699 102.327 98.5913 103.391 98.339C104.571 98.049 105.662 98.4115 105.836 99.1278C112.146 98.1911 117.691 98.281 117.45 97.7648ZM61.4801 95.8769C60.5463 95.8769 59.7807 95.4332 59.7807 94.8793C59.7807 94.3254 60.5347 93.873 61.4743 93.8672C62.4139 93.8614 63.1737 94.3109 63.1737 94.8648C63.1737 95.4187 62.4139 95.8711 61.4801 95.8769ZM68.7765 95.5086C66.9002 95.8682 65.2356 95.4071 65.0587 94.4791C64.8818 93.5511 66.2622 92.5129 68.1385 92.1591C70.0148 91.8053 71.6794 92.2606 71.8563 93.1886C72.0332 94.1166 70.647 95.1519 68.7707 95.5086H68.7765ZM86.7565 103.069C86.3041 103.153 85.8865 102.982 85.8372 102.689C85.7879 102.396 86.1011 102.083 86.5535 101.999C87.0059 101.915 87.4235 102.08 87.4728 102.376C87.5221 102.672 87.2031 102.979 86.7507 103.069H86.7565ZM100.488 92.4201C99.8413 92.2838 99.386 91.8604 99.4672 91.4805C99.5484 91.1006 100.137 90.9005 100.781 91.0397C101.425 91.1789 101.883 91.5965 101.802 91.9764C101.721 92.3563 101.126 92.5564 100.482 92.4201H100.488Z" fill="#E50019"/>
<path opacity="0.2" d="M117.45 97.7648C117.102 97.0195 108.75 91.8952 99.8732 90.1262C91.9881 88.5573 83.9087 87.2262 81.2407 87.2784C78.8105 87.3277 71.9172 88.6907 64.7919 90.3495C60.5869 91.3268 56.2427 93.003 52.6757 94.6415C52.745 94.6586 52.8094 94.6913 52.8642 94.737C52.919 94.7827 52.9626 94.8403 52.9918 94.9054C53.1397 95.2969 52.5771 95.8711 51.7332 96.1901C50.8893 96.5091 50.0889 96.4482 49.9381 96.0596C49.9266 96.0309 49.9197 96.0006 49.9178 95.9697C46.9105 97.498 44.895 98.7914 44.7442 99.1452C44.4542 99.8412 55.3408 99.0814 63.7363 101.109C72.5958 103.243 79.0367 108.153 81.2813 108.112C83.5259 108.071 90.8513 102.892 99.6151 100.415C100.247 100.239 100.891 100.076 101.538 99.9253C101.561 99.2699 102.327 98.5913 103.391 98.339C104.571 98.049 105.662 98.4115 105.836 99.1278C112.146 98.1911 117.691 98.281 117.45 97.7648ZM61.4801 95.8769C60.5463 95.8769 59.7807 95.4332 59.7807 94.8793C59.7807 94.3254 60.5347 93.873 61.4743 93.8672C62.4139 93.8614 63.1737 94.3109 63.1737 94.8648C63.1737 95.4187 62.4139 95.8711 61.4801 95.8769ZM68.7765 95.5086C66.9002 95.8682 65.2356 95.4071 65.0587 94.4791C64.8818 93.5511 66.2622 92.5129 68.1385 92.1591C70.0148 91.8053 71.6794 92.2606 71.8563 93.1886C72.0332 94.1166 70.647 95.1519 68.7707 95.5086H68.7765ZM86.7565 103.069C86.3041 103.153 85.8865 102.982 85.8372 102.689C85.7879 102.396 86.1011 102.083 86.5535 101.999C87.0059 101.915 87.4235 102.08 87.4728 102.376C87.5221 102.672 87.2031 102.979 86.7507 103.069H86.7565ZM100.488 92.4201C99.8413 92.2838 99.386 91.8604 99.4672 91.4805C99.5484 91.1006 100.137 90.9005 100.781 91.0397C101.425 91.1789 101.883 91.5965 101.802 91.9764C101.721 92.3563 101.126 92.5564 100.482 92.4201H100.488Z" fill="white"/>
<path opacity="0.1" d="M71.8504 93.1857C71.6735 92.2577 70.006 91.7995 68.1326 92.1562C66.3201 92.5013 64.9774 93.4844 65.0441 94.3834C64.8614 92.9943 66.178 92.1939 67.7585 91.756C69.339 91.3181 71.6648 91.8836 71.8504 93.1857Z" fill="black"/>
<path opacity="0.1" d="M63.1678 94.8648C63.1678 94.3109 62.4022 93.8643 61.4684 93.8672C60.5346 93.8701 59.7719 94.3254 59.7748 94.8793C59.7748 94.8793 59.5689 93.6816 61.5148 93.5598C63.4607 93.438 63.1678 94.8648 63.1678 94.8648Z" fill="black"/>
<path opacity="0.1" d="M87.441 102.303C87.3395 102.054 86.9567 101.918 86.5478 102.013C86.1389 102.109 85.7735 102.408 85.8315 102.703C85.8315 102.703 85.6836 102.187 86.3622 101.915C87.0408 101.642 87.4178 102.08 87.441 102.303Z" fill="black"/>
<path opacity="0.1" d="M101.648 91.5095C101.417 91.2629 101.111 91.098 100.778 91.0397C100.134 90.9005 99.5426 91.1006 99.4643 91.4805C99.4513 91.5629 99.4571 91.6471 99.4812 91.727C99.5053 91.8068 99.5471 91.8802 99.6035 91.9416C99.2526 91.6168 99.1743 90.9208 100.012 90.7526C100.851 90.5844 101.5 91.06 101.648 91.5095Z" fill="black"/>
<g opacity="0.5">
<path opacity="0.5" d="M59.2356 95.0475C59.7257 96.3032 62.1153 96.5555 63.0868 95.7522C63.2638 95.6317 63.3914 95.4516 63.4464 95.2447C63.4431 95.4742 63.3493 95.6931 63.1854 95.8537C62.2545 96.9586 59.4531 96.6019 59.2356 95.0475Z" fill="white"/>
<path opacity="0.5" d="M64.7834 94.8735C65.8158 96.6889 70.7516 96.1437 71.8391 94.5835C72.0711 94.2887 72.2095 93.9311 72.2364 93.5569C72.2607 93.9477 72.159 94.336 71.9464 94.6647C70.8647 96.5178 65.723 97.0485 64.7747 94.8793L64.7834 94.8735Z" fill="white"/>
<path opacity="0.5" d="M85.408 102.689C85.5283 102.884 85.7006 103.041 85.9055 103.144C86.1104 103.246 86.3398 103.29 86.568 103.269C86.9164 103.222 87.248 103.091 87.5337 102.886C87.6323 102.817 87.728 102.741 87.8237 102.674C87.7512 102.776 87.67 102.869 87.5888 102.964C87.3231 103.252 86.963 103.435 86.5738 103.481C86.075 103.524 85.4515 103.191 85.3877 102.672L85.408 102.689Z" fill="white"/>
<path opacity="0.5" d="M98.8902 91.3268C98.867 92.0634 99.592 92.5651 100.244 92.713C100.897 92.8609 101.79 92.9566 102.132 92.2577C102.099 92.4462 101.995 92.615 101.842 92.7304C100.836 93.4293 98.6292 92.7594 98.8902 91.3268Z" fill="white"/>
<path opacity="0.5" d="M46.4495 98.774C52.4061 98.8987 58.4294 98.9306 64.2845 100.154C67.7645 101.024 71.0444 102.567 74.3359 103.959L77.6129 105.409C78.8628 105.899 80.104 106.604 81.4206 106.807C82.3691 106.51 83.2988 106.155 84.2046 105.746L87.5019 104.354C91.9099 102.541 96.3353 100.653 101.001 99.6179C98.6868 100.198 96.4154 100.938 94.2038 101.833C90.9935 103.066 87.4816 104.609 84.3032 105.978C83.4111 106.382 82.4972 106.736 81.5656 107.039C81.3254 107.082 81.078 107.06 80.8493 106.975C79.7124 106.595 78.5954 106.157 77.5027 105.664C72.0594 103.417 66.6422 100.401 60.7175 99.7774C55.9905 99.1423 51.2142 98.9596 46.4495 98.7827V98.774Z" fill="white"/>
<path opacity="0.5" d="M106.387 98.3941C109.522 97.9272 112.7 97.5502 115.873 97.6952C112.712 97.9475 109.559 98.3187 106.387 98.3941Z" fill="white"/>
</g>
<path d="M52.3304 91.7067L51.791 92.8C51.8318 92.7138 51.8629 92.6234 51.8838 92.5303C52.284 90.596 47.6527 86.9478 40.365 84.8047C33.4311 82.7747 28.0951 83.2677 27.2512 84.9874L27.7906 83.8854C28.6345 82.1657 33.9705 81.664 40.9044 83.7027C48.1921 85.8487 52.8234 89.5027 52.4232 91.4283C52.4033 91.5244 52.3721 91.6179 52.3304 91.7067Z" fill="#E50019"/>
<g opacity="0.4">
<path opacity="0.4" d="M52.3304 91.7067L51.791 92.8C51.8318 92.7138 51.8629 92.6234 51.8838 92.5303C52.284 90.596 47.6527 86.9478 40.365 84.8047C33.4311 82.7747 28.0951 83.2677 27.2512 84.9874L27.7906 83.8854C28.6345 82.1657 33.9705 81.664 40.9044 83.7027C48.1921 85.8487 52.8234 89.5027 52.4232 91.4283C52.4033 91.5244 52.3721 91.6179 52.3304 91.7067Z" fill="white"/>
</g>
<path d="M41.2001 82.2846C49.0765 84.6046 54.746 88.8415 54.108 91.93C53.47 95.0185 46.7971 95.6304 38.9207 93.3133C31.0443 90.9962 25.3748 86.7593 26.0128 83.665C26.6508 80.5707 33.3266 79.9675 41.2001 82.2846ZM39.2165 91.8865C46.5013 94.0296 52.0229 93.3713 52.4231 91.4341C52.8233 89.4969 48.192 85.8545 40.9043 83.7085C33.6166 81.5625 28.0979 82.2295 27.6977 84.1609C27.2975 86.0923 31.9288 89.7434 39.2165 91.8865Z" fill="#E50019"/>
<g opacity="0.7">
<path opacity="0.7" d="M41.2001 82.2846C49.0765 84.6046 54.746 88.8415 54.108 91.93C53.47 95.0185 46.7971 95.6304 38.9207 93.3133C31.0443 90.9962 25.3748 86.7593 26.0128 83.665C26.6508 80.5707 33.3266 79.9675 41.2001 82.2846ZM39.2165 91.8865C46.5013 94.0296 52.0229 93.3713 52.4231 91.4341C52.8233 89.4969 48.192 85.8545 40.9043 83.7085C33.6166 81.5625 28.0979 82.2295 27.6977 84.1609C27.2975 86.0923 31.9288 89.7434 39.2165 91.8865Z" fill="white"/>
</g>
<path d="M53.9196 92.4752L53.3802 93.5743C52.1013 96.1843 45.7706 96.5903 38.3814 94.4153C30.5079 92.0953 24.8355 87.8613 25.4735 84.767C25.5125 84.5792 25.5749 84.397 25.6591 84.2247L26.1985 83.1227C26.1147 83.2952 26.0524 83.4773 26.0129 83.665C25.3749 86.7593 31.0473 90.9991 38.9208 93.3133C46.3129 95.4883 52.6407 95.0881 53.9196 92.4752Z" fill="#E50019"/>
<g opacity="0.4">
<path opacity="0.4" d="M53.9196 92.4752L53.3802 93.5743C52.1013 96.1843 45.7706 96.5903 38.3814 94.4153C30.5079 92.0953 24.8355 87.8613 25.4735 84.767C25.5125 84.5792 25.5749 84.397 25.6591 84.2247L26.1985 83.1227C26.1147 83.2952 26.0524 83.4773 26.0129 83.665C25.3749 86.7593 31.0473 90.9991 38.9208 93.3133C46.3129 95.4883 52.6407 95.0881 53.9196 92.4752Z" fill="white"/>
</g>
<path d="M97.3413 90.4974L97.2543 91.7183C97.2631 91.6214 97.2582 91.5238 97.2398 91.4283C96.8802 89.4853 91.2165 87.8526 83.6591 88.6153C76.4671 89.3432 71.714 91.8198 71.5806 93.7309L71.6676 92.5071C71.7981 90.596 76.5512 88.1194 83.7432 87.3944C91.3006 86.6288 96.9643 88.2644 97.3239 90.2045C97.3419 90.301 97.3477 90.3994 97.3413 90.4974Z" fill="#E50019"/>
<g opacity="0.4">
<path opacity="0.4" d="M97.3413 90.4974L97.2543 91.7183C97.2631 91.6214 97.2582 91.5238 97.2398 91.4283C96.8802 89.4853 91.2165 87.8526 83.6591 88.6153C76.4671 89.3432 71.714 91.8198 71.5806 93.7309L71.6676 92.5071C71.7981 90.596 76.5512 88.1194 83.7432 87.3944C91.3006 86.6288 96.9643 88.2644 97.3239 90.2045C97.3419 90.301 97.3477 90.3994 97.3413 90.4974Z" fill="white"/>
</g>
<path d="M83.4792 85.9676C91.6485 85.144 98.4954 86.9304 99.0696 90.0276C99.6438 93.1248 93.6988 96.2133 85.5266 97.0369C77.3544 97.8605 70.5104 96.0741 69.9362 92.9769C69.362 89.8797 75.3128 86.7941 83.4792 85.9676ZM85.2598 95.6101C92.8172 94.8474 97.6805 92.1533 97.3209 90.2103C96.9613 88.2673 91.2976 86.6346 83.7402 87.4002C76.1828 88.1658 71.3224 90.8599 71.682 92.8C72.0416 94.7401 77.7198 96.3728 85.2598 95.6101Z" fill="#E50019"/>
<g opacity="0.7">
<path opacity="0.7" d="M83.4792 85.9676C91.6485 85.144 98.4954 86.9304 99.0696 90.0276C99.6438 93.1248 93.6988 96.2133 85.5266 97.0369C77.3544 97.8605 70.5104 96.0741 69.9362 92.9769C69.362 89.8797 75.3128 86.7941 83.4792 85.9676ZM85.2598 95.6101C92.8172 94.8474 97.6805 92.1533 97.3209 90.2103C96.9613 88.2673 91.2976 86.6346 83.7402 87.4002C76.1828 88.1658 71.3224 90.8599 71.682 92.8C72.0416 94.7401 77.7198 96.3728 85.2598 95.6101Z" fill="white"/>
</g>
<path d="M99.1045 90.6076L99.0204 91.8314C98.8174 94.7314 93.1102 97.4922 85.4426 98.2665C77.2762 99.0901 70.4264 97.3037 69.8522 94.2065C69.8169 94.0153 69.8052 93.8205 69.8174 93.6265L69.9044 92.4027C69.8899 92.5966 69.9006 92.7916 69.9363 92.9827C70.5163 96.0857 77.3632 97.875 85.5267 97.0427C93.1943 96.28 98.9044 93.5105 99.1045 90.6076Z" fill="#E50019"/>
<g opacity="0.4">
<path opacity="0.4" d="M99.1045 90.6076L99.0204 91.8314C98.8174 94.7314 93.1102 97.4922 85.4426 98.2665C77.2762 99.0901 70.4264 97.3037 69.8522 94.2065C69.8169 94.0153 69.8052 93.8205 69.8174 93.6265L69.9044 92.4027C69.8899 92.5966 69.9006 92.7916 69.9363 92.9827C70.5163 96.0857 77.3632 97.875 85.5267 97.0427C93.1943 96.28 98.9044 93.5105 99.1045 90.6076Z" fill="white"/>
</g>
<path d="M77.7809 97.73L77.6098 98.9422C77.6216 98.8459 77.6216 98.7485 77.6098 98.6522C77.3952 96.6918 71.8649 94.6502 64.2698 94.859C57.043 95.0562 52.1217 97.179 51.8491 99.0785L52.0231 97.8634C52.2957 95.9668 57.217 93.844 64.4438 93.6439C72.036 93.4351 77.5663 95.4767 77.7838 97.44C77.7962 97.5363 77.7952 97.6339 77.7809 97.73Z" fill="#E50019"/>
<g opacity="0.4">
<path opacity="0.4" d="M77.7809 97.73L77.6098 98.9422C77.6216 98.8459 77.6216 98.7485 77.6098 98.6522C77.3952 96.6918 71.8649 94.6502 64.2698 94.859C57.043 95.0562 52.1217 97.179 51.8491 99.0785L52.0231 97.8634C52.2957 95.9668 57.217 93.844 64.4438 93.6439C72.036 93.4351 77.5663 95.4767 77.7838 97.44C77.7962 97.5363 77.7952 97.6339 77.7809 97.73Z" fill="white"/>
</g>
<path d="M64.29 92.191C72.497 91.9648 79.196 94.2471 79.5411 97.382C79.8862 100.517 73.7411 103.159 65.5225 103.385C57.3039 103.611 50.6165 101.329 50.2714 98.1882C49.9263 95.0475 56.083 92.4172 64.29 92.191ZM65.363 101.935C72.9552 101.726 78.0041 99.3946 77.7866 97.4313C77.5691 95.468 72.0417 93.4264 64.4466 93.6352C56.8515 93.844 51.8055 96.1785 52.023 98.1418C52.2405 100.105 57.7679 102.147 65.363 101.935Z" fill="#E50019"/>
<g opacity="0.7">
<path opacity="0.7" d="M64.29 92.191C72.497 91.9648 79.196 94.2471 79.5411 97.382C79.8862 100.517 73.7411 103.159 65.5225 103.385C57.3039 103.611 50.6165 101.329 50.2714 98.1882C49.9263 95.0475 56.083 92.4172 64.29 92.191ZM65.363 101.935C72.9552 101.726 78.0041 99.3946 77.7866 97.4313C77.5691 95.468 72.0417 93.4264 64.4466 93.6352C56.8515 93.844 51.8055 96.1785 52.023 98.1418C52.2405 100.105 57.7679 102.147 65.363 101.935Z" fill="white"/>
</g>
<path d="M79.5324 97.9562L79.3584 99.1713C78.9466 102.051 73.0509 104.391 65.3485 104.597C57.1444 104.823 50.4425 102.541 50.0974 99.4033C50.0707 99.2109 50.0707 99.0157 50.0974 98.8233L50.2714 97.6111C50.2445 97.8035 50.2445 97.9987 50.2714 98.1911C50.6165 101.332 57.3184 103.614 65.5225 103.388C73.2249 103.173 79.1206 100.839 79.5324 97.9562Z" fill="#E50019"/>
<g opacity="0.4">
<path opacity="0.4" d="M79.5324 97.9562L79.3584 99.1713C78.9466 102.051 73.0509 104.391 65.3485 104.597C57.1444 104.823 50.4425 102.541 50.0974 99.4033C50.0707 99.2109 50.0707 99.0157 50.0974 98.8233L50.2714 97.6111C50.2445 97.8035 50.2445 97.9987 50.2714 98.1911C50.6165 101.332 57.3184 103.614 65.5225 103.388C73.2249 103.173 79.1206 100.839 79.5324 97.9562Z" fill="white"/>
</g>
<path d="M117.775 95.9639L117.366 97.1239C117.398 97.0302 117.419 96.9327 117.427 96.8339C117.601 94.8706 112.578 91.7821 105.09 90.5003C97.965 89.2794 92.7247 90.3959 92.0867 92.2026L92.4956 91.0426C93.1307 89.2388 98.3739 88.1194 105.499 89.3403C112.984 90.6221 118.007 93.7106 117.836 95.6768C117.828 95.7747 117.807 95.8712 117.775 95.9639Z" fill="#E50019"/>
<g opacity="0.4">
<path opacity="0.4" d="M117.775 95.9639L117.366 97.1239C117.398 97.0302 117.419 96.9327 117.427 96.8339C117.601 94.8706 112.578 91.7821 105.09 90.5003C97.965 89.2794 92.7247 90.3959 92.0867 92.2026L92.4956 91.0426C93.1307 89.2388 98.3739 88.1194 105.499 89.3403C112.984 90.6221 118.007 93.7106 117.836 95.6768C117.828 95.7747 117.807 95.8712 117.775 95.9639Z" fill="white"/>
</g>
<path d="M105.627 87.899C113.718 89.2881 119.837 92.829 119.567 95.9813C119.297 99.1336 112.734 100.505 104.643 99.1191C96.5525 97.7329 90.4335 94.1891 90.7032 91.0368C90.9729 87.8845 97.5356 86.5128 105.627 87.899ZM104.757 97.6691C112.241 98.9509 117.647 97.6546 117.821 95.6855C117.995 93.7164 112.969 90.6308 105.484 89.349C97.9996 88.0672 92.5911 89.3664 92.42 91.3326C92.2489 93.2988 97.2688 96.3844 104.757 97.6691Z" fill="#E50019"/>
<g opacity="0.7">
<path opacity="0.7" d="M105.627 87.899C113.718 89.2881 119.837 92.829 119.567 95.9813C119.297 99.1336 112.734 100.505 104.643 99.1191C96.5525 97.7329 90.4335 94.1891 90.7032 91.0368C90.9729 87.8845 97.5356 86.5128 105.627 87.899ZM104.757 97.6691C112.241 98.9509 117.647 97.6546 117.821 95.6855C117.995 93.7164 112.969 90.6308 105.484 89.349C97.9996 88.0672 92.5911 89.3664 92.42 91.3326C92.2489 93.2988 97.2688 96.3844 104.757 97.6691Z" fill="white"/>
</g>
<path d="M119.445 96.5439L119.036 97.7039C118.068 100.45 111.827 101.584 104.246 100.282C96.1552 98.8958 90.0362 95.352 90.3059 92.1968C90.3227 92.0059 90.3637 91.8178 90.4277 91.6371L90.8366 90.4771C90.7726 90.6588 90.7316 90.8478 90.7148 91.0397C90.4393 94.1862 96.5642 97.7358 104.655 99.122C112.23 100.421 118.477 99.2873 119.445 96.5439Z" fill="#E50019"/>
<g opacity="0.4">
<path opacity="0.4" d="M119.445 96.5439L119.036 97.7039C118.068 100.45 111.827 101.584 104.246 100.282C96.1552 98.8958 90.0362 95.352 90.3059 92.1968C90.3227 92.0059 90.3637 91.8178 90.4277 91.6371L90.8366 90.4771C90.7726 90.6588 90.7316 90.8478 90.7148 91.0397C90.4393 94.1862 96.5642 97.7358 104.655 99.122C112.23 100.421 118.477 99.2873 119.445 96.5439Z" fill="white"/>
</g>
<path d="M107.72 88.3021C106.877 89.5636 104.954 90.7062 100.673 91.408C94.0875 92.4752 84.5349 93.7135 71.9895 92.6115C59.4441 91.5095 50.0626 88.6182 43.6246 86.3968C37.1866 84.1754 36.3746 81.9047 36.4558 79.9182C36.4993 78.9409 36.6907 78.0303 37.2707 77.3227C38.1059 76.0554 40.0228 74.9041 44.3293 74.2023C50.9152 73.1322 60.4678 71.8823 73.0103 72.9988C85.5528 74.1153 94.9372 76.9921 101.378 79.2106C107.819 81.4291 108.628 83.7056 108.544 85.6892C108.501 86.6752 108.306 87.58 107.72 88.3021Z" fill="#E50019"/>
<g opacity="0.5">
<path opacity="0.5" d="M107.72 88.3021C106.877 89.5636 104.954 90.7062 100.673 91.408C94.0875 92.4752 84.5349 93.7135 71.9895 92.6115C59.4441 91.5095 50.0626 88.6182 43.6246 86.3968C37.1866 84.1754 36.3746 81.9047 36.4558 79.9182C36.4993 78.9409 36.6907 78.0303 37.2707 77.3227C38.1059 76.0554 40.0228 74.9041 44.3293 74.2023C50.9152 73.1322 60.4678 71.8823 73.0103 72.9988C85.5528 74.1153 94.9372 76.9921 101.378 79.2106C107.819 81.4291 108.628 83.7056 108.544 85.6892C108.501 86.6752 108.306 87.58 107.72 88.3021Z" fill="black"/>
</g>
<g opacity="0.1">
<path opacity="0.1" d="M98.6783 81.7539C98.1766 82.244 96.9383 82.6558 94.0383 82.8211C87.5139 83.2213 80.9684 83.1156 74.4604 82.505C67.7832 81.8809 61.1611 80.7662 54.6476 79.17C50.1004 78.0854 49.4102 77.14 49.3464 76.3251C49.3137 76.1325 49.3336 75.9346 49.404 75.7524C49.4744 75.5701 49.5928 75.4103 49.7466 75.2898C50.2396 74.7968 51.4866 74.3821 54.3866 74.2168C60.9128 73.8168 67.4602 73.9215 73.9703 74.53C80.6472 75.1545 87.2692 76.2682 93.7831 77.8621C98.3332 78.9467 99.0234 79.8921 99.0843 80.707C99.1173 80.9019 99.097 81.1021 99.0255 81.2864C98.954 81.4706 98.8341 81.6322 98.6783 81.7539Z" fill="black"/>
</g>
<path opacity="0.2" d="M38.8803 77.6069C39.5336 77.8898 40.205 78.1291 40.89 78.3232C45.6547 79.7558 50.518 80.8549 55.39 81.8235C60.262 82.7921 65.192 83.5635 70.1307 84.0652C79.3266 84.8366 88.5892 85.3876 97.8112 84.9178C99.2293 84.8308 100.647 84.7177 102.051 84.4973C103.455 84.2769 104.893 84.0333 106.073 83.2242C104.928 84.0942 103.463 84.3668 102.077 84.6481C95.0359 85.8081 87.8439 85.579 80.7389 85.3354C67.8998 84.9272 55.1713 82.8209 42.8852 79.0714C41.5144 78.6787 40.1731 78.1893 38.8716 77.6069H38.8803Z" fill="black"/>
<g opacity="0.2">
<path opacity="0.2" d="M44.718 75.8234C48.8607 74.7287 53.0967 74.0239 57.3707 73.718C53.228 74.8129 48.992 75.5177 44.718 75.8234Z" fill="black"/>
<path opacity="0.2" d="M87.9048 83.6157C92.0479 82.5234 96.2838 81.8196 100.557 81.5132C96.4143 82.6052 92.1785 83.3091 87.9048 83.6157Z" fill="black"/>
<path opacity="0.2" d="M45.24 77.8853C52.9998 76.1922 60.8396 74.8894 68.73 73.9819C60.9702 75.6751 53.1303 76.9779 45.24 77.8853Z" fill="black"/>
<path opacity="0.2" d="M71.4648 83.1923C79.2246 81.4989 87.0644 80.1961 94.9548 79.2889C87.1944 80.9825 79.3644 82.2837 71.4648 83.1923Z" fill="black"/>
<path opacity="0.2" d="M60.4622 81.4668C69.6552 79.5335 78.9178 77.9936 88.25 76.8471C79.057 78.7804 69.7944 80.3203 60.4622 81.4668Z" fill="black"/>
<path opacity="0.2" d="M51.1328 79.7066C60.7666 77.7017 70.471 76.0883 80.2459 74.8665C70.6121 76.8733 60.9077 78.4866 51.1328 79.7066Z" fill="black"/>
</g>
<g opacity="0.5">
<path opacity="0.5" d="M39.959 79.17C44.2742 80.823 48.7808 81.9308 53.299 82.94C59.329 84.2182 65.4298 85.1362 71.569 85.6892C73.1031 85.8545 74.643 85.9299 76.1829 86.0807C75.4115 86.0807 74.6372 86.0633 73.8629 86.043C68.4435 85.9173 63.0424 85.3645 57.7099 84.39C51.6489 83.2474 45.5734 81.751 39.959 79.17Z" fill="white"/>
<path opacity="0.5" d="M78.0767 86.13C82.0236 86.0691 86.1503 86.1909 90.0972 86.4026C86.1025 86.9721 82.0414 86.88 78.0767 86.13Z" fill="white"/>
</g>
<path d="M89.114 67.2945C85.344 66.2621 81.6697 65.3196 78.674 64.6381C78.6769 64.6593 78.6769 64.6807 78.674 64.7019C78.674 64.9658 78.3318 65.1775 77.9055 65.1775C77.4792 65.1775 77.1399 64.96 77.1399 64.7019C77.1462 64.6268 77.1727 64.5548 77.2166 64.4935C77.2605 64.4323 77.3202 64.384 77.3893 64.3539C75.8747 63.995 74.3383 63.7354 72.7899 63.5767C71.1552 63.5547 69.5209 63.6409 67.8976 63.8348C68.0031 63.9917 68.0597 64.1764 68.06 64.3655C68.06 65.0644 67.2683 65.6386 66.2881 65.6386C65.3079 65.6386 64.5133 65.0586 64.5133 64.3655C64.5122 64.312 64.5171 64.2585 64.5278 64.206C61.361 64.5888 57.6954 65.1137 54.0646 65.685C45.1123 67.1031 36.5747 71.8939 36.2006 72.6218C35.8526 73.2888 45.701 73.3062 53.9138 75.9771C62.5819 78.7901 69.6898 87.7134 71.9315 87.8468C74.1732 87.9802 80.8026 79.866 89.7375 78.0854C98.2055 76.3947 109.057 77.5779 108.793 76.8732C108.486 76.0467 98.51 69.8726 89.114 67.2945ZM53.3599 67.9528C52.7103 68.063 52.1303 67.8397 52.0636 67.4569C51.9969 67.0741 52.4725 66.671 53.1221 66.5608C53.7717 66.4506 54.3517 66.671 54.4213 67.0538C54.4909 67.4366 54.0211 67.8397 53.3599 67.9528ZM67.596 79.3498C67.5264 79.6398 67.1088 79.7964 66.6622 79.692C66.2156 79.5876 65.9053 79.2686 65.9749 78.9728C66.0445 78.677 66.4592 78.5291 66.9087 78.6306C67.3582 78.7321 67.6685 79.0598 67.6047 79.3498H67.596ZM78.6972 81.2203C77.4502 81.7104 76.1539 81.4001 75.7972 80.5243C75.4405 79.6485 76.1858 78.5349 77.4386 78.0419C78.6914 77.5489 79.979 77.8621 80.3386 78.7408C80.6982 79.6195 79.9587 80.7273 78.7059 81.2203H78.6972ZM82.5339 77.3372C81.6001 77.2966 80.8606 76.8152 80.8838 76.2613C80.907 75.7074 81.6842 75.2927 82.6238 75.3333C83.5634 75.3739 84.2971 75.8553 84.2739 76.4092C84.2507 76.9631 83.4793 77.3778 82.5426 77.3372H82.5339ZM90.8018 70.8673C89.8651 70.8267 89.1256 70.3424 89.1488 69.7885C89.172 69.2346 89.955 68.8199 90.8888 68.8605C91.8226 68.9011 92.565 69.3854 92.5418 69.9364C92.5186 70.4874 91.7443 70.905 90.8105 70.8673H90.8018ZM102.857 74.4256C102.788 74.7156 102.37 74.8751 101.92 74.7678C101.471 74.6605 101.166 74.3444 101.233 74.0515C101.3 73.7586 101.72 73.6049 102.167 73.7093C102.614 73.8137 102.933 74.1356 102.866 74.4256H102.857Z" fill="#E50019"/>
<path opacity="0.2" d="M89.114 67.2945C85.344 66.2621 81.6697 65.3196 78.674 64.6381C78.6769 64.6593 78.6769 64.6807 78.674 64.7019C78.674 64.9658 78.3318 65.1775 77.9055 65.1775C77.4792 65.1775 77.1399 64.96 77.1399 64.7019C77.1462 64.6268 77.1727 64.5548 77.2166 64.4935C77.2605 64.4323 77.3202 64.384 77.3893 64.3539C75.8747 63.995 74.3383 63.7354 72.7899 63.5767C71.1552 63.5547 69.5209 63.6409 67.8976 63.8348C68.0031 63.9917 68.0597 64.1764 68.06 64.3655C68.06 65.0644 67.2683 65.6386 66.2881 65.6386C65.3079 65.6386 64.5133 65.0586 64.5133 64.3655C64.5122 64.312 64.5171 64.2585 64.5278 64.206C61.361 64.5888 57.6954 65.1137 54.0646 65.685C45.1123 67.1031 36.5747 71.8939 36.2006 72.6218C35.8526 73.2888 45.701 73.3062 53.9138 75.9771C62.5819 78.7901 69.6898 87.7134 71.9315 87.8468C74.1732 87.9802 80.8026 79.866 89.7375 78.0854C98.2055 76.3947 109.057 77.5779 108.793 76.8732C108.486 76.0467 98.51 69.8726 89.114 67.2945ZM53.3599 67.9528C52.7103 68.063 52.1303 67.8397 52.0636 67.4569C51.9969 67.0741 52.4725 66.671 53.1221 66.5608C53.7717 66.4506 54.3517 66.671 54.4213 67.0538C54.4909 67.4366 54.0211 67.8397 53.3599 67.9528ZM67.596 79.3498C67.5264 79.6398 67.1088 79.7964 66.6622 79.692C66.2156 79.5876 65.9053 79.2686 65.9749 78.9728C66.0445 78.677 66.4592 78.5291 66.9087 78.6306C67.3582 78.7321 67.6685 79.0598 67.6047 79.3498H67.596ZM78.6972 81.2203C77.4502 81.7104 76.1539 81.4001 75.7972 80.5243C75.4405 79.6485 76.1858 78.5349 77.4386 78.0419C78.6914 77.5489 79.979 77.8621 80.3386 78.7408C80.6982 79.6195 79.9587 80.7273 78.7059 81.2203H78.6972ZM82.5339 77.3372C81.6001 77.2966 80.8606 76.8152 80.8838 76.2613C80.907 75.7074 81.6842 75.2927 82.6238 75.3333C83.5634 75.3739 84.2971 75.8553 84.2739 76.4092C84.2507 76.9631 83.4793 77.3778 82.5426 77.3372H82.5339ZM90.8018 70.8673C89.8651 70.8267 89.1256 70.3424 89.1488 69.7885C89.172 69.2346 89.955 68.8199 90.8888 68.8605C91.8226 68.9011 92.565 69.3854 92.5418 69.9364C92.5186 70.4874 91.7443 70.905 90.8105 70.8673H90.8018ZM102.857 74.4256C102.788 74.7156 102.37 74.8751 101.92 74.7678C101.471 74.6605 101.166 74.3444 101.233 74.0515C101.3 73.7586 101.72 73.6049 102.167 73.7093C102.614 73.8137 102.933 74.1356 102.866 74.4256H102.857Z" fill="white"/>
<path opacity="0.1" d="M54.4098 66.99C54.2851 66.6507 53.7399 66.4651 53.1309 66.5695C52.5219 66.6739 52.0057 67.0828 52.0724 67.4656C51.8781 66.9697 52.3102 66.5318 53.0352 66.3607C53.7602 66.1896 54.3083 66.4709 54.4098 66.99Z" fill="black"/>
<path opacity="0.1" d="M67.6047 79.3498C67.6685 79.0598 67.3611 78.7379 66.9174 78.6306C66.4737 78.5233 66.0474 78.6828 65.9836 78.9728C65.9633 78.2304 66.6419 78.2333 67.1291 78.416C67.3078 78.488 67.4544 78.6222 67.5418 78.7938C67.6292 78.9655 67.6516 79.163 67.6047 79.3498Z" fill="black"/>
<path opacity="0.1" d="M79.9615 78.2246C79.4018 77.7577 78.4158 77.662 77.4588 78.0419C76.206 78.5349 75.4723 79.6485 75.8174 80.5243C75.8174 80.5562 75.8406 80.5823 75.8551 80.6142C75.394 79.8747 74.9619 78.5088 76.9542 77.5837C78.4216 76.9022 79.4598 77.6562 79.9615 78.2246Z" fill="black"/>
<path opacity="0.1" d="M84.2477 76.1859C84.0969 75.7335 83.4357 75.3681 82.6324 75.3333C81.6928 75.2927 80.9185 75.7103 80.8924 76.2613C80.888 76.2979 80.888 76.3349 80.8924 76.3715C80.7155 75.7393 81.0606 75.0984 82.2409 75.0404C83.4212 74.9824 84.2825 75.69 84.2477 76.1859Z" fill="black"/>
<path opacity="0.1" d="M92.4228 69.5246C92.1734 69.1621 91.5876 68.8924 90.8974 68.8605C89.9636 68.8199 89.1835 69.2375 89.1574 69.7885C89.1557 69.9741 89.2265 70.153 89.3546 70.2873C88.8645 69.8349 88.6528 68.9649 89.8331 68.6604C91.0134 68.3559 92.1879 68.7851 92.4228 69.5246Z" fill="black"/>
<path opacity="0.1" d="M102.793 74.0951C102.642 73.8947 102.422 73.7573 102.176 73.7094C101.729 73.605 101.306 73.7587 101.242 74.0516C101.223 74.1441 101.236 74.2403 101.28 74.3242C101.056 73.9704 101.109 73.6166 101.639 73.4541C101.877 73.3938 102.129 73.4265 102.343 73.5456C102.558 73.6647 102.719 73.8613 102.793 74.0951Z" fill="black"/>
<g opacity="0.5">
<path opacity="0.5" d="M38.4973 72.3115C41.6504 72.3901 44.7927 72.712 47.8962 73.2743C52.5101 74.1443 57.2951 75.2405 61.1666 78.0419C63.7592 79.8457 66.0966 81.983 68.4514 84.0768C69.31 84.8785 70.2206 85.6226 71.1774 86.304C71.4674 86.4722 71.7951 86.7274 72.1431 86.594C73.335 86.014 74.8952 84.7119 76.0059 83.9492C77.2848 83.027 78.5811 82.128 79.9209 81.287C86.5155 77.1023 90.3174 76.7282 97.9328 76.4498C100.224 76.3802 102.727 76.4179 105.026 76.473L106.207 76.5049H106.787C106.98 76.5177 107.175 76.5089 107.367 76.4788C106.975 76.5187 106.582 76.5293 106.189 76.5107L105.006 76.4962C102.686 76.4788 100.209 76.4759 97.9212 76.5803C90.3348 76.9051 86.5793 77.2792 80.0311 81.4813C78.7029 82.3223 77.4211 83.2213 76.1451 84.1551C74.9851 84.9526 73.4858 86.2489 72.2243 86.855C72.1153 86.8938 71.9996 86.9104 71.8841 86.904C71.7686 86.8975 71.6555 86.868 71.5515 86.8173C71.0156 86.5569 70.5156 86.2284 70.0638 85.84C69.4519 85.3383 68.8603 84.8134 68.2745 84.2885C65.9371 82.1831 63.6171 80.0429 61.0419 78.2304C57.2023 75.4232 52.4637 74.3241 47.8701 73.4251C44.7788 72.8177 41.6452 72.4493 38.4973 72.3231V72.3115Z" fill="white"/>
<path opacity="0.5" d="M65.676 78.9699C65.7447 79.1874 65.8715 79.3821 66.0427 79.5329C66.2139 79.6836 66.423 79.7848 66.6475 79.8254C67.0622 79.8834 67.6567 79.9472 67.8452 79.4687C67.8458 79.5984 67.7959 79.7232 67.706 79.8167C67.4421 80.0088 67.1179 80.0996 66.7926 80.0724C66.4673 80.0452 66.1626 79.902 65.9341 79.6688C65.7794 79.4673 65.6894 79.2236 65.676 78.9699Z" fill="white"/>
<path opacity="0.5" d="M75.655 81.0753C77.1514 82.3281 79.715 81.7249 80.5386 79.9646C80.6608 79.7162 80.7467 79.4515 80.7938 79.1787C80.7764 81.6292 77.2674 82.8849 75.655 81.0753Z" fill="white"/>
<path opacity="0.5" d="M80.6895 76.8819C81.5943 77.865 84.1115 77.9578 84.6741 76.5687C84.648 76.77 84.5678 76.9604 84.4421 77.1197C83.5257 78.1579 81.4493 78.0535 80.6895 76.8819Z" fill="white"/>
<path opacity="0.5" d="M51.6023 67.6947C52.2751 68.7358 54.8793 68.4545 54.9112 67.0306C55.1809 68.6691 52.1214 69.0606 51.6023 67.6947Z" fill="white"/>
<path opacity="0.5" d="M64.1042 64.7251C64.3171 65.1598 64.6536 65.5218 65.0715 65.7658C65.4894 66.0099 65.9701 66.125 66.4532 66.0968C67.3957 66.0649 68.4658 65.5429 68.5035 64.4786C68.535 64.7315 68.4969 64.9882 68.3933 65.221C67.7959 66.4013 66.0269 66.6217 64.9945 65.9112C64.5972 65.6212 64.1796 65.2297 64.1042 64.7251Z" fill="white"/>
<path opacity="0.5" d="M88.4499 69.5797C88.7138 70.9485 90.3407 71.3197 91.5442 71.1979C92.0314 71.1515 92.5853 71.0355 92.8782 70.6179C93.0262 70.4058 93.0912 70.1468 93.0609 69.89C93.1335 70.1531 93.1002 70.4342 92.9681 70.673C92.5186 71.4038 91.5181 71.456 90.7612 71.427C89.7317 71.3922 88.4673 70.7339 88.4412 69.5855L88.4499 69.5797Z" fill="white"/>
<path opacity="0.5" d="M100.871 74.3242C101.32 75.1129 102.596 75.4232 103.26 74.7388C102.802 75.7335 101.036 75.3565 100.871 74.3242Z" fill="white"/>
</g>
<path d="M72.6305 55.2131C71.2675 54.0154 69.9799 53.5775 69.1099 53.6964C68.2399 53.8153 67.9325 54.8129 67.2974 55.0333C66.6623 55.2537 64.4844 55.9033 63.684 55.6684C62.8836 55.4335 61.0508 55.0478 60.0677 54.8738C59.0847 54.6998 59.276 54.7897 57.3591 55.1638C55.4422 55.5379 50.9443 56.1556 49.9032 55.8308C48.8621 55.506 46.8061 54.4417 46.026 54.52C45.2458 54.5983 45.24 55.9932 44.2366 56.1962C43.2332 56.3992 42.2559 55.6539 40.2259 56.4369C38.1959 57.2199 38.4859 57.6549 37.9494 58.4379C37.4129 59.2209 37.2476 59.0382 36.076 60.2678C34.9044 61.4974 36.1978 64.293 36.366 64.8121C36.5342 65.3312 37.6971 66.8189 38.4395 66.8189C39.1819 66.8189 39.0195 65.6212 40.9306 66.0127C42.8417 66.4042 40.8262 67.9789 42.3806 69.0316C43.935 70.0843 44.1206 70.3366 44.7644 70.0785C45.4082 69.8204 45.3879 68.991 46.6146 69.3825C47.8413 69.774 47.0932 70.2989 48.314 70.615C49.535 70.9311 49.416 71.195 50.7153 71.2472C52.0145 71.2994 51.0893 72.7349 52.5364 72.9263C53.9835 73.1177 55.0449 73.0626 55.767 72.761C56.4891 72.4594 57.1155 72.8799 57.188 73.2917C57.2605 73.7035 56.2948 74.5068 57.2605 75.0984C58.2262 75.69 56.5906 75.4725 59.2731 76.2004C61.9556 76.9283 63.3158 77.1632 64.177 76.1772C65.0383 75.1912 65.7083 74.066 66.7696 74.0486C67.8311 74.0312 67.2134 77.3053 70.2496 77.2647C73.2859 77.2241 74.2691 75.7393 75.3797 75.7219C76.4904 75.7045 75.3797 78.7727 77.9897 78.7553C80.5998 78.7379 80.8898 76.4962 82.1861 76.3541C83.4823 76.212 82.3514 78.909 86.0982 78.909C89.845 78.909 88.8415 76.9573 90.712 76.5252C92.5826 76.0931 93.8876 78.387 96.8949 78.3725C99.9022 78.358 99.5426 77.1313 100.975 77.0965C102.408 77.0617 103.02 78.6509 103.521 79.2657C104.023 79.8805 104.084 80.7824 105.401 80.4257C106.717 80.069 106.517 77.6533 107.431 76.8529C108.344 76.0525 108.805 76.6702 109.722 75.7944C110.638 74.9186 112.155 74.7649 111.789 73.428C111.424 72.0911 109.376 71.891 109.266 70.2003C109.156 68.5096 111.07 68.4603 111.372 66.4303C111.673 64.4003 110.006 64.4641 108.825 63.3563C107.645 62.2485 106.16 63.6811 105.369 62.1383C104.577 60.5955 105.502 60.6216 103.716 59.508C101.929 58.3944 99.821 60.1199 98.2057 59.4848C96.5904 58.8497 94.0848 56.6051 92.7566 56.1063C91.4284 55.6075 90.7266 57.1126 89.9058 57.0807C89.0851 57.0488 87.2901 55.68 85.5501 55.8395C83.8101 55.999 83.6593 56.6515 82.4587 56.7095C81.258 56.7675 79.2687 56.231 78.3349 55.9004C77.4011 55.5698 76.7138 55.9004 75.5103 55.9004C74.3068 55.9004 73.1641 55.68 72.6305 55.2131Z" fill="#455A64"/>
<g opacity="0.1">
<path opacity="0.1" d="M83.1807 74.7475C83.9695 75.777 84.2856 76.5513 85.0367 76.7456C85.7878 76.9399 89.465 77.0211 88.5631 75.8756C87.6612 74.7301 86.1271 64.496 85.3064 63.7536C84.4857 63.0112 82.65 74.0718 83.1807 74.7475Z" fill="white"/>
<path opacity="0.1" d="M94.5022 76.6673C95.3722 77.2183 98.8203 77.198 99.3655 76.2845C99.9107 75.371 96.5554 73.9181 95.5405 72.6943C94.5255 71.4705 92.5361 67.2046 91.8546 66.99C91.1731 66.7754 90.6946 66.9436 90.1146 67.57C89.5346 68.1964 89.7637 69.7479 89.7579 70.6324C89.7521 71.5169 90.77 74.24 91.1209 74.5909C91.4718 74.9418 93.67 76.1395 94.5022 76.6673Z" fill="white"/>
<path opacity="0.1" d="M38.1843 65.1978C37.7116 64.9629 36.5197 62.2717 36.7343 61.4278C36.9489 60.5839 41.3366 60.465 42.7025 60.4795C44.0684 60.494 50.6746 59.9285 52.0811 59.8183C53.4876 59.7081 58.1102 60.0503 57.5679 60.4795C57.0256 60.9087 55.2044 61.4945 53.3832 61.5699C51.562 61.6453 49.1637 62.9184 47.1627 63.2954C45.1617 63.6724 39.121 65.6589 38.1843 65.1978Z" fill="white"/>
<path opacity="0.1" d="M58.3915 74.3618C59.4853 74.8791 60.637 75.2637 61.8222 75.5073C62.4805 75.5798 63.8841 75.1767 64.6642 74.3618C65.4443 73.5469 67.976 71.5517 68.8431 70.6353C69.7102 69.7189 71.5111 65.0586 71.5111 65.0586C71.5111 65.0586 69.3999 66.6855 68.3066 67.0886C67.2133 67.4917 65.1166 68.7793 64.1596 69.1534C63.2026 69.5275 60.9232 69.1911 59.5428 68.9214C58.1624 68.6517 57.8347 69.4028 55.8192 69.3767C54.1961 69.3998 52.5846 69.6556 51.0342 70.1365C50.5673 70.3134 51.9042 70.3395 52.0753 70.7658C52.2464 71.1921 52.2986 71.8214 52.9163 71.9664C53.904 72.1472 54.9187 72.1186 55.8946 71.8823C56.811 71.5923 58.0464 72.0795 58.3915 72.2796C58.7366 72.4797 57.6549 73.9761 58.3915 74.3618Z" fill="white"/>
<path opacity="0.1" d="M55.8191 56.3934C56.2889 56.2484 58.8177 55.2334 59.6587 55.3552C60.4997 55.477 62.8487 56.3093 64.4582 56.7617C66.0677 57.2141 69.8667 58.3306 70.5975 58.696C71.3283 59.0614 73.9789 60.4041 73.4975 60.7463C73.0161 61.0885 71.2732 60.7463 70.3568 60.4795C69.4404 60.2127 67.6337 59.9894 65.0005 59.6878C62.3673 59.3862 59.0497 59.4268 57.7679 58.8758C56.4861 58.3248 53.8326 57.9536 54.198 57.4925C54.5634 57.0314 55.8191 56.3934 55.8191 56.3934Z" fill="white"/>
<path opacity="0.1" d="M80.7418 76.183C79.8718 76.3831 79.9616 77.2444 79.0597 77.343C78.1578 77.4416 77.5662 77.488 77.2211 76.8471C76.876 76.2062 76.5628 74.6257 75.832 74.5996C74.9104 74.6196 73.9979 74.787 73.1292 75.0955C72.3665 75.371 71.598 76.2555 70.8092 75.7683C70.0204 75.2811 69.5129 75.0259 69.2345 74.6083C68.9561 74.1907 68.6806 73.6281 69.2345 72.9205C69.7884 72.2129 71.482 72.0273 72.091 71.2269C72.7 70.4265 74.1964 68.1819 74.3327 67.3525C74.469 66.5231 76.8151 66.2534 77.3603 65.4965C77.9056 64.7396 79.8282 64.1219 80.0979 64.2466C80.3677 64.3713 80.5417 65.3225 80.7331 65.9866C80.9245 66.6507 81.6407 68.2515 81.7306 68.933C81.8205 69.6145 81.2347 72.7233 81.5131 73.7702C81.7915 74.8171 81.4494 76.0177 80.7418 76.183Z" fill="white"/>
<path opacity="0.1" d="M77.3692 56.7617C78.5292 56.1469 79.3992 57.5679 80.5418 57.6549C81.6844 57.7419 83.2301 57.1706 84.0566 57.1938C84.8831 57.217 85.4399 58.0783 85.4747 58.5075C85.5095 58.9367 84.3611 59.9575 84.2248 60.3606C84.0885 60.7637 83.7985 63.5303 83.1808 63.5274C82.5631 63.5245 82.3282 62.6574 81.4234 62.4022C80.5186 62.147 79.0715 62.9474 78.129 63.2954C77.1865 63.6434 76.563 64.4554 76.389 63.8754C76.215 63.2954 77.5896 60.8594 77.6302 60.4302C77.6708 60.001 77.897 59.8502 77.3692 58.8903C76.8414 57.9304 77.0647 56.9241 77.3692 56.7617Z" fill="white"/>
<path opacity="0.1" d="M104.417 78.3377C105.096 78.213 106.157 76.3077 106.529 75.9336C106.9 75.5595 107.689 75.3884 108.376 75.1071C109.063 74.8258 110.487 74.9157 110.452 74.095C110.417 73.2743 107.683 72.3927 107.816 70.6411C107.872 69.401 108.403 68.2298 109.298 67.3699C109.794 66.9465 111.543 67.5207 110.458 65.9808C109.373 64.4409 109.272 63.6347 108.051 63.8058C106.83 63.9769 106.932 64.7831 105.05 64.6613C103.167 64.5395 102.611 64.6381 100.598 64.4902C99.0549 64.3292 97.495 64.4881 96.0161 64.9571C94.6966 65.3631 93.4583 65.6357 94.0934 66.2737C94.7285 66.9117 98.0693 67.5381 99.7136 67.5729C101.358 67.6077 103.774 67.7324 103.997 68.3791C104.22 69.0258 102.906 70.5512 101.587 69.6725C100.267 68.7938 100.517 68.6372 98.6435 68.4835C96.7701 68.3298 95.8102 67.9644 95.7435 68.3791C95.6768 68.7938 94.7169 68.8692 95.7435 69.4086C96.7701 69.948 98.136 71.1979 98.6435 71.6619C99.151 72.1259 100.633 73.3584 100.401 73.515C100.169 73.6716 103.979 78.4218 104.417 78.3377Z" fill="white"/>
<path opacity="0.1" d="M103.101 62.6951C103.565 62.0687 104.09 60.755 102.735 60.436C101.381 60.117 96.7382 61.5264 95.1374 61.335C93.5366 61.1436 94.4414 61.2335 91.7415 60.7782C89.0416 60.3229 87.6989 60.2707 87.2407 60.5868C86.7825 60.9029 86.3707 61.9759 86.9188 62.6951C87.4669 63.4143 87.1073 65.5806 88.392 65.0586C89.6767 64.5366 90.799 63.5825 92.3505 63.2838C93.8033 62.9704 95.3096 63.0042 96.7469 63.3824C98.2201 63.7797 102.802 63.0982 103.101 62.6951Z" fill="white"/>
</g>
<path opacity="0.5" d="M98.4175 77.8273C99.1599 77.6736 99.6036 77.0414 100.297 76.7833C100.649 76.6652 101.022 76.617 101.393 76.6412C102.553 76.7427 103.252 77.865 103.82 78.7379C104.432 79.7326 105.125 80.591 105.752 79.0279C106.549 76.85 106.305 76.241 108.846 75.7016C109.012 75.6703 109.17 75.603 109.307 75.5044C109.611 75.3047 109.928 75.1255 110.255 74.9679C110.586 74.83 110.876 74.6105 111.099 74.3299C110.737 74.9505 109.916 75.1651 109.403 75.6088C109.145 75.8437 108.683 75.8988 108.373 76.0061C108.035 76.1005 107.708 76.2317 107.399 76.3976C106.439 76.8848 106.424 78.2159 106.01 79.1294C105.72 79.9849 104.977 80.6432 104.235 79.7848C103.336 78.7611 102.866 77.082 101.375 76.8326C101.029 76.7996 100.679 76.831 100.343 76.9254C99.6703 77.1284 99.1483 77.7548 98.4175 77.836V77.8273Z" fill="white"/>
<path opacity="0.5" d="M91.0339 75.8582C92.1939 75.8089 93.2379 76.4382 94.2529 76.8732C95.2679 77.3082 96.2829 77.8157 97.4168 77.9288C96.2742 78.0506 95.149 77.6069 94.1311 77.1371C93.235 76.7282 92.017 75.9916 91.0339 75.8582Z" fill="white"/>
<path opacity="0.5" d="M81.3567 76.2961C82.0527 75.7683 83.32 75.6117 83.7405 76.5658C83.9522 76.966 84.0566 77.4039 84.3437 77.6736C84.6754 77.9128 85.0717 78.0462 85.4805 78.0564C86.332 78.157 87.1951 78.0699 88.0093 77.8012C88.4037 77.6765 88.6241 77.2734 88.9083 76.9312C89.1768 76.5752 89.5269 76.2887 89.9291 76.096C89.5653 76.336 89.2584 76.6528 89.0301 77.024C88.8544 77.3119 88.6472 77.5794 88.4124 77.8215C87.9262 78.1246 87.3719 78.301 86.8 78.3348C85.93 78.3986 84.886 78.4653 84.161 77.8679C83.8101 77.5054 83.7202 77.0414 83.5491 76.6615C83.2011 75.7683 82.0701 75.9249 81.3654 76.2961H81.3567Z" fill="white"/>
<path opacity="0.5" d="M71.63 76.5745C72.6566 76.1366 75.69 74.1878 76.3918 75.7451C76.7079 76.5252 76.4614 77.517 77.0559 78.1608C77.7577 78.7408 78.7031 78.2188 79.3382 77.7693C79.7384 77.4793 80.1154 77.1893 80.4982 76.8848C79.7297 77.4822 79.0308 78.2478 78.0477 78.4856C76.7108 78.7495 76.4875 77.5112 76.3889 76.502C76.2787 75.632 76.0119 75.1883 75.0752 75.4348C73.8891 75.6929 72.8364 76.3396 71.6184 76.5745H71.63Z" fill="white"/>
<path opacity="0.5" d="M52.4465 71.4618C52.4958 71.9867 53.0265 72.2535 53.5021 72.2999C54.8535 72.4478 56.2832 71.7895 57.5853 72.3724C57.7622 72.4536 58 72.6392 57.9884 72.8683C57.9884 73.341 57.7303 73.9442 57.6839 74.4082C57.7736 74.487 57.8708 74.5569 57.9739 74.617C58.3886 74.878 58.6902 75.2521 59.1716 75.4493C60.2475 75.9249 61.4916 76.3338 62.6719 76.1076C64.1828 75.7741 64.7918 74.037 66.236 73.5585C67.6193 73.2859 68.034 74.066 68.4487 75.1796C68.6779 75.6139 69.0126 75.9836 69.4221 76.2548C69.8316 76.5259 70.3026 76.6897 70.7919 76.7311C70.2882 76.7155 69.7969 76.5711 69.3649 76.3117C68.9329 76.0523 68.5745 75.6865 68.324 75.2492C67.889 74.2313 67.5729 73.4918 66.294 73.7731C64.9252 74.3096 64.264 76.0438 62.7386 76.3831C61.4713 76.647 60.1982 76.2149 59.0585 75.6958C58.6032 75.516 58.2523 75.1158 57.8318 74.8258C57.6941 74.7463 57.5722 74.6421 57.4722 74.5184C57.4391 74.3828 57.4472 74.2405 57.4954 74.1095L57.6868 73.3903C57.7216 73.2018 57.8318 72.9147 57.7477 72.7552C57.478 72.4304 56.8951 72.3405 56.4746 72.3057C55.3958 72.2013 52.7046 73.0133 52.4639 71.4589L52.4465 71.4618Z" fill="white"/>
<path opacity="0.5" d="M38.248 66.12C38.5815 66.0098 38.8657 65.801 39.1876 65.6589C39.8495 65.3768 40.5908 65.3428 41.2756 65.5632C41.6281 65.6447 41.9656 65.7807 42.2761 65.9663C42.373 66.0267 42.4427 66.1223 42.4704 66.2331C42.6009 66.8131 42.4153 67.4859 42.6241 68.0311C42.9659 68.6994 43.4897 69.2573 44.135 69.6406C44.2133 69.6406 44.1727 69.6725 44.2568 69.6406C44.686 69.3506 45.063 68.9794 45.5328 68.7242C46.1824 68.3443 46.9828 68.6256 47.6614 68.8257C47.9411 68.8914 48.1958 69.0364 48.3951 69.2433C48.5198 69.4927 48.2994 69.7943 48.4879 69.9857C49.2064 70.4589 50.0363 70.7358 50.8949 70.789C50.1901 70.795 49.4921 70.6507 48.8475 70.3656C48.6684 70.3126 48.5037 70.2194 48.3661 70.093C48.1312 69.8784 48.3023 69.5652 48.224 69.3332C48.0363 69.1928 47.8208 69.0939 47.5918 69.0432C46.9683 68.8982 46.2578 68.614 45.6604 68.9591C45.1848 69.2201 44.8107 69.6464 44.3322 69.9277C44.2657 69.9604 44.1897 69.9686 44.1176 69.9509C43.6449 69.7972 43.3085 69.3912 42.9837 69.049C42.7351 68.7819 42.5314 68.4764 42.3805 68.1442C42.1572 67.5236 42.3399 66.9233 42.2471 66.3114C42.2425 66.2807 42.2309 66.2514 42.2134 66.2258C42.1958 66.2002 42.1726 66.1789 42.1456 66.1635C41.5604 65.8142 40.898 65.6149 40.2171 65.5835C39.5066 65.5081 38.9034 65.9547 38.248 66.1432V66.12Z" fill="white"/>
<path opacity="0.5" d="M50.9355 68.556C52.4754 68.0729 54.0485 67.7026 55.6422 67.4482C56.6166 67.2713 57.5707 67.6657 58.5422 67.7382C59.4852 67.8823 60.4398 67.9357 61.3929 67.8977C62.3238 67.6997 63.2288 67.3951 64.09 66.99C64.67 66.7406 65.2645 66.468 65.8474 66.1983C64.4438 66.9755 63.0141 67.8165 61.422 68.1587C59.801 68.2379 58.1773 68.0796 56.6021 67.6889C54.7084 67.6512 52.806 68.2486 50.9355 68.5589V68.556Z" fill="white"/>
<path opacity="0.5" d="M95.5928 71.1718C96.368 72.062 97.2804 72.8227 98.2956 73.4251C99.1646 74.0111 99.9584 74.7016 100.659 75.4812C100.765 75.5884 100.847 75.7169 100.9 75.8582C100.821 75.7351 100.723 75.6255 100.61 75.5334C99.8209 74.8751 98.9858 74.2458 98.1419 73.6658C97.0985 73.0607 96.224 72.2031 95.5986 71.1718H95.5928Z" fill="white"/>
<path opacity="0.5" d="M109.353 68.5415C109.033 68.8454 108.842 69.2607 108.82 69.7015C108.733 70.5715 108.93 71.4212 109.666 71.9577C110.003 72.2477 110.362 72.5 110.734 72.7552C109.913 72.4304 108.939 71.9606 108.66 71.05C108.419 70.2061 108.501 69.02 109.353 68.556V68.5415Z" fill="white"/>
<path opacity="0.1" d="M72.2363 57.3765C71.2793 56.6515 70.3716 56.3876 69.7568 56.4659C69.142 56.5442 68.9187 57.1561 68.4721 57.2953C68.0255 57.4345 66.4798 57.8376 65.9172 57.7042C65.3546 57.5708 64.0612 57.3388 63.3681 57.2344C62.675 57.13 62.8113 57.188 61.4541 57.4345C60.0969 57.681 56.9214 58.0783 56.1906 57.884C55.4598 57.6897 54.0098 57.0488 53.4588 57.101C52.9078 57.1532 52.8962 58 52.2002 58.1363C51.5042 58.2726 50.8082 57.8173 49.3698 58.3074C47.9314 58.7975 48.146 59.0643 47.7516 59.5457C47.3572 60.0271 47.2528 59.9169 46.4205 60.6767C45.5882 61.4365 46.4843 63.1446 46.6032 63.4607C46.7221 63.7768 47.5341 64.6845 48.0532 64.6787C48.5723 64.6729 48.4621 63.9421 49.8193 64.1712C51.1765 64.4003 49.7352 65.3776 50.8227 66.0127C51.9102 66.6478 52.0494 66.8044 52.496 66.642C52.9426 66.4796 52.9426 65.975 53.8068 66.207C54.671 66.439 54.1403 66.7667 55.0016 66.9523C55.8629 67.1379 55.7759 67.3061 56.6923 67.3264C57.6087 67.3467 56.9475 68.237 57.9683 68.3472C58.9891 68.4574 59.7373 68.4168 60.2477 68.2283C60.7581 68.0398 61.2018 68.295 61.2511 68.5473C61.3004 68.7996 60.6131 69.2955 61.2888 69.6522C61.9645 70.0089 60.8161 69.8842 62.7069 70.3192C64.5977 70.7542 65.5547 70.8992 66.1666 70.2786C66.7785 69.658 67.257 68.9736 68.0081 68.9591C68.7592 68.9446 68.2981 70.9514 70.4586 70.9108C72.6191 70.8702 73.3035 69.9538 74.0865 69.9364C74.8695 69.919 74.0865 71.8069 75.9077 71.7837C77.7289 71.7605 77.9725 70.383 78.8802 70.2902C79.7879 70.1974 78.9846 71.8533 81.6294 71.833C84.2742 71.8127 83.5753 70.6237 84.8977 70.3482C86.2201 70.0727 87.1278 71.4705 89.2477 71.4473C91.3676 71.4241 91.1269 70.673 92.1477 70.644C93.1685 70.615 93.5832 71.5836 93.9341 71.9577C94.285 72.3318 94.3227 72.8857 95.2536 72.6537C96.1845 72.4217 96.0569 70.9485 96.7036 70.4526C97.3503 69.9567 97.675 70.3337 98.3246 69.7914C98.9743 69.2491 100.047 69.1476 99.7979 68.3414C99.5485 67.5352 98.1013 67.4134 98.0346 66.3781C97.9679 65.3428 99.3165 65.2935 99.5397 64.0581C99.7631 62.8227 98.5886 62.8604 97.7592 62.1876C96.9298 61.5148 95.8771 62.4022 95.326 61.4597C94.7751 60.5172 95.4276 60.5317 94.166 59.856C92.9046 59.1803 91.414 60.2533 90.2771 59.8734C89.1404 59.4935 87.3772 58.1334 86.4492 57.8434C85.5212 57.5534 85.0224 58.4698 84.4192 58.4553C83.816 58.4408 82.5661 57.6027 81.3307 57.7129C80.0953 57.8231 79.9938 58.2233 79.147 58.2668C78.3002 58.3103 76.9053 57.9768 76.247 57.7941C75.5887 57.6114 75.1044 57.7941 74.2547 57.7941C73.405 57.7941 72.6075 57.6607 72.2363 57.3765Z" fill="black"/>
<path d="M66.8421 69.8407C72.4449 70.9775 80.4344 69.4434 84.2073 64.9107C85.0193 63.9334 85.0918 61.741 85.0599 60.813C84.9323 57.3997 80.1299 55.738 75.8002 54.8738C70.2902 53.7747 61.277 54.7955 57.9797 59.2064C57.1764 60.2794 56.5761 60.7173 56.5964 61.8628C56.6428 64.7947 59.7748 68.4052 66.8421 69.8407Z" fill="#E50019"/>
<path opacity="0.2" d="M66.8421 69.8407C72.4449 70.9775 80.4344 69.4434 84.2073 64.9107C85.0193 63.9334 85.0918 61.741 85.0599 60.813C84.9323 57.3997 80.1299 55.738 75.8002 54.8738C70.2902 53.7747 61.277 54.7955 57.9797 59.2064C57.1764 60.2794 56.5761 60.7173 56.5964 61.8628C56.6428 64.7947 59.7748 68.4052 66.8421 69.8407Z" fill="black"/>
<path d="M66.6044 68.44C72.2072 69.5797 80.1967 68.0427 83.9696 63.51C87.7425 58.9773 81.0696 54.5751 75.5596 53.4731C70.0496 52.3711 61.0393 53.3948 57.742 57.8057C54.8884 61.6221 56.7734 66.439 66.6044 68.44Z" fill="#E50019"/>
<path opacity="0.1" d="M66.6044 68.44C72.2072 69.5797 80.1967 68.0427 83.9696 63.51C87.7425 58.9773 81.0696 54.5751 75.5596 53.4731C70.0496 52.3711 61.0393 53.3948 57.742 57.8057C54.8884 61.6221 56.7734 66.439 66.6044 68.44Z" fill="black"/>
<path d="M67.3322 67.048C71.9084 67.9789 78.4363 66.7232 81.5161 63.017C84.5959 59.3108 79.141 55.7177 74.6489 54.81C70.1568 53.9023 62.7879 54.7462 60.0938 58.348C57.7593 61.48 59.3021 65.4153 67.3322 67.048Z" fill="#E50019"/>
<path d="M65.1631 61.8686C65.1834 61.6018 63.5652 61.3843 63.5623 61.8918C63.5623 62.3181 65.1399 62.2137 65.1631 61.8686Z" fill="white"/>
<path d="M69.1186 57.9681C69.5652 57.9043 69.5623 56.9241 68.7242 57.0604C68.0195 57.1764 68.5415 58.0464 69.1186 57.9681Z" fill="white"/>
<path d="M65.1514 57.5302C65.4733 57.3359 64.5714 56.5297 63.9711 56.9154C63.481 57.2373 64.7367 57.7825 65.1514 57.5302Z" fill="white"/>
<path d="M62.7124 63.0054C62.3934 62.8198 60.9898 63.3737 61.6249 63.7101C62.1556 63.9943 63.1271 63.2432 62.7124 63.0054Z" fill="white"/>
<path d="M72.1084 64.67C71.685 64.7715 71.946 65.7372 72.7406 65.54C73.4076 65.3573 72.6594 64.5511 72.1084 64.67Z" fill="white"/>
<path d="M77.5664 59.7052C77.5664 59.972 79.1991 60.1518 79.1672 59.6414C79.1382 59.218 77.5693 59.3572 77.5664 59.7052Z" fill="white"/>
<path d="M75.3999 58.5336C75.6029 58.7685 77.2182 58.4988 76.8035 58.0609C76.4497 57.6897 75.1331 58.2262 75.3999 58.5336Z" fill="white"/>
<path d="M71.8533 62.3152C71.4038 62.2804 70.8151 63.2084 71.6764 63.2519C72.3956 63.2896 72.4362 62.35 71.8533 62.3152Z" fill="white"/>
<path d="M78.039 66.12C78.039 66.12 72.5464 62.6197 73.2627 61.5322C73.979 60.4447 83.2416 60.5839 83.2851 61.2567C83.3286 61.9295 80.7882 65.5545 78.039 66.12Z" fill="#E50019"/>
<path opacity="0.1" d="M78.039 66.12C78.039 66.12 72.5464 62.6197 73.2627 61.5322C73.979 60.4447 83.2416 60.5839 83.2851 61.2567C83.3286 61.9295 80.7882 65.5545 78.039 66.12Z" fill="black"/>
<path d="M78.6856 55.7554C78.6856 55.7554 73.7208 59.6675 71.7865 59.4848C69.8522 59.3021 68.5965 53.9168 69.713 53.7486C70.8295 53.5804 77.2965 54.2851 78.6856 55.7554Z" fill="#E50019"/>
<path opacity="0.1" d="M78.6856 55.7554C78.6856 55.7554 73.7208 59.6675 71.7865 59.4848C69.8522 59.3021 68.5965 53.9168 69.713 53.7486C70.8295 53.5804 77.2965 54.2851 78.6856 55.7554Z" fill="black"/>
<path d="M60.8999 56.0251C60.8999 56.0251 67.1204 59.073 66.6448 60.2011C66.1692 61.3292 56.9182 61.886 56.7297 61.2248C56.5412 60.5636 58.2899 56.7907 60.8999 56.0251Z" fill="#E50019"/>
<path opacity="0.1" d="M60.8999 56.0251C60.8999 56.0251 67.1204 59.073 66.6448 60.2011C66.1692 61.3292 56.9182 61.886 56.7297 61.2248C56.5412 60.5636 58.2899 56.7907 60.8999 56.0251Z" fill="black"/>
<path d="M61.0364 65.7372C61.0364 65.7372 66.3811 61.9991 68.2864 62.2572C70.1917 62.5153 70.8964 67.9354 69.7712 68.0572C68.646 68.179 62.2718 67.2568 61.0364 65.7372Z" fill="#E50019"/>
<path opacity="0.1" d="M61.0364 65.7372C61.0364 65.7372 66.3811 61.9991 68.2864 62.2572C70.1917 62.5153 70.8964 67.9354 69.7712 68.0572C68.646 68.179 62.2718 67.2568 61.0364 65.7372Z" fill="black"/>
<path d="M54.0849 58.4321C59.4731 56.3644 64.9715 50.2773 64.9367 43.6218C64.9367 42.1892 63.4867 39.9707 62.811 39.0659C60.3518 35.7512 55.2536 36.8474 51.1066 38.4569C45.8344 40.4869 39.1296 46.6668 39.4689 52.9279C39.5501 54.4533 39.3587 55.2305 40.1649 56.3586C42.2297 59.2441 47.2931 61.0392 54.0849 58.4321Z" fill="#E50019"/>
<path opacity="0.2" d="M54.0849 58.4321C59.4731 56.3644 64.9715 50.2773 64.9367 43.6218C64.9367 42.1892 63.4867 39.9707 62.811 39.0659C60.3518 35.7512 55.2536 36.8474 51.1066 38.4569C45.8344 40.4869 39.1296 46.6668 39.4689 52.9279C39.5501 54.4533 39.3587 55.2305 40.1649 56.3586C42.2297 59.2441 47.2931 61.0392 54.0849 58.4321Z" fill="black"/>
<path d="M52.9221 57.1735C58.3103 55.1 63.8 49.01 63.7768 42.3632C63.742 35.6613 55.2189 35.1509 49.9438 37.1983C44.6687 39.2457 37.9668 45.4082 38.3061 51.6693C38.599 57.0952 43.4739 60.8014 52.9221 57.1735Z" fill="#E50019"/>
<path opacity="0.1" d="M52.9221 57.1735C58.3103 55.1 63.8 49.01 63.7768 42.3632C63.742 35.6613 55.2189 35.1509 49.9438 37.1983C44.6687 39.2457 37.9668 45.4082 38.3061 51.6693C38.599 57.0952 43.4739 60.8014 52.9221 57.1735Z" fill="black"/>
<path d="M52.5595 55.39C56.9617 53.7022 61.4538 48.72 61.4277 43.2912C61.4016 37.8624 54.4358 37.4013 50.1177 39.0717C45.7996 40.7421 40.3331 45.7794 40.6086 50.895C40.858 55.3175 44.8397 58.3451 52.5595 55.39Z" fill="#E50019"/>
<path d="M47.2062 51.475C47.038 51.185 45.5589 51.9071 45.9098 52.4117C46.2027 52.8351 47.4237 51.8317 47.2062 51.475Z" fill="white"/>
<path d="M47.76 45.3444C48.0819 45.0283 47.4062 44.0539 46.8117 44.6687C46.3129 45.1849 47.3424 45.7533 47.76 45.3444Z" fill="white"/>
<path d="M44.2018 47.1743C44.3323 46.8002 43.0215 46.5218 42.8069 47.2381C42.63 47.85 44.0336 47.6644 44.2018 47.1743Z" fill="white"/>
<path d="M45.9765 54.0009C45.5879 54.0009 44.8165 55.3523 45.5705 55.3233C46.2028 55.303 46.484 54.0038 45.9765 54.0009Z" fill="white"/>
<path d="M54.8506 50.3034C54.5606 50.6456 55.4538 51.4634 55.9584 50.7906C56.3847 50.2338 55.2131 49.8568 54.8506 50.3034Z" fill="white"/>
<path d="M55.8975 42.2472C56.0802 42.5111 57.5447 41.7571 57.1677 41.2728C56.84 40.8639 55.6568 41.9021 55.8975 42.2472Z" fill="white"/>
<path d="M53.3049 42.3226C53.6326 42.4444 54.7752 41.2525 54.1285 41.0524C53.5891 40.89 52.8786 42.1689 53.3049 42.3226Z" fill="white"/>
<path d="M53.0062 48.0994C52.6147 48.3227 52.7713 49.5813 53.5079 49.1318C54.1256 48.7577 53.5166 47.8123 53.0062 48.0994Z" fill="white"/>
<path d="M60.7144 48.3488C60.7144 48.3488 53.7892 48.0095 53.6268 46.5218C53.4644 45.0341 61.1668 39.8808 61.6627 40.5246C62.1586 41.1684 62.5791 46.2144 60.7144 48.3488Z" fill="#E50019"/>
<path opacity="0.1" d="M60.7144 48.3488C60.7144 48.3488 53.7892 48.0095 53.6268 46.5218C53.4644 45.0341 61.1668 39.8808 61.6627 40.5246C62.1586 41.1684 62.5791 46.2144 60.7144 48.3488Z" fill="black"/>
<path d="M54.0878 37.7C54.0878 37.7 52.7132 44.4193 50.9993 45.3415C49.2854 46.2637 44.5352 41.6353 45.3385 40.832C46.1418 40.0287 51.9331 37.0214 54.0878 37.7Z" fill="#E50019"/>
<path opacity="0.1" d="M54.0878 37.7C54.0878 37.7 52.7132 44.4193 50.9993 45.3415C49.2854 46.2637 44.5352 41.6353 45.3385 40.832C46.1418 40.0287 51.9331 37.0214 54.0878 37.7Z" fill="black"/>
<path d="M39.6749 48.1052C39.6749 48.1052 46.8901 47.5774 47.2758 48.9752C47.6615 50.373 40.4521 56.1991 39.8431 55.6452C39.2341 55.0913 38.0596 50.3556 39.6749 48.1052Z" fill="#E50019"/>
<path opacity="0.1" d="M39.6749 48.1052C39.6749 48.1052 46.8901 47.5774 47.2758 48.9752C47.6615 50.373 40.4521 56.1991 39.8431 55.6452C39.2341 55.0913 38.0596 50.3556 39.6749 48.1052Z" fill="black"/>
<path d="M46.4871 57.6723C46.4871 57.6723 48.2967 50.9095 50.0367 50.0714C51.7767 49.2333 56.1035 54.2155 55.2567 55.0014C54.4099 55.7873 48.549 58.4756 46.4871 57.6723Z" fill="#E50019"/>
<path opacity="0.1" d="M46.4871 57.6723C46.4871 57.6723 48.2967 50.9095 50.0367 50.0714C51.7767 49.2333 56.1035 54.2155 55.2567 55.0014C54.4099 55.7873 48.549 58.4756 46.4871 57.6723Z" fill="black"/>
<path d="M94.1862 66.5144C88.9256 65.7111 82.5862 61.8512 81.0289 56.7501C80.6896 55.651 81.4436 53.7428 81.8177 52.954C83.1981 50.054 87.9715 50.1613 92.0257 50.7906C97.1819 51.5939 104.594 55.3407 105.801 60.1837C106.091 61.364 106.447 61.9237 106.007 62.9097C104.873 65.4182 100.824 67.5265 94.1862 66.5144Z" fill="#E50019"/>
<path opacity="0.2" d="M94.1862 66.5144C88.9256 65.7111 82.5862 61.8512 81.0289 56.7501C80.6896 55.651 81.4436 53.7428 81.8177 52.954C83.1981 50.054 87.9715 50.1613 92.0257 50.7906C97.1819 51.5939 104.594 55.3407 105.801 60.1837C106.091 61.364 106.447 61.9237 106.007 62.9097C104.873 65.4182 100.824 67.5265 94.1862 66.5144Z" fill="black"/>
<path d="M94.914 65.3834C89.6505 64.5801 83.314 60.7173 81.7538 55.6191C80.1936 50.5209 87.5944 48.8563 92.7506 49.6596C97.9068 50.4629 105.319 54.2097 106.526 59.0498C107.57 63.2461 104.148 66.7899 94.914 65.3834Z" fill="#E50019"/>
<path opacity="0.1" d="M94.914 65.3834C89.6505 64.5801 83.314 60.7173 81.7538 55.6191C80.1936 50.5209 87.5944 48.8563 92.7506 49.6596C97.9068 50.4629 105.319 54.2097 106.526 59.0498C107.57 63.2461 104.148 66.7899 94.914 65.3834Z" fill="black"/>
<path d="M94.8039 63.9566C90.5032 63.3012 85.3354 60.146 84.0536 55.9787C82.7718 51.8114 88.8241 50.4687 93.0436 51.1125C97.2631 51.7563 103.313 54.8274 104.296 58.783C105.142 62.2108 102.347 65.1079 94.8039 63.9566Z" fill="#E50019"/>
<path d="M98.6001 60.1895C98.6842 59.9546 100.163 60.2823 99.9747 60.7202C99.8181 61.0885 98.4957 60.4969 98.6001 60.1895Z" fill="white"/>
<path d="M96.6397 55.5785C96.2801 55.3842 96.6397 54.5403 97.3183 54.926C97.8838 55.2479 97.1095 55.8308 96.6397 55.5785Z" fill="white"/>
<path d="M100.227 56.4659C100.024 56.1962 101.117 55.7931 101.48 56.3093C101.79 56.7414 100.494 56.8139 100.227 56.4659Z" fill="white"/>
<path d="M100.296 61.9469C100.642 61.8889 101.648 62.8169 100.975 62.901C100.41 62.9764 99.8499 62.0223 100.296 61.9469Z" fill="white"/>
<path d="M91.5589 60.4012C91.8865 60.6245 91.3037 61.3727 90.6889 60.9377C90.1901 60.5723 91.1326 60.1141 91.5589 60.4012Z" fill="white"/>
<path d="M88.6993 54.3866C88.6007 54.6157 87.1217 54.2503 87.3392 53.824C87.5219 53.4673 88.8269 54.0879 88.6993 54.3866Z" fill="white"/>
<path d="M91.0108 54.0705C90.7498 54.2097 89.4535 53.4615 89.9755 53.215C90.4134 53.0091 91.3501 53.8878 91.0108 54.0705Z" fill="white"/>
<path d="M92.6608 58.4495C93.061 58.5626 93.2408 59.5486 92.4665 59.3195C92.4094 59.3067 92.3553 59.2829 92.3074 59.2492C92.2595 59.2156 92.2187 59.1728 92.1873 59.1234C92.156 59.074 92.1346 59.0189 92.1246 58.9612C92.1145 58.9036 92.1159 58.8445 92.1286 58.7873C92.1414 58.7302 92.1653 58.6762 92.1989 58.6283C92.2326 58.5804 92.2753 58.5396 92.3247 58.5082C92.3741 58.4768 92.4293 58.4555 92.4869 58.4454C92.5446 58.4354 92.6037 58.4367 92.6608 58.4495Z" fill="white"/>
<path d="M85.9009 59.7545C85.9009 59.7545 91.9474 58.493 91.7328 57.3301C91.5182 56.1672 83.4707 53.3397 83.1836 53.9052C82.8965 54.4707 83.7375 58.3944 85.9009 59.7545Z" fill="#E50019"/>
<path opacity="0.1" d="M85.9009 59.7545C85.9009 59.7545 91.9474 58.493 91.7328 57.3301C91.5182 56.1672 83.4707 53.3397 83.1836 53.9052C82.8965 54.4707 83.7375 58.3944 85.9009 59.7545Z" fill="black"/>
<path d="M89.2041 50.634C89.2041 50.634 92.0345 55.5785 93.7716 56.0338C95.5087 56.4891 98.6001 52.2638 97.6982 51.7621C96.7963 51.2604 90.9499 49.8104 89.2041 50.634Z" fill="#E50019"/>
<path opacity="0.1" d="M89.2041 50.634C89.2041 50.634 92.0345 55.5785 93.7716 56.0338C95.5087 56.4891 98.6001 52.2638 97.6982 51.7621C96.7963 51.2604 90.9499 49.8104 89.2041 50.634Z" fill="black"/>
<path d="M104.458 56.521C104.458 56.521 97.9474 57.1619 97.9387 58.2842C97.93 59.4065 105.714 62.8285 106.12 62.3181C106.526 61.8077 106.43 58 104.458 56.521Z" fill="#E50019"/>
<path opacity="0.1" d="M104.458 56.521C104.458 56.521 97.9474 57.1619 97.9387 58.2842C97.93 59.4065 105.714 62.8285 106.12 62.3181C106.526 61.8077 106.43 58 104.458 56.521Z" fill="black"/>
<path d="M100.729 64.8324C100.729 64.8324 97.5038 59.9169 95.7609 59.5283C94.018 59.1397 91.3878 63.5883 92.3187 64.0494C93.2496 64.5105 99.0959 65.7459 100.729 64.8324Z" fill="#E50019"/>
<path opacity="0.1" d="M100.729 64.8324C100.729 64.8324 97.5038 59.9169 95.7609 59.5283C94.018 59.1397 91.3878 63.5883 92.3187 64.0494C93.2496 64.5105 99.0959 65.7459 100.729 64.8324Z" fill="black"/>
<path d="M111.206 56.0889C103.289 63.7478 77.7287 56.0512 70.0988 53.3339C62.4689 50.6166 38.0074 40.5014 38.2945 30.1339C38.5816 19.7664 62.0136 5.60281 87.6583 14.7378C113.303 23.8728 119.123 48.43 111.206 56.0889Z" fill="#E50019"/>
<path opacity="0.2" d="M111.206 56.0889C103.289 63.7478 77.7287 56.0512 70.0988 53.3339C62.4689 50.6166 38.0074 40.5014 38.2945 30.1339C38.5816 19.7664 62.0136 5.60281 87.6583 14.7378C113.303 23.8728 119.123 48.43 111.206 56.0889Z" fill="black"/>
<path opacity="0.1" d="M89.3374 26.39C86.2692 30.3978 78.0651 30.9401 70.7397 29.87C67.0683 29.3335 55.9932 25.6273 55.419 20.9061C54.8448 16.1849 63.7043 10.3936 75.9452 12.7861C88.1861 15.1786 92.4056 22.3764 89.3374 26.39Z" fill="white"/>
<path opacity="0.1" d="M111.206 56.0889C103.289 63.7478 77.7287 56.0512 70.1017 53.3339C62.4747 50.6166 38.0074 40.5014 38.2945 30.1339C38.4105 25.9115 42.3545 21.0656 48.7345 17.4145C44.5643 22.5475 40.7566 28.2547 43.4217 32.8222C48.0356 40.7247 83.1517 51.2169 99.7571 50.5789C113.297 50.0598 113.567 41.9021 111.783 35.4496C115.71 43.8596 115.246 52.1797 111.206 56.0889Z" fill="black"/>
<path d="M79.3644 38.9383C78.8859 38.7991 77.3721 40.5884 78.3059 40.8175C79.086 41.006 79.9821 39.121 79.3644 38.9383Z" fill="white"/>
<path d="M96.7063 22.2024C96.9441 22.6374 99.2815 22.4402 98.7827 21.6224C98.3622 20.9351 96.3989 21.634 96.7063 22.2024Z" fill="white"/>
<path d="M92.22 39.2979C91.7676 39.5038 91.8053 41.8499 92.6579 41.4091C93.38 41.0379 92.8 39.0282 92.22 39.2979Z" fill="white"/>
<path d="M53.0875 17.3159C52.9599 16.8345 50.6428 16.472 50.9328 17.3884C51.1764 18.154 53.2528 17.9394 53.0875 17.3159Z" fill="white"/>
<path d="M67.6105 30.0933C67.3582 29.6641 65.0295 29.9454 65.5573 30.7458C66.001 31.4186 67.9411 30.6501 67.6105 30.0933Z" fill="white"/>
<path d="M101.773 31.03C101.448 31.407 102.454 33.524 103.046 32.77C103.53 32.1465 102.196 30.5544 101.773 31.03Z" fill="white"/>
<path d="M98.365 35.0581C97.8691 35.1074 97.147 37.3404 98.0982 37.1954C98.8899 37.0765 99.0059 34.9914 98.365 35.0581Z" fill="white"/>
<path d="M91.84 22.6693C91.4804 23.0144 92.2895 25.2155 92.9478 24.5166C93.4988 23.9308 92.304 22.2227 91.84 22.6693Z" fill="white"/>
<path d="M51.7216 15.1815C51.5389 14.7204 49.1957 14.6334 49.5901 15.5063C49.9236 16.24 51.9594 15.7818 51.7216 15.1815Z" fill="white"/>
<path d="M102.933 45.733C102.442 45.8084 101.833 48.0733 102.773 47.8819C103.562 47.7224 103.571 45.6373 102.933 45.733Z" fill="white"/>
<path d="M111.54 38.7556C111.189 39.1065 112.044 41.2902 112.7 40.5797C113.228 39.9823 111.995 38.2974 111.54 38.7556Z" fill="white"/>
<path d="M55.7033 35.4206C55.2973 35.1306 53.2905 36.3457 54.1025 36.8706C54.7811 37.2882 56.2311 35.7918 55.7033 35.4206Z" fill="white"/>
<path d="M69.4841 16.3241C69.5798 15.8369 67.6629 14.4884 67.5179 15.4367C67.399 16.24 69.3565 16.9563 69.4841 16.3241Z" fill="white"/>
<path d="M80.2285 18.2207C79.9385 17.8292 77.6504 18.4034 78.2768 19.1313C78.8017 19.7403 80.62 18.7311 80.2285 18.2207Z" fill="white"/>
<path d="M85.3585 46.0201C84.8713 46.1245 84.4073 48.4242 85.3353 48.1748C86.1096 47.9631 85.9878 45.8809 85.3585 46.0201Z" fill="white"/>
<path d="M54.3778 23.49C54.0878 23.0811 51.791 23.519 52.3739 24.2817C52.8611 24.9226 54.7432 24.0236 54.3778 23.49Z" fill="white"/>
<path d="M82.3136 48.8882C81.8177 48.8621 80.7621 50.9588 81.7336 50.9617C82.5282 50.9617 82.9574 48.9201 82.3136 48.8882Z" fill="white"/>
<path opacity="0.5" d="M44.4425 26.1C43.2245 30.3949 47.3773 33.727 50.5093 35.8962C54.9898 38.831 59.972 40.8697 64.9252 42.8823C59.7777 41.3395 54.6911 39.3588 50.1932 36.366C47.0032 34.1591 42.7808 30.4007 44.4425 26.1Z" fill="white"/>
<path d="M106.255 8.00002L3 101.004L33.6212 135L136.876 41.9964L106.255 8.00002Z" fill="#E50019"/>
<path d="M30.3397 108.884C27.9309 106.262 28.217 102.536 30.9253 100.04C31.5735 99.3904 32.3602 98.8953 33.2268 98.5923C34.0933 98.2892 35.0171 98.186 35.9292 98.2904L35.7296 100.673C35.1673 100.594 34.5945 100.642 34.0533 100.813C33.5121 100.985 33.0162 101.276 32.6021 101.664C31.9035 102.353 31.4998 103.287 31.476 104.268C31.4523 105.249 31.8103 106.201 32.4747 106.923C33.1391 107.645 34.0579 108.081 35.0375 108.139C36.017 108.197 36.9809 107.872 37.7258 107.234C38.1487 106.853 38.4802 106.382 38.6957 105.855C38.9111 105.329 39.0049 104.76 38.9701 104.193H41.3589C41.3909 105.114 41.2128 106.031 40.8381 106.874C40.4634 107.717 39.902 108.463 39.1964 109.057C36.4948 111.539 32.7552 111.512 30.3397 108.884Z" fill="white"/>
<path d="M47.8666 97.3655L43.8275 101.078L44.7724 103.654L42.7096 105.557L38.5508 93.2931L40.547 91.4633L52.4513 96.5869L50.3352 98.5299L47.8666 97.3655ZM45.8237 96.4206L41.3788 94.3511L43.0689 98.9558L45.8237 96.4206Z" fill="white"/>
<path d="M53.3297 79.7054L61.3146 88.4156L59.6644 89.9328L50.4618 88.6419L55.3259 93.9253L53.3297 95.7551L45.3447 87.0515L47.0149 85.5211L56.2043 86.8519L51.3401 81.5286L53.3297 79.7054Z" fill="white"/>
<path d="M58.8458 82.6665C56.437 80.0448 56.7231 76.3118 59.4314 73.8232C60.0813 73.1759 60.8685 72.6831 61.7347 72.3813C62.6009 72.0796 63.5239 71.9765 64.4353 72.0798L64.2357 74.462C63.6729 74.3844 63.1 74.4338 62.5588 74.6065C62.0176 74.7792 61.522 75.0709 61.1082 75.4601C60.4096 76.1493 60.0059 77.0827 59.9821 78.0637C59.9584 79.0447 60.3164 79.9967 60.9808 80.7189C61.6452 81.441 62.564 81.8771 63.5436 81.935C64.5232 81.993 65.487 81.6684 66.2319 81.0296C66.6557 80.6484 66.9878 80.1761 67.2033 79.6484C67.4188 79.1206 67.5121 78.5509 67.4762 77.982H69.865C69.8974 78.9028 69.7195 79.8188 69.3448 80.6605C68.97 81.5022 68.4084 82.2474 67.7025 82.8395C65.0009 85.3149 61.2613 85.2882 58.8458 82.6665Z" fill="white"/>
<path d="M77.7636 70.3231L79.2542 71.9334L72.4869 78.1351L64.502 69.4182L71.0829 63.3696L72.5668 64.9865L67.9954 69.1919L69.7321 71.0817L73.7711 67.3687L75.2151 68.9324L71.1561 72.6654L73.0059 74.6616L77.7636 70.3231Z" fill="white"/>
<path d="M72.8462 61.7593L74.8424 59.9028L81.3368 66.9695L85.702 62.977L87.2125 64.6139L80.8311 70.4828L72.8462 61.7593Z" fill="white"/>
<path d="M80.3589 54.8523L82.3551 53.0024L88.8562 60.0625L93.2213 56.07L94.7252 57.7069L88.3505 63.5759L80.3589 54.8523Z" fill="white"/>
<path d="M101.1 48.8369L102.584 50.4539L95.8429 56.6489L87.8579 47.9453L94.4388 41.8967L95.9227 43.5136L91.3447 47.719L93.088 49.6088L97.1271 45.8958L98.5711 47.4595L94.532 51.1792L96.3885 53.1754L101.1 48.8369Z" fill="white"/>
<path d="M96.2087 40.2731L100.161 36.6332C103.009 34.0182 106.536 33.9716 108.965 36.5734C111.393 39.1751 111.014 42.7218 108.166 45.3435L104.214 48.9767L96.2087 40.2731ZM106.549 43.7798C108.273 42.1895 108.459 40.1134 106.922 38.4565C105.385 36.7996 103.309 36.7996 101.599 38.3899L99.7687 40.0734L104.733 45.4699L106.549 43.7798Z" fill="white"/>
</svg>
