<svg width="341" height="341" viewBox="0 0 341 341" fill="none" xmlns="http://www.w3.org/2000/svg">
<path d="M316.243 47.5695H243.433V123.469H316.243V47.5695Z" fill="#E0E0E0"/>
<path d="M311.313 47.5695H238.502V123.469H311.313V47.5695Z" fill="#FAFAFA"/>
<path d="M311.333 123.49H238.475V47.5422H311.333V123.49ZM238.523 123.442H311.285V47.59H238.523V123.442Z" fill="#E0E0E0"/>
<path d="M301.526 57.7722H248.289V113.267H301.526V57.7722Z" fill="#FAFAFA"/>
<path d="M248.289 113.628C247.913 114.188 247.471 114.701 246.973 115.156C246.127 116.056 244.927 117.27 243.563 118.566C242.199 119.861 240.992 121.062 240.084 121.894C239.626 122.381 239.111 122.811 238.55 123.176C238.925 122.621 239.362 122.111 239.853 121.655C240.705 120.762 241.899 119.541 243.263 118.245C244.627 116.949 245.841 115.749 246.748 114.91C247.209 114.424 247.727 113.993 248.289 113.628Z" fill="#E0E0E0"/>
<path d="M301.526 113.492C302.082 113.871 302.592 114.312 303.047 114.808C303.947 115.66 305.161 116.854 306.457 118.218C307.753 119.582 308.953 120.789 309.792 121.696C310.279 122.155 310.707 122.673 311.067 123.237C310.513 122.858 310.003 122.419 309.546 121.928C308.653 121.075 307.432 119.882 306.136 118.518C304.84 117.154 303.64 115.94 302.808 115.033C302.315 114.578 301.883 114.06 301.526 113.492Z" fill="#E0E0E0"/>
<path d="M301.376 57.9154C301.756 57.3582 302.197 56.8457 302.692 56.3878C303.538 55.4943 304.738 54.2804 306.102 52.9778C307.466 51.6751 308.673 50.4885 309.58 49.6496C310.043 49.1647 310.56 48.7344 311.122 48.3674C310.747 48.9243 310.307 49.4348 309.812 49.8883C308.96 50.7885 307.766 52.0025 306.402 53.2983C305.038 54.5941 303.824 55.8012 302.917 56.6333C302.46 57.1249 301.942 57.5559 301.376 57.9154Z" fill="#E0E0E0"/>
<path d="M248.146 58.0518C247.586 57.6776 247.073 57.238 246.618 56.7424C245.718 55.8899 244.504 54.6964 243.208 53.3324C241.912 51.9684 240.712 50.7681 239.873 49.861C239.388 49.3999 238.96 48.8824 238.598 48.3197C239.153 48.6962 239.664 49.1356 240.119 49.6291C241.012 50.4748 242.233 51.6751 243.529 53.0391C244.824 54.4031 246.025 55.6171 246.864 56.5242C247.348 56.9823 247.779 57.4949 248.146 58.0518Z" fill="#E0E0E0"/>
<path d="M301.376 113.26C301.376 113.26 301.376 113.164 301.376 112.994C301.376 112.823 301.376 112.55 301.376 112.216C301.376 111.534 301.376 110.518 301.376 109.222C301.376 106.59 301.376 102.771 301.321 97.9148C301.321 88.1963 301.26 74.3448 301.219 57.7722L301.424 57.9768H248.344L248.575 57.745C248.575 78.1095 248.575 97.1646 248.575 113.232L248.371 113.035L286.808 113.137L297.604 113.192H300.462H301.199H301.458C301.381 113.198 301.303 113.198 301.226 113.192H300.51H297.693L286.938 113.246L248.371 113.348H248.166V113.144C248.166 97.0759 248.166 78.0208 248.132 57.6563V57.4176H248.378H301.458H301.662V57.6222C301.621 74.2494 301.587 88.1417 301.56 97.8943C301.56 102.73 301.519 106.542 301.505 109.154C301.505 110.436 301.505 111.425 301.505 112.114C301.505 112.435 301.505 112.68 301.505 112.864C301.481 113.002 301.438 113.135 301.376 113.26Z" fill="#E0E0E0"/>
<path d="M276.462 79.5416C275.504 78.1213 274.18 76.9852 272.631 76.2524C271.082 75.5197 269.365 75.2173 267.658 75.377C265.952 75.5368 264.321 76.1527 262.935 77.1603C261.548 78.1678 260.459 79.5298 259.781 81.1034C259.25 82.4442 258.989 83.8764 259.013 85.3181C259.036 86.7598 259.343 88.1828 259.917 89.5056C261.089 92.1505 262.997 94.4021 265.414 95.9915C271.641 100.233 280.663 100.043 286.454 95.2208C288.683 93.4857 290.199 90.994 290.716 88.2167C290.954 86.6042 290.734 84.9574 290.083 83.4634C289.431 81.9693 288.374 80.6879 287.031 79.7645C285.688 78.8412 284.113 78.313 282.484 78.2398C280.856 78.1666 279.24 78.5515 277.82 79.3507" fill="#E0E0E0"/>
<path d="M276.49 79.5348C276.284 78.7799 275.818 78.122 275.174 77.6776C274.53 77.2333 273.749 77.0311 272.971 77.1069L275.051 79.5826C274.48 79.6642 273.943 79.8971 273.493 80.2569C273.043 80.6166 272.698 81.0903 272.493 81.6286C272.391 81.8809 272.364 82.2355 272.602 82.3651C272.689 82.3914 272.78 82.4001 272.87 82.3907C272.96 82.3814 273.048 82.3541 273.127 82.3106L275.658 81.2603C275.832 82.6731 276.349 84.0218 277.165 85.1886C277.745 83.9498 278.07 82.6069 278.12 81.2398L280.916 82.4742C280.691 81.676 280.233 80.9633 279.6 80.4282C280.428 80.267 281.22 79.9574 281.939 79.5144C282.157 79.378 282.396 79.1461 282.293 78.9142C282.191 78.6823 281.993 78.6823 281.796 78.6687C279.949 78.4895 278.092 78.8747 276.469 79.7735" fill="#EBEBEB"/>
<path d="M276.305 80.5783C276.743 77.7493 276.509 74.8572 275.623 72.1351C276.305 71.9851 277.11 71.8896 277.54 72.4148C277.76 72.7492 277.858 73.1486 277.819 73.5469C277.852 76.2149 277.344 78.8619 276.326 81.3285" fill="#EBEBEB"/>
<path d="M262.727 90.706C262.56 90.5834 262.413 90.4362 262.29 90.2695C261.93 89.8335 261.616 89.3602 261.356 88.8577C260.468 87.1903 260.154 85.2769 260.462 83.4131C260.77 81.5493 261.684 79.8388 263.061 78.5459C263.477 78.1541 263.934 77.8088 264.425 77.5161C264.592 77.3943 264.779 77.3021 264.977 77.2433C264.367 77.6913 263.786 78.1789 263.238 78.7028C261.948 79.9975 261.094 81.6627 260.796 83.4661C260.498 85.2695 260.77 87.121 261.574 88.7623C261.917 89.4341 262.302 90.0834 262.727 90.706Z" fill="white"/>
<path d="M265.53 92.8339C265.53 92.9089 265.059 92.8339 264.616 92.4929C264.173 92.1519 263.934 91.8109 264.002 91.7427C264.07 91.6745 264.384 91.9541 264.793 92.2473C265.202 92.5406 265.564 92.752 265.53 92.8339Z" fill="white"/>
<path d="M151.875 25.459H50.468V131.169H151.875V25.459Z" fill="#E0E0E0"/>
<path d="M145.007 25.4591H43.6003V131.169H145.007V25.4591Z" fill="#FAFAFA"/>
<path d="M145.041 131.196H43.5662V25.4249H145.041V131.196ZM43.648 131.135H144.973V25.4863H43.648V131.135Z" fill="#E0E0E0"/>
<path d="M131.374 39.665H57.2335V116.949H131.374V39.665Z" fill="#FAFAFA"/>
<path d="M57.2335 117.468C56.7062 118.243 56.0931 118.957 55.4057 119.595C54.219 120.844 52.5549 122.535 50.6931 124.369C48.8312 126.204 47.1126 127.841 45.8441 129C44.5755 130.16 43.7981 130.855 43.7026 130.787C44.2259 130.012 44.8369 129.301 45.5235 128.666C46.7102 127.418 48.3743 125.727 50.2498 123.892C52.1253 122.057 53.8371 120.407 55.0988 119.241C56.3605 118.075 57.1721 117.399 57.2335 117.468Z" fill="#E0E0E0"/>
<path d="M131.374 117.304C132.15 117.833 132.864 118.448 133.502 119.139C134.75 120.318 136.441 121.982 138.276 123.851C140.11 125.72 141.747 127.425 142.913 128.693C143.59 129.333 144.188 130.052 144.693 130.835C143.92 130.312 143.21 129.701 142.579 129.014C141.324 127.834 139.633 126.163 137.805 124.294C135.977 122.426 134.32 120.7 133.161 119.439C132.001 118.177 131.305 117.338 131.374 117.304Z" fill="#E0E0E0"/>
<path d="M131.169 39.8765C131.691 39.0988 132.302 38.3847 132.99 37.7486C134.17 36.4937 135.834 34.8024 137.703 32.9746C139.571 31.1469 141.283 29.5032 142.545 28.337C143.185 27.6598 143.904 27.0622 144.686 26.557C144.755 26.6184 144.052 27.4231 142.865 28.6712C141.679 29.9193 140.015 31.6174 138.146 33.4452C136.277 35.273 134.559 36.9302 133.29 38.0896C132.022 39.249 131.23 39.9447 131.169 39.8765Z" fill="#E0E0E0"/>
<path d="M57.0289 40.0606C56.2489 39.5388 55.5345 38.9251 54.901 38.2328C53.653 37.0462 51.9616 35.3889 50.127 33.5202C48.2924 31.6515 46.6488 29.9397 45.4894 28.678C44.8134 28.0353 44.2138 27.3167 43.7026 26.5365C43.7708 26.4683 44.5755 27.1708 45.8236 28.3507C47.0717 29.5305 48.7698 31.2082 50.5976 33.0769C52.4254 34.9456 54.0758 36.6642 55.242 37.9328C55.9191 38.5694 56.5189 39.2836 57.0289 40.0606Z" fill="#E0E0E0"/>
<path d="M131.169 116.956C131.169 116.956 131.169 116.82 131.169 116.581C131.169 116.342 131.169 115.96 131.169 115.503C131.169 114.526 131.169 113.135 131.169 111.33C131.169 107.667 131.128 102.341 131.094 95.5754C131.094 82.0377 131.005 62.7576 130.951 39.6514L131.23 39.9379L57.3017 39.9788L57.629 39.6514C57.629 68.0226 57.5949 94.5593 57.5813 116.942L57.3017 116.656L110.839 116.806L125.877 116.874L129.853 116.908H130.883C131.001 116.9 131.119 116.9 131.237 116.908C131.131 116.915 131.023 116.915 130.917 116.908H129.914L125.993 116.942L110.989 117.018L57.2744 117.161H56.9948V116.881C56.9948 94.4979 56.9607 67.9613 56.947 39.5901V39.2627H57.2812L131.21 39.3036H131.503V39.5901C131.449 62.7781 131.394 82.1059 131.36 95.6846C131.36 102.423 131.305 107.729 131.285 111.371C131.285 113.157 131.285 114.535 131.251 115.463C131.251 115.906 131.251 116.254 131.251 116.506C131.241 116.659 131.213 116.81 131.169 116.956Z" fill="#E0E0E0"/>
<path d="M93.9864 54.219C93.7341 55.0715 89.3897 61.9188 83.129 64.2444C76.8682 66.57 72.217 69.148 73.9492 72.2102C75.6815 75.2723 83.3813 73.6083 83.3813 73.6083C83.3813 73.6083 67.7703 90.5764 82.4674 100.274C100.384 112.094 119.111 69.7686 119.111 69.7686L93.9864 54.219Z" fill="#EBEBEB"/>
<path d="M116.158 75.5792C116.11 75.661 110.204 72.1692 102.968 67.7157C95.7323 63.2622 89.9012 59.6476 89.949 59.5317C89.9967 59.4158 95.9028 62.9417 103.146 67.3952C110.389 71.8486 116.206 75.4973 116.158 75.5792Z" fill="#E0E0E0"/>
<path d="M113.389 80.6533C113.335 80.7352 106.958 76.991 99.1355 72.292C91.313 67.593 85.0113 63.7193 85.059 63.6374C85.1068 63.5556 91.4835 67.2998 99.3128 71.9987C107.142 76.6977 113.437 80.5715 113.389 80.6533Z" fill="#E0E0E0"/>
<path d="M110.041 85.4614C109.986 85.5433 102.825 81.3285 94.0342 76.0498C85.2432 70.7712 78.1572 66.42 78.205 66.345C78.2527 66.27 85.4205 70.4779 94.2115 75.7566C103.002 81.0353 110.088 85.3864 110.041 85.4614Z" fill="#E0E0E0"/>
<path d="M105.86 91.3879C105.805 91.4698 100.254 88.0802 93.4544 83.8246C86.6549 79.5689 81.1784 76.0498 81.233 75.9747C81.2876 75.8997 86.8322 79.2824 93.6386 83.5381C100.445 87.7938 105.908 91.3334 105.86 91.3879Z" fill="#E0E0E0"/>
<path d="M100.936 97.1645C100.888 97.2395 95.7187 93.9045 89.3897 89.7102C83.0608 85.5159 77.9799 82.0514 78.0276 81.9763C78.0754 81.9013 83.2517 85.2363 89.5807 89.4306C95.9097 93.6249 100.997 97.0826 100.936 97.1645Z" fill="#E0E0E0"/>
<path d="M94.6752 101.147C94.4008 101.054 94.1377 100.931 93.8909 100.779C93.3999 100.527 92.6906 100.138 91.8449 99.6538C90.1126 98.6785 87.7529 97.2736 85.1954 95.6368C82.6379 94 80.3805 92.4382 78.771 91.272C77.9662 90.6855 77.3251 90.2081 76.8887 89.8671C76.6406 89.7075 76.4118 89.5198 76.2067 89.3079C76.4667 89.4328 76.7135 89.5836 76.9432 89.758L78.8937 91.0742C80.5374 92.1927 82.8084 93.7204 85.3591 95.3504C87.9098 96.9804 90.2491 98.4194 91.9472 99.4424L93.9932 100.67C94.2364 100.805 94.465 100.965 94.6752 101.147Z" fill="#E0E0E0"/>
<path d="M79.9782 73.9901C78.7368 73.6775 77.5628 73.1414 76.5136 72.4079C75.4074 71.7652 74.4256 70.929 73.6151 69.939C73.6833 69.864 74.9382 71.0098 76.6977 72.1214C78.4573 73.2331 80.0191 73.9015 79.9782 73.9901Z" fill="#E0E0E0"/>
<path d="M117.945 68.882C117.883 69.012 117.807 69.1354 117.72 69.2502L117.038 70.2596C116.431 71.1394 115.531 72.3943 114.406 73.9424C112.155 77.025 108.95 81.2398 105.355 85.8092C101.761 90.3786 98.3376 94.416 95.8074 97.3077C94.5593 98.7536 93.5431 99.913 92.827 100.718L92.0155 101.618C91.9247 101.731 91.8218 101.834 91.7086 101.925C91.7836 101.801 91.8704 101.684 91.9677 101.577L92.7452 100.629L95.6505 97.1577C98.0989 94.2319 101.454 90.1604 105.076 85.6046C108.697 81.0488 111.896 76.8545 114.201 73.806L116.929 70.1914L117.679 69.2161C117.759 69.0982 117.848 68.9865 117.945 68.882Z" fill="#E0E0E0"/>
<path d="M112.864 65.2674C112.939 65.3287 106.726 73.4514 98.965 83.4086C91.2039 93.3658 84.8681 101.4 84.7999 101.338C84.7317 101.277 90.9379 93.1543 98.699 83.1971C106.46 73.2399 112.789 65.2128 112.864 65.2674Z" fill="#E0E0E0"/>
<path d="M105.778 61.2504C105.73 61.3925 105.664 61.5278 105.58 61.6527L104.939 62.7781C104.38 63.7465 103.534 65.1378 102.443 66.8155C100.268 70.2255 97.035 74.6926 93.2158 79.4802C89.3966 84.2679 85.8024 88.4758 83.204 91.5243L80.1077 95.1185L79.2484 96.0869C79.1564 96.2054 79.0512 96.313 78.9347 96.4075C79.0123 96.2792 79.1013 96.1583 79.2007 96.046L80.0054 95.0367L83.0199 91.3743C85.5774 88.2848 89.1579 84.0565 92.9498 79.2688C96.7417 74.4812 100.022 70.0141 102.239 66.6859C103.357 65.0218 104.23 63.6578 104.83 62.7098L105.512 61.6186C105.592 61.4894 105.68 61.3663 105.778 61.2504Z" fill="#E0E0E0"/>
<path d="M99.9675 57.9222C100.043 57.9768 94.7366 65.0014 88.1212 73.6082C81.5058 82.215 76.0771 89.1442 76.0021 89.0896C75.927 89.035 81.233 82.0104 87.8484 73.4036C94.4638 64.7968 99.8925 57.8676 99.9675 57.9222Z" fill="#E0E0E0"/>
<path d="M95.596 55.0714C95.431 55.3974 95.2441 55.7118 95.0367 56.0126C94.8458 56.3126 94.6139 56.6946 94.3138 57.0697C94.0137 57.4448 93.7 57.9426 93.2908 58.4337C92.3775 59.5892 91.3935 60.687 90.3446 61.7209C89.0599 62.981 87.6929 64.1544 86.2526 65.2332C84.7916 66.2914 83.2629 67.2528 81.6764 68.1113C80.3761 68.8022 79.0345 69.4126 77.6594 69.939C77.0797 70.1845 76.5341 70.3482 76.0635 70.5119C75.5929 70.6756 75.1769 70.7915 74.8359 70.8802C74.4897 70.9966 74.1336 71.0811 73.772 71.1325C74.1025 70.9806 74.4446 70.8552 74.795 70.7574C75.1292 70.6483 75.5384 70.5119 75.9953 70.3346C76.4522 70.1572 76.9978 69.9731 77.5707 69.7208C78.9222 69.1626 80.2427 68.5319 81.5263 67.8316C83.0948 66.9683 84.6072 66.0071 86.0548 64.9536C87.4887 63.8863 88.8553 62.7316 90.1468 61.4958C91.1983 60.4805 92.1933 59.4081 93.1271 58.2836C93.5432 57.8131 93.8705 57.3561 94.1842 56.9674C94.498 56.5786 94.7435 56.2376 94.9481 55.9512C95.1396 55.6407 95.3563 55.3464 95.596 55.0714Z" fill="#E0E0E0"/>
<path d="M76.4181 259.637C76.1249 259.706 78.3209 270.768 78.3209 270.768H83.9611L86.4504 260.074C83.2172 258.97 79.7349 258.819 76.4181 259.637Z" fill="#E0E0E0"/>
<path d="M73.0217 321.904C73.0217 321.904 64.7286 298.716 65.888 292.38C67.0474 286.044 69.5435 284.749 71.5281 282.757C73.5128 280.766 75.1837 279.108 75.6815 277.117C76.1794 275.126 75.6815 267.16 75.6815 267.16C75.6815 267.16 74.1879 264.841 74.6858 264.009C75.1837 263.177 87.4597 264.009 87.4597 264.009C87.3905 265.023 87.0463 265.999 86.4639 266.832C86.4639 266.832 86.1298 276.121 86.6276 277.117C87.1255 278.113 94.7571 286.576 95.9165 290.887C97.0759 295.197 91.3334 321.904 91.3334 321.904H73.0217Z" fill="#F5F5F5"/>
<path d="M73.0217 321.904C73.1308 321.898 73.24 321.898 73.3491 321.904H74.2834H77.8844L91.3334 321.843L91.2243 321.931C91.9063 318.521 92.6974 314.729 93.4749 310.515C94.2524 306.3 95.0572 301.71 95.6232 296.786C95.7528 295.552 95.8755 294.297 95.9028 293.028C95.9329 292.398 95.894 291.767 95.7869 291.146C95.6217 290.526 95.3931 289.925 95.1049 289.352C93.8356 286.99 92.3541 284.749 90.6787 282.655C89.8399 281.564 88.9737 280.479 88.0939 279.381C87.6506 278.836 87.2073 278.29 86.7777 277.717C86.6645 277.569 86.5598 277.414 86.464 277.253C86.3931 277.069 86.345 276.877 86.3207 276.681C86.2662 276.319 86.2457 275.964 86.2253 275.603C86.1025 272.732 86.1843 269.82 86.273 266.873V266.826V266.778C86.4139 266.559 86.5414 266.331 86.6549 266.096C86.9809 265.458 87.1801 264.763 87.2414 264.05L87.4051 264.227C84.6021 264.05 81.84 263.914 79.1325 263.866C77.8028 263.818 76.4714 263.87 75.1496 264.023C75.0288 264.045 74.9117 264.084 74.8018 264.139C74.7382 264.25 74.7096 264.379 74.7199 264.507C74.7407 264.815 74.8073 265.119 74.9177 265.407C75.1514 266.002 75.4414 266.573 75.7838 267.112V267.153V267.194C75.9066 269.315 75.9884 271.402 75.9953 273.455C76.0114 274.477 75.9727 275.499 75.8793 276.517C75.7538 277.534 75.3738 278.503 74.7745 279.334C74.2057 280.133 73.574 280.885 72.8853 281.584C72.2033 282.266 71.5213 282.948 70.8393 283.596C70.1452 284.201 69.4913 284.85 68.882 285.54C68.3412 286.212 67.8832 286.947 67.518 287.729C66.7903 289.284 66.2874 290.936 66.0244 292.633C65.9393 293.442 65.9393 294.258 66.0244 295.067C66.079 295.872 66.1881 296.656 66.304 297.434C66.7951 300.51 67.5043 303.32 68.1659 305.863C69.5299 310.937 70.8121 314.934 71.6987 317.676C72.142 319.04 72.4898 320.09 72.7285 320.82C72.8444 321.167 72.9331 321.433 72.9945 321.631C73.0558 321.829 73.0763 321.911 73.0763 321.911L72.9672 321.638C72.899 321.447 72.7967 321.181 72.6739 320.84C72.4148 320.158 72.0465 319.081 71.5827 317.717C70.662 314.989 69.3458 310.992 67.9545 305.918C67.1736 303.138 66.5362 300.32 66.0449 297.475C65.9289 296.697 65.813 295.906 65.7516 295.088C65.6632 294.258 65.6632 293.421 65.7516 292.592C66.008 290.864 66.5133 289.182 67.252 287.599C67.6527 286.774 68.1544 286.002 68.7456 285.301C69.3657 284.601 70.0285 283.941 70.7302 283.323C71.4122 282.696 72.0942 282.014 72.7762 281.325C73.4542 280.64 74.0725 279.899 74.6244 279.109C75.1969 278.322 75.5585 277.401 75.6747 276.435C75.7629 275.431 75.7993 274.422 75.7838 273.414C75.7838 271.368 75.6815 269.322 75.5588 267.174V267.255C75.2031 266.695 74.9038 266.101 74.6654 265.482C74.5338 265.158 74.4577 264.815 74.4403 264.466C74.4264 264.262 74.479 264.058 74.5903 263.886C74.7469 263.749 74.9423 263.663 75.1496 263.641C76.4933 263.477 77.8481 263.423 79.2007 263.477C81.9286 263.518 84.6566 263.654 87.4938 263.832H87.6711V263.995C87.6197 264.774 87.406 265.534 87.0437 266.226C86.9219 266.46 86.7876 266.688 86.6413 266.908L86.6754 266.819C86.5867 269.758 86.5049 272.67 86.6276 275.514C86.6394 275.863 86.6689 276.212 86.7163 276.558C86.7351 276.718 86.7717 276.876 86.8254 277.028C86.9116 277.171 87.0073 277.308 87.1119 277.438C87.5279 278.004 87.978 278.549 88.4145 279.095C89.2943 280.193 90.1604 281.277 90.9992 282.375C92.6894 284.488 94.1803 286.753 95.4527 289.141C95.7421 289.737 95.9706 290.361 96.1347 291.003C96.2438 291.651 96.2827 292.31 96.2507 292.967C96.2507 294.256 96.1006 295.517 95.9642 296.752C95.3845 301.696 94.5457 306.3 93.7682 310.501C92.9907 314.702 92.1927 318.535 91.4698 321.911V322.006H91.3743L77.8708 321.952H74.2903H73.3696L73.0217 321.904Z" fill="#E0E0E0"/>
<path d="M89.7444 319.503C91.8483 311.741 93.2431 303.804 93.9114 295.79C93.9796 294.876 93.9796 293.819 93.2908 293.212C92.4451 292.476 91.1493 292.871 90.0786 293.212C86.931 294.207 83.5819 294.386 80.3464 293.731C77.2024 293.083 74.0857 291.644 70.9144 292.162C70.5179 292.201 70.133 292.319 69.7819 292.507C69.4308 292.695 69.1204 292.951 68.8684 293.26C68.3501 294.024 68.4728 295.033 68.6229 295.94C69.8641 303.735 72.4079 312.704 74.4744 319.503H89.7444Z" fill="#E0E0E0"/>
<path d="M91.8313 294.167C91.6616 294.419 91.4599 294.649 91.2312 294.849C90.6417 295.392 90.01 295.887 89.342 296.329C87.1364 297.843 84.6006 298.806 81.9465 299.14C79.2924 299.473 76.5971 299.166 74.0857 298.245C73.3309 297.972 72.5989 297.639 71.8965 297.25C71.6295 297.12 71.3798 296.957 71.1531 296.766C71.1872 296.704 72.2579 297.372 74.1675 298.007C76.6485 298.845 79.2869 299.111 81.8852 298.785C84.4835 298.459 86.9744 297.549 89.1715 296.124C90.9106 295.033 91.7836 294.119 91.8313 294.167Z" fill="white"/>
<path d="M230.161 168.215C228.038 168.452 225.895 168.452 223.771 168.215C225.895 167.979 228.038 167.979 230.161 168.215Z" fill="#FAFAFA"/>
<path d="M324.632 322.777C324.632 322.879 255.634 322.961 170.541 322.961C85.4478 322.961 16.4089 322.879 16.4089 322.777C16.4089 322.675 85.3864 322.586 170.5 322.586C255.614 322.586 324.632 322.681 324.632 322.777Z" fill="#263238"/>
<path d="M262.966 284.278C266.287 281.891 269.67 279.47 273.516 278.072C277.363 276.674 281.809 276.401 285.451 278.276C288.5 279.845 290.696 282.778 291.957 285.969C293.514 289.933 293.777 294.287 292.708 298.409C292.128 300.632 290.975 302.931 288.861 303.831C286.747 304.731 284.312 303.954 282.212 303.013C275.318 299.915 269.347 295.082 264.882 288.984C265.331 288.625 265.876 288.407 266.448 288.356C267.021 288.305 267.596 288.424 268.101 288.697C269.1 289.261 270.008 289.971 270.795 290.805C273.462 293.221 276.679 294.949 280.166 295.838C282.744 296.52 286.215 296.213 287.081 293.696C287.647 292.053 286.747 290.286 285.874 288.793C284.878 287.067 283.739 285.219 281.871 284.53C280.466 284.019 278.918 284.264 277.444 284.53L261.363 287.292L262.359 286.999" fill="#455A64"/>
<path d="M222.816 67.3749C212.211 64.415 196.498 68.5343 190.496 77.7617C184.495 86.9892 187.141 100.684 186.67 111.678C186.2 122.671 186.67 133.843 184.004 144.53C182.326 151.35 179.114 158.17 173.208 161.955C166.456 166.251 156.335 166.674 153.136 174.012C150.47 180.15 154.609 187.652 151.915 193.79C150.729 196.518 148.321 198.564 147.285 201.326C145.852 205.159 147.421 209.62 150.238 212.586C153.054 215.553 156.908 217.292 160.747 218.724C172.445 223.009 184.879 224.922 197.323 224.351C206.373 223.928 216.085 221.786 222.018 214.946C226.676 209.572 228.211 202.206 229.056 195.168C234.253 151.636 235.194 103.78 222.816 67.4431" fill="#263238"/>
<path d="M163.68 199.478C163.769 199.431 163.284 198.612 162.8 196.982C162.167 194.677 162.032 192.264 162.405 189.903C162.97 186.403 164.277 183.064 166.237 180.109C168.413 176.754 171.564 173.603 175.022 170.5C178.479 167.397 181.923 164.526 184.699 161.532C187.203 158.912 189.287 155.921 190.878 152.666C191.941 150.462 192.602 148.085 192.829 145.648C192.876 144.987 192.876 144.324 192.829 143.663C192.829 143.206 192.774 142.981 192.74 142.981C192.535 142.927 193.081 146.937 190.339 152.42C188.706 155.571 186.617 158.464 184.14 161.007C181.412 163.932 177.954 166.763 174.469 169.873C170.984 172.983 167.806 176.208 165.603 179.687C163.61 182.741 162.32 186.201 161.825 189.814C161.497 192.251 161.731 194.731 162.507 197.064C162.724 197.692 162.998 198.299 163.325 198.878C163.414 199.094 163.534 199.296 163.68 199.478Z" fill="#455A64"/>
<path d="M190.353 277.444L186.807 322.013L293.355 322.538L264.391 281.809L190.353 277.444Z" fill="#263238"/>
<path d="M106.119 170.248C106.419 170.507 99.8789 205.405 96.5712 222.878C96.0187 225.801 96.2972 228.82 97.3749 231.593C98.4527 234.366 100.287 236.781 102.668 238.564C105.129 240.404 108.07 241.491 111.136 241.694C114.202 241.898 117.261 241.208 119.943 239.709L164.307 216.624L150.722 188.177L122.76 204.048L124.601 174.456L106.119 170.248Z" fill="#FFBE9D"/>
<path d="M121.266 142.497C120.953 141.249 119.377 140.683 118.122 140.997C116.899 141.425 115.808 142.166 114.958 143.145L111.371 145.321C110.694 145.77 110.136 146.377 109.746 147.09C109.357 147.803 109.146 148.6 109.134 149.413C109.116 151.034 109.367 152.647 109.877 154.187C110.252 155.551 110.784 157.099 112.1 157.597C113.567 158.142 115.19 157.01 115.879 155.605C116.567 154.2 116.636 152.597 116.997 151.077C117.433 149.253 118.295 147.558 119.514 146.132C120.421 145.061 121.614 143.861 121.266 142.497Z" fill="#EB996E"/>
<path d="M91.463 143.902C91.3521 143.554 91.3285 143.184 91.3943 142.825C91.4602 142.466 91.6135 142.129 91.8406 141.843C92.0678 141.557 92.3619 141.332 92.6969 141.186C93.0319 141.041 93.3974 140.981 93.7613 141.01C101.045 141.611 118.347 144.032 128.612 146.985C143.165 151.172 152.748 153.88 152.748 153.88L183.656 153.198C183.656 153.198 179.946 163.851 168.168 163.905C159.254 163.946 149.904 158.217 149.904 158.217C149.904 158.217 110.293 144.727 93.659 145.457C93.1733 145.479 92.6941 145.338 92.2966 145.058C91.8992 144.778 91.606 144.374 91.463 143.909V143.902Z" fill="#455A64"/>
<path d="M177.879 153.286C178.261 154.371 176.999 155.332 175.874 155.537C174.749 155.742 173.46 155.687 172.648 156.492C172.36 156.838 172.15 157.241 172.033 157.676C171.915 158.11 171.892 158.565 171.966 159.008C172.127 159.892 172.234 160.785 172.287 161.682C172.304 162.291 172.093 162.885 171.693 163.346C170.882 164.171 169.388 163.891 168.604 163.046C167.886 162.126 167.495 160.994 167.492 159.827C167.482 159 167.361 158.179 167.131 157.385C167.01 156.988 166.785 156.631 166.479 156.35C166.173 156.07 165.798 155.876 165.392 155.789C164.417 155.667 163.557 156.403 162.623 156.73C162.133 156.869 161.619 156.9 161.116 156.821C160.614 156.742 160.134 156.556 159.71 156.274C159.286 155.992 158.928 155.621 158.661 155.188C158.394 154.755 158.224 154.269 158.163 153.764L177.879 153.286Z" fill="#E50019"/>
<path d="M102.6 142.204C102.115 142.474 101.614 142.713 101.1 142.92C98.6049 143.933 95.9042 144.335 93.2225 144.093C92.6698 144.048 92.1207 143.966 91.5789 143.847C91.5789 143.847 91.7358 143.847 92.0154 143.909C92.295 143.97 92.6974 143.998 93.2225 144.038C94.5556 144.146 95.8965 144.1 97.2191 143.902C98.54 143.703 99.8346 143.358 101.079 142.872C101.557 142.681 101.939 142.518 102.198 142.388L102.6 142.204Z" fill="#263238"/>
<path d="M116.158 144.161H116.029L115.66 144.12C115.34 144.079 114.876 144.038 114.296 144.004C112.797 143.915 111.291 143.993 109.809 144.236C108.327 144.489 106.878 144.9 105.485 145.464C104.953 145.689 104.523 145.88 104.237 146.023L103.903 146.18L103.78 146.228C103.78 146.228 103.814 146.228 103.889 146.153L104.21 145.969C104.496 145.812 104.892 145.607 105.451 145.375C106.84 144.777 108.296 144.349 109.788 144.1C111.28 143.855 112.796 143.788 114.303 143.902C114.883 143.95 115.347 144.011 115.667 144.066L116.035 144.134L116.158 144.161Z" fill="#263238"/>
<path d="M126.293 149.297L124.867 148.874L123.203 148.369C122.843 148.288 122.515 148.1 122.262 147.83C122.199 147.749 122.157 147.654 122.139 147.553C122.121 147.452 122.128 147.348 122.16 147.251C122.197 147.149 122.258 147.058 122.337 146.984C122.417 146.911 122.512 146.857 122.617 146.828C123.061 146.692 123.536 146.692 123.981 146.828C124.438 146.917 124.915 147.019 125.399 147.155C126.431 147.446 127.433 147.831 128.393 148.308C128.898 148.56 129.409 148.84 129.907 149.153C130.172 149.295 130.404 149.49 130.589 149.726C130.637 149.793 130.667 149.87 130.676 149.951C130.686 150.032 130.675 150.114 130.644 150.19C130.572 150.334 130.451 150.447 130.303 150.511C129.107 150.971 127.813 151.115 126.545 150.927C123.919 150.592 121.703 149.331 119.725 148.294C118.002 147.274 116.132 146.526 114.18 146.078C112.858 145.799 111.488 145.851 110.191 146.228C109.84 146.338 109.5 146.48 109.175 146.651C108.956 146.773 108.84 146.828 108.84 146.828L109.12 146.63C109.442 146.453 109.78 146.307 110.129 146.194C111.433 145.804 112.814 145.745 114.146 146.023C116.104 146.466 117.981 147.209 119.711 148.226C121.696 149.263 123.913 150.517 126.531 150.852C127.785 151.036 129.065 150.895 130.248 150.442C130.385 150.39 130.497 150.287 130.562 150.156C130.586 150.09 130.594 150.019 130.586 149.949C130.578 149.879 130.553 149.812 130.514 149.754C130.327 149.527 130.095 149.341 129.832 149.208C129.346 148.899 128.842 148.617 128.325 148.362C127.367 147.886 126.367 147.5 125.338 147.21C124.861 147.073 124.383 146.964 123.926 146.869C123.501 146.746 123.049 146.746 122.624 146.869C122.527 146.899 122.439 146.95 122.364 147.018C122.29 147.087 122.232 147.171 122.194 147.264C122.163 147.355 122.155 147.451 122.171 147.545C122.186 147.639 122.225 147.728 122.283 147.803C122.529 148.068 122.85 148.254 123.203 148.335L124.867 148.847L126.293 149.297Z" fill="#263238"/>
<path d="M133.481 148.676C133.604 148.886 133.687 149.118 133.727 149.358C133.838 149.915 133.768 150.493 133.529 151.008C133.276 151.517 132.871 151.935 132.369 152.202C132.158 152.316 131.926 152.39 131.687 152.42C131.903 152.349 132.113 152.26 132.315 152.154C132.809 151.893 133.206 151.48 133.45 150.978C133.694 150.475 133.772 149.908 133.672 149.358C133.627 149.126 133.563 148.898 133.481 148.676Z" fill="#263238"/>
<path d="M146.03 151.957C146.03 151.957 145.348 151.957 144.284 151.888C143.22 151.82 141.72 151.663 140.069 151.643C138.673 151.592 137.281 151.824 135.977 152.325C135.741 152.41 135.513 152.515 135.295 152.639C135.131 152.717 134.975 152.813 134.831 152.925L134.443 153.184L134.811 152.905C134.953 152.787 135.109 152.686 135.275 152.604C135.492 152.476 135.721 152.367 135.957 152.277C137.276 151.764 138.689 151.532 140.103 151.595C141.76 151.595 143.24 151.793 144.318 151.868C144.857 151.909 145.293 151.943 145.593 151.957H146.03Z" fill="#263238"/>
<path d="M159.117 162.248C159.117 162.248 158.872 162.036 158.435 161.641C158.217 161.443 157.944 161.204 157.617 160.959C157.29 160.713 156.935 160.386 156.499 160.079C155.513 159.333 154.481 158.649 153.409 158.033C150.785 156.535 147.947 155.45 144.993 154.814C143.79 154.548 142.572 154.361 141.344 154.255C140.819 154.187 140.342 154.18 139.926 154.159C139.51 154.139 139.148 154.159 138.855 154.159H137.941H138.855C139.148 154.159 139.537 154.159 139.926 154.159C140.315 154.159 140.819 154.159 141.344 154.241C142.576 154.345 143.799 154.528 145.007 154.787C146.484 155.106 147.938 155.525 149.358 156.042C150.765 156.594 152.132 157.244 153.45 157.985C154.523 158.601 155.554 159.284 156.539 160.031C156.969 160.331 157.324 160.652 157.651 160.918C157.978 161.184 158.244 161.416 158.456 161.6C158.906 162.023 159.117 162.248 159.117 162.248Z" fill="#263238"/>
<path d="M168.058 162.48C167.842 162.597 167.613 162.691 167.376 162.759C166.743 162.952 166.08 163.033 165.419 162.998C164.437 162.936 163.476 162.686 162.589 162.262C161.512 161.727 160.519 161.038 159.643 160.216C158.695 159.356 157.869 158.47 157.106 157.678C156.437 156.957 155.729 156.274 154.985 155.632C154.483 155.206 153.949 154.818 153.389 154.473C153.191 154.357 153.034 154.262 152.925 154.207L152.768 154.132C153.582 154.525 154.341 155.022 155.025 155.612C155.771 156.246 156.483 156.917 157.16 157.624C157.931 158.415 158.756 159.302 159.697 160.154C160.568 160.974 161.554 161.663 162.623 162.2C163.503 162.625 164.457 162.875 165.433 162.937C166.088 162.98 166.746 162.909 167.376 162.725C167.549 162.677 167.718 162.615 167.881 162.541L168.058 162.48Z" fill="#263238"/>
<path d="M179.768 159.199H179.537C179.38 159.199 179.161 159.199 178.889 159.199C178.176 159.201 177.465 159.274 176.768 159.418C176.063 159.57 175.377 159.799 174.722 160.1C174.476 160.209 174.271 160.311 174.142 160.386C174.073 160.427 174 160.462 173.924 160.488C174.171 160.323 174.431 160.177 174.701 160.052C175.997 159.426 177.423 159.12 178.861 159.158C179.164 159.152 179.467 159.166 179.768 159.199Z" fill="#263238"/>
<path d="M94.6616 161.927L94.3342 155.551C94.298 154.864 94.4872 154.183 94.873 153.614L94.9139 153.552C96.0125 151.922 97.4444 150.544 99.115 149.508L112.857 140.99C113.06 140.864 113.29 140.789 113.528 140.772C113.766 140.755 114.005 140.796 114.223 140.892C114.441 140.989 114.633 141.137 114.781 141.323C114.93 141.51 115.03 141.731 115.074 141.965C115.244 143.091 114.746 145.655 113.751 146.678C111.984 148.286 110.05 149.699 107.981 150.893L121.764 148.219C122.085 149.099 122.08 150.066 121.748 150.942C121.416 151.818 120.78 152.546 119.957 152.993L125.624 151.793C125.624 151.793 127.479 154.432 124.942 156.171C122.405 157.91 117.897 159.418 117.897 159.418C117.897 159.418 124.929 162.384 124.765 164.751C124.601 167.117 124.506 174.701 124.506 174.701L105.614 173.337L94.6616 161.927Z" fill="#FFBE9D"/>
<path d="M108.479 150.477L108.349 150.552L107.954 150.749C107.613 150.927 107.115 151.172 106.515 151.493C105.915 151.813 105.233 152.25 104.469 152.748C103.705 153.245 102.852 153.757 102.041 154.384C101.644 154.689 101.326 155.084 101.113 155.537C100.931 155.968 100.847 156.434 100.868 156.901C100.923 157.694 101.074 158.477 101.318 159.233C101.475 159.754 101.582 160.289 101.638 160.829C101.662 161.026 101.662 161.226 101.638 161.423C101.638 161.423 101.638 161.211 101.591 160.829C101.518 160.297 101.4 159.772 101.236 159.261C100.973 158.498 100.811 157.705 100.752 156.901C100.727 156.418 100.811 155.936 100.997 155.489C101.22 155.018 101.549 154.604 101.959 154.282C102.363 153.97 102.785 153.681 103.221 153.416L104.414 152.645C105.171 152.154 105.867 151.725 106.46 151.411C107.054 151.097 107.572 150.865 107.927 150.729L108.329 150.552L108.479 150.477Z" fill="#EB996E"/>
<path d="M109.761 164.792C109.761 164.792 109.7 164.724 109.591 164.58L109.12 163.973L108.37 163.019C108.028 162.6 107.737 162.142 107.504 161.655C107.246 160.986 107.19 160.256 107.344 159.557C107.498 158.857 107.855 158.218 108.37 157.719C108.999 157.17 109.716 156.73 110.491 156.417C111.268 156.048 112.087 155.694 112.932 155.346C115.832 154.187 118.811 153.236 121.846 152.502C123.006 152.209 123.954 152.004 124.608 151.868L125.358 151.718L125.624 151.67C125.54 151.7 125.453 151.725 125.365 151.745L124.615 151.922C123.967 152.079 123.026 152.297 121.887 152.604C118.872 153.37 115.911 154.331 113.021 155.482C112.182 155.83 111.364 156.164 110.586 156.546C109.824 156.854 109.116 157.285 108.493 157.822C107.994 158.301 107.646 158.917 107.493 159.592C107.341 160.267 107.389 160.973 107.633 161.62C107.858 162.105 108.137 162.563 108.465 162.984C108.738 163.346 108.984 163.666 109.202 163.953C109.42 164.239 109.55 164.43 109.652 164.58C109.754 164.73 109.761 164.792 109.761 164.792Z" fill="#EB996E"/>
<path d="M124.383 156.321C124.285 156.394 124.18 156.458 124.069 156.512L123.19 156.976C122.446 157.365 121.41 157.883 120.23 158.395C119.224 158.831 118.195 159.211 117.147 159.534C116.745 159.656 116.417 159.745 116.186 159.799C116.07 159.837 115.951 159.864 115.831 159.881C115.938 159.823 116.053 159.779 116.172 159.752L117.113 159.438C117.911 159.165 118.995 158.756 120.175 158.265C121.355 157.774 122.392 157.249 123.149 156.901L124.042 156.478C124.15 156.415 124.265 156.362 124.383 156.321Z" fill="#EB996E"/>
<path d="M164.928 125.904C164.928 125.904 164.696 126.218 164.389 126.852C163.967 127.755 163.753 128.74 163.762 129.737C163.77 131.216 164.293 132.646 165.242 133.781C165.83 134.425 166.451 135.037 167.104 135.616C167.819 136.245 168.385 137.025 168.761 137.9C169.073 138.812 169.044 139.805 168.679 140.697C168.342 141.514 167.882 142.275 167.315 142.954C166.797 143.636 166.244 144.188 165.746 144.734C165.283 145.242 164.858 145.784 164.478 146.357C164.051 146.889 163.746 147.507 163.584 148.17C163.423 148.832 163.409 149.522 163.544 150.19C163.544 150.19 163.544 150.095 163.475 149.917C163.412 149.649 163.384 149.374 163.394 149.099C163.46 148.091 163.807 147.123 164.396 146.303C164.774 145.723 165.196 145.174 165.658 144.659C166.156 144.1 166.701 143.527 167.213 142.872C167.764 142.202 168.213 141.452 168.543 140.649C168.898 139.779 168.925 138.809 168.618 137.921C168.253 137.064 167.698 136.301 166.995 135.691C166.344 135.105 165.725 134.486 165.139 133.836C164.173 132.679 163.648 131.217 163.66 129.71C163.66 128.699 163.893 127.703 164.342 126.797C164.503 126.479 164.7 126.179 164.928 125.904Z" fill="#263238"/>
<path d="M171.182 125.577C171.182 125.577 170.95 125.897 170.643 126.531C170.223 127.432 170.011 128.416 170.023 129.409C170.023 130.892 170.548 132.327 171.503 133.461C172.034 134.088 172.703 134.661 173.358 135.295C174.077 135.918 174.644 136.697 175.015 137.573C175.326 138.486 175.299 139.481 174.94 140.376C174.599 141.192 174.139 141.953 173.576 142.633C173.051 143.315 172.498 143.861 172.007 144.413C171.543 144.92 171.117 145.46 170.732 146.03C170.154 146.832 169.801 147.774 169.709 148.758C169.7 149.122 169.732 149.485 169.804 149.842C169.773 149.753 169.748 149.662 169.729 149.569C169.668 149.303 169.643 149.03 169.654 148.758C169.72 147.749 170.065 146.779 170.65 145.955C171.032 145.379 171.456 144.832 171.919 144.318C172.41 143.759 172.955 143.186 173.474 142.531C174.023 141.86 174.469 141.111 174.797 140.308C175.153 139.438 175.182 138.469 174.878 137.58C174.51 136.727 173.955 135.967 173.255 135.357C172.573 134.722 171.939 134.149 171.393 133.501C170.426 132.343 169.901 130.878 169.913 129.369C169.917 128.361 170.151 127.367 170.595 126.463C170.761 126.149 170.957 125.852 171.182 125.577Z" fill="#263238"/>
<path d="M122.187 226.069C122.146 226.069 122.344 220.907 122.63 214.544C122.917 208.181 123.176 203.025 123.21 203.032C123.244 203.038 123.053 208.187 122.774 214.55C122.494 220.914 122.221 226.069 122.187 226.069Z" fill="#EB996E"/>
<path d="M110.327 177.409C109.025 176.157 107.791 174.837 106.631 173.453C107.933 174.705 109.166 176.025 110.327 177.409Z" fill="#EB996E"/>
<path d="M189.944 275.985L184.392 322.538H261.888L248.978 289.427L266.744 285.212C266.744 285.212 265.55 281.877 264.405 281.802C263.259 281.727 189.944 275.985 189.944 275.985Z" fill="#455A64"/>
<path d="M150.156 186.991C150.156 186.991 180.212 167.526 188.116 164.874C192.979 163.244 207.58 162.984 207.58 162.984L180.212 209.756L164.655 217.326L150.156 186.991Z" fill="#E50019"/>
<path d="M300.817 219.7C291.637 197.535 276.783 172.492 272.384 168.202C267.985 163.912 241.012 160.447 241.012 160.447L205.643 164.287L177.286 203.161L189.705 263.784L189.282 264.589C188.354 266.377 187.927 268.383 188.047 270.395C188.167 272.406 188.83 274.347 189.964 276.012L264.411 281.837L264.507 224.433L300.817 219.7Z" fill="#E50019"/>
<path d="M254.229 252.19C254.123 252.364 254.002 252.528 253.868 252.681C253.608 252.988 253.261 253.465 252.742 254.045C251.325 255.665 249.786 257.174 248.139 258.56C242.687 263.171 236.221 266.425 229.27 268.056C222.319 269.688 215.08 269.649 208.146 267.944C206.054 267.434 204.002 266.768 202.008 265.953C201.326 265.673 200.767 265.4 200.399 265.271C200.21 265.192 200.027 265.099 199.853 264.991C200.051 265.048 200.245 265.119 200.433 265.202C200.808 265.346 201.34 265.598 202.056 265.85C209.68 268.81 217.956 269.679 226.028 268.368C234.1 267.056 241.674 263.611 247.968 258.389C249.623 257.028 251.182 255.553 252.633 253.977C253.165 253.431 253.527 252.967 253.806 252.674C253.935 252.503 254.077 252.341 254.229 252.19Z" fill="#263238"/>
<path d="M264.486 222.271C264.424 222.091 264.378 221.906 264.35 221.718L264.023 220.136C263.743 218.717 263.341 216.726 262.877 214.291C261.943 209.319 260.66 202.506 259.249 194.984C259.071 194.043 258.901 193.108 258.73 192.188C258.56 191.267 258.348 190.367 258.253 189.46C258.018 187.724 257.954 185.97 258.062 184.222C258.174 182.643 258.413 181.076 258.778 179.537C259.122 178.202 259.562 176.893 260.094 175.622C260.868 173.783 261.869 172.049 263.075 170.459C263.484 169.879 263.866 169.484 264.098 169.197C264.208 169.044 264.339 168.906 264.486 168.788C264.486 168.788 264.377 168.945 264.152 169.245C263.927 169.545 263.573 169.927 263.191 170.541C262.033 172.146 261.072 173.884 260.326 175.717C259.811 176.981 259.39 178.28 259.065 179.605C258.712 181.13 258.484 182.681 258.383 184.242C258.285 185.968 258.356 187.7 258.594 189.412C258.689 190.312 258.914 191.199 259.071 192.14C259.228 193.081 259.412 193.988 259.59 194.936C260.954 202.438 262.209 209.258 263.116 214.264C263.552 216.712 263.9 218.711 264.145 220.129L264.411 221.725C264.451 221.905 264.476 222.087 264.486 222.271Z" fill="#263238"/>
<path d="M180.941 220.968C180.828 220.644 180.744 220.311 180.689 219.972C180.553 219.256 180.369 218.329 180.144 217.244C179.7 214.926 179.107 211.707 178.473 208.153C177.838 204.6 177.286 201.374 176.904 199.042C176.727 197.916 176.577 196.996 176.468 196.273C176.402 195.935 176.363 195.593 176.352 195.25C176.466 195.573 176.551 195.907 176.604 196.246C176.74 196.928 176.924 197.882 177.15 198.974C177.593 201.299 178.186 204.518 178.82 208.071C179.455 211.625 180.007 214.844 180.389 217.183C180.566 218.301 180.716 219.229 180.826 219.952C180.891 220.287 180.93 220.627 180.941 220.968Z" fill="#263238"/>
<path d="M267.044 189.112C267.241 187.791 267.554 186.49 267.978 185.224C268.293 183.927 268.722 182.661 269.26 181.439C269.059 182.76 268.744 184.06 268.319 185.327C268.01 186.625 267.583 187.891 267.044 189.112Z" fill="#FAFAFA"/>
<path d="M271.034 202.793C269.986 202.322 268.989 201.744 268.06 201.067C267.067 200.479 266.135 199.794 265.278 199.021C267.319 200.075 269.247 201.334 271.034 202.779V202.793Z" fill="#FAFAFA"/>
<path d="M278.563 197.507C278.403 196.328 278.431 195.131 278.645 193.961C278.742 192.775 279.02 191.611 279.47 190.51C279.572 190.51 279.245 192.078 278.999 194.009C278.754 195.939 278.665 197.507 278.563 197.507Z" fill="#FAFAFA"/>
<path d="M280.07 210.738C279.604 209.705 279.203 208.643 278.87 207.56C278.418 206.518 278.029 205.45 277.704 204.361C278.354 205.305 278.857 206.342 279.197 207.437C279.648 208.489 279.942 209.601 280.07 210.738Z" fill="#FAFAFA"/>
<path d="M274.232 218.922C272.37 217.533 270.652 215.961 269.104 214.23C270.969 215.614 272.688 217.187 274.232 218.922Z" fill="#FAFAFA"/>
<path d="M292.107 209.374C292.182 209.449 291.112 210.636 290.061 212.286C289.011 213.937 288.315 215.389 288.22 215.348C288.524 214.174 289.047 213.068 289.761 212.088C290.37 211.047 291.165 210.127 292.107 209.374Z" fill="#FAFAFA"/>
<path d="M272.616 175.813C271.878 175.388 271.206 174.86 270.618 174.244C269.947 173.717 269.353 173.1 268.851 172.41C269.587 172.842 270.262 173.372 270.856 173.985C271.525 174.51 272.117 175.125 272.616 175.813Z" fill="#FAFAFA"/>
<path d="M250.628 176.345C248.988 177.583 247.212 178.631 245.336 179.468C246.117 178.801 246.973 178.226 247.886 177.756C248.743 177.182 249.663 176.709 250.628 176.345Z" fill="#FAFAFA"/>
<path d="M246.782 195.598C246.06 194.885 245.424 194.091 244.886 193.231C244.252 192.44 243.714 191.577 243.283 190.66C244.64 192.162 245.814 193.82 246.782 195.598Z" fill="#FAFAFA"/>
<path d="M255.109 201.872C254.326 203.966 253.062 205.846 251.419 207.362C251.344 207.287 252.285 206.148 253.295 204.634C254.304 203.12 255.013 201.817 255.109 201.872Z" fill="#FAFAFA"/>
<path d="M234.874 203.277C234.772 203.311 234.192 201.783 233.258 200.031C232.323 198.278 231.362 196.955 231.443 196.887C233.111 198.688 234.285 200.889 234.853 203.277H234.874Z" fill="#FAFAFA"/>
<path d="M239.096 216.371C239.473 215.257 239.962 214.183 240.555 213.166C241.037 212.092 241.629 211.07 242.321 210.117C241.944 211.233 241.457 212.309 240.869 213.33C240.382 214.401 239.788 215.42 239.096 216.371Z" fill="#FAFAFA"/>
<path d="M253.22 226.192C252.823 224.981 252.535 223.737 252.36 222.475C252.077 221.236 251.908 219.974 251.856 218.704C252.254 219.912 252.542 221.154 252.715 222.414C253 223.655 253.169 224.92 253.22 226.192Z" fill="#FAFAFA"/>
<path d="M227.57 218.997C226.696 218.294 225.874 217.531 225.108 216.712C224.258 215.978 223.456 215.19 222.707 214.353C223.686 214.921 224.578 215.628 225.353 216.453C226.208 217.193 226.954 218.049 227.57 218.997Z" fill="#FAFAFA"/>
<path d="M216.194 200.037C214.659 201.732 212.952 203.261 211.099 204.6C212.634 202.906 214.341 201.377 216.194 200.037Z" fill="#FAFAFA"/>
<path d="M211.72 194.513C210.963 193.676 210.296 192.761 209.729 191.785C209.066 190.863 208.499 189.876 208.037 188.839C209.461 190.606 210.695 192.517 211.72 194.54V194.513Z" fill="#FAFAFA"/>
<path d="M194.37 204.034C193.454 203.01 192.625 201.91 191.894 200.747C191.069 199.653 190.341 198.489 189.719 197.269C190.635 198.288 191.461 199.386 192.188 200.549C193.017 201.644 193.747 202.81 194.37 204.034Z" fill="#FAFAFA"/>
<path d="M199.505 215.417C199.505 215.519 197.268 215.553 194.52 215.696C191.772 215.839 189.548 216.017 189.535 215.914C190.001 215.765 190.485 215.674 190.974 215.642C191.874 215.526 193.122 215.41 194.5 215.342C195.877 215.273 197.132 215.267 198.039 215.287C198.531 215.267 199.024 215.31 199.505 215.417Z" fill="#FAFAFA"/>
<path d="M200.767 182.401C200.863 182.401 200.474 184.113 200.119 186.213C199.765 188.314 199.574 190.039 199.471 190.033C199.436 187.431 199.875 184.845 200.767 182.401Z" fill="#FAFAFA"/>
<path d="M193.858 172.396C194.627 171.175 195.494 170.019 196.45 168.938C197.314 167.782 198.273 166.698 199.314 165.699C198.546 166.92 197.679 168.076 196.723 169.156C195.858 170.313 194.9 171.396 193.858 172.396Z" fill="#FAFAFA"/>
<path d="M186.929 181.726C186.854 181.794 185.245 180.157 183.117 178.316C180.989 176.474 179.175 175.042 179.236 174.96C179.696 175.17 180.125 175.441 180.512 175.765C181.269 176.311 182.285 177.129 183.356 178.05C184.426 178.97 185.333 179.905 185.975 180.587C186.342 180.923 186.663 181.306 186.929 181.726Z" fill="#FAFAFA"/>
<path d="M175.397 184.972C175.444 185.068 173.419 186.152 171.175 187.857C168.931 189.562 167.336 191.212 167.254 191.137C167.523 190.707 167.851 190.317 168.229 189.978C169.078 189.11 169.99 188.305 170.957 187.57C171.927 186.836 172.951 186.175 174.019 185.593C174.446 185.321 174.91 185.112 175.397 184.972Z" fill="#FAFAFA"/>
<path d="M159.922 194.547C159.827 194.547 159.84 192.699 159.752 190.421C159.663 188.143 159.513 186.329 159.615 186.329C159.94 187.669 160.105 189.043 160.106 190.421C160.216 191.799 160.155 193.185 159.922 194.547Z" fill="#FAFAFA"/>
<path d="M171.332 204.641C169.136 203.071 167.082 201.312 165.194 199.383C166.322 200.12 167.383 200.955 168.365 201.879C169.437 202.706 170.431 203.63 171.332 204.641Z" fill="#FAFAFA"/>
<path d="M189.371 190.183C188.094 190.641 186.779 190.988 185.443 191.219C184.129 191.568 182.787 191.797 181.432 191.901C182.712 191.443 184.028 191.096 185.368 190.865C186.679 190.519 188.019 190.291 189.371 190.183Z" fill="#FAFAFA"/>
<path d="M224.746 194.861C224.136 194.474 223.592 193.99 223.137 193.429C222.592 192.947 222.131 192.377 221.773 191.744C222.382 192.136 222.926 192.621 223.382 193.183C223.925 193.665 224.386 194.231 224.746 194.861Z" fill="#FAFAFA"/>
<path d="M240.616 185.647C240.023 186.422 239.335 187.121 238.57 187.727C237.88 188.422 237.108 189.031 236.272 189.541C237.561 188.071 239.024 186.763 240.63 185.647H240.616Z" fill="#FAFAFA"/>
<path d="M254.188 189.405C254.093 189.405 254.488 187.836 254.87 185.906C255.252 183.976 255.375 182.387 255.477 182.394C255.577 183.592 255.489 184.797 255.218 185.968C255.053 187.16 254.706 188.319 254.188 189.405Z" fill="#FAFAFA"/>
<path d="M184.461 211.345C184.029 210.868 183.689 210.315 183.458 209.715C183.125 209.165 182.894 208.56 182.776 207.928C183.216 208.403 183.563 208.956 183.799 209.558C184.124 210.11 184.348 210.715 184.461 211.345Z" fill="#FAFAFA"/>
<path d="M208.897 212.3C208.46 211.597 208.123 210.837 207.894 210.042C207.553 209.286 207.323 208.484 207.212 207.662C207.649 208.364 207.984 209.124 208.208 209.92C208.553 210.675 208.785 211.477 208.897 212.3Z" fill="#FAFAFA"/>
<path d="M222.223 205.589C222.148 205.521 222.543 204.948 223.109 204.307C223.676 203.666 224.187 203.195 224.262 203.256C224.337 203.318 223.935 203.898 223.375 204.539C222.816 205.18 222.332 205.65 222.223 205.589Z" fill="#FAFAFA"/>
<path d="M194.841 248.303C194.154 247.358 193.637 246.301 193.313 245.179C192.882 244.093 192.651 242.938 192.631 241.769C192.733 241.769 193.047 243.269 193.667 245.063C194.288 246.857 194.936 248.248 194.841 248.303Z" fill="#FAFAFA"/>
<path d="M205.241 249.08C205.411 248.069 205.695 247.081 206.087 246.134C206.365 245.15 206.759 244.202 207.26 243.31C207.091 244.318 206.809 245.304 206.421 246.25C206.138 247.235 205.742 248.185 205.241 249.08Z" fill="#FAFAFA"/>
<path d="M202.206 260.899C201.551 260.036 200.993 259.103 200.542 258.117C199.982 257.182 199.524 256.19 199.178 255.157C199.83 256.024 200.386 256.959 200.835 257.946C201.394 258.88 201.853 259.87 202.206 260.899Z" fill="#FAFAFA"/>
<path d="M221.473 257.503C220.294 257.322 219.146 256.978 218.063 256.48C216.941 256.092 215.882 255.543 214.919 254.85C216.036 255.221 217.131 255.656 218.199 256.152C219.317 256.535 220.41 256.986 221.473 257.503Z" fill="#FAFAFA"/>
<path d="M215.239 250.492C215.191 250.403 216.399 249.619 217.763 248.5C219.127 247.382 220.15 246.366 220.225 246.454C218.929 248.202 217.215 249.595 215.239 250.505V250.492Z" fill="#FAFAFA"/>
<path d="M231.293 255.477C231.232 255.559 229.991 254.795 228.361 254.004C226.731 253.213 225.34 252.77 225.367 252.674C227.558 253.06 229.605 254.028 231.293 255.477Z" fill="#FAFAFA"/>
<path d="M234.717 261.888C234.649 261.813 235.583 260.858 236.613 259.569C237.643 258.28 238.366 257.162 238.455 257.216C238.096 258.165 237.564 259.04 236.886 259.794C236.301 260.622 235.565 261.333 234.717 261.888Z" fill="#FAFAFA"/>
<path d="M199.696 274.273C198.562 273.731 197.482 273.083 196.471 272.336C195.39 271.692 194.373 270.945 193.436 270.106C194.57 270.648 195.65 271.297 196.662 272.043C197.742 272.687 198.759 273.434 199.696 274.273Z" fill="#FAFAFA"/>
<path d="M212.743 271.054C212.784 271.15 211.379 271.77 209.79 272.807C208.201 273.843 207.062 274.853 206.987 274.798C208.501 273.017 210.501 271.716 212.743 271.054Z" fill="#FAFAFA"/>
<path d="M224.412 276.21C223.836 275.635 223.343 274.983 222.946 274.273C222.453 273.626 222.06 272.909 221.78 272.145C222.854 273.372 223.741 274.751 224.412 276.237V276.21Z" fill="#FAFAFA"/>
<path d="M238.475 271.566C238.516 271.661 237.193 272.289 235.692 273.264C234.192 274.239 233.067 275.173 232.964 275.098C233.662 274.238 234.513 273.515 235.474 272.964C236.377 272.312 237.395 271.837 238.475 271.566Z" fill="#FAFAFA"/>
<path d="M244.974 265.462C244.879 265.509 244.477 264.78 243.713 264.186C242.949 263.593 242.192 263.293 242.219 263.198C242.86 263.189 243.478 263.434 243.938 263.88C244.479 264.249 244.852 264.818 244.974 265.462Z" fill="#FAFAFA"/>
<path d="M252.34 272.486C251.625 273.052 250.842 273.524 250.008 273.891C249.224 274.357 248.385 274.723 247.511 274.982C248.223 274.413 249.008 273.941 249.844 273.578C250.625 273.106 251.464 272.739 252.34 272.486Z" fill="#FAFAFA"/>
<path d="M258.976 276.21C258.874 276.21 259.249 274.648 259.494 272.725C259.74 270.802 259.767 269.213 259.876 269.213C260.063 270.391 260.052 271.592 259.842 272.766C259.751 273.955 259.458 275.12 258.976 276.21Z" fill="#FAFAFA"/>
<path d="M257.926 264.371C257.864 264.459 256.487 263.525 254.597 262.781C252.708 262.038 251.071 261.772 251.085 261.663C252.341 261.671 253.581 261.94 254.727 262.454C255.918 262.858 257.008 263.511 257.926 264.371Z" fill="#FAFAFA"/>
<path d="M243.14 228.668C241.095 227.621 239.164 226.366 237.377 224.924C239.419 225.975 241.349 227.229 243.14 228.668Z" fill="#FAFAFA"/>
<g opacity="0.3">
<path d="M208.549 268.094C208.331 267.669 208.264 267.182 208.36 266.713C208.455 266.245 208.707 265.823 209.074 265.516C209.83 264.925 210.743 264.567 211.7 264.486C216.583 263.723 221.814 265.046 226.39 263.184C229.459 261.929 231.846 259.371 233.646 256.603C235.447 253.834 236.872 250.806 238.652 248.009C240.248 245.493 242.287 243.092 245.07 242.015C247.852 240.937 251.474 241.626 252.981 244.197C254.488 246.768 253.479 249.926 252.067 252.463C248.077 259.624 240.889 264.691 233.053 267.105C225.217 269.52 216.78 269.458 208.692 268.026" fill="black"/>
</g>
<path d="M305.256 247L297.645 219.843L266.314 223.894L269.983 238.298L223.123 225.797L212.784 239.518L283.917 273.107C287.177 274.497 290.784 274.859 294.256 274.145C297.728 273.431 300.899 271.674 303.347 269.11C307.712 264.5 307.186 253.063 305.256 247Z" fill="#FFBE9D"/>
<path d="M175.751 220.968C174.701 220.688 173.433 220.463 172.655 221.214C172.348 221.575 172.167 222.027 172.14 222.501C172.113 222.975 172.241 223.445 172.505 223.839C172.989 224.651 173.358 224.767 174.64 225.203L187.114 228.034L191.888 224.296L175.751 220.968Z" fill="#EB996E"/>
<path d="M214.687 240.173C199.444 236.443 185.299 231.512 170.241 228.647C169.491 228.504 168.645 228.306 168.249 227.645C167.711 226.745 168.406 225.524 169.368 225.115C170.372 224.804 171.442 224.769 172.464 225.012C180.522 226.133 188.712 225.856 196.675 224.194C201.838 223.11 206.905 221.466 212.116 220.784C217.326 220.102 218.731 222.83 223.123 225.763" fill="#FFBE9D"/>
<path d="M223.123 225.797C221.855 223.572 220.011 221.731 217.784 220.466C215.558 219.201 213.032 218.559 210.472 218.608C207.355 218.711 204.375 219.843 201.367 220.654C198.36 221.466 195.072 221.971 192.167 220.825C191.055 220.388 190.019 219.713 188.832 219.55C187.645 219.386 186.227 219.966 186.015 221.139C185.852 222.025 186.425 222.871 187.045 223.532C189.228 225.838 196.177 228.402 201.654 228.129" fill="#FFBE9D"/>
<path d="M201.654 228.136C201.654 228.081 200.815 228.136 199.328 227.986C197.237 227.765 195.178 227.308 193.19 226.622C191.809 226.164 190.477 225.57 189.214 224.849C188.517 224.464 187.874 223.987 187.305 223.43C187.001 223.171 186.752 222.853 186.574 222.496C186.396 222.138 186.292 221.749 186.268 221.35C186.341 220.952 186.543 220.589 186.842 220.317C187.142 220.044 187.522 219.878 187.925 219.843C188.823 219.739 189.73 219.923 190.517 220.368C191.406 220.829 192.341 221.197 193.306 221.466C194.315 221.706 195.352 221.807 196.389 221.766C200.61 221.623 204.245 219.87 207.696 219.208C209.318 218.841 210.99 218.754 212.641 218.949C214.076 219.141 215.474 219.548 216.787 220.156C218.7 221.045 220.399 222.336 221.766 223.942C222.721 225.087 223.13 225.831 223.13 225.803C223.067 225.61 222.978 225.426 222.864 225.258C222.587 224.747 222.262 224.263 221.896 223.812C220.567 222.115 218.866 220.748 216.924 219.815C215.581 219.164 214.145 218.724 212.668 218.513C210.97 218.29 209.247 218.361 207.574 218.724C204.041 219.406 200.413 221.098 196.348 221.234C195.357 221.27 194.366 221.174 193.402 220.948C192.47 220.688 191.567 220.334 190.708 219.89C189.821 219.408 188.804 219.217 187.802 219.345C187.3 219.43 186.83 219.647 186.438 219.972C186.24 220.143 186.077 220.351 185.96 220.586C185.843 220.82 185.774 221.075 185.756 221.336C185.776 221.805 185.893 222.264 186.098 222.685C186.303 223.106 186.593 223.481 186.95 223.785C187.56 224.369 188.249 224.864 188.996 225.258C190.296 225.98 191.667 226.568 193.088 227.011C195.121 227.675 197.228 228.085 199.362 228.231C199.941 228.266 200.522 228.266 201.101 228.231C201.289 228.222 201.474 228.19 201.654 228.136Z" fill="#EB996E"/>
<path d="M283.937 242.628C283.937 242.628 283.882 242.628 283.78 242.581L283.337 242.424L281.727 241.837C280.363 241.346 278.467 240.698 276.36 240.037C274.253 239.375 272.323 238.83 270.904 238.461L269.247 238.032L268.79 237.916C268.688 237.916 268.633 237.868 268.64 237.861H268.797L269.26 237.95C269.656 238.032 270.229 238.161 270.931 238.332C272.343 238.686 274.273 239.212 276.387 239.873C278.502 240.535 280.391 241.203 281.748 241.715C282.43 241.974 282.969 242.192 283.344 242.349L283.773 242.533L283.937 242.628Z" fill="#EB996E"/>
<path d="M225.06 186.616C229.355 186.431 233.412 184.595 236.386 181.491C239.359 178.386 241.019 174.253 241.019 169.954V150.176L242.11 86.9823L240.698 83.4223L207.417 72.9195C197.187 72.1215 190.312 86.1912 189.951 96.4485C189.548 107.851 189.507 121.785 191.09 130.235C194.268 147.23 207.417 149.044 207.417 149.044L207.676 170.186C207.707 172.416 208.184 174.618 209.081 176.66C209.978 178.702 211.275 180.543 212.896 182.075C214.517 183.607 216.428 184.798 218.518 185.578C220.607 186.358 222.832 186.711 225.06 186.616Z" fill="#FFBE9D"/>
<path d="M194.37 107.531C194.381 108.103 194.614 108.648 195.02 109.05C195.426 109.453 195.974 109.681 196.546 109.686C196.825 109.699 197.104 109.656 197.367 109.56C197.63 109.463 197.871 109.315 198.076 109.125C198.281 108.935 198.446 108.705 198.562 108.45C198.677 108.195 198.741 107.92 198.748 107.64C198.736 107.069 198.502 106.526 198.096 106.125C197.69 105.724 197.144 105.497 196.573 105.492C196.293 105.477 196.014 105.519 195.751 105.614C195.488 105.709 195.246 105.856 195.041 106.046C194.835 106.236 194.67 106.466 194.555 106.721C194.44 106.976 194.377 107.251 194.37 107.531Z" fill="#263238"/>
<path d="M193.163 103.5C193.442 103.78 195.072 102.505 197.425 102.443C199.778 102.382 201.517 103.514 201.79 103.221C201.913 103.091 201.62 102.58 200.849 102.054C199.812 101.375 198.589 101.034 197.35 101.079C196.115 101.102 194.92 101.521 193.94 102.273C193.258 102.852 193.006 103.378 193.163 103.5Z" fill="#263238"/>
<path d="M217.21 107.531C217.221 108.102 217.453 108.646 217.858 109.048C218.263 109.45 218.808 109.679 219.379 109.686C219.659 109.701 219.939 109.659 220.203 109.563C220.466 109.468 220.708 109.32 220.913 109.129C221.119 108.938 221.284 108.708 221.399 108.453C221.514 108.197 221.576 107.92 221.582 107.64C221.573 107.07 221.341 106.525 220.936 106.124C220.53 105.722 219.984 105.495 219.413 105.492C219.134 105.477 218.854 105.519 218.591 105.614C218.328 105.709 218.086 105.856 217.881 106.046C217.676 106.236 217.51 106.466 217.395 106.721C217.28 106.976 217.217 107.251 217.21 107.531Z" fill="#263238"/>
<path d="M216.337 103.303C216.617 103.575 218.247 102.307 220.6 102.245C222.953 102.184 224.692 103.316 224.964 103.023C225.08 102.893 224.794 102.382 224.023 101.857C222.986 101.178 221.764 100.837 220.525 100.881C219.29 100.904 218.094 101.323 217.115 102.075C216.433 102.655 216.194 103.173 216.337 103.303Z" fill="#263238"/>
<path d="M208.269 121.007C208.269 120.878 206.803 120.66 204.423 120.421C203.822 120.38 203.25 120.278 203.134 119.868C203.065 119.248 203.189 118.622 203.488 118.075C204.013 116.602 204.559 115.06 205.139 113.444C207.43 106.849 209.074 101.441 208.808 101.345C208.542 101.25 206.462 106.528 204.177 113.117L202.595 117.775C202.39 118.457 202.015 119.248 202.349 120.141C202.442 120.352 202.581 120.539 202.758 120.686C202.934 120.834 203.142 120.939 203.366 120.994C203.7 121.078 204.044 121.117 204.389 121.11C206.782 121.171 208.262 121.144 208.269 121.007Z" fill="#263238"/>
<path d="M207.41 148.935C215.453 148.835 223.31 146.505 230.107 142.204C230.107 142.204 224.883 154.084 207.751 152.959L207.41 148.935Z" fill="#EB996E"/>
<path d="M215.471 94.116C215.723 94.7502 218.069 94.382 220.838 94.6411C223.607 94.9003 225.872 95.5891 226.226 95.0026C226.376 94.723 225.974 94.1296 225.053 93.5363C223.83 92.8087 222.458 92.3692 221.04 92.251C219.622 92.1328 218.196 92.3391 216.869 92.8543C215.86 93.2635 215.369 93.7818 215.471 94.116Z" fill="#263238"/>
<path d="M193.845 96.653C194.274 97.1782 195.891 96.578 197.835 96.4962C199.778 96.4143 201.449 96.7622 201.811 96.1893C201.967 95.9097 201.695 95.3845 200.958 94.9003C199.98 94.2994 198.836 94.0225 197.691 94.1092C196.546 94.1623 195.445 94.5698 194.54 95.2754C193.865 95.8415 193.688 96.4007 193.845 96.653Z" fill="#263238"/>
<path d="M201.545 74.0857C202.336 79.4294 204.453 84.4897 207.703 88.8046C210.953 93.1196 215.232 96.5518 220.15 98.7878C219.854 97.4238 219.563 96.0598 219.277 94.6958C223.491 101.666 232.439 107.504 238.195 109.863C239.975 110.593 242.253 109.938 243.87 108.902C246.134 107.456 246.27 104.21 245.793 101.563C244.313 93.284 239.402 85.8775 233.005 80.4215C226.608 74.9655 218.806 71.3236 210.738 68.8821C208.603 68.2342 207.437 67.7909 205.323 68.507C203.209 69.2231 200.44 71.6305 201.463 73.6083" fill="#263238"/>
<path d="M235.495 97.3214C240.378 114.815 233.919 134.259 235.583 152.345C235.951 156.376 237.418 161.041 240.814 163.257C242.492 164.348 242.86 163.66 244.79 164.041C249.721 164.996 254.379 162.93 259.303 163.885C263.75 164.751 270.822 167.295 273.625 163.728C276.428 160.161 273.196 155.967 270.454 152.475C267.712 148.983 264.029 145.996 262.679 141.761C261.22 137.212 262.795 132.328 263.477 127.595C265.809 111.439 260.067 95.0708 250.519 81.8196C247.191 77.2024 242.171 72.8308 237.657 69.3594C233.142 65.8881 222.932 62.9623 217.244 63.2214C211.556 63.4806 202.083 67.9954 199.765 74.3721" fill="#263238"/>
<path d="M216.61 87.3369C216.576 87.3983 216.951 87.6507 217.674 88.0667L218.963 88.8169L217.865 87.7666C215.192 85.2785 212.909 82.4023 211.093 79.2348C207.683 73.3627 207.164 67.7362 206.892 67.8044C206.803 67.8044 206.803 69.2094 207.253 71.4259C207.862 74.2998 208.916 77.061 210.377 79.6099C212.192 82.8797 214.662 85.7401 217.633 88.0121L217.831 87.712C217.06 87.4256 216.637 87.296 216.61 87.3369Z" fill="#455A64"/>
<path d="M247.566 160.12C247.599 159.746 247.599 159.369 247.566 158.995C247.566 158.258 247.566 157.174 247.6 155.776C247.827 151.84 248.406 147.932 249.332 144.1C250.383 139.217 252.122 133.495 253.165 126.907C253.706 123.454 253.873 119.953 253.663 116.465C253.48 112.677 252.531 108.965 250.874 105.553C249.149 102.168 246.623 99.2551 243.515 97.0691C240.582 94.8935 237.52 93.2158 234.724 91.4699C229.746 88.4074 225.165 84.7424 221.084 80.5579C218.348 77.725 215.839 74.6807 213.582 71.4532C212.784 70.3074 212.177 69.4072 211.775 68.7866C211.581 68.4585 211.352 68.1521 211.093 67.8727C211.235 68.2216 211.409 68.5571 211.611 68.8752C211.959 69.5572 212.532 70.4575 213.289 71.6032C215.467 74.922 217.934 78.0418 220.661 80.9262C224.712 85.2172 229.296 88.9715 234.301 92.0973C237.111 93.8705 240.153 95.5619 243.01 97.6965C246.007 99.8088 248.446 102.617 250.117 105.881C251.721 109.187 252.649 112.781 252.845 116.452C253.058 119.884 252.909 123.328 252.401 126.729C251.412 133.236 249.728 139.005 248.746 143.909C247.862 147.781 247.367 151.731 247.266 155.701C247.249 156.78 247.289 157.859 247.389 158.933C247.401 159.335 247.46 159.733 247.566 160.12Z" fill="#455A64"/>
<path d="M189.937 82.2151C189.33 86.6266 188.975 91.0691 188.873 95.521C192.324 92.7384 195.809 89.8945 198.421 86.3003C201.033 82.7062 202.663 78.2118 201.981 73.8265C199.482 74.5615 197.221 75.942 195.425 77.8289C193.629 79.7158 192.362 82.0425 191.751 84.5749" fill="#263238"/>
<path d="M207.526 129C208.112 127.855 208.269 127.561 209.265 127.016C210.02 126.825 210.799 126.747 211.577 126.784C212.334 126.825 212.839 127.575 213.118 128.277C213.575 129.293 213.641 130.442 213.302 131.503C212.907 132.533 209.333 133.767 207.41 131.06" fill="#EB996E"/>
<path d="M210.465 132.854C210.661 132.841 210.856 132.841 211.052 132.854C211.569 132.829 212.068 132.651 212.484 132.342C213.05 131.828 213.415 131.129 213.514 130.371C213.594 129.92 213.558 129.456 213.412 129.023C213.265 128.589 213.012 128.199 212.675 127.889C211.937 127.31 211.02 127.008 210.083 127.036C209.707 127.051 209.337 127.145 209 127.313C208.662 127.481 208.364 127.719 208.126 128.011C207.808 128.424 207.599 128.909 207.519 129.423C207.504 129.62 207.468 129.814 207.41 130.003C207.354 129.808 207.342 129.603 207.376 129.403C207.413 128.848 207.605 128.314 207.928 127.861C208.161 127.551 208.453 127.289 208.787 127.091C209.178 126.863 209.618 126.732 210.07 126.709C210.558 126.69 211.047 126.752 211.515 126.893C212.019 127.032 212.485 127.281 212.879 127.623C213.294 127.981 213.591 128.457 213.732 128.987C213.872 129.463 213.898 129.965 213.807 130.453C213.722 130.884 213.572 131.3 213.364 131.687C213.147 132.114 212.81 132.467 212.394 132.702C211.978 132.938 211.501 133.045 211.024 133.01C210.828 133.004 210.636 132.951 210.465 132.854Z" fill="#263238"/>
<path d="M218.574 115.456C218.636 115.531 218.41 115.79 218.015 115.838C217.619 115.885 217.333 115.674 217.387 115.592C217.442 115.51 217.688 115.517 217.974 115.483C218.26 115.449 218.513 115.374 218.574 115.456Z" fill="#EB996E"/>
<path d="M222.332 115.258C222.236 115.258 222.107 115.074 222.052 114.808C221.998 114.542 222.018 114.303 222.114 114.283C222.209 114.262 222.339 114.46 222.4 114.733C222.462 115.006 222.455 115.258 222.332 115.258Z" fill="#EB996E"/>
<path d="M226.895 113.744C226.895 113.84 226.635 113.867 226.369 113.812C226.103 113.758 225.899 113.621 225.919 113.526C225.94 113.43 226.178 113.403 226.444 113.464C226.71 113.526 226.915 113.649 226.895 113.744Z" fill="#EB996E"/>
<path d="M220.525 119.248C220.429 119.248 220.347 119.03 220.347 118.764C220.347 118.498 220.429 118.279 220.525 118.279C220.62 118.279 220.702 118.491 220.702 118.764C220.702 119.036 220.62 119.248 220.525 119.248Z" fill="#EB996E"/>
<path d="M224.623 117.413C224.528 117.413 224.446 117.365 224.446 117.304C224.446 117.243 224.528 117.195 224.623 117.195C224.719 117.195 224.801 117.243 224.801 117.304C224.801 117.365 224.726 117.413 224.623 117.413Z" fill="#EB996E"/>
<path d="M195.27 116.117C195.27 116.213 194.929 116.281 194.588 116.117C194.247 115.954 194.036 115.647 194.111 115.585C194.186 115.524 194.431 115.66 194.731 115.797C195.032 115.933 195.277 116.015 195.27 116.117Z" fill="#EB996E"/>
<path d="M198.319 115.476C198.268 115.458 198.227 115.42 198.204 115.372C198.181 115.323 198.178 115.268 198.196 115.217C198.23 115.101 198.326 115.019 198.421 115.047C198.471 115.065 198.513 115.103 198.535 115.151C198.558 115.2 198.561 115.255 198.544 115.306C198.54 115.332 198.532 115.357 198.519 115.38C198.506 115.403 198.488 115.422 198.467 115.438C198.446 115.454 198.422 115.466 198.397 115.472C198.371 115.479 198.345 115.48 198.319 115.476Z" fill="#EB996E"/>
<path d="M196.689 119.896C196.593 119.896 196.491 119.746 196.464 119.541C196.436 119.336 196.464 119.152 196.587 119.139C196.709 119.125 196.784 119.282 196.818 119.493C196.853 119.705 196.791 119.882 196.689 119.896Z" fill="#EB996E"/>
<path d="M192.679 119.677C192.597 119.623 192.631 119.439 192.747 119.255C192.863 119.07 193.033 118.975 193.115 119.03C193.197 119.084 193.163 119.275 193.047 119.452C192.931 119.63 192.76 119.732 192.679 119.677Z" fill="#EB996E"/>
<path d="M177.388 272.329V303.974C177.388 306.632 176.753 309.25 175.537 311.613C174.322 313.976 172.56 316.015 170.398 317.56C167.567 319.579 164.177 320.664 160.7 320.663H118.416C115.25 320.665 112.148 319.766 109.475 318.071L108.015 317.13C105.642 315.627 103.687 313.55 102.331 311.09C100.974 308.631 100.26 305.869 100.254 303.06V272.329H177.388Z" fill="#263238"/>
<path d="M100.254 279.947H78.8187V283.671L91.197 285.574C93.0078 285.826 94.7252 286.533 96.1896 287.627C97.6539 288.722 98.8175 290.169 99.572 291.835C100.006 292.803 100.238 293.85 100.254 294.91C100.254 294.91 104.619 294.842 105.362 289.625C105.362 289.523 105.396 289.42 105.41 289.318C105.656 287.433 105.301 285.517 104.397 283.845C103.492 282.172 102.083 280.828 100.37 280.002L100.254 279.947Z" fill="#455A64"/>
<path d="M177.388 279.975H198.837V283.712L186.459 285.615C184.642 285.865 182.919 286.573 181.45 287.672C179.982 288.77 178.816 290.224 178.063 291.896C177.629 292.864 177.397 293.911 177.381 294.972C177.381 294.972 173.023 294.904 172.273 289.693L172.232 289.379C171.986 287.494 172.341 285.579 173.246 283.906C174.15 282.234 175.559 280.889 177.272 280.063L177.388 279.975Z" fill="#455A64"/>
<path d="M177.388 279.975C177.289 280.049 177.184 280.115 177.074 280.172C176.763 280.34 176.462 280.527 176.174 280.732C175.077 281.499 174.162 282.497 173.494 283.657C172.45 285.448 172.066 287.547 172.41 289.591C172.551 290.84 173.046 292.022 173.835 293.001C174.741 294.04 176.02 294.68 177.395 294.781L177.231 294.938C177.249 293.677 177.559 292.437 178.138 291.316C178.724 290.117 179.543 289.046 180.546 288.165C181.6 287.236 182.819 286.511 184.14 286.031C185.507 285.585 186.918 285.286 188.348 285.137L198.83 283.535L198.687 283.698C198.687 282.423 198.687 281.182 198.687 279.975L198.851 280.138L183.403 280.077L178.991 280.029H177.811C177.675 280.045 177.538 280.045 177.402 280.029H177.804H178.97L183.369 279.981L198.851 279.92H199.014V280.084C199.014 281.291 199.014 282.532 199.014 283.807V283.957H198.871L188.389 285.574C186.982 285.721 185.594 286.016 184.249 286.454C182.976 286.912 181.801 287.606 180.785 288.5C179.829 289.306 179.049 290.3 178.494 291.421C177.939 292.541 177.621 293.764 177.559 295.013V295.183H177.402C176.676 295.132 175.968 294.936 175.319 294.607C174.67 294.278 174.094 293.822 173.624 293.267C172.807 292.247 172.3 291.013 172.164 289.714C171.831 287.614 172.249 285.465 173.344 283.644C174.038 282.472 174.992 281.475 176.133 280.732C176.432 280.535 176.744 280.359 177.068 280.206C177.167 280.119 177.274 280.041 177.388 279.975Z" fill="#263238"/>
<path d="M176.011 273.175C175.956 273.217 175.897 273.251 175.833 273.277L175.301 273.543L173.255 274.546L171.762 275.262C171.209 275.514 170.589 275.746 169.934 276.012C168.618 276.53 167.145 277.192 165.44 277.71L162.787 278.597C161.859 278.897 160.87 279.122 159.861 279.402C157.849 279.995 155.646 280.397 153.341 280.875C148.301 281.747 143.199 282.203 138.085 282.239C132.97 282.207 127.867 281.751 122.828 280.875C120.523 280.404 118.32 279.995 116.308 279.409C115.299 279.122 114.31 278.897 113.383 278.597L110.73 277.717C109.025 277.199 107.551 276.537 106.228 276.026C105.546 275.753 104.96 275.521 104.407 275.276L102.914 274.56L100.868 273.557L100.336 273.291L100.165 273.189C100.232 273.201 100.297 273.224 100.356 273.257L100.902 273.489C101.4 273.721 102.102 274.034 102.989 274.43L104.496 275.112C105.048 275.351 105.669 275.569 106.324 275.835C107.647 276.326 109.12 276.974 110.832 277.472L113.485 278.331C114.406 278.624 115.394 278.842 116.397 279.115C118.409 279.695 120.605 280.084 122.91 280.547C127.93 281.409 133.012 281.865 138.105 281.911C143.198 281.865 148.28 281.409 153.3 280.547C155.605 280.084 157.801 279.688 159.813 279.108C160.816 278.836 161.805 278.617 162.725 278.324L165.378 277.465C167.083 276.967 168.563 276.319 169.879 275.821C170.561 275.562 171.155 275.337 171.714 275.105L173.214 274.423L175.274 273.482L175.82 273.243L176.011 273.175Z" fill="#455A64"/>
<path d="M176.058 275.794C176.058 275.794 176.004 275.835 175.881 275.896L175.349 276.169L173.303 277.172L171.809 277.854C171.257 278.099 170.636 278.331 169.988 278.604C168.665 279.122 167.192 279.784 165.487 280.302L162.834 281.182C161.907 281.482 160.925 281.707 159.915 281.993C157.869 282.587 155.694 282.989 153.389 283.466C148.351 284.339 143.251 284.795 138.139 284.83C133.025 284.796 127.922 284.339 122.883 283.466C120.571 282.989 118.368 282.587 116.356 281.993C115.347 281.714 114.358 281.489 113.43 281.189L110.777 280.309C109.072 279.79 107.599 279.129 106.283 278.611C105.601 278.345 105.008 278.113 104.455 277.86L102.982 277.185L100.936 276.183L100.404 275.917C100.281 275.855 100.22 275.821 100.227 275.814L100.418 275.883L100.963 276.121L103.05 277.062L104.557 277.744C105.117 277.976 105.73 278.201 106.392 278.461C107.708 278.958 109.188 279.599 110.893 280.104L113.546 280.957C114.467 281.25 115.456 281.468 116.465 281.741C118.47 282.321 120.673 282.716 122.971 283.18C127.994 284.041 133.078 284.497 138.173 284.544C143.267 284.501 148.348 284.045 153.368 283.18C155.666 282.716 157.863 282.327 159.874 281.748C160.877 281.475 161.866 281.257 162.793 280.963L165.44 280.104C167.151 279.599 168.624 278.958 169.948 278.461C170.63 278.201 171.223 277.976 171.775 277.738L173.283 277.056L175.369 276.114L175.915 275.883L176.058 275.794Z" fill="#455A64"/>
<path d="M161.511 321.645C167.138 320.772 170.029 317.703 171.666 312.247C172.267 310.564 172.312 308.733 171.796 307.023C171.196 305.359 169.6 303.961 167.827 304.029C165.685 304.117 164.157 306.143 163.284 308.121C162.411 310.099 161.764 312.288 160.079 313.618C158.394 314.948 155.237 314.552 154.875 312.431C154.872 311.87 154.812 311.31 154.698 310.76C154.221 309.478 152.188 309.546 151.288 310.59C150.388 311.633 150.361 313.133 150.401 314.504C150.442 315.875 150.49 317.348 149.719 318.487C148.58 320.185 146.2 320.376 144.154 320.39L132.069 320.506C132.069 320.506 134.115 321.508 139.53 321.508C146.882 321.488 161.511 321.645 161.511 321.645Z" fill="#E50019"/>
<path d="M138.139 320.485C134.095 320.554 129.805 320.561 126.354 318.439C124.172 317.11 122.344 314.968 119.821 314.586C119.097 314.436 118.343 314.567 117.713 314.954C117.406 315.153 117.178 315.452 117.067 315.8C116.956 316.149 116.97 316.525 117.106 316.864C115.988 316.441 115.135 315.548 114.174 314.818C113.212 314.088 111.964 313.563 110.845 313.993C110.275 314.268 109.819 314.733 109.554 315.308C109.289 315.882 109.232 316.532 109.393 317.144C109.584 317.746 109.901 318.301 110.323 318.772C110.745 319.242 111.263 319.617 111.841 319.872C113.003 320.376 114.232 320.709 115.49 320.861L144.591 321.413C144.584 320.676 138.139 320.485 138.139 320.485Z" fill="#E50019"/>
<path d="M115.428 322.538L115.49 320.936L161.511 321.645V322.538H115.428Z" fill="#455A64"/>
<path d="M158.572 303.974C158.027 303.062 157.72 302.028 157.677 300.967C157.634 299.906 157.857 298.851 158.326 297.898C158.742 297.072 159.595 296.254 160.475 296.534C161.354 296.813 161.532 297.898 161.511 298.771C161.463 300.673 160.093 304.52 158.572 303.961" fill="#E50019"/>
<path d="M131.626 246.884C131.667 246.884 131.585 247.211 131.626 247.798C131.705 248.625 131.924 249.432 132.274 250.185C132.829 251.313 133.261 252.497 133.563 253.718C133.777 255.289 133.382 256.882 132.458 258.171C131.585 259.569 130.542 260.722 129.86 261.929C129.527 262.491 129.268 263.094 129.089 263.723C128.951 264.268 128.912 264.834 128.973 265.394C129.041 266.217 129.385 266.993 129.948 267.596C130.176 267.796 130.415 267.983 130.664 268.156C130.664 268.156 130.583 268.156 130.432 268.081C130.223 267.979 130.028 267.851 129.853 267.699C129.22 267.098 128.819 266.294 128.721 265.428C128.636 264.834 128.666 264.23 128.809 263.648C128.98 262.984 129.239 262.346 129.58 261.752C130.262 260.504 131.312 259.331 132.158 257.967C133.038 256.751 133.428 255.249 133.249 253.759C132.959 252.56 132.557 251.391 132.049 250.267C131.71 249.484 131.522 248.644 131.496 247.791C131.496 247.562 131.521 247.333 131.571 247.109C131.577 247.032 131.596 246.956 131.626 246.884Z" fill="#263238"/>
<path d="M138.801 246.27C138.842 246.27 138.753 246.598 138.801 247.184C138.883 248.01 139.102 248.817 139.449 249.571C140.003 250.7 140.437 251.884 140.744 253.104C140.953 254.676 140.556 256.268 139.633 257.557C138.76 258.955 137.723 260.108 137.034 261.315C136.702 261.877 136.445 262.48 136.27 263.109C136.127 263.656 136.085 264.224 136.148 264.786C136.219 265.607 136.562 266.38 137.123 266.983C137.351 267.182 137.59 267.369 137.839 267.542C137.839 267.542 137.757 267.542 137.614 267.467C137.4 267.37 137.202 267.241 137.027 267.085C136.397 266.484 135.998 265.68 135.902 264.814C135.819 264.22 135.847 263.617 135.984 263.034C136.153 262.374 136.412 261.74 136.755 261.151C137.437 259.903 138.48 258.73 139.333 257.373C140.211 256.155 140.598 254.65 140.417 253.158C140.133 251.958 139.731 250.788 139.217 249.667C138.878 248.884 138.69 248.044 138.664 247.191C138.664 246.961 138.689 246.733 138.739 246.509C138.76 246.345 138.787 246.263 138.801 246.27Z" fill="#263238"/>
<path d="M145.948 245.67C145.989 245.67 145.907 245.997 145.948 246.584C146.043 247.414 146.273 248.223 146.63 248.978C147.183 250.104 147.615 251.286 147.919 252.504C148.128 254.075 147.73 255.668 146.807 256.957C145.934 258.355 144.898 259.508 144.216 260.715C143.882 261.277 143.623 261.88 143.445 262.509C143.304 263.056 143.264 263.625 143.329 264.186C143.398 265.006 143.739 265.779 144.298 266.382C144.527 266.584 144.768 266.77 145.02 266.942C145.02 266.942 144.932 266.942 144.789 266.867C144.577 266.767 144.379 266.638 144.202 266.485C143.572 265.884 143.173 265.079 143.077 264.214C142.994 263.62 143.021 263.017 143.159 262.434C143.333 261.778 143.592 261.147 143.929 260.558C144.611 259.303 145.662 258.13 146.507 256.773C147.384 255.554 147.774 254.05 147.598 252.558C147.309 251.358 146.905 250.189 146.391 249.066C146.056 248.283 145.868 247.443 145.839 246.591C145.84 246.361 145.867 246.132 145.921 245.909C145.907 245.745 145.948 245.67 145.948 245.67Z" fill="#263238"/>
<path d="M46.376 322.784C46.376 322.784 37.1827 277.874 46.376 252.92H56.606C56.606 252.92 64.4149 279.238 56.606 322.784H46.376Z" fill="#E50019"/>
<g opacity="0.7">
<path d="M46.376 322.784C46.376 322.784 37.1827 277.874 46.376 252.92H56.606C56.606 252.92 64.4149 279.238 56.606 322.784H46.376Z" fill="white"/>
</g>
<path d="M53.9121 229.609C55.604 226.714 58.0176 224.306 60.9174 222.622C63.8172 220.938 67.1042 220.034 70.4574 220C68.8744 223.164 66.411 225.804 63.3633 227.602C60.3155 229.4 56.8134 230.279 53.2778 230.134" fill="#455A64"/>
<path d="M56.4424 210.888C54.1204 208.464 52.4673 205.48 51.6448 202.226C50.8223 198.972 50.8586 195.56 51.7502 192.324C54.359 194.714 56.2209 197.808 57.1115 201.233C58.0021 204.657 57.8834 208.266 56.7697 211.625" fill="#455A64"/>
<path d="M47.249 211.154C44.5024 210.045 42.0947 208.236 40.2661 205.906C38.4375 203.576 37.2521 200.807 36.828 197.875C39.7962 198.853 42.4142 200.676 44.3601 203.121C46.306 205.566 47.495 208.526 47.7809 211.638" fill="#455A64"/>
<path d="M44.7324 191.212C44.2666 189.104 44.3623 186.911 45.0097 184.851C45.6572 182.791 46.8338 180.938 48.422 179.475C49.0585 181.666 49.0406 183.996 48.3705 186.177C47.7005 188.358 46.4075 190.295 44.6506 191.751" fill="#455A64"/>
<path d="M51.832 247.136C52.0447 244.988 52.8173 242.932 54.0727 241.176C55.3281 239.419 57.0223 238.022 58.9862 237.125C58.9118 239.403 58.1729 241.609 56.8606 243.473C55.5484 245.337 53.7199 246.776 51.6002 247.614" fill="#455A64"/>
<path d="M40.7018 172.417C40.7018 172.417 42.5432 179.298 44.6915 190.599L45.5099 195.038C45.7895 196.58 46.0282 198.196 46.301 199.867C46.8671 203.195 47.3308 206.782 47.8491 210.547C48.7835 218.097 49.5951 226.417 50.0929 235.181C50.5908 243.945 50.659 252.313 50.5499 259.917C50.4476 263.723 50.3794 267.337 50.1816 270.713C50.0861 272.398 50.0315 274.035 49.9224 275.596C49.8133 277.158 49.6974 278.665 49.5882 280.097C48.688 291.569 47.6104 298.6 47.6104 298.6C47.6104 298.6 47.6104 298.491 47.6104 298.273L47.74 297.352C47.8355 296.493 47.9651 295.258 48.1356 293.669C48.2242 292.871 48.3265 291.985 48.4288 291.009C48.5311 290.034 48.6198 288.963 48.7221 287.845C48.9131 285.567 49.1859 282.982 49.3564 280.118C49.4518 278.677 49.5541 277.176 49.6633 275.617C49.7656 274.048 49.8133 272.418 49.8951 270.734C50.0861 267.358 50.1407 263.75 50.2361 259.951C50.3248 252.354 50.2361 243.992 49.7519 235.236C49.2677 226.479 48.4493 218.186 47.5354 210.622C47.0307 206.857 46.5806 203.277 46.0214 199.942C45.7554 198.278 45.5235 196.662 45.2507 195.113C44.9779 193.565 44.7119 192.092 44.4596 190.674C43.9754 187.843 43.423 185.299 42.9865 183.063C42.7546 181.944 42.5432 180.901 42.3522 179.946C42.1613 178.991 41.943 178.118 41.7657 177.334L40.9746 173.719C40.8859 173.317 40.8245 173.037 40.77 172.778C40.7154 172.519 40.7018 172.417 40.7018 172.417Z" fill="#263238"/>
<path d="M63.3101 188.784C63.3 188.869 63.2794 188.951 63.2487 189.03C63.1941 189.2 63.1259 189.432 63.0305 189.712L62.1711 192.372L61.5369 194.295C61.3255 194.977 61.0936 195.768 60.8549 196.593C60.3707 198.251 59.7705 200.119 59.2249 202.227C58.9453 203.277 58.6452 204.375 58.3383 205.521C58.0314 206.666 57.7654 207.867 57.4585 209.108C56.8311 211.584 56.2923 214.257 55.699 217.067C54.5941 222.7 53.5779 228.934 52.8346 235.522C52.0912 242.11 51.7638 248.419 51.6138 254.161C51.6138 257.032 51.5251 259.76 51.6138 262.311C51.6138 263.586 51.6138 264.821 51.6888 266.007C51.7638 267.194 51.7911 268.326 51.8388 269.417C51.907 271.593 52.0912 273.55 52.2003 275.269C52.2685 276.128 52.3231 276.933 52.3776 277.67C52.4322 278.406 52.5208 279.074 52.5754 279.715C52.6913 280.909 52.78 281.843 52.8414 282.498C52.8414 282.805 52.8823 283.044 52.9028 283.228C52.9088 283.31 52.9088 283.392 52.9028 283.473C52.8796 283.393 52.8637 283.311 52.855 283.228C52.855 283.05 52.8005 282.812 52.7664 282.512C52.6845 281.83 52.5754 280.923 52.4322 279.729L52.2071 277.717C52.1389 276.981 52.0707 276.183 51.9957 275.323C51.8661 273.598 51.6683 271.641 51.5797 269.465C51.5251 268.381 51.4637 267.242 51.4092 266.055C51.3546 264.868 51.341 263.634 51.3069 262.359C51.225 259.801 51.3069 257.066 51.3069 254.175C51.4365 248.425 51.7911 242.103 52.5004 235.501C53.2097 228.9 54.2736 222.659 55.3989 217.019C56.0059 214.209 56.5515 211.563 57.1925 209.06C57.5063 207.819 57.7791 206.612 58.0928 205.466C58.4065 204.32 58.7134 203.229 59.0067 202.179C59.5659 200.078 60.1797 198.21 60.6844 196.559C60.9435 195.734 61.1891 194.97 61.4073 194.261C61.6255 193.552 61.8711 192.897 62.0893 192.351C62.4917 191.219 62.7713 190.305 63.0168 189.705C63.1259 189.419 63.2078 189.194 63.2692 189.023C63.2734 188.942 63.2871 188.862 63.3101 188.784Z" fill="#263238"/>
<path d="M61.8233 193.865C59.5864 191.983 59.45 188.478 60.548 185.77C61.646 183.062 63.7125 180.887 65.4379 178.527C67.1634 176.167 68.6297 173.344 68.2341 170.452C68.0674 169.784 68.0189 169.091 68.0909 168.406C68.2341 167.724 68.9093 167.09 69.5708 167.295C70.2324 167.499 70.3961 168.168 70.5188 168.768C70.9011 170.636 71.0159 172.549 70.8598 174.449C71.3072 173.343 72.0002 172.353 72.8863 171.555C73.7725 170.756 74.8286 170.169 75.9748 169.838C76.2212 170.95 76.1829 172.107 75.8634 173.2C75.5439 174.293 74.9535 175.288 74.1471 176.092C75.627 175.479 77.2092 174.844 78.7847 175.151C80.3601 175.458 81.765 177.122 81.1717 178.616C80.4897 180.307 78.1913 180.341 76.3977 180.662C74.3907 181.028 72.5784 182.094 71.2827 183.669C69.6595 185.647 69.0116 188.232 67.6953 190.428C66.3791 192.624 63.8625 194.52 61.4346 193.743" fill="#E50019"/>
<path d="M42.625 179.993C45.1007 178.452 45.7281 174.994 45.0188 172.164C44.3096 169.334 42.5773 166.885 41.1996 164.307C39.822 161.73 38.7649 158.729 39.5628 155.919C39.8269 155.268 39.9724 154.575 39.9925 153.873C39.9448 153.191 39.3719 152.454 38.6831 152.563C37.9942 152.673 37.7419 153.314 37.5373 153.927C36.8958 155.721 36.5146 157.598 36.4052 159.499C36.1185 158.34 35.5715 157.262 34.8058 156.346C34.04 155.431 33.0756 154.701 31.9858 154.214C31.5855 155.281 31.4613 156.432 31.6247 157.56C31.788 158.688 32.2336 159.756 32.9202 160.666C31.5562 159.847 30.0558 159.002 28.4599 159.083C26.864 159.165 25.234 160.618 25.6091 162.173C26.032 163.946 28.3371 164.307 30.0489 164.901C31.983 165.55 33.6272 166.858 34.6934 168.597C36.0164 170.78 36.3029 173.433 37.2918 175.792C38.2807 178.152 40.5108 180.396 43.0274 179.953" fill="#E50019"/>
<path d="M39.6992 213.759C39.8021 213.896 39.8869 214.045 39.9516 214.203L40.6336 215.498C40.92 216.064 41.261 216.76 41.6225 217.585C41.9839 218.411 42.434 219.331 42.8569 220.382C43.2797 221.432 43.7639 222.571 44.2209 223.826C44.6778 225.08 45.1484 226.417 45.6326 227.836C46.5465 230.687 47.4399 233.865 48.1969 237.234C48.954 240.603 49.4655 243.87 49.8337 246.843C49.9974 248.33 50.1679 249.748 50.2498 251.078C50.3316 252.408 50.4203 253.643 50.468 254.775C50.5157 255.907 50.5226 256.93 50.5362 257.83C50.5498 258.73 50.5362 259.501 50.5362 260.135C50.5362 260.77 50.468 261.206 50.468 261.595C50.468 261.984 50.468 262.099 50.4271 262.099C50.4082 261.929 50.4082 261.758 50.4271 261.588C50.4271 261.226 50.4271 260.742 50.4271 260.135C50.4271 259.528 50.4271 258.73 50.3862 257.83C50.3452 256.93 50.3452 255.914 50.2634 254.788C50.1816 253.663 50.1338 252.422 50.0042 251.099C49.8747 249.776 49.7314 248.371 49.5609 246.884C49.1722 243.924 48.6334 240.678 47.9037 237.336C47.1739 233.994 46.2601 230.809 45.3666 227.959C44.8961 226.54 44.4596 225.19 44.0026 223.948C43.5457 222.707 43.1024 221.548 42.6796 220.497C42.2567 219.447 41.8543 218.513 41.5065 217.688C41.1587 216.862 40.8245 216.153 40.5722 215.58L39.972 214.25C39.8657 214.096 39.7743 213.931 39.6992 213.759Z" fill="#263238"/>
<path d="M41.3906 220.327C42.625 219.324 42.7546 217.415 42.1544 215.935C41.5543 214.455 40.4767 213.248 39.556 211.945C38.6353 210.643 37.8646 209.094 38.1033 207.526C38.199 207.159 38.2313 206.778 38.1988 206.401C38.1238 206.025 37.7623 205.678 37.4009 205.78C37.0394 205.882 36.9439 206.251 36.8689 206.578C36.6451 207.591 36.567 208.632 36.637 209.667C36.4057 209.062 36.04 208.518 35.5674 208.075C35.0948 207.632 34.5278 207.302 33.909 207.11C33.7671 207.712 33.7789 208.339 33.9434 208.935C34.1079 209.531 34.4197 210.076 34.8502 210.52C34.08 210.096 33.2036 209.904 32.3268 209.967C31.4743 210.117 30.69 211.018 30.9628 211.829C31.3174 212.764 32.5723 212.798 33.5476 212.989C34.6363 213.212 35.6131 213.807 36.3097 214.673C37.1758 215.764 37.51 217.176 38.2056 218.383C38.9013 219.59 40.2516 220.654 41.6156 220.245" fill="#E50019"/>
</svg>
