<svg width="24" height="25" viewBox="0 0 24 25" fill="none" xmlns="http://www.w3.org/2000/svg">
<path d="M18.8789 9.0821L18.9784 9.08351C19.3475 9.11529 19.6304 9.43453 19.65 9.8188L19.6405 10.0331L19.326 14.0448L18.9961 17.9597C18.9263 18.7413 18.8638 19.4005 18.8099 19.9194C18.6225 21.7279 17.4955 22.8462 15.7966 22.8793C13.1494 22.9302 10.6048 22.9297 8.13373 22.874C6.48398 22.838 5.37366 21.7076 5.18955 19.9268L5.0623 18.6147L4.83994 16.0698L4.61216 13.2771L4.35172 9.92487C4.31935 9.49477 4.61951 9.11807 5.02215 9.08349C5.39123 9.0518 5.7183 9.31858 5.79519 9.69455L5.82511 10.0018L6.06966 13.1445L6.33669 16.402C6.45646 17.8121 6.56034 18.9533 6.64346 19.755C6.74838 20.7698 7.26138 21.2921 8.16411 21.3118C10.6159 21.367 13.1415 21.3676 15.7701 21.317C16.7277 21.2983 17.2489 20.7812 17.356 19.7472L17.4827 18.4423C17.5198 18.0401 17.5594 17.5961 17.6013 17.1138L17.8686 13.9102L18.1906 9.79947C18.2204 9.40522 18.5192 9.10302 18.8789 9.0821ZM3.73139 7.28039C3.32745 7.28039 3 6.9306 3 6.49912C3 6.10358 3.27515 5.7767 3.63214 5.72497L3.73139 5.71784L6.91772 5.71784C7.29636 5.71784 7.62785 5.45758 7.74642 5.08259L7.77543 4.9668L8.02304 3.65138C8.24111 2.78017 8.9492 2.15988 9.779 2.08992L9.93592 2.08333L14.0639 2.08333C14.9075 2.08333 15.6523 2.65236 15.9391 3.53165L15.9874 3.70008L16.2243 4.96649C16.2987 5.36325 16.6025 5.65958 16.9701 5.71017L17.0821 5.71784L20.2686 5.71784C20.6725 5.71784 21 6.06763 21 6.49912C21 6.89465 20.7248 7.22153 20.3679 7.27326L20.2686 7.28039L3.73139 7.28039ZM14.0639 3.64589L9.93592 3.64589C9.7307 3.64589 9.54829 3.77419 9.47252 3.93544L9.44682 4.00629L9.20979 5.27331C9.1808 5.42796 9.13879 5.57687 9.08512 5.71887L14.9148 5.71907C14.8813 5.63048 14.8523 5.53919 14.8282 5.4455L14.79 5.273L14.5636 4.05499C14.5107 3.84365 14.3473 3.68894 14.1502 3.65356L14.0639 3.64589Z" fill="white"/>
</svg>
