<svg width="414" height="98" viewBox="0 0 414 98" fill="none" xmlns="http://www.w3.org/2000/svg">
<path d="M80.43 38.6801C80.43 38.6801 89.62 89.4901 95.84 89.2601C103.84 88.9601 131.14 46.6501 131.14 46.6501C131.14 46.6501 84.93 39.5401 80.43 38.6801Z" fill="#E50019"/>
<g opacity="0.3">
<path d="M80.43 38.6801C80.43 38.6801 89.62 89.4901 95.84 89.2601C103.84 88.9601 131.14 46.6501 131.14 46.6501C131.14 46.6501 84.93 39.5401 80.43 38.6801Z" fill="white"/>
</g>
<path d="M99.61 54.87L105.13 55.07C105.24 55.0687 105.348 55.0891 105.45 55.13C105.592 55.1713 105.714 55.261 105.796 55.3835C105.879 55.5059 105.915 55.6533 105.9 55.8C105.898 55.8911 105.874 55.9803 105.83 56.06C105.76 56.1877 105.657 56.2946 105.533 56.3701C105.408 56.4456 105.266 56.487 105.12 56.49L100.17 56.34L99.37 61.01L102.94 61.14C103.072 61.1425 103.201 61.1731 103.32 61.23C103.447 61.2841 103.555 61.377 103.627 61.4954C103.698 61.6139 103.731 61.7519 103.72 61.89C103.719 61.9692 103.702 62.0475 103.67 62.12C103.602 62.2524 103.499 62.3635 103.372 62.4412C103.245 62.5188 103.099 62.5599 102.95 62.56L99.15 62.42L98.42 66.79L103.32 66.97C103.446 66.973 103.571 66.9967 103.69 67.04C103.822 67.0927 103.934 67.186 104.009 67.3064C104.085 67.4269 104.12 67.5682 104.11 67.71C104.124 67.7827 104.124 67.8573 104.11 67.93C104.047 68.07 103.944 68.1883 103.814 68.2701C103.685 68.352 103.533 68.3937 103.38 68.39L97.66 68.18C97.5209 68.1802 97.3849 68.1384 97.27 68.06C97.1608 67.9745 97.0751 67.8626 97.0209 67.735C96.9667 67.6073 96.9457 67.468 96.96 67.33C96.96 67.2433 97.6267 63.31 98.96 55.53C98.9712 55.447 98.9948 55.3661 99.03 55.29C99.0749 55.1709 99.1538 55.0676 99.257 54.9929C99.3601 54.9183 99.4828 54.8755 99.61 54.87Z" fill="#263238"/>
<path d="M136.16 47.4399C136.16 47.4399 149.85 97.2299 156.02 96.4399C164.02 95.4399 187.38 50.8499 187.38 50.8499C187.38 50.8499 140.71 47.8999 136.16 47.4399Z" fill="#E50019"/>
<path d="M161.7 75.01L155.92 75.3101C155.79 75.3196 155.661 75.2881 155.55 75.22C155.342 75.0426 155.209 74.7921 155.18 74.5201C155.18 74.2801 155.513 70.3067 156.18 62.6001C156.175 62.5168 156.175 62.4333 156.18 62.3501C156.213 62.2614 156.263 62.1804 156.329 62.1121C156.394 62.0438 156.473 61.9897 156.56 61.9531C156.648 61.9165 156.741 61.8983 156.836 61.8995C156.93 61.9007 157.024 61.9213 157.11 61.9601C157.226 62.0092 157.325 62.0914 157.394 62.1963C157.463 62.3012 157.5 62.4243 157.5 62.5501C157.5 63.0701 157.4 64.1601 157.28 65.8101C156.88 70.9034 156.677 73.5867 156.67 73.86L161.58 73.6001C161.702 73.5799 161.828 73.5799 161.95 73.6001C162.086 73.6374 162.205 73.7184 162.29 73.8304C162.375 73.9425 162.421 74.0794 162.42 74.22C162.435 74.296 162.435 74.3741 162.42 74.4501C162.371 74.6056 162.276 74.7426 162.148 74.8427C162.019 74.9428 161.863 75.0012 161.7 75.01Z" fill="#263238"/>
<path d="M192.39 50.89C192.39 50.89 210.5 99.25 216.57 97.89C224.41 96.16 243.71 49.67 243.71 49.67C243.71 49.67 196.96 50.94 192.39 50.89Z" fill="#E50019"/>
<g opacity="0.3">
<path d="M192.39 50.89C192.39 50.89 210.5 99.25 216.57 97.89C224.41 96.16 243.71 49.67 243.71 49.67C243.71 49.67 196.96 50.94 192.39 50.89Z" fill="white"/>
</g>
<path d="M219.27 65.7499C219.107 65.4718 218.912 65.2134 218.69 64.9799C218.495 64.7505 218.248 64.5704 217.97 64.454C217.692 64.3376 217.391 64.2882 217.09 64.3099C216.708 64.3786 216.357 64.5678 216.09 64.8499C215.387 65.6139 214.912 66.5597 214.72 67.5799C214.398 68.782 214.313 70.0354 214.47 71.2699C214.579 72.2393 214.904 73.172 215.42 73.9999C215.593 74.3303 215.86 74.6018 216.188 74.7799C216.516 74.9579 216.889 75.0345 217.26 74.9999C217.647 74.9085 217.997 74.6988 218.26 74.3999C218.871 73.753 219.323 72.9723 219.58 72.1199C219.574 72.0835 219.574 72.0464 219.58 72.0099C219.616 71.8969 219.685 71.797 219.777 71.7224C219.87 71.6478 219.982 71.6017 220.1 71.5899C220.215 71.5599 220.335 71.5599 220.45 71.5899C220.567 71.6312 220.669 71.7049 220.745 71.8023C220.821 71.8997 220.868 72.0169 220.88 72.1399C220.902 72.2522 220.902 72.3677 220.88 72.4799C220.667 73.2527 220.329 73.9856 219.88 74.6499C219.601 75.1027 219.23 75.4916 218.79 75.7913C218.351 76.0911 217.853 76.2951 217.33 76.3899H216.95C216.484 76.3777 216.026 76.2597 215.612 76.0449C215.198 75.8301 214.838 75.5241 214.56 75.1499C213.716 74.0922 213.192 72.8154 213.05 71.4699C212.92 70.5344 212.92 69.5854 213.05 68.6499C213.196 67.2562 213.662 65.9149 214.41 64.7299C214.682 64.2402 215.057 63.8156 215.509 63.4857C215.962 63.1558 216.481 62.9286 217.03 62.8199C217.452 62.7586 217.883 62.7927 218.29 62.9199C219.242 63.2857 220.018 64.0011 220.46 64.9199C220.519 65.0142 220.556 65.1199 220.57 65.2299C220.604 65.3441 220.604 65.4658 220.57 65.5799C220.527 65.6933 220.454 65.7929 220.359 65.8686C220.264 65.9442 220.15 65.993 220.03 66.0099C219.892 66.0345 219.749 66.0235 219.616 65.978C219.484 65.9325 219.364 65.8541 219.27 65.7499Z" fill="#263238"/>
<path d="M246.05 49.77C246.05 49.77 266.96 96.99 272.95 95.34C280.67 93.15 297.21 45.6 297.21 45.6C297.21 45.6 250.62 49.55 246.05 49.77Z" fill="#E50019"/>
<path d="M267.78 69.21C267.592 68.2725 267.534 67.3133 267.61 66.36C267.676 64.9539 268.073 63.5833 268.77 62.36C269.014 61.8689 269.361 61.4361 269.787 61.091C270.213 60.7459 270.709 60.4966 271.24 60.36C271.701 60.2749 272.176 60.3013 272.625 60.437C273.074 60.5726 273.483 60.8137 273.82 61.14C274.757 62.0339 275.408 63.1859 275.69 64.45C275.86 64.34 276.11 64.16 276.43 63.92C276.722 63.6671 277.062 63.4765 277.43 63.36C277.535 63.33 277.645 63.33 277.75 63.36C277.858 63.3911 277.955 63.4515 278.031 63.5344C278.107 63.6174 278.159 63.7197 278.18 63.83C278.205 64.0665 278.145 64.304 278.01 64.5C277.484 65.1317 276.791 65.6029 276.01 65.86C276.082 66.4874 276.098 67.1198 276.06 67.75C276.012 69.1754 275.621 70.5682 274.92 71.81C274.664 72.3038 274.306 72.7374 273.87 73.0823C273.434 73.4271 272.929 73.6752 272.39 73.81H272.01C271.542 73.8431 271.073 73.7693 270.639 73.5943C270.204 73.4194 269.814 73.1477 269.5 72.8C268.597 71.7915 268 70.5461 267.78 69.21ZM269.16 68.68C269.332 69.5943 269.671 70.469 270.16 71.26C270.76 72.2 271.45 72.59 272.21 72.43C272.418 72.3904 272.614 72.3012 272.78 72.17C273.449 71.5922 273.922 70.8195 274.13 69.96C274.518 68.7778 274.671 67.531 274.58 66.29C273.764 66.4525 272.918 66.3689 272.15 66.05C271.072 65.5924 270.185 64.7763 269.64 63.74C269 65.3043 268.833 67.0219 269.16 68.68ZM271.82 61.83C271.68 61.8568 271.549 61.9188 271.44 62.01C271.299 62.1614 271.201 62.3482 271.157 62.5506C271.113 62.753 271.124 62.9636 271.19 63.16C271.212 63.2589 271.242 63.3559 271.28 63.45C271.413 63.7672 271.615 64.051 271.871 64.281C272.127 64.5109 272.43 64.6814 272.76 64.78C273.26 64.9844 273.806 65.0501 274.34 64.97C274.22 64.5134 274.059 64.0683 273.86 63.64C273.27 62.34 272.59 61.73 271.82 61.83Z" fill="#263238"/>
<path d="M300.36 44.2099C300.36 44.2099 326.04 89.01 331.82 86.7C339.28 83.7 350.82 34.7 350.82 34.7C350.82 34.7 304.88 43.5199 300.36 44.2099Z" fill="#E50019"/>
<g opacity="0.3">
<path d="M300.36 44.2099C300.36 44.2099 326.04 89.01 331.82 86.7C339.28 83.7 350.82 34.7 350.82 34.7C350.82 34.7 304.88 43.5199 300.36 44.2099Z" fill="white"/>
</g>
<path d="M334.5 62.92C334.529 63.0053 334.541 63.0956 334.533 63.1854C334.526 63.2753 334.501 63.3627 334.459 63.4423C334.417 63.522 334.359 63.5921 334.288 63.6485C334.218 63.7048 334.137 63.7462 334.05 63.77C333.926 63.8051 333.794 63.8051 333.67 63.77C333.536 63.7242 333.417 63.6451 333.322 63.5401C333.228 63.4351 333.161 63.3077 333.13 63.17C333.13 63.0834 332.683 60.75 331.79 56.17C331.35 59.32 331 61.81 330.79 63.63C330.74 64.02 330.71 64.23 330.7 64.28C330.689 64.4291 330.637 64.572 330.548 64.6924C330.46 64.8128 330.339 64.9056 330.2 64.96H330.04C329.898 64.9624 329.758 64.9264 329.635 64.8561C329.512 64.7857 329.41 64.6834 329.34 64.56L325.71 58.03C326.183 60.6367 326.577 63.0367 326.89 65.23C326.921 65.3146 326.933 65.4046 326.927 65.4943C326.92 65.5839 326.895 65.6712 326.852 65.7505C326.81 65.8297 326.751 65.8992 326.68 65.9542C326.609 66.0093 326.527 66.0487 326.44 66.07C326.32 66.1097 326.19 66.1097 326.07 66.07C325.934 66.0302 325.811 65.9543 325.714 65.8505C325.617 65.7467 325.55 65.6187 325.52 65.48C325.52 65.42 324.96 62.35 323.89 56.25C323.62 54.67 323.47 53.82 323.45 53.7C323.435 53.5973 323.435 53.4928 323.45 53.39C323.478 53.267 323.539 53.1542 323.628 53.0641C323.716 52.974 323.828 52.9103 323.95 52.88H324.14C324.242 52.867 324.345 52.8837 324.437 52.9281C324.529 52.9724 324.607 53.0426 324.66 53.13C324.96 53.7 325.88 55.38 327.41 58.13L329.54 62.02L331.03 51.34C331.022 51.2736 331.022 51.2064 331.03 51.14C331.07 51.0254 331.136 50.9216 331.223 50.8366C331.309 50.7516 331.415 50.6878 331.53 50.65C331.702 50.606 331.885 50.6264 332.043 50.7074C332.202 50.7885 332.325 50.9245 332.39 51.09C332.39 51.25 332.45 51.44 332.5 51.66C333.74 58.34 334.41 62.08 334.5 62.92Z" fill="#263238"/>
<path d="M353.73 33.92C353.73 33.92 382.73 76.65 388.32 73.92C395.53 70.39 403.32 20.65 403.32 20.65C403.32 20.65 358.19 32.89 353.73 33.92Z" fill="#E50019"/>
<path d="M377.91 41.02L383.04 38.96C383.14 38.9236 383.244 38.9 383.35 38.89C383.497 38.8706 383.646 38.9029 383.772 38.9814C383.898 39.0598 383.993 39.1795 384.04 39.32C384.059 39.4089 384.059 39.5011 384.04 39.59C384.027 39.7342 383.977 39.8727 383.894 39.9918C383.812 40.111 383.7 40.2068 383.57 40.27L378.96 42.11L380.13 46.7L383.5 45.34C383.625 45.2926 383.757 45.2689 383.89 45.27C384.029 45.2678 384.166 45.309 384.28 45.3878C384.395 45.4667 384.482 45.5793 384.53 45.71C384.544 45.786 384.544 45.864 384.53 45.94C384.521 46.0894 384.472 46.2336 384.388 46.3569C384.303 46.4803 384.186 46.5782 384.05 46.64L380.5 48.08L381.65 52.34L386.2 50.52C386.314 50.4698 386.436 50.4426 386.56 50.44C386.738 50.4394 386.91 50.5059 387.042 50.6263C387.174 50.7467 387.255 50.9123 387.27 51.09C387.27 51.2426 387.225 51.3918 387.142 51.5195C387.058 51.6473 386.94 51.7482 386.8 51.81L381.5 53.97C381.366 54.0092 381.224 54.0092 381.09 53.97C380.956 53.9363 380.832 53.8691 380.73 53.7747C380.629 53.6803 380.553 53.5617 380.51 53.43C380.51 53.35 379.51 49.49 377.51 41.85C377.495 41.7673 377.495 41.6827 377.51 41.6C377.511 41.4745 377.55 41.3522 377.621 41.2489C377.693 41.1455 377.793 41.0658 377.91 41.02Z" fill="#263238"/>
<path d="M26.27 25.4C26.27 25.4 31.43 76.78 37.65 77.04C45.67 77.34 76.2 37.34 76.2 37.34C76.2 37.34 30.68 26.61 26.27 25.4Z" fill="#E50019"/>
<path d="M41.84 43.42C41.9539 43.4318 42.0618 43.4771 42.15 43.55C42.2476 43.621 42.3242 43.717 42.3717 43.8279C42.4192 43.9388 42.4359 44.0605 42.42 44.18C41.9 46.01 41.5 47.45 41.21 48.49C40.5 51.02 40.13 52.49 40.07 52.82C39.85 54.28 40.07 55.06 40.84 55.18C41.4634 55.2691 42.0989 55.2179 42.7 55.03C42.6188 54.204 42.639 53.3712 42.76 52.55C42.8488 51.9204 42.9858 51.2986 43.17 50.69C43.75 48.85 44.68 48.03 45.95 48.22C46.4345 48.2832 46.8792 48.5215 47.2 48.89C47.4119 49.1513 47.5632 49.4564 47.6427 49.7833C47.7223 50.1101 47.7282 50.4506 47.66 50.78C47.66 50.97 47.59 51.18 47.54 51.38C47.2165 52.6796 46.5539 53.8701 45.62 54.83C45.2947 55.211 44.9055 55.5325 44.47 55.78C44.47 55.94 44.64 56.04 44.91 56.08C45.6104 56.1378 46.3146 56.0304 46.9659 55.7664C47.6173 55.5024 48.1975 55.0892 48.66 54.56C49.8378 53.3651 50.7988 51.9743 51.5 50.45C50.6041 50.3204 49.7734 49.9068 49.13 49.27C48.8166 48.9261 48.5874 48.5139 48.4607 48.0661C48.334 47.6184 48.3132 47.1472 48.4 46.69C48.4541 46.3457 48.5822 46.0171 48.7756 45.7271C48.969 45.4371 49.2229 45.1924 49.52 45.01C50.0355 44.6784 50.6532 44.5435 51.26 44.63C51.6246 44.6756 51.9765 44.7926 52.2957 44.9745C52.6149 45.1564 52.895 45.3996 53.12 45.69C53.3741 46.0429 53.5532 46.4442 53.646 46.8691C53.7389 47.2939 53.7437 47.7333 53.66 48.16C53.66 48.38 53.56 48.74 53.44 49.23C53.5713 49.2198 53.7017 49.1998 53.83 49.17C54.2539 49.0838 54.6665 48.9496 55.06 48.77C55.321 48.6313 55.6147 48.5656 55.91 48.58C55.9994 48.5913 56.0832 48.6297 56.15 48.69C56.2449 48.7575 56.3181 48.8511 56.3607 48.9594C56.4033 49.0677 56.4135 49.186 56.39 49.3C56.34 49.64 56 49.93 55.39 50.17C54.5986 50.4696 53.7557 50.6089 52.91 50.58C52.2061 52.2932 51.1887 53.86 49.91 55.2C49.2445 55.979 48.3972 56.5819 47.443 56.9551C46.4889 57.3284 45.4575 57.4606 44.44 57.34H44.28C43.7649 57.2262 43.3156 56.9135 43.03 56.47C42.158 56.7619 41.2288 56.8408 40.32 56.7C39.8506 56.6391 39.42 56.4078 39.11 56.05C38.8017 55.5651 38.5979 55.021 38.5118 54.4528C38.4257 53.8846 38.4592 53.3046 38.61 52.75C38.8332 51.3916 39.1677 50.0537 39.61 48.75C40.12 47.17 40.46 46.05 40.61 45.39C39.99 45.67 39.5 45.88 39.14 46.03C38.8086 46.2068 38.4506 46.3284 38.08 46.39C37.9874 46.3793 37.898 46.3496 37.8174 46.3028C37.7367 46.2561 37.6666 46.1932 37.6113 46.1182C37.5559 46.0432 37.5166 45.9576 37.4957 45.8667C37.4749 45.7759 37.4729 45.6817 37.49 45.59C37.5207 45.4603 37.5821 45.3399 37.6691 45.2389C37.7562 45.138 37.8662 45.0595 37.99 45.01L38.21 44.91C39.3482 44.2538 40.569 43.7527 41.84 43.42ZM44.02 54.34C44.2681 54.1932 44.4938 54.0113 44.69 53.8C45.5016 52.9888 46.028 51.9361 46.19 50.8C46.19 50.74 46.19 50.69 46.19 50.64C46.19 50.16 46.05 49.89 45.64 49.83C45.23 49.77 45.04 50.04 44.75 50.56C44.3981 51.2981 44.1685 52.0884 44.07 52.9C44.0144 53.3779 43.9977 53.8595 44.02 54.34ZM49.79 47.16C49.7448 47.4192 49.7725 47.6857 49.87 47.93C50.14 48.61 50.87 49.03 52.05 49.21C52.1946 48.7999 52.3049 48.3784 52.38 47.95C52.415 47.708 52.415 47.4621 52.38 47.22C52.3582 46.9551 52.2476 46.7053 52.0661 46.5111C51.8846 46.3169 51.6429 46.1897 51.38 46.15C51.1079 46.0999 50.8271 46.1277 50.57 46.23C50.3702 46.2946 50.1919 46.4126 50.0544 46.5712C49.9169 46.7299 49.8255 46.9231 49.79 47.13V47.16Z" fill="#263238"/>
<path d="M451.58 4.34C451.58 4.34 451.17 4.52 450.37 4.84L446.82 6.25L441.04 8.54L437.35 9.99L433.11 11.53L423.11 15.16L411.11 19.16C408.96 19.91 406.72 20.58 404.4 21.29L397.24 23.49C396.02 23.87 394.77 24.26 393.5 24.63L389.64 25.72L381.64 27.97C355.836 34.9527 329.631 40.3593 303.17 44.16C288.17 46.23 272.47 47.98 256.09 49.16C239.71 50.34 222.71 50.87 205.3 50.8L192.3 50.64L179.5 50.17L176.33 50.05L173.17 49.86L166.89 49.47L160.66 49.09L154.5 48.57C150.41 48.19 146.35 47.93 142.34 47.47L130.44 46.16C126.52 45.71 122.65 45.16 118.82 44.63L113.11 43.85L107.49 42.95C92.56 40.71 78.49 37.75 65.41 34.88C52.35 31.8 40.23 28.69 29.31 25.4L21.31 23.01C18.71 22.25 16.22 21.36 13.77 20.57C8.89 18.96 4.26 17.5 0.0200043 15.91C-4.21999 14.32 -8.23001 12.99 -11.85 11.59L-21.74 7.71C-23.22 7.12 -24.63 6.59 -25.94 6.04L-29.58 4.49L-35.31 2.04L-38.81 0.53C-39.6 0.19 -40 0 -40 0C-40 0 -39.59 0.15 -38.79 0.48L-35.26 1.94C-33.71 2.59 -31.8 3.4 -29.53 4.34L-25.88 5.88C-24.57 6.42 -23.16 6.94 -21.67 7.52L-11.78 11.34C-8.15 12.72 -4.16 14.08 0.100006 15.62C4.36001 17.16 8.98 18.62 13.86 20.24C16.31 21.02 18.8 21.9 21.41 22.65L29.41 25.03C40.34 28.34 52.5 31.39 65.5 34.46C78.61 37.31 92.64 40.25 107.56 42.46L113.18 43.36L118.89 44.13C122.72 44.63 126.58 45.21 130.5 45.66L142.39 46.96C146.39 47.41 150.46 47.68 154.54 48.05L160.7 48.57L166.92 48.95L173.2 49.33L176.35 49.52L179.52 49.64L192.32 50.11L205.32 50.27C222.72 50.34 239.71 49.74 256.08 48.64C272.45 47.54 288.18 45.7 303.08 43.64C329.519 39.8727 355.707 34.513 381.5 27.59L389.5 25.35L393.5 24.27L397.24 23.15L404.4 20.97C406.72 20.26 408.96 19.59 411.11 18.86L423.11 14.86L433.11 11.27L437.36 9.75L441.06 8.32L446.85 6.09L450.42 4.72L451.58 4.34Z" fill="#455A64"/>
</svg>
